<svg xmlns="http://www.w3.org/2000/svg" width="91.22" height="86" viewBox="0 0 91.22 86">
  <g id="Grupo_882876" data-name="Grupo 882876" transform="translate(-289.288 -5818.351)">
    <g id="Componente_1_1" data-name="Componente 1 – 1" transform="translate(291.999 5818.351)">
      <path id="Trazado_275274" data-name="Trazado 275274" d="M43,0A43,43,0,1,1,0,43,43,43,0,0,1,43,0Z" fill="#9dd2f5"/>
      <path id="Trazado_275275" data-name="Trazado 275275" d="M66.378,65.736c4.806,3.445,12.207,3.607,15-1.252,1.855-3.23-.033-7.638-1.846-10.656A40.852,40.852,0,0,0,66.378,65.736Z" transform="translate(-57.227 -48.366)" fill="#8ab3e8"/>
      <path id="Trazado_275276" data-name="Trazado 275276" d="M408.784,113.73a40.549,40.549,0,0,0-13.765-30.487c-1.654,2.193-2.149,5.7-1.155,10.494,1.991,9.6-10.9,11.639-2.821,21.913,4.216,5.364,11.414,5.393,17.276,4.223a40.933,40.933,0,0,0,.465-6.142Z" transform="translate(-322.783 -71.901)" fill="#8ab3e8"/>
    </g>
    <g id="Grupo_881117" data-name="Grupo 881117" transform="translate(-307.045 4633.949)">
      <rect id="Rectángulo_295133" data-name="Rectángulo 295133" width="50.721" height="10.934" transform="translate(633.662 1230.547)" fill="#ffcb39"/>
      <rect id="Rectángulo_295134" data-name="Rectángulo 295134" width="3.17" height="20.192" transform="translate(684.383 1230.547)" fill="#333"/>
      <path id="Trazado_273649" data-name="Trazado 273649" d="M1987.124,1739.924h-1.191a27.561,27.561,0,0,1,.2,3.348v9.166h.988a3.321,3.321,0,0,0,3.321-3.321v-5.873A3.321,3.321,0,0,0,1987.124,1739.924Z" transform="translate(-1344.447 -523.675)" fill="#333"/>
      <path id="Trazado_273650" data-name="Trazado 273650" d="M652.384,1198.662h0a21.409,21.409,0,0,0-21.409,21.41v15.988a5.421,5.421,0,0,0,5.421,5.421h31.977a5.421,5.421,0,0,0,5.421-5.421v-15.988A21.409,21.409,0,0,0,652.384,1198.662Z" transform="translate(-33.515)" fill="#333"/>
      <circle id="Elipse_5890" data-name="Elipse 5890" cx="13.507" cy="13.507" r="13.507" transform="translate(605.361 1206.564)" fill="#ffcb39"/>
      <circle id="Elipse_5891" data-name="Elipse 5891" cx="7.351" cy="7.351" r="7.351" transform="translate(611.517 1212.721)" fill="#fff"/>
      <path id="Trazado_273651" data-name="Trazado 273651" d="M598.791,2158.506v-4.927a1.229,1.229,0,0,0-1.229-1.229h0a1.229,1.229,0,0,0-1.229,1.229v5.45a6.277,6.277,0,0,0,6.277,6.277h5.45a1.229,1.229,0,0,0,1.229-1.229h0a1.229,1.229,0,0,0-1.229-1.229h-4.927A4.342,4.342,0,0,1,598.791,2158.506Z" transform="translate(0 -922.699)" fill="#ffcb39"/>
      <path id="Trazado_273652" data-name="Trazado 273652" d="M1510.562,2379.283h-7.81a.8.8,0,0,0-.8.8h0a.8.8,0,0,0,.8.8h7.81a.8.8,0,0,0,.8-.8h0A.8.8,0,0,0,1510.562,2379.283Z" transform="translate(-876.188 -1142.258)" fill="#333"/>
      <rect id="Rectángulo_295135" data-name="Rectángulo 295135" width="0.735" height="4.043" transform="translate(642.644 1230.547)" fill="#333"/>
      <rect id="Rectángulo_295136" data-name="Rectángulo 295136" width="0.735" height="8.086" transform="translate(645.63 1230.547)" fill="#333"/>
      <rect id="Rectángulo_295137" data-name="Rectángulo 295137" width="0.735" height="4.043" transform="translate(648.616 1230.547)" fill="#333"/>
      <rect id="Rectángulo_295138" data-name="Rectángulo 295138" width="0.735" height="4.043" transform="translate(651.603 1230.547)" fill="#333"/>
      <rect id="Rectángulo_295139" data-name="Rectángulo 295139" width="0.735" height="8.086" transform="translate(654.589 1230.547)" fill="#333"/>
      <rect id="Rectángulo_295140" data-name="Rectángulo 295140" width="0.735" height="4.043" transform="translate(657.575 1230.547)" fill="#333"/>
      <rect id="Rectángulo_295141" data-name="Rectángulo 295141" width="0.735" height="4.043" transform="translate(660.562 1230.547)" fill="#333"/>
      <rect id="Rectángulo_295142" data-name="Rectángulo 295142" width="0.735" height="8.086" transform="translate(663.548 1230.547)" fill="#333"/>
      <rect id="Rectángulo_295143" data-name="Rectángulo 295143" width="0.735" height="4.043" transform="translate(666.534 1230.547)" fill="#333"/>
      <rect id="Rectángulo_295144" data-name="Rectángulo 295144" width="0.735" height="4.043" transform="translate(669.521 1230.547)" fill="#333"/>
      <rect id="Rectángulo_295145" data-name="Rectángulo 295145" width="0.735" height="8.086" transform="translate(672.507 1230.547)" fill="#333"/>
      <rect id="Rectángulo_295146" data-name="Rectángulo 295146" width="0.735" height="4.043" transform="translate(675.493 1230.547)" fill="#333"/>
      <rect id="Rectángulo_295147" data-name="Rectángulo 295147" width="0.735" height="4.043" transform="translate(678.479 1230.547)" fill="#333"/>
      <rect id="Rectángulo_295148" data-name="Rectángulo 295148" width="0.735" height="8.086" transform="translate(681.466 1230.547)" fill="#333"/>
    </g>
  </g>
</svg>
