<svg xmlns="http://www.w3.org/2000/svg" width="85" height="85" viewBox="0 0 85 85">
  <g id="Grupo_882878" data-name="Grupo 882878" transform="translate(-192.5 -1728.749)">
    <circle id="Elipse_6004" data-name="Elipse 6004" cx="42.5" cy="42.5" r="42.5" transform="translate(192.5 1728.749)" fill="#e26c1e"/>
    <path id="Icon_material-face" data-name="Icon material-face" d="M23.05,30.927a3.58,3.58,0,1,0,3.58,3.58A3.582,3.582,0,0,0,23.05,30.927Zm17.186,0a3.58,3.58,0,1,0,3.58,3.58A3.582,3.582,0,0,0,40.236,30.927ZM31.643,3A28.643,28.643,0,1,0,60.286,31.643,28.654,28.654,0,0,0,31.643,3Zm0,51.558A22.945,22.945,0,0,1,8.729,31.643a23.223,23.223,0,0,1,.143-2.463A28.82,28.82,0,0,0,23.795,13.8,28.569,28.569,0,0,0,47.168,25.914a27.957,27.957,0,0,0,6.445-.745A22.879,22.879,0,0,1,31.643,54.558Z" transform="translate(202.264 1739.729)" fill="#fff"/>
  </g>
</svg>
