<svg xmlns="http://www.w3.org/2000/svg" width="85" height="85" viewBox="0 0 85 85">
  <g id="Grupo_882880" data-name="Grupo 882880" transform="translate(-192.5 -2156.749)">
    <circle id="Elipse_6004" data-name="Elipse 6004" cx="42.5" cy="42.5" r="42.5" transform="translate(192.5 2156.749)" fill="#e26c1e"/>
    <path id="Icon_material-airline-seat-legroom-extra" data-name="Icon material-airline-seat-legroom-extra" d="M7.463,24.583V4.5H3V24.583A11.161,11.161,0,0,0,14.157,35.74H27.546V31.277H14.157A6.685,6.685,0,0,1,7.463,24.583ZM49.48,36.275a3.471,3.471,0,0,0-4.53-1.406l-2.432,1.116L34.909,20.41a4.484,4.484,0,0,0-3.994-2.5l-7.832-.022V4.5H9.694V22.351a6.685,6.685,0,0,0,6.694,6.694h15.62l7.609,15.62,8.3-3.793a3.365,3.365,0,0,0,1.562-4.6Z" transform="translate(209.358 2176.729)" fill="#fff"/>
  </g>
</svg>
