<svg xmlns="http://www.w3.org/2000/svg" xmlns:xlink="http://www.w3.org/1999/xlink" width="277.973" height="277.973" viewBox="0 0 277.973 277.973">
  <defs>
    <clipPath id="clip-path">
      <path id="Trazado_296654" data-name="Trazado 296654" d="M138.987,0A138.987,138.987,0,1,1,0,138.987,138.987,138.987,0,0,1,138.987,0Z" transform="translate(13.364 -22.677)" fill="#ece5a2"/>
    </clipPath>
  </defs>
  <g id="Grupo_879551" data-name="Grupo 879551" transform="translate(-608.364 283)">
    <g id="Grupo_879552" data-name="Grupo 879552">
      <g id="Grupo_879546" data-name="Grupo 879546">
        <g id="Grupo_882301" data-name="Grupo 882301" transform="translate(595 -283)">
          <path id="Trazado_296650" data-name="Trazado 296650" d="M138.987,0A138.987,138.987,0,1,1,0,138.987,138.987,138.987,0,0,1,138.987,0Z" transform="translate(13.364)" fill="#ece5a2"/>
          <circle id="Elipse_5978" data-name="Elipse 5978" cx="89" cy="89" r="89" transform="translate(70.062 44.186)" fill="#bebc87"/>
          <g id="Grupo_879545" data-name="Grupo 879545" transform="translate(0 22.677)">
            <g id="Grupo_882300" data-name="Grupo 882300">
              <g id="Grupo_879540" data-name="Grupo 879540">
                <g id="Grupo_882294" data-name="Grupo 882294" transform="translate(144.837 135.682)">
                  <g id="Grupo_879499" data-name="Grupo 879499" transform="translate(0 47.944) rotate(-90)">
                    <path id="Trazado_273803" data-name="Trazado 273803" d="M47.914,23.585c-.156,5.727-.308,8.955-3.371,10.1s-11.021.68-11.783,1.3c-.6.477-.547,11.852-.5,16.83.013,1.405.028,2.3.028,2.3l-16.678.538s.156-16.913,0-17.68-8.045.767-12.67-1.837S1.074,22.276,0,16.536l6.521-1.612s-.051,2.861-.046,6.1c0,3.747.087,8,.414,8.9.615,1.681,7.347,1.222,8.422.919.12-.032.216-.358.294-.914.643-4.514.138-24.411.078-29.931h16.61s.1,5.418.188,10.9c.069,4.073.124,8.188.124,10.143,0,3.747-.078,5.557.3,6.347a.876.876,0,0,0,.331.39c.744.459,7.173,0,8.55-.459s.767-24.738.767-24.738,5.051-.978,5.051-.519c0,.216.1,3.738.193,8C47.9,14.846,47.992,20.559,47.914,23.585Z" fill="#714c1f"/>
                    <path id="Trazado_273804" data-name="Trazado 273804" d="M14.892,8.122a4.928,4.928,0,0,1-2.2.5c-1.469-.12-.781,14.69-1.7,16.757S2.494,27.468,1.116,27A1.944,1.944,0,0,1,0,25.448a.876.876,0,0,0,.331.39c.744.459,7.173,0,8.55-.459S9.648.642,9.648.642,14.7-.336,14.7.122C14.7.338,14.8,3.861,14.892,8.122Z" transform="translate(32.906 1.944)" fill="#381b03" opacity="0.38"/>
                    <path id="Trazado_273805" data-name="Trazado 273805" d="M32.264,51.807c.013,1.405.028,2.3.028,2.3l-16.678.538s.156-16.913,0-17.68-8.045.767-12.67-1.837S1.074,22.276,0,16.536l6.521-1.612s-.051,2.861-.046,6.1a3.714,3.714,0,0,1-1.313-.712,9.236,9.236,0,0,1-2.218,1.157c-1.3.459-1.043,8.725.436,11.365s12.4,1.956,12.4,1.956a25.22,25.22,0,0,0-.175-4.858c.643-4.514.138-24.411.078-29.931h16.61s.1,5.418.188,10.9c-1.226.137-3.141-.161-4.771-2.64a13.136,13.136,0,0,1-3.738,2.879,21.49,21.49,0,0,0-3.151,1.534c-.574.413.115,37.237,0,38.169C20.742,51.463,27.649,51.711,32.264,51.807Z" fill="#381b03" opacity="0.38"/>
                  </g>
                </g>
                <g id="Grupo_882299" data-name="Grupo 882299" transform="translate(176.541 127.546)">
                  <g id="Grupo_879499-2" data-name="Grupo 879499" transform="translate(0 56.081) rotate(-90)">
                    <path id="Trazado_273803-2" data-name="Trazado 273803" d="M56.046,27.587c-.183,6.7-.36,10.475-3.943,11.812s-12.892.8-13.783,1.515c-.7.558-.639,13.864-.58,19.686.016,1.644.032,2.691.032,2.691l-19.509.629s.183-19.783,0-20.681-9.411.9-14.82-2.148S1.257,26.057,0,19.342l7.628-1.885S7.568,20.8,7.574,24.59c.005,4.383.1,9.357.484,10.415.719,1.966,8.594,1.429,9.851,1.075.14-.038.253-.419.343-1.069C19,29.731,18.414,6.457,18.344,0H37.773s.118,6.338.22,12.752c.08,4.764.145,9.577.145,11.865,0,4.383-.092,6.5.354,7.424a1.025,1.025,0,0,0,.387.456c.87.537,8.39,0,10-.537s.9-28.936.9-28.936,5.909-1.144,5.909-.607c0,.252.118,4.373.225,9.357C56.035,17.366,56.137,24.048,56.046,27.587Z" fill="#714c1f"/>
                    <path id="Trazado_273804-2" data-name="Trazado 273804" d="M17.42,9.5a5.765,5.765,0,0,1-2.578.585c-1.719-.14-.913,17.183-1.988,19.6S2.917,32.131,1.305,31.577A2.274,2.274,0,0,1,0,29.767a1.025,1.025,0,0,0,.387.456c.87.537,8.39,0,10-.537s.9-28.936.9-28.936S17.195-.393,17.195.143C17.195.4,17.313,4.516,17.42,9.5Z" transform="translate(38.492 2.274)" fill="#381b03" opacity="0.38"/>
                    <path id="Trazado_273805-2" data-name="Trazado 273805" d="M37.74,60.6c.016,1.644.032,2.691.032,2.691l-19.509.629s.183-19.783,0-20.681-9.411.9-14.82-2.148S1.257,26.057,0,19.342l7.628-1.885S7.568,20.8,7.574,24.59a4.344,4.344,0,0,1-1.536-.833,10.8,10.8,0,0,1-2.594,1.353c-1.515.537-1.22,10.206.51,13.294s14.5,2.288,14.5,2.288a29.5,29.5,0,0,0-.2-5.683C19,29.731,18.414,6.457,18.344,0H37.773s.118,6.338.22,12.752c-1.435.161-3.674-.188-5.581-3.089a15.366,15.366,0,0,1-4.372,3.368,25.138,25.138,0,0,0-3.685,1.794c-.671.483.135,43.557,0,44.647C24.263,60.2,32.342,60.488,37.74,60.6Z" fill="#381b03" opacity="0.38"/>
                  </g>
                </g>
                <path id="Trazado_273867" data-name="Trazado 273867" d="M143.941,555.31a2.466,2.466,0,0,1,3.093,0,3.291,3.291,0,0,1,1.289,3.37s1.289-1.971,3.223-1.49a2.794,2.794,0,0,1,1.971,2.621" transform="translate(14.801 -451.087)" fill="none" stroke="#4b4b4a" stroke-miterlimit="10" stroke-width="1.412"/>
                <path id="Trazado_273868" data-name="Trazado 273868" d="M283.122,469.514a3.908,3.908,0,0,1,2.2-2.935,5.3,5.3,0,0,1,4.188.392,3.144,3.144,0,0,1,2.05-3.572c2.569-.857,3.667.611,3.667.611" transform="translate(-147.554 -438.652)" fill="none" stroke="#4b4b4a" stroke-miterlimit="10" stroke-width="1.34"/>
                <path id="Trazado_296652" data-name="Trazado 296652" d="M283.122,469.514a3.908,3.908,0,0,1,2.2-2.935,5.3,5.3,0,0,1,4.188.392,3.144,3.144,0,0,1,2.05-3.572c2.569-.857,3.667.611,3.667.611" transform="translate(-70.763 -363.308)" fill="none" stroke="#4b4b4a" stroke-miterlimit="10" stroke-width="1.34"/>
                <path id="Trazado_296653" data-name="Trazado 296653" d="M283.122,469.514a3.908,3.908,0,0,1,2.2-2.935,5.3,5.3,0,0,1,4.188.392,3.144,3.144,0,0,1,2.05-3.572c2.569-.857,3.667.611,3.667.611" transform="translate(-35.636 -353.308)" fill="none" stroke="#4b4b4a" stroke-miterlimit="10" stroke-width="1.34"/>
                <path id="Trazado_273869" data-name="Trazado 273869" d="M263.016,512.868a3.868,3.868,0,0,1,3.473-1.055,5.249,5.249,0,0,1,3.112,2.761,3.11,3.11,0,0,1,3.725-1.652c2.55.819,2.568,2.632,2.568,2.632" transform="translate(-143.603 -448.203)" fill="none" stroke="#4b4b4a" stroke-miterlimit="10" stroke-width="1.478"/>
                <path id="Trazado_296651" data-name="Trazado 296651" d="M263.016,512.868a3.868,3.868,0,0,1,3.473-1.055,5.249,5.249,0,0,1,3.112,2.761,3.11,3.11,0,0,1,3.725-1.652c2.55.819,2.568,2.632,2.568,2.632" transform="translate(-69.972 -432.203)" fill="none" stroke="#4b4b4a" stroke-miterlimit="10" stroke-width="1.478"/>
                <g id="Grupo_879526" data-name="Grupo 879526" transform="translate(38.502 4.732)">
                  <path id="Trazado_273870" data-name="Trazado 273870" d="M166.443,477.644c-7.3,0-3.835-8.316,2.009-5.984,0,0-4.806-6.972,2.009-11.182,6.209-3.835,12.723,2.374,12.723,2.374s-1.4-14.061,9.008-14.061,10.044,12.417,10.044,12.417,4.383-6.208,9.5-3.469,2.739,9.678,2.739,9.678,9.861-1.461,11.139,3.469-2.557,5.991-6.026,5.991S166.443,477.644,166.443,477.644Z" transform="translate(-162.312 -440.566)" fill="#ddded2"/>
                  <path id="Trazado_273871" data-name="Trazado 273871" d="M289.064,494.893c-5.81,0-4.949-5.84-.723-6.388a11.632,11.632,0,0,1,7.148,1.278s-3.1-5.365,1.1-7.522,6.574,2.39,6.574,2.39.183-10.39,8.4-8.93,4.93,10.269,4.93,10.269,2.739-2.819,6.209-1.339,1.526,5.132,1.526,5.132,6.881-2.191,7.79,1.826-6.029,3.284-8.22,3.284Z" transform="translate(-186.414 -445.831)" fill="#ddded2"/>
                  <path id="Trazado_273872" data-name="Trazado 273872" d="M381.5,461.93c-10.564,0-10.2-3.834-8.19-6.026s6.391-2.557,10.226-.913c0,0-2.192-3.47,0-5.113s4.93,0,4.93,0-2.446-11.14,6.539-11.322,7.34,11.687,7.34,11.687,3.1-2.921,6.756-1.278a4.239,4.239,0,0,1,2.374,5.3s7.179-3.835,11.442-.366-.121,8.035-4.686,8.035Z" transform="translate(-203.563 -438.553)" fill="#ddded2"/>
                </g>
                <g id="Grupo_879471" data-name="Grupo 879471" transform="translate(23.742 103.688)">
                  <path id="Trazado_273705" data-name="Trazado 273705" d="M257.893,583.4c-.044.366-.088.723-.132,1.081-.007.1-.029.2-.044.306-.606,4.456-1.6,8.123-2.936,8.985-3.411,2.191-22.644,2.439-25.814-.628s-5.12-22.344-2.14-27.129c1.315-2.111,4.952-3.383,9.284-3.952,8.641-1.132,20.051.548,21.344,3.952C258.564,568.92,258.645,576.765,257.893,583.4Z" transform="translate(-225.352 -561.717)" fill="#abc24b"/>
                  <path id="Trazado_273709" data-name="Trazado 273709" d="M257.717,584.878c-.606,4.456-1.6,8.123-2.936,8.985-3.411,2.191-22.644,2.439-25.814-.628s-5.12-22.344-2.14-27.129c1.315-2.112,4.952-3.383,9.284-3.952.044.037.066.059.066.059s-7.67-.073-6.494,14.85,11.4,15.829,18.341,15.829C254.3,592.892,256.972,589.173,257.717,584.878Z" transform="translate(-225.352 -561.803)" fill="#006b3c" opacity="0.28"/>
                  <path id="Trazado_273710" data-name="Trazado 273710" d="M242.906,619.546l.974-27.776-5.844-3.94c0-1.351,5.844.587,5.844.587v-5.853l-4.626-2.277.243-.772,3.9.772.487-9.878H245.1l.974,15.826,5.113-3.535.974.613-5.357,5.1,2.506,30.932Z" transform="translate(-227.845 -563.425)" fill="#714c1f"/>
                </g>
                <g id="Grupo_882295" data-name="Grupo 882295" transform="translate(84.742 89.967)">
                  <path id="Trazado_273705-2" data-name="Trazado 273705" d="M265.849,588.707c-.055.455-.109.9-.164,1.346-.009.127-.036.254-.055.381-.754,5.545-1.991,10.109-3.654,11.182-4.246,2.727-28.18,3.036-32.126-.782s-6.372-27.807-2.664-33.762c1.637-2.628,6.163-4.21,11.554-4.919,10.754-1.409,24.953.682,26.562,4.919C266.685,570.681,266.785,580.444,265.849,588.707Z" transform="translate(-225.352 -561.717)" fill="#abc24b"/>
                  <path id="Trazado_273709-2" data-name="Trazado 273709" d="M265.63,590.434c-.754,5.545-1.991,10.109-3.654,11.182-4.246,2.727-28.18,3.036-32.126-.782s-6.372-27.807-2.664-33.762c1.637-2.628,6.163-4.21,11.554-4.919.055.046.082.073.082.073s-9.545-.091-8.081,18.481,14.19,19.7,22.826,19.7C261.376,600.407,264.7,595.78,265.63,590.434Z" transform="translate(-225.352 -561.717)" fill="#006b3c" opacity="0.28"/>
                  <path id="Trazado_273710-2" data-name="Trazado 273710" d="M244.1,631.56l1.212-34.568-7.272-4.9c0-1.681,7.272.731,7.272.731v-7.284l-5.757-2.834.3-.961,4.849.961.606-12.293h1.516l1.212,19.7,6.363-4.4,1.212.763-6.666,6.351,3.119,38.5Z" transform="translate(-225.353 -561.718)" fill="#714c1f"/>
                </g>
                <g id="Grupo_882293" data-name="Grupo 882293" transform="matrix(0.259, -0.966, 0.966, 0.259, 141.62, 154.993)">
                  <path id="Trazado_273710-3" data-name="Trazado 273710" d="M6.447,65.054,7.736,28.28,0,23.064c0-1.788,7.736.778,7.736.778V16.092L1.612,13.077l.322-1.022,5.158,1.022L7.736,0H9.349l1.289,20.953,6.77-4.68,1.289.812-7.092,6.757,3.318,40.952Z" fill="#be8239"/>
                </g>
                <g id="Grupo_882298" data-name="Grupo 882298" transform="matrix(0.259, -0.966, 0.966, 0.259, 172.778, 150.134)">
                  <path id="Trazado_273710-4" data-name="Trazado 273710" d="M7.541,76.1,9.05,33.08,0,26.978c0-2.092,9.05.91,9.05.91V18.823L1.885,15.3l.377-1.2L8.3,15.3,9.05,0h1.886l1.508,24.509,7.919-5.475,1.508.949-8.3,7.9,3.881,47.9Z" transform="translate(0 0)" fill="#be8239"/>
                </g>
                <g id="Grupo_879478" data-name="Grupo 879478" transform="translate(42.428 63.308)">
                  <g id="Grupo_879472" data-name="Grupo 879472" transform="translate(23.254 30.564)">
                    <path id="Trazado_273711" data-name="Trazado 273711" d="M302.551,616.211c0-.73,2.68-19.386,2.68-31.117,0,0-6.128.709-7.085-1.373s-1.928-10.116-1.928-10.116h1.928s.693,2.651,1.424,4.894a14.669,14.669,0,0,0,1.154,2.892c.636.905,2.8.877,3.879.8.379-.022.628-.059.628-.059s.241-23.622,0-32.629h2.433s.38,4.733.664,10.606c.11,2.323.212,4.835.263,7.29.03,1.286.044,2.549.044,3.776,0,1.724.08,4.069.212,6.793.4,8.013,1.263,19.313,1.928,27.823.35,4.507.643,8.225.781,10.27Z" transform="translate(-296.218 -549.499)" fill="#a27f7b"/>
                    <path id="Trazado_273712" data-name="Trazado 273712" d="M302.551,616.211c0-.73,2.68-19.386,2.68-31.117,0,0-6.128.709-7.085-1.373s-1.928-10.116-1.928-10.116h1.928s.693,2.651,1.424,4.894c-.292.095-.6.19-.914.277,0,0-.709,5.865,5.946,5v-1.592c.379-.022.628-.059.628-.059s.241-23.622,0-32.629h2.433s.38,4.733.664,10.606a4.786,4.786,0,0,1-1.541-.08v7a4.8,4.8,0,0,1,1.8.366c.03,1.286.044,2.549.044,3.776,0,1.724.08,4.069.212,6.793a5.442,5.442,0,0,1-2.17.029l-.284,31.154a17.007,17.007,0,0,1,4.383-3.36c.35,4.507.643,8.225.781,10.27Z" transform="translate(-296.218 -549.499)" fill="#371003" opacity="0.38"/>
                  </g>
                  <g id="Grupo_879475" data-name="Grupo 879475" transform="translate(11.123 43.911)">
                    <path id="Trazado_273713" data-name="Trazado 273713" d="M305.814,579.674c-2.659,1.584-6.355-.709-6.355-.709a5.676,5.676,0,0,1-4.865,1.8,5.867,5.867,0,0,1-4.63-2.673c-2.674,2.8-7.911,2.8-8.766-1.826S286.676,572,286.676,572s-1.943-3.894,1.22-5.479a3.671,3.671,0,0,1,2.534-.307,6.734,6.734,0,0,1,3.309,2.257,4.6,4.6,0,0,1,4.748-1.22c3.046.855,2.681,5.479,2.681,5.479a4.368,4.368,0,0,1,4.478-1.1,3.345,3.345,0,0,1,2.052,2.914C307.991,576.46,307.362,578.754,305.814,579.674Z" transform="translate(-281.12 -566.112)" fill="#738b48"/>
                  </g>
                  <g id="Grupo_879477" data-name="Grupo 879477">
                    <path id="Trazado_273720" data-name="Trazado 273720" d="M322.143,544.63c.007,0-.007.007-.007.007a7.686,7.686,0,0,1-1.044,1.643c-4.266,5.238-11.935,2.214-11.935,2.214a9.607,9.607,0,0,1-7.787,3.024,6.731,6.731,0,0,1-6.121-4.726s-2.892,5.58-9.219,4.755-6.939-5.639-6.939-5.639-12.053,1.833-11.812-9.854,12.658-8.94,12.658-8.94-2.067-12.483,10.592-15.282a15.047,15.047,0,0,1,3.089-.372c10.16-.168,13.1,11.2,13.1,11.2s6.939-5.237,13.024,0S320,536.42,320,536.42,324.269,540.116,322.143,544.63Z" transform="translate(-267.276 -511.459)" fill="#738b48"/>
                    <path id="Trazado_273729" data-name="Trazado 273729" d="M322.136,544.638a7.684,7.684,0,0,1-1.044,1.643c-4.266,5.238-11.935,2.214-11.935,2.214a9.607,9.607,0,0,1-7.787,3.024,6.731,6.731,0,0,1-6.121-4.726s-2.892,5.58-9.219,4.755-6.939-5.639-6.939-5.639-12.053,1.833-11.812-9.854,12.658-8.94,12.658-8.94-2.067-12.483,10.592-15.282a15.044,15.044,0,0,1,3.089-.372,10.021,10.021,0,0,0-6.654,7.049c-1.044,4.756,2.6,10.132,7.45,10.5-3.141.271-6.442.6-9.057,2.367s-4.2,5.471-2.586,8.181a7.359,7.359,0,0,0,4.923,3c3.126.679,6.939.08,8.554-2.681a6.431,6.431,0,0,0,11.819,3.39,8.293,8.293,0,0,0,14.068,1.38Z" transform="translate(-267.276 -511.459)" fill="#006800" opacity="0.14"/>
                  </g>
                </g>
                <g id="Grupo_882296" data-name="Grupo 882296" transform="translate(75.293 107.959)">
                  <g id="Grupo_879472-2" data-name="Grupo 879472" transform="translate(12.58 16.535)">
                    <path id="Trazado_273711-2" data-name="Trazado 273711" d="M299.644,585.589c0-.4,1.45-10.487,1.45-16.834,0,0-3.315.383-3.833-.743a34.352,34.352,0,0,1-1.043-5.473h1.043s.375,1.434.771,2.648a7.939,7.939,0,0,0,.624,1.565c.344.49,1.513.474,2.1.431.205-.012.339-.032.339-.032s.13-12.779,0-17.652h1.316s.206,2.561.359,5.738c.06,1.257.115,2.616.142,3.944.016.7.024,1.379.024,2.043,0,.933.043,2.2.115,3.675.217,4.335.683,10.448,1.043,15.052.19,2.438.348,4.45.422,5.556Z" transform="translate(-296.218 -549.499)" fill="#9f6c65"/>
                    <path id="Trazado_273712-2" data-name="Trazado 273712" d="M299.644,585.589c0-.4,1.45-10.487,1.45-16.834,0,0-3.315.383-3.833-.743a34.352,34.352,0,0,1-1.043-5.473h1.043s.375,1.434.771,2.648c-.158.051-.324.1-.494.15,0,0-.383,3.173,3.217,2.707v-.862c.205-.012.339-.032.339-.032s.13-12.779,0-17.652h1.316s.206,2.561.359,5.738a2.585,2.585,0,0,1-.834-.043v3.789a2.6,2.6,0,0,1,.976.2c.016.7.024,1.379.024,2.043,0,.933.043,2.2.115,3.675a2.944,2.944,0,0,1-1.174.016l-.154,16.854a9.2,9.2,0,0,1,2.371-1.818c.19,2.438.348,4.45.422,5.556Z" transform="translate(-296.218 -549.499)" fill="#371003" opacity="0.38"/>
                  </g>
                  <g id="Grupo_879475-2" data-name="Grupo 879475" transform="translate(6.018 23.756)">
                    <path id="Trazado_273713-2" data-name="Trazado 273713" d="M294.479,573.449c-1.438.857-3.438-.383-3.438-.383a3.071,3.071,0,0,1-2.632.972,3.174,3.174,0,0,1-2.5-1.446c-1.447,1.513-4.28,1.513-4.742-.988s2.964-2.308,2.964-2.308-1.051-2.106.66-2.964a1.985,1.985,0,0,1,1.371-.166,3.643,3.643,0,0,1,1.79,1.221,2.486,2.486,0,0,1,2.568-.66c1.648.462,1.45,2.964,1.45,2.964a2.363,2.363,0,0,1,2.422-.593,1.81,1.81,0,0,1,1.11,1.577A2.807,2.807,0,0,1,294.479,573.449Z" transform="translate(-281.12 -566.112)" fill="#738b48"/>
                  </g>
                  <g id="Grupo_879477-2" data-name="Grupo 879477">
                    <path id="Trazado_273720-2" data-name="Trazado 273720" d="M296.958,529.4s0,0,0,0a4.158,4.158,0,0,1-.565.889c-2.308,2.834-6.457,1.2-6.457,1.2a5.2,5.2,0,0,1-4.213,1.636,3.641,3.641,0,0,1-3.311-2.557,5.054,5.054,0,0,1-4.987,2.572c-3.426-.446-3.754-3.05-3.754-3.05s-6.52.992-6.39-5.331,6.848-4.836,6.848-4.836-1.118-6.753,5.73-8.267a8.14,8.14,0,0,1,1.671-.2c5.5-.091,7.089,6.062,7.089,6.062s3.754-2.833,7.046,0,.134,7.441.134,7.441S298.108,526.962,296.958,529.4Z" transform="translate(-267.276 -511.459)" fill="#738b48"/>
                    <path id="Trazado_273729-2" data-name="Trazado 273729" d="M296.954,529.409a4.155,4.155,0,0,1-.565.889c-2.308,2.834-6.457,1.2-6.457,1.2a5.2,5.2,0,0,1-4.213,1.636,3.641,3.641,0,0,1-3.311-2.557,5.054,5.054,0,0,1-4.987,2.572c-3.426-.446-3.754-3.05-3.754-3.05s-6.52.992-6.39-5.331,6.848-4.837,6.848-4.837-1.118-6.753,5.73-8.267a8.14,8.14,0,0,1,1.671-.2,5.421,5.421,0,0,0-3.6,3.813,4.811,4.811,0,0,0,4.031,5.678,10.157,10.157,0,0,0-4.9,1.281c-1.411.956-2.272,2.96-1.4,4.426a3.981,3.981,0,0,0,2.663,1.62c1.691.367,3.754.044,4.627-1.45a3.479,3.479,0,0,0,6.394,1.834,4.487,4.487,0,0,0,7.611.747Z" transform="translate(-267.276 -511.46)" fill="#006800" opacity="0.14"/>
                  </g>
                </g>
                <g id="Grupo_882292" data-name="Grupo 882292" transform="translate(156.723 136.821) rotate(-56)">
                  <g id="Grupo_879472-3" data-name="Grupo 879472" transform="translate(0 0)">
                    <path id="Trazado_273711-3" data-name="Trazado 273711" d="M5.943,62.606c0-.685,2.515-18.193,2.515-29.2,0,0-5.751.665-6.649-1.289S0,22.622,0,22.622H1.81s.651,2.488,1.337,4.593a13.767,13.767,0,0,0,1.083,2.714c.6.85,2.625.823,3.64.747.356-.02.589-.055.589-.055S8.685,8.452,8.459,0h2.283s.357,4.442.624,9.954c.1,2.18.2,4.538.247,6.841.028,1.206.041,2.392.041,3.544,0,1.618.075,3.818.2,6.375.377,7.52,1.185,18.125,1.81,26.111.329,4.229.6,7.719.733,9.638Z" fill="#b65245"/>
                    <path id="Trazado_273712-3" data-name="Trazado 273712" d="M5.943,62.606c0-.685,2.515-18.193,2.515-29.2,0,0-5.751.665-6.649-1.289S0,22.622,0,22.622H1.81s.651,2.488,1.337,4.593c-.274.089-.562.178-.857.26,0,0-.665,5.5,5.58,4.7V30.676c.356-.02.589-.055.589-.055S8.685,8.452,8.459,0h2.283s.357,4.442.624,9.954a4.489,4.489,0,0,1-1.446-.075v6.573a4.507,4.507,0,0,1,1.693.343c.028,1.206.041,2.392.041,3.544,0,1.618.075,3.818.2,6.375a5.106,5.106,0,0,1-2.037.027L9.549,55.978a15.959,15.959,0,0,1,4.113-3.153c.329,4.229.6,7.719.733,9.638Z" fill="#371003" opacity="0.38"/>
                  </g>
                </g>
                <g id="Grupo_882297" data-name="Grupo 882297" transform="translate(190.444 128.877) rotate(-56)">
                  <g id="Grupo_879472-4" data-name="Grupo 879472" transform="translate(0 0)">
                    <path id="Trazado_273711-4" data-name="Trazado 273711" d="M6.952,73.232c0-.8,2.942-21.281,2.943-34.158,0,0-6.727.778-7.777-1.507S0,26.461,0,26.461H2.117s.761,2.911,1.564,5.372a16.1,16.1,0,0,0,1.267,3.175c.7.994,3.071.962,4.258.874.416-.024.689-.064.689-.064S10.159,9.887,9.894,0h2.671s.417,5.2.729,11.643c.121,2.55.233,5.308.288,8,.033,1.411.049,2.8.048,4.145,0,1.893.088,4.466.233,7.457.441,8.8,1.386,21.2,2.117,30.542.385,4.947.706,9.029.857,11.274Z" fill="#b65245"/>
                    <path id="Trazado_273712-4" data-name="Trazado 273712" d="M6.952,73.232c0-.8,2.942-21.281,2.943-34.158,0,0-6.727.778-7.777-1.507S0,26.461,0,26.461H2.117s.761,2.911,1.564,5.372c-.321.1-.658.208-1,.3,0,0-.778,6.438,6.528,5.493V35.883c.416-.024.689-.064.689-.064S10.159,9.887,9.894,0h2.671s.417,5.2.729,11.643a5.251,5.251,0,0,1-1.692-.088v7.689a5.272,5.272,0,0,1,1.98.4c.033,1.411.049,2.8.048,4.145,0,1.893.088,4.466.233,7.457a5.973,5.973,0,0,1-2.382.032l-.312,34.2a18.668,18.668,0,0,1,4.811-3.689c.385,4.947.706,9.029.857,11.274Z" fill="#371003" opacity="0.38"/>
                  </g>
                </g>
              </g>
              <g id="Enmascarar_grupo_209" data-name="Enmascarar grupo 209" clip-path="url(#clip-path)">
                <g id="Grupo_879544" data-name="Grupo 879544" transform="translate(18.74 158.15)">
                  <g id="Grupo_879541" data-name="Grupo 879541" transform="translate(4.269 3.287)">
                    <path id="Trazado_273914" data-name="Trazado 273914" d="M408.546,645.712a36.115,36.115,0,0,1-3.828,6.353c-5.215,7.289-13.79,16.473-18.451,20.048-6.208,4.761-12.417,19.908-17.9,22.505s-8.765,2.6-13.148,7.79c-.5.589-1.066,1.221-1.7,1.887-4.931,5.168-13.447,12.015-17.655,12.4-4.748.433-10.957,12.984-14.974,18.177s-14.244,17.745-19.357,19.043-9.862,6.059-12.053,11.687-11.687,13.849-14.609,13.849-2.921,3.462-6.837,3.9-5.581-6.492-10.328-11.686-5.844-5.626-10.226-9.088-7.67-8.223-12.783-11.252-9.13-9.089-13.149-13.417-9.861-8.656-12.052-11.252-5.113-11.253-9.5-11.253-8.035-3.029-10.957-5.626-9.5-9.089-12.417-11.253-7.67-9.954-10.957-15.58-7.67-5.194-10.226-7.79-5.113-13.851-6.209-18.61-6.208-14.282-6.208-14.282v-8.656H409.642S411.468,638.787,408.546,645.712Z" transform="translate(-143.029 -633.594)" fill="#775d26"/>
                    <path id="Trazado_273915" data-name="Trazado 273915" d="M408.546,645.712a36.115,36.115,0,0,1-3.828,6.353,7.247,7.247,0,0,1-2.4-5.305c-4.339,3.427-11.139.779-12.914-5.038-1.826,4.38-7.721,5.194-10.358,1.437a7.09,7.09,0,0,1-11.636-1.281c-1.643,5.22-8.1,7.159-11.643,3.5-.307,5.125-5.157,8.752-9.43,7.885s-7.6-5.254-8.934-10.145c-1.987,4.337-8.941,3.913-10.328-.744a6.662,6.662,0,0,1-11.95.545c-2.1,4.2-7.757,4.976-10.606,1.454-.643,3.662-3.689,6.518-6.837,6.415s-6.062-3.142-6.537-6.839c-1.944,3.376-7.282,2.129-8.006-1.87a7.183,7.183,0,0,1-12.038.3c1.227,5.288-2.023,11.4-6.574,12.37s-9.4-3.428-9.8-8.891a1.161,1.161,0,0,1,0-.224c-2.8,1.514-8.02-.909-7.794-4.562-4.529,5.3-11.439,7.548-17.611,5.738A5.919,5.919,0,0,1,220,647.885c.248,4.51-3.367,8.75-7.166,8.422-2.227-.191-4.309-1.7-6.537-1.61-5.288.208-7.312,9.029-5.011,14.664s6.99,9.321,10.241,14.255c5.954,9.029,6.713,21.51,11.833,31.231,3.251,6.171,8.086,10.9,12.834,15.512l31.029,30.122c1.841,1.793,3.762,3.627,6.077,4.3,5.244,1.523,10.263-3.418,13.308-8.7s5.413-11.512,10-14.9c3.769-2.779,8.5-3.159,12.381-5.73,4.638-3.073,7.45-8.838,11.132-13.374,8.035-9.928,19.9-13.737,31.154-17.129.745-.226,1.5-.45,2.25-.659-4.931,5.168-13.447,12.015-17.655,12.4-4.748.433-10.957,12.984-14.974,18.177s-14.244,17.745-19.357,19.043-9.862,6.059-12.053,11.687-11.687,13.849-14.609,13.849-2.921,3.462-6.837,3.9-5.581-6.492-10.328-11.686-5.844-5.626-10.226-9.088-7.67-8.223-12.783-11.252-9.13-9.089-13.149-13.417-9.861-8.656-12.052-11.252-5.113-11.253-9.5-11.253-8.035-3.029-10.957-5.626-9.5-9.089-12.417-11.253-7.67-9.954-10.957-15.58-7.67-5.194-10.226-7.79-5.113-13.851-6.209-18.61-6.208-14.282-6.208-14.282v-8.656H409.642S411.468,638.787,408.546,645.712Z" transform="translate(-143.029 -633.594)" fill="#381b03" opacity="0.21"/>
                  </g>
                  <g id="Grupo_879543" data-name="Grupo 879543">
                    <path id="Trazado_273916" data-name="Trazado 273916" d="M138.334,630.233c-1.862,1.862.73,12.417,4.383,12.053s4.383-6.939,4.383-6.939.73,7.3,5.113,8.4,6.208-7.67,6.208-7.67.73,6.574,6.574,6.574,5.113-6.574,5.113-6.574,1.826,12.053,5.479,12.417,5.113-12.417,5.113-12.417,1.461,6.939,5.844,6.939,4.383-9.13,4.383-9.13,1.825,6.574,5.844,6.939,3.652-7.3,3.652-7.3,1.1,7.3,4.383,8.035,2.922-6.939,2.922-6.939.73,10.957,5.113,12.053,5.113-11.322,5.113-11.322.73,6.209,5.478,6.574,3.652-6.209,3.652-6.209,2.921,5.844,7.67,4.748,4.017-5.844,4.017-5.844a4.193,4.193,0,0,0,3.287,4.017c3.287.73,5.479-5.478,5.479-5.478s1.1,5.12,3.652,6.212,3.653-4.387,3.653-4.387,1.461,10.226,6.574,11.322,7.3-12.783,7.3-12.783a7.948,7.948,0,0,0,6.939,5.848c5.844.726,6.574-5.117,6.574-5.117a4.821,4.821,0,0,0,4.383,5.117c4.748.726,4.748-6.212,4.748-6.212s0,9.5,5.478,10.591,4.748-10.957,4.748-10.957,1.461,7.67,6.939,7.67,8.766-7.67,8.766-7.67-1.1,4.756,3.287,6.578,5.113-6.578,5.113-6.578-1.1,5.852,4.748,6.578a5.589,5.589,0,0,0,6.574-4.752s.366,11.321,8.4,12.053,8.765-13.148,8.765-13.148,1.826,7.67,6.574,7.67,5.113-7.67,5.113-7.67,2.557,6.939,6.939,6.939,4.748-5.844,4.748-5.844,1.461,6.574,5.479,6.208,6.939-6.208,6.939-6.208,1.461,5.478,5.478,6.939,6.939-6.209,6.939-6.209,0,10.591,5.844,10.226,5.113-15.34,2.922-15.34S139.978,628.589,138.334,630.233Z" transform="translate(-137.715 -629.503)" fill="#bcac80"/>
                    <g id="Grupo_879542" data-name="Grupo 879542" transform="translate(13.707 2.432)" opacity="0.21">
                      <path id="Trazado_273917" data-name="Trazado 273917" d="M474.3,635.559c1.5.333,1.948,5.843-.487,6.574S472.111,635.072,474.3,635.559Z" transform="translate(-217.183 -633.121)" fill="#687a6d"/>
                      <path id="Trazado_273918" data-name="Trazado 273918" d="M461.455,635.456c1.7,1.482-1.761,4.187-3.315,3.321S459.751,633.973,461.455,635.456Z" transform="translate(-214.319 -633.04)" fill="#687a6d"/>
                      <path id="Trazado_273919" data-name="Trazado 273919" d="M443.823,634.047c3.637.33,1.461,6.581-1.217,5.847S441.145,633.8,443.823,634.047Z" transform="translate(-211.053 -632.826)" fill="#687a6d"/>
                      <path id="Trazado_273920" data-name="Trazado 273920" d="M335.6,636.371c2.227-.409,2.228,5.435.28,5.435S333.375,636.78,335.6,636.371Z" transform="translate(-190.033 -633.281)" fill="#687a6d"/>
                      <path id="Trazado_273921" data-name="Trazado 273921" d="M294.943,636.373c1.8-.318-.882,6.018-1.964,5.97S292.631,636.782,294.943,636.373Z" transform="translate(-181.843 -633.283)" fill="#687a6d"/>
                      <path id="Trazado_273922" data-name="Trazado 273922" d="M311.488,632.532c2.281-.133.771,4.682-.933,4.167S308.832,632.688,311.488,632.532Z" transform="translate(-185.16 -632.53)" fill="#687a6d"/>
                      <path id="Trazado_273923" data-name="Trazado 273923" d="M259.447,633.589c1.57.208-.343,5.748-1.993,4.883S256.69,633.223,259.447,633.589Z" transform="translate(-174.794 -632.734)" fill="#687a6d"/>
                      <path id="Trazado_273924" data-name="Trazado 273924" d="M234.844,635.117c1.719.561-.119,9.658-2.067,8.657S233.016,634.522,234.844,635.117Z" transform="translate(-169.957 -633.032)" fill="#687a6d"/>
                      <path id="Trazado_273925" data-name="Trazado 273925" d="M197.361,637.72c2.7-.034.826,4.6-.673,4.355S195.15,637.747,197.361,637.72Z" transform="translate(-162.804 -633.55)" fill="#687a6d"/>
                      <path id="Trazado_273926" data-name="Trazado 273926" d="M172.392,636.348c2.688.721,2.136,6.506-.959,5.971S168.473,635.3,172.392,636.348Z" transform="translate(-157.624 -633.257)" fill="#687a6d"/>
                      <path id="Trazado_273927" data-name="Trazado 273927" d="M355.777,633.968c2.64,1.319-2.906,5.608-4.11,3.9S353.137,632.648,355.777,633.968Z" transform="translate(-193.416 -632.755)" fill="#687a6d"/>
                      <path id="Trazado_273928" data-name="Trazado 273928" d="M398.965,640.428c2.9-.505,2.172,5.635-.993,4.391S396.062,640.934,398.965,640.428Z" transform="translate(-202.21 -634.076)" fill="#687a6d"/>
                      <path id="Trazado_273929" data-name="Trazado 273929" d="M376.592,634.515c.008,1.366,4.34,3.185,4.976.529S376.58,632.5,376.592,634.515Z" transform="translate(-198.373 -632.627)" fill="#687a6d"/>
                      <path id="Trazado_273930" data-name="Trazado 273930" d="M156.213,637.7c2.459-.758,2.673,3.138.619,3.625S153.754,638.454,156.213,637.7Z" transform="translate(-154.776 -633.526)" fill="#687a6d"/>
                    </g>
                  </g>
                </g>
              </g>
            </g>
          </g>
        </g>
      </g>
    </g>
  </g>
</svg>
