<svg xmlns="http://www.w3.org/2000/svg" width="445.826" height="319.416" viewBox="0 0 445.826 319.416">
  <g id="Grupo_882876" data-name="Grupo 882876" transform="translate(-810.674 -398.1)">
    <rect id="BG" width="445.826" height="319.416" transform="translate(810.674 398.1)" fill="#e8e8e8" opacity="0.949"/>
    <g id="Grupo_882305" data-name="Grupo 882305">
      <g id="Grupo_882303" data-name="Grupo 882303" transform="translate(963.443 572.261)">
        <circle id="Elipse_5979" data-name="Elipse 5979" cx="83" cy="83" r="83" transform="translate(44.557 -100.261)" fill="#e5fbf8"/>
        <g id="Grupo_879493" data-name="Grupo 879493" transform="translate(226.141 22.135)">
          <path id="Trazado_273775" data-name="Trazado 273775" d="M262.508,623.671a107.089,107.089,0,0,1,14.753-12.133l.559.743a131.323,131.323,0,0,0-14.192,12.107Z" transform="translate(-262.508 -601.637)" fill="#abd038"/>
          <path id="Trazado_273776" data-name="Trazado 273776" d="M269.331,616.086s-.086-7.211,10.219-8.153C279.55,607.933,277.935,617.154,269.331,616.086Z" transform="translate(-256.619 -604.749)" fill="#abd038"/>
          <path id="Trazado_273777" data-name="Trazado 273777" d="M269.263,620.23s-6.685-5.23-2.7-14.005C266.567,606.224,274.32,613.133,269.263,620.23Z" transform="translate(-260.1 -606.224)" fill="#abd038"/>
          <path id="Trazado_273778" data-name="Trazado 273778" d="M267.726,614.531s1.109,8.906,10.819,5.545C278.545,620.076,276.891,611.788,267.726,614.531Z" transform="translate(-258.004 -599.534)" fill="#abd038"/>
        </g>
        <g id="Grupo_882306" data-name="Grupo 882306" transform="translate(70.979 12.827) rotate(-59)">
          <path id="Trazado_273775-2" data-name="Trazado 273775" d="M262.508,633.667a195.32,195.32,0,0,1,26.907-22.129l1.019,1.356s-15.666,11.465-25.884,22.082Z" transform="translate(-262.508 -593.48)" fill="#abd038"/>
          <path id="Trazado_273776-2" data-name="Trazado 273776" d="M269.331,622.8s-.156-13.151,18.639-14.871C287.97,607.933,285.024,624.751,269.331,622.8Z" transform="translate(-246.145 -602.125)" fill="#abd038"/>
          <path id="Trazado_273777-2" data-name="Trazado 273777" d="M272.531,631.769s-12.193-9.539-4.917-25.545C267.613,606.224,281.753,618.825,272.531,631.769Z" transform="translate(-255.818 -606.224)" fill="#abd038"/>
          <path id="Trazado_273778-2" data-name="Trazado 273778" d="M267.726,614.989s2.022,16.244,19.733,10.113C287.459,625.1,284.442,609.987,267.726,614.989Z" transform="translate(-249.994 -587.637)" fill="#abd038"/>
        </g>
        <g id="Grupo_882307" data-name="Grupo 882307" transform="matrix(0.946, -0.326, 0.326, 0.946, 32.428, -16.957)">
          <path id="Trazado_273775-3" data-name="Trazado 273775" d="M262.508,626.425a131.394,131.394,0,0,1,18.1-14.887l.686.912s-10.539,7.713-17.413,14.855Z" transform="translate(-262.508 -599.39)" fill="#abd038"/>
          <path id="Trazado_273776-3" data-name="Trazado 273776" d="M269.331,617.937s-.105-8.847,12.539-10C281.87,607.933,279.888,619.247,269.331,617.937Z" transform="translate(-253.733 -604.026)" fill="#abd038"/>
          <path id="Trazado_273777-3" data-name="Trazado 273777" d="M270.163,623.408s-8.2-6.417-3.308-17.184C266.855,606.224,276.368,614.7,270.163,623.408Z" transform="translate(-258.921 -606.224)" fill="#abd038"/>
          <path id="Trazado_273778-3" data-name="Trazado 273778" d="M267.726,614.657s1.36,10.928,13.275,6.8C281,621.461,278.971,611.292,267.726,614.657Z" transform="translate(-255.797 -596.256)" fill="#abd038"/>
        </g>
        <path id="Trazado_273779" data-name="Trazado 273779" d="M384.5,660.491l-243.359,2.253s-1.118-58.709,42.346-67.179a62.282,62.282,0,0,1,12.112-1.22h.017c34.64-.034,48.85,31.134,48.85,31.134s9.6-16.938,31.625-14.669a34.624,34.624,0,0,1,28.8,20.886,23.2,23.2,0,0,1,18.075-3.151,20.412,20.412,0,0,1,13.551,10.484s9.027-11.282,27.661-6.775c11.84,2.879,16.837,13.5,18.9,20.868A40.109,40.109,0,0,1,384.5,660.491Z" transform="translate(-141.134 -594.344)" fill="#8fce1e"/>
        <g id="Grupo_879494" data-name="Grupo 879494" transform="translate(75.073 15.542)" opacity="0.32">
          <path id="Trazado_273780" data-name="Trazado 273780" d="M184.85,603.1c6.676-2.866,20.452,9.786,11.5,15.835S175.471,607.125,184.85,603.1Z" transform="translate(-181.427 -602.686)" fill="#f3ff8b"/>
          <path id="Trazado_273781" data-name="Trazado 273781" d="M220.965,608.157c-4.712,1.429.3,12.686,4.6,10.987S226.47,606.489,220.965,608.157Z" transform="translate(-148.94 -598.111)" fill="#f3ff8b"/>
          <path id="Trazado_273782" data-name="Trazado 273782" d="M260.784,619.892c-4.867,4.9,9.316,8.716,10.162,4.177S266.608,614.027,260.784,619.892Z" transform="translate(-113.804 -590.03)" fill="#f3ff8b"/>
        </g>
        <path id="Trazado_273783" data-name="Trazado 273783" d="M384.5,660.491l-243.359,2.253s-1.118-58.709,42.346-67.179a62.282,62.282,0,0,1,12.112-1.22c-28.9,1.44-31.236,49.784-21.173,57.8,7.758,6.165,145.841,2.828,208.65.982A40.109,40.109,0,0,1,384.5,660.491Z" transform="translate(-141.134 -594.344)" fill="#005900" opacity="0.25"/>
        <g id="Grupo_879495" data-name="Grupo 879495" transform="translate(14.107 12.623)" opacity="0.36">
          <path id="Trazado_273784" data-name="Trazado 273784" d="M176.227,613.233c9.055-.954,11.857,15.809,1.694,16.938S165.5,614.362,176.227,613.233Z" transform="translate(-131.04 -590.696)" fill="#009119"/>
          <path id="Trazado_273785" data-name="Trazado 273785" d="M216.522,610.487c6.236,0,9.6,11.293,0,11.857S209.181,610.487,216.522,610.487Z" transform="translate(-95.675 -593.032)" fill="#009119"/>
          <path id="Trazado_273786" data-name="Trazado 273786" d="M174.4,603.329c3.588-7.177,15.244,5.083,11.293,9.035S171.574,608.976,174.4,603.329Z" transform="translate(-126.951 -601.119)" fill="#009119"/>
          <path id="Trazado_273787" data-name="Trazado 273787" d="M162.837,610.89c9.035,5.083-3.387,23.715-11.291,18.634S153.8,605.809,162.837,610.89Z" transform="translate(-148.705 -593.435)" fill="#009119"/>
          <path id="Trazado_273788" data-name="Trazado 273788" d="M199.131,619.725c-3.954,4.516,6.21,14.68,10.728,7.9S203.083,615.207,199.131,619.725Z" transform="translate(-105.951 -586.46)" fill="#009119"/>
          <path id="Trazado_273789" data-name="Trazado 273789" d="M246.434,623.6c3.6,7.136-9.035,19.144-16.375,9.545S243.045,616.878,246.434,623.6Z" transform="translate(-79.852 -584.068)" fill="#009119"/>
          <path id="Trazado_273790" data-name="Trazado 273790" d="M267.527,624.448c3.575,4.371-9.035,14.115-12.986,6.776S262.446,618.238,267.527,624.448Z" transform="translate(-58.035 -583.279)" fill="#009119"/>
        </g>
        <circle id="Elipse_5980" data-name="Elipse 5980" cx="23.5" cy="23.5" r="23.5" transform="translate(21.557 -92.261)" fill="#ffd500"/>
      </g>
      <g id="Grupo_882304" data-name="Grupo 882304" transform="translate(1087.98 555.27)">
        <g id="Grupo_879527" data-name="Grupo 879527" transform="translate(25.895 46.539)">
          <path id="Trazado_273873" data-name="Trazado 273873" d="M290.6,607.367V625.54c0,2.83,1.414,20.244,1.414,20.244l-3.374.434" transform="translate(-283.997 -607.367)" fill="none" stroke="#1f1f1f" stroke-miterlimit="10" stroke-width="1.351"/>
          <path id="Trazado_273874" data-name="Trazado 273874" d="M293.737,607.542s-6.42,14.149-7.509,15.563,9.577,5.767,10.231,6.313.434,2.61.434,2.61" transform="translate(-286.15 -607.216)" fill="none" stroke="#1f1f1f" stroke-miterlimit="10" stroke-width="1.351"/>
        </g>
        <g id="Grupo_879528" data-name="Grupo 879528" transform="translate(7.378)">
          <path id="Trazado_273875" data-name="Trazado 273875" d="M323.429,638.065c-.542.44-12.619-8.809-22.747-7.945-10.113.88-23.614-1.627-24.376-11.1s3.27-12.519,6.2-16.974c2.948-4.472,3.488-6.538,2.286-8.282s-5.759-2.169-5.437-6.471c.134-1.88,2.37-3.659,5.064-4.455,2.525-.762,5.454-.661,7.453,1.032,4.134,3.473,6.3,11.418-.66,18.058s-9.571,12.737-5.539,14.583c4.013,1.846,5.318-5.334,12.077-7.622,6.741-2.27,14.788-.423,20.241,7.622C323.429,624.581,323.971,637.64,323.429,638.065Z" transform="translate(-276.212 -582.389)" fill="#ff7a8a"/>
          <path id="Trazado_273876" data-name="Trazado 273876" d="M315.443,619.085v-.034c-.49-.829-4.352-6.927-13.432-8.181-9.724-1.338-16.176-1.982-16.99-9.316-.22-2.083,3.134-4.591,7.825-5.252a17.54,17.54,0,0,1,12.433,3c9.6,6.555,10.216,19.852,10.216,19.852A.5.5,0,0,1,315.443,619.085Z" transform="translate(-268.616 -570.524)" fill="#ff5186"/>
          <path id="Trazado_273877" data-name="Trazado 273877" d="M315.443,618.974c-.49-.829-4.352-6.927-13.432-8.181-9.724-1.338-16.176-1.983-16.99-9.316-.22-2.083,3.134-4.591,7.825-5.252-5.979,1.44-3.743,8.843,4.524,9.385C305.975,606.185,313.649,611.284,315.443,618.974Z" transform="translate(-268.616 -570.446)" fill="#ca0047" opacity="0.24"/>
          <path id="Trazado_273878" data-name="Trazado 273878" d="M323.429,637.854c-.542.44-12.619-8.809-22.747-7.945s-23.614-1.627-24.376-11.1,3.27-12.519,6.2-16.974c2.948-4.472,3.488-6.538,2.286-8.282s-5.759-2.169-5.437-6.471c.134-1.88,2.37-3.659,5.064-4.455.492,1.168,2.3,3,4.235,5.114,3.81,4.151.982,9.877-5.42,16.838-6.42,6.98-5.031,19.379,2.3,20.294C292.89,625.777,313.74,620.728,323.429,637.854Z" transform="translate(-276.212 -582.178)" fill="#ca0047" opacity="0.24"/>
        </g>
        <path id="Trazado_273879" data-name="Trazado 273879" d="M282.018,586.08c-.466.468-1.053.639-1.308.386s-.082-.842.386-1.308,1.053-.641,1.308-.386S282.486,585.612,282.018,586.08Z" transform="translate(-265.052 -580.434)" fill="#1f1f1f"/>
        <g id="Grupo_879530" data-name="Grupo 879530" transform="translate(0 1.372)">
          <g id="Grupo_879529" data-name="Grupo 879529">
            <path id="Trazado_273880" data-name="Trazado 273880" d="M286.634,588.12a1.8,1.8,0,0,1-1.371,2.083c-1.626.22-5.1-2.286-8.148-3.371-.067-.017-.119-.033-.186-.052a5.015,5.015,0,0,0-4.608.375c-.22-1.2-.117-3.372,3.372-3.915h.017a12.913,12.913,0,0,1,3.86.069c2.627.423,5.2,1.457,6.132,2.54A3.648,3.648,0,0,1,286.634,588.12Z" transform="translate(-272.252 -583.125)" fill="#ffcf2f"/>
            <path id="Trazado_273881" data-name="Trazado 273881" d="M276.929,586.727a5.015,5.015,0,0,0-4.608.375c-.22-1.2-.117-3.372,3.372-3.915h.017A6.612,6.612,0,0,1,276.929,586.727Z" transform="translate(-272.252 -583.072)" fill="#1f1f1f"/>
          </g>
          <path id="Trazado_273882" data-name="Trazado 273882" d="M286.634,588.12a1.8,1.8,0,0,1-1.371,2.083c-1.626.22-5.1-2.286-8.148-3.371-.067-.017-.119-.033-.186-.052a5.015,5.015,0,0,0-4.608.375c-.22-1.2-.117-3.372,3.372-3.915h.017a12.913,12.913,0,0,1,3.86.069,2.625,2.625,0,0,0,.425,1.88C281.672,588.289,285.721,589.933,286.634,588.12Z" transform="translate(-272.252 -583.125)" fill="#ca0047" opacity="0.24"/>
        </g>
      </g>
    </g>
  </g>
</svg>
