<svg xmlns="http://www.w3.org/2000/svg" width="49.975" height="44.432" viewBox="0 0 49.975 44.432">
  <path id="Icon_awesome-leaf" data-name="Icon awesome-leaf" d="M47.393.842a1.35,1.35,0,0,0-2.456-.1A14.88,14.88,0,0,1,31.931,8.33H24.989A16.664,16.664,0,0,0,8.329,24.99a17.157,17.157,0,0,0,.13,1.779C14,22.8,21.987,19.437,33.319,19.437a1.388,1.388,0,1,1,0,2.777C11.5,22.214,2.255,35.585.207,40.609a2.78,2.78,0,0,0,5.146,2.109,22.828,22.828,0,0,1,6.239-7.861,16.623,16.623,0,0,0,15.176,6.7c13.623-.989,23.211-13.206,23.211-28.166A31.553,31.553,0,0,0,47.393.842Z" transform="translate(-0.004 0.001)" fill="#85bf50"/>
</svg>
