<svg xmlns="http://www.w3.org/2000/svg" width="294.464" height="277.973" viewBox="0 0 294.464 277.973">
  <g id="OBJECTS" transform="translate(-102.391 -404.44)">
    <g id="Grupo_879551" data-name="Grupo 879551" transform="translate(102.391 404.44)">
      <g id="Grupo_879552" data-name="Grupo 879552">
        <g id="Grupo_879546" data-name="Grupo 879546">
          <circle id="Elipse_5899" data-name="Elipse 5899" cx="138.987" cy="138.987" r="138.987" transform="translate(13.364)" fill="#c0c6b9"/>
          <g id="Grupo_879545" data-name="Grupo 879545" transform="translate(0 22.677)">
            <g id="Grupo_879540" data-name="Grupo 879540">
              <g id="Grupo_879468" data-name="Grupo 879468" transform="translate(119.83)">
                <path id="Trazado_273697" data-name="Trazado 273697" d="M432.3,594.1l-168.77,2.235s35.755-73.776,41.964-87.493c1.023-2.257,2.732-5.807,4.894-10.175l.007-.007c10.964-22.191,33.441-65.375,35.273-65.989,2.192-.73,27.392,43.462,33.236,54.783,1.432,2.776,4.229,8.218,7.691,14.96,10.635,20.723,27.538,53.776,30.292,59.714.35.76.775,1.658,1.257,2.681h.007C422.692,574.4,432.3,594.1,432.3,594.1Z" transform="translate(-263.534 -432.664)" fill="#00713d"/>
                <path id="Trazado_273698" data-name="Trazado 273698" d="M432.3,594.1l-168.77,2.235s35.755-73.776,41.964-87.493c1.023-2.257,2.732-5.807,4.894-10.175l.007-.007c10.964-22.191,33.441-65.375,35.273-65.989,0,0-29.962,71.935-35.828,88.012s7.816,31.154,16.143,35.127,13.784,3.353,13.784,3.353,4.141-12.417,12.907-15.829,18.115,4.668,18.115,4.668,5.836-7.846,13.337-6.5,12.06,10.935,12.06,10.935,4.617-5.267,9.043-2.06,8.291,15.668,8.291,15.668a19.348,19.348,0,0,1,4.624-1.234h.007C422.692,574.4,432.3,594.1,432.3,594.1Z" transform="translate(-263.534 -432.666)" fill="#003b1c" opacity="0.5"/>
                <path id="Trazado_273699" data-name="Trazado 273699" d="M398.064,502.416c-2.527.723-17.187-13.5-18.509-13.864s-6.348,17.531-8.035,16.07-8.75-17.166-8.75-17.166-12.206,25.566-14.047,23.74-10.211-26.661-11.673-25.566c-.343.256-1.344,1.1-2.68,2.236-4.331,3.689-12.184,10.518-12.506,10.8,10.964-22.191,33.441-65.375,35.273-65.989,2.192-.73,27.392,43.462,33.236,54.783C391.8,490.232,394.6,495.674,398.064,502.416Z" transform="translate(-274.999 -432.664)" fill="#b9de93"/>
                <path id="Trazado_273700" data-name="Trazado 273700" d="M357.137,432.675s-12.366,29.7-22.767,55.193c-4.331,3.689-12.184,10.518-12.506,10.8C332.828,476.473,355.3,433.289,357.137,432.675Z" transform="translate(-274.999 -432.666)" fill="#003b1c" opacity="0.14"/>
              </g>
              <g id="Grupo_879469" data-name="Grupo 879469" transform="translate(23.009 48.215)">
                <path id="Trazado_273701" data-name="Trazado 273701" d="M307.38,605.042l-59.509-.35-104.841-.621s25.127-39.9,37.618-60.415c1.388-2.287,2.63-4.331,3.652-6.056,10.226-17.166,25.931-45.287,28.852-44.923s31.045,39.569,40.905,52.468S307.38,605.042,307.38,605.042Z" transform="translate(-143.029 -492.674)" fill="#00713d"/>
                <path id="Trazado_273702" data-name="Trazado 273702" d="M247.87,604.691l-104.841-.621s25.127-39.9,37.618-60.415c1.388-2.287,2.63-4.331,3.652-6.056,10.226-17.166,25.931-45.287,28.852-44.923,0,0-20.81,47.6-24.067,55.879s-3.272,7.2-2.06,16.45,1.614,14.229,1.614,14.229a19.514,19.514,0,0,1,13.4-1.4c7.655,1.885,9.6,7.4,9.6,7.4s5.273-1.87,8.363-1.14a6.071,6.071,0,0,1,4.032,3.974s9.555-5.347,16.962-.277C246.175,591.346,247.526,599.885,247.87,604.691Z" transform="translate(-143.029 -492.674)" fill="#003b1c" opacity="0.5"/>
                <path id="Trazado_273703" data-name="Trazado 273703" d="M263.259,545.145c-2.557.614-21.548-15.581-23.1-13.79s-7.209,15.376-8.67,13.79-8.766-14.485-9.862-13.754-7.845,13.426-9.371,12.053c-1.388-1.249-5.179-10.782-6.742-11.965-.153-.117-.285-.153-.394-.088-.921.578-11.052,8.824-15.266,12.265,1.388-2.287,2.63-4.331,3.652-6.056,10.226-17.166,25.931-45.287,28.852-44.923S253.4,532.246,263.259,545.145Z" transform="translate(-152.231 -492.674)" fill="#b9de93"/>
                <path id="Trazado_273704" data-name="Trazado 273704" d="M222.354,492.677s-9.663,22.1-16.844,38.8c-.153-.117-.285-.153-.394-.088-.921.578-11.052,8.824-15.266,12.265,1.388-2.287,2.63-4.331,3.652-6.056C203.728,520.434,219.432,492.312,222.354,492.677Z" transform="translate(-152.231 -492.674)" fill="#003b1c" opacity="0.14"/>
              </g>
              <g id="Grupo_879471" data-name="Grupo 879471" transform="translate(89.152 103.688)">
                <path id="Trazado_273705" data-name="Trazado 273705" d="M257.893,583.4c-.044.366-.088.723-.132,1.081-.007.1-.029.2-.044.306-.606,4.456-1.6,8.123-2.936,8.985-3.411,2.191-22.644,2.439-25.814-.628s-5.12-22.344-2.14-27.129c1.315-2.111,4.952-3.383,9.284-3.952,8.641-1.132,20.051.548,21.344,3.952C258.564,568.92,258.645,576.765,257.893,583.4Z" transform="translate(-225.352 -561.717)" fill="#00b43a"/>
                <g id="Grupo_879470" data-name="Grupo 879470" transform="translate(22.005 5.151)" opacity="0.39">
                  <path id="Trazado_273706" data-name="Trazado 273706" d="M258.915,568.134c2.729-.247,4.565,6.419,1.278,6.5S256.907,568.318,258.915,568.134Z" transform="translate(-253.683 -568.128)" fill="#00ff3f"/>
                  <path id="Trazado_273707" data-name="Trazado 273707" d="M252.91,579c1.339-3.167,7.272,1.846,5.893,3.673S251.684,581.9,252.91,579Z" transform="translate(-252.74 -570.062)" fill="#00ff3f"/>
                  <path id="Trazado_273708" data-name="Trazado 273708" d="M257.071,590.4c2.97-.658,2.641,5.287,0,4.652A2.369,2.369,0,0,1,257.071,590.4Z" transform="translate(-253.214 -572.495)" fill="#00ff3f"/>
                </g>
                <path id="Trazado_273709" data-name="Trazado 273709" d="M257.717,584.878c-.606,4.456-1.6,8.123-2.936,8.985-3.411,2.191-22.644,2.439-25.814-.628s-5.12-22.344-2.14-27.129c1.315-2.112,4.952-3.383,9.284-3.952.044.037.066.059.066.059s-7.67-.073-6.494,14.85,11.4,15.829,18.341,15.829C254.3,592.892,256.972,589.173,257.717,584.878Z" transform="translate(-225.352 -561.803)" fill="#006b3c" opacity="0.28"/>
                <path id="Trazado_273710" data-name="Trazado 273710" d="M242.906,619.546l.974-27.776-5.844-3.94c0-1.351,5.844.587,5.844.587v-5.853l-4.626-2.277.243-.772,3.9.772.487-9.878H245.1l.974,15.826,5.113-3.535.974.613-5.357,5.1,2.506,30.932Z" transform="translate(-227.845 -563.425)" fill="#714c1f"/>
              </g>
              <g id="Grupo_879478" data-name="Grupo 879478" transform="translate(122.836 63.308)">
                <g id="Grupo_879472" data-name="Grupo 879472" transform="translate(23.254 30.564)">
                  <path id="Trazado_273711" data-name="Trazado 273711" d="M302.551,616.211c0-.73,2.68-19.386,2.68-31.117,0,0-6.128.709-7.085-1.373s-1.928-10.116-1.928-10.116h1.928s.693,2.651,1.424,4.894a14.669,14.669,0,0,0,1.154,2.892c.636.905,2.8.877,3.879.8.379-.022.628-.059.628-.059s.241-23.622,0-32.629h2.433s.38,4.733.664,10.606c.11,2.323.212,4.835.263,7.29.03,1.286.044,2.549.044,3.776,0,1.724.08,4.069.212,6.793.4,8.013,1.263,19.313,1.928,27.823.35,4.507.643,8.225.781,10.27Z" transform="translate(-296.218 -549.499)" fill="#b65245"/>
                  <path id="Trazado_273712" data-name="Trazado 273712" d="M302.551,616.211c0-.73,2.68-19.386,2.68-31.117,0,0-6.128.709-7.085-1.373s-1.928-10.116-1.928-10.116h1.928s.693,2.651,1.424,4.894c-.292.095-.6.19-.914.277,0,0-.709,5.865,5.946,5v-1.592c.379-.022.628-.059.628-.059s.241-23.622,0-32.629h2.433s.38,4.733.664,10.606a4.786,4.786,0,0,1-1.541-.08v7a4.8,4.8,0,0,1,1.8.366c.03,1.286.044,2.549.044,3.776,0,1.724.08,4.069.212,6.793a5.442,5.442,0,0,1-2.17.029l-.284,31.154a17.007,17.007,0,0,1,4.383-3.36c.35,4.507.643,8.225.781,10.27Z" transform="translate(-296.218 -549.499)" fill="#371003" opacity="0.38"/>
                </g>
                <g id="Grupo_879475" data-name="Grupo 879475" transform="translate(11.123 43.911)">
                  <path id="Trazado_273713" data-name="Trazado 273713" d="M305.814,579.674c-2.659,1.584-6.355-.709-6.355-.709a5.676,5.676,0,0,1-4.865,1.8,5.867,5.867,0,0,1-4.63-2.673c-2.674,2.8-7.911,2.8-8.766-1.826S286.676,572,286.676,572s-1.943-3.894,1.22-5.479a3.671,3.671,0,0,1,2.534-.307,6.734,6.734,0,0,1,3.309,2.257,4.6,4.6,0,0,1,4.748-1.22c3.046.855,2.681,5.479,2.681,5.479a4.368,4.368,0,0,1,4.478-1.1,3.345,3.345,0,0,1,2.052,2.914C307.991,576.46,307.362,578.754,305.814,579.674Z" transform="translate(-281.12 -566.112)" fill="#8fce1e"/>
                  <g id="Grupo_879474" data-name="Grupo 879474">
                    <g id="Grupo_879473" data-name="Grupo 879473" transform="translate(3.131 2.716)" opacity="0.36">
                      <path id="Trazado_273714" data-name="Trazado 273714" d="M285.5,576.431c1.217-.73,2.557,1.218,1.339,2.435S284.279,577.161,285.5,576.431Z" transform="translate(-285.017 -570.825)" fill="#009119"/>
                      <path id="Trazado_273715" data-name="Trazado 273715" d="M292.309,569.5c1.712-.18,2.8,3.538,1.1,4.265S290,569.742,292.309,569.5Z" transform="translate(-286.229 -569.492)" fill="#009119"/>
                      <path id="Trazado_273716" data-name="Trazado 273716" d="M300.526,570.6c-1.1,1.462.487,4.017,2.191,2.435S301.622,569.138,300.526,570.6Z" transform="translate(-287.994 -569.618)" fill="#009119"/>
                      <path id="Trazado_273717" data-name="Trazado 273717" d="M297.48,578.034c1.852-.8,2.787,2.013,1.1,2.495S295.628,578.831,297.48,578.034Z" transform="translate(-287.287 -571.143)" fill="#009119"/>
                      <path id="Trazado_273718" data-name="Trazado 273718" d="M308.132,576.262c1.272.421.623,2.838-.784,2.594S306.915,575.859,308.132,576.262Z" transform="translate(-289.269 -570.815)" fill="#009119"/>
                    </g>
                    <path id="Trazado_273719" data-name="Trazado 273719" d="M305.814,579.674c-2.659,1.584-6.355-.709-6.355-.709a5.676,5.676,0,0,1-4.865,1.8,5.867,5.867,0,0,1-4.63-2.673c-2.674,2.8-7.911,2.8-8.766-1.826S286.676,572,286.676,572s-1.943-3.894,1.22-5.479a3.671,3.671,0,0,1,2.534-.307,4.873,4.873,0,0,0-2.293,4.164,4.146,4.146,0,0,0,5.654,2.937,1.834,1.834,0,0,0-.417,2.659,2.871,2.871,0,0,0,2.783.877,7.233,7.233,0,0,0,2.739-1.329,4.606,4.606,0,0,0,8.554-.11,6.325,6.325,0,0,0,.248-.862C307.991,576.46,307.362,578.754,305.814,579.674Z" transform="translate(-281.12 -566.112)" fill="#006800" opacity="0.14"/>
                  </g>
                </g>
                <g id="Grupo_879477" data-name="Grupo 879477">
                  <path id="Trazado_273720" data-name="Trazado 273720" d="M322.143,544.63c.007,0-.007.007-.007.007a7.686,7.686,0,0,1-1.044,1.643c-4.266,5.238-11.935,2.214-11.935,2.214a9.607,9.607,0,0,1-7.787,3.024,6.731,6.731,0,0,1-6.121-4.726s-2.892,5.58-9.219,4.755-6.939-5.639-6.939-5.639-12.053,1.833-11.812-9.854,12.658-8.94,12.658-8.94-2.067-12.483,10.592-15.282a15.047,15.047,0,0,1,3.089-.372c10.16-.168,13.1,11.2,13.1,11.2s6.939-5.237,13.024,0S320,536.42,320,536.42,324.269,540.116,322.143,544.63Z" transform="translate(-267.276 -511.459)" fill="#8fce1e"/>
                  <g id="Grupo_879476" data-name="Grupo 879476" transform="translate(5.116 5.895)" opacity="0.36">
                    <path id="Trazado_273721" data-name="Trazado 273721" d="M275.47,537.372c2.434-.365,3.287,4.262.365,5.479S273.035,537.738,275.47,537.372Z" transform="translate(-273.643 -522.443)" fill="#009119"/>
                    <path id="Trazado_273722" data-name="Trazado 273722" d="M296.709,518.83c3.648-.513,5.561,4.79,1.077,5.521S293.544,519.276,296.709,518.83Z" transform="translate(-277.716 -518.796)" fill="#009119"/>
                    <path id="Trazado_273723" data-name="Trazado 273723" d="M287.6,535.824c4.246-2.273,8.382,6.654,4.194,8.724S284.8,537.327,287.6,535.824Z" transform="translate(-276.164 -522.07)" fill="#009119"/>
                    <path id="Trazado_273724" data-name="Trazado 273724" d="M289.8,552.514c-1.039,2.284,1.9,5.035,3.626,2.091A2.11,2.11,0,1,0,289.8,552.514Z" transform="translate(-276.776 -525.167)" fill="#009119"/>
                    <path id="Trazado_273725" data-name="Trazado 273725" d="M303.725,533.835c3.715-1.478,3.967,4.518,1.41,5.607S301.584,534.687,303.725,533.835Z" transform="translate(-279.325 -521.706)" fill="#009119"/>
                    <path id="Trazado_273726" data-name="Trazado 273726" d="M321.731,529.1c-1.979,2.8,1.795,5.113,4.108,3.044S323.711,526.3,321.731,529.1Z" transform="translate(-282.985 -520.626)" fill="#009119"/>
                    <path id="Trazado_273727" data-name="Trazado 273727" d="M322.14,547.7c2.606-2.315,6.574,3.516,4.443,5.227S319.948,549.649,322.14,547.7Z" transform="translate(-283.059 -524.371)" fill="#009119"/>
                    <path id="Trazado_273728" data-name="Trazado 273728" d="M311.074,551.762a2.145,2.145,0,1,1,.73,4.224C308.639,556.632,308.4,552.249,311.074,551.762Z" transform="translate(-280.638 -525.267)" fill="#009119"/>
                  </g>
                  <path id="Trazado_273729" data-name="Trazado 273729" d="M322.136,544.638a7.684,7.684,0,0,1-1.044,1.643c-4.266,5.238-11.935,2.214-11.935,2.214a9.607,9.607,0,0,1-7.787,3.024,6.731,6.731,0,0,1-6.121-4.726s-2.892,5.58-9.219,4.755-6.939-5.639-6.939-5.639-12.053,1.833-11.812-9.854,12.658-8.94,12.658-8.94-2.067-12.483,10.592-15.282a15.044,15.044,0,0,1,3.089-.372,10.021,10.021,0,0,0-6.654,7.049c-1.044,4.756,2.6,10.132,7.45,10.5-3.141.271-6.442.6-9.057,2.367s-4.2,5.471-2.586,8.181a7.359,7.359,0,0,0,4.923,3c3.126.679,6.939.08,8.554-2.681a6.431,6.431,0,0,0,11.819,3.39,8.293,8.293,0,0,0,14.068,1.38Z" transform="translate(-267.276 -511.459)" fill="#006800" opacity="0.14"/>
                </g>
              </g>
              <g id="Grupo_879479" data-name="Grupo 879479" transform="translate(56.046 110.015)">
                <path id="Trazado_273730" data-name="Trazado 273730" d="M211.483,570.836s-1.626,12.951-16.73,34.522c-.143.2-.292.415-.441.627,0,0-1.657-21.273,17.159-35.137Z" transform="translate(-186.138 -569.836)" fill="#abd038"/>
                <path id="Trazado_273731" data-name="Trazado 273731" d="M192.924,597.456a70.339,70.339,0,0,1-.6,8.284c-.149-.428-.3-.85-.447-1.266-9.228-26.33-7.62-34.882-7.62-34.882C191.894,576.077,193.079,588.954,192.924,597.456Z" transform="translate(-184.147 -569.592)" fill="#abd038"/>
                <path id="Trazado_273732" data-name="Trazado 273732" d="M219.69,590.408c-4.27,9.5-15.8,15.471-21.733,18.014-2.2.943-3.636,1.409-3.636,1.409C200.943,598.643,219.69,590.408,219.69,590.408Z" transform="translate(-186.147 -573.683)" fill="#abd038"/>
                <path id="Trazado_273733" data-name="Trazado 273733" d="M219.69,590.408s-12.48,11.064-21.733,18.014c-2.2.943-3.636,1.409-3.636,1.409C200.943,598.643,219.69,590.408,219.69,590.408Z" transform="translate(-186.147 -573.683)" fill="#006800" opacity="0.14"/>
                <path id="Trazado_273734" data-name="Trazado 273734" d="M191.875,604.474c-9.228-26.33-7.62-34.882-7.62-34.882S191.67,589.655,191.875,604.474Z" transform="translate(-184.147 -569.592)" fill="#006800" opacity="0.14"/>
                <path id="Trazado_273735" data-name="Trazado 273735" d="M211.47,570.851c-.409.627-13.671,20.783-16.687,34.379-.012.043-.018.088-.031.131-.143.2-.292.415-.441.627C194.312,605.988,192.655,584.715,211.47,570.851Z" transform="translate(-186.138 -569.839)" fill="#006800" opacity="0.14"/>
              </g>
              <g id="Grupo_879480" data-name="Grupo 879480" transform="translate(158.278 106.686)">
                <path id="Trazado_273736" data-name="Trazado 273736" d="M356.75,605.466c-23.842-6.775-32-24.163-32.728-25.816v-.006a1.071,1.071,0,0,1-.055-.123C348.1,583.844,356.75,605.466,356.75,605.466Z" transform="translate(-313.861 -568.214)" fill="#00b43a"/>
                <path id="Trazado_273737" data-name="Trazado 273737" d="M356.764,605.5c-23.842-6.775-32-24.163-32.728-25.816Z" transform="translate(-313.874 -568.246)" fill="#009119"/>
                <path id="Trazado_273738" data-name="Trazado 273738" d="M345.659,604.964c-20.241,4.229-33-5.459-34.181-6.4l0,0a.912.912,0,0,1-.088-.07C330.89,592.34,345.659,604.964,345.659,604.964Z" transform="translate(-311.388 -571.61)" fill="#00b43a"/>
                <path id="Trazado_273739" data-name="Trazado 273739" d="M345.682,605.4c-20.241,4.229-33-5.459-34.181-6.4Z" transform="translate(-311.41 -572.042)" fill="#009119"/>
                <path id="Trazado_273740" data-name="Trazado 273740" d="M356.993,599.06c-12.724-16.3-9.656-32.025-9.335-33.5l0,0a.862.862,0,0,1,.024-.11C361.809,580.237,356.993,599.06,356.993,599.06Z" transform="translate(-318.408 -565.448)" fill="#00b43a"/>
                <path id="Trazado_273741" data-name="Trazado 273741" d="M356.993,599.089c-12.724-16.3-9.656-32.025-9.335-33.5Z" transform="translate(-318.408 -565.476)" fill="#009119"/>
              </g>
              <g id="Grupo_879492" data-name="Grupo 879492" transform="translate(0 54.935)">
                <g id="Grupo_879482" data-name="Grupo 879482" transform="translate(42.022 31.03)">
                  <path id="Trazado_273742" data-name="Trazado 273742" d="M178,609.427l-11.312.416s.02-5.624.133-13.947c.02-1.8.054-3.728.08-5.75.046-2.608.092-5.384.152-8.259.04-1.988.087-4.025.14-6.082.08-3.446.179-6.97.285-10.459.073-2.078.146-4.151.226-6.195.112-2.889.239-5.715.371-8.421.093-1.769.186-3.482.292-5.131.113-1.839.232-3.595.366-5.236l2.819-.7s.093,1.346.272,3.693c.04.613.093,1.3.153,2.044.113,1.5.246,3.256.4,5.208.2,2.544.424,5.433.67,8.548.159,1.945.325,3.975.5,6.068.226,2.679.458,5.462.7,8.281.179,2.015.358,4.052.544,6.089.013.134.027.261.039.394.292,3.221.6,6.441.9,9.571.206,2.037.4,4.031.611,5.969C176.9,600.73,177.461,605.516,178,609.427Z" transform="translate(-166.693 -539.658)" fill="#714c1f"/>
                  <g id="Grupo_879481" data-name="Grupo 879481" transform="translate(0.135 5.737)" opacity="0.38">
                    <path id="Trazado_273743" data-name="Trazado 273743" d="M174.893,587.867l-7.743,2.3c.04-1.988.087-4.025.14-6.082l7.058-2.3C174.527,583.793,174.706,585.83,174.893,587.867Z" transform="translate(-166.918 -553.673)" fill="#b9de93"/>
                    <path id="Trazado_273744" data-name="Trazado 273744" d="M176.388,607.728l-9.527.374c.02-1.8.053-3.728.08-5.75l8.837-.592C175.983,603.8,176.183,605.79,176.388,607.728Z" transform="translate(-166.861 -557.6)" fill="#b9de93"/>
                    <path id="Trazado_273745" data-name="Trazado 273745" d="M172.721,552.006l-4.3.127c.093-1.769.186-3.482.292-5.131l3.609-.2C172.436,548.3,172.569,550.054,172.721,552.006Z" transform="translate(-167.168 -546.798)" fill="#b9de93"/>
                    <path id="Trazado_273746" data-name="Trazado 273746" d="M173.749,569.987l-6.07.127c.073-2.079.145-4.151.225-6.195h5.341C173.4,565.864,173.57,567.894,173.749,569.987Z" transform="translate(-167.022 -550.163)" fill="#b9de93"/>
                  </g>
                  <path id="Trazado_273747" data-name="Trazado 273747" d="M178,609.427l-11.312.416s.02-5.624.133-13.947c.02-1.8.054-3.728.08-5.75.046-2.608.092-5.384.152-8.259.04-1.988.087-4.025.14-6.082.08-3.446.179-6.97.285-10.459.073-2.078.146-4.151.226-6.195.112-2.889.239-5.715.371-8.421.093-1.769.186-3.482.292-5.131.113-1.839.232-3.595.366-5.236l2.819-.7s.093,1.346.272,3.693a1.772,1.772,0,0,0-1.306.6c-1.493,1.614,1.068,37.027,1.068,37.027a10.534,10.534,0,0,1,3.251-.994c.292,3.221.6,6.441.9,9.571.206,2.037.4,4.031.611,5.969C176.9,600.73,177.461,605.516,178,609.427Z" transform="translate(-166.693 -539.658)" fill="#381b03" opacity="0.38"/>
                </g>
                <g id="Grupo_879491" data-name="Grupo 879491">
                  <g id="Grupo_879484" data-name="Grupo 879484" transform="translate(2.933)">
                    <path id="Trazado_273748" data-name="Trazado 273748" d="M161.165,532.772c-4.989-3.735-13.05-6.815-13.05-6.815.232-1.036.53-2.107.856-3.115.929-2.9,2.023-5.349,2.023-5.349a16.549,16.549,0,0,0-4.856,4.158,18.215,18.215,0,0,0-1.56,2.192c-3.98-1.41-14.6-4.7-14.6-4.7a37.869,37.869,0,0,1,3.271-4.384c1.413-1.7,2.7-3.129,2.7-3.129a21.343,21.343,0,0,0-4.153,1.959,53.729,53.729,0,0,0-4.916,3.313c-2.872-2.009-8.844-6.682-8.844-6.682,1.506-2.177,6.1-6.04,12.161-7.985a22.319,22.319,0,0,1,19.684,2.58,25.122,25.122,0,0,1,10.781,16.244c0,.014.007.028.007.042A34.479,34.479,0,0,1,161.165,532.772Z" transform="translate(-118.041 -501.037)" fill="#00b43a"/>
                    <g id="Grupo_879483" data-name="Grupo 879483" transform="translate(21.958 2.757)" opacity="0.4">
                      <path id="Trazado_273749" data-name="Trazado 273749" d="M159.141,512.914c1.824-1.409,6.137,3.524,3.98,5.462S157.316,514.323,159.141,512.914Z" transform="translate(-147.979 -506.08)" fill="#00ff3f"/>
                      <path id="Trazado_273750" data-name="Trazado 273750" d="M145.585,504.877c-1.658,1.669,6.8,6.074,8.127,4.135S147.243,503.208,145.585,504.877Z" transform="translate(-145.37 -504.469)" fill="#00ff3f"/>
                      <path id="Trazado_273751" data-name="Trazado 273751" d="M152.387,514.072c2.156,0,2.986,4.756,0,4.581S150.232,514.072,152.387,514.072Z" transform="translate(-146.368 -506.356)" fill="#00ff3f"/>
                    </g>
                    <path id="Trazado_273752" data-name="Trazado 273752" d="M131.8,513.882a53.729,53.729,0,0,0-4.916,3.313c-2.872-2.009-8.844-6.681-8.844-6.681,1.506-2.177,6.1-6.04,12.161-7.985C124.689,504.473,126.613,509.47,131.8,513.882Z" transform="translate(-118.041 -501.33)" fill="#005527" opacity="0.28"/>
                    <path id="Trazado_273753" data-name="Trazado 273753" d="M141.164,521.209c2.434,1.254,5.181,2.607,7.895,3.8a18.209,18.209,0,0,0-1.56,2.192c-3.98-1.41-14.6-4.7-14.6-4.7a37.864,37.864,0,0,1,3.271-4.384A35.528,35.528,0,0,0,141.164,521.209Z" transform="translate(-120.962 -504.394)" fill="#005527" opacity="0.28"/>
                    <path id="Trazado_273754" data-name="Trazado 273754" d="M168.522,537.68c-4.989-3.735-13.05-6.815-13.05-6.815.232-1.036.53-2.107.856-3.115,6.84,2.706,12.685,3.678,11.7-1.741A34.479,34.479,0,0,1,168.522,537.68Z" transform="translate(-125.398 -505.945)" fill="#005527" opacity="0.28"/>
                  </g>
                  <g id="Grupo_879486" data-name="Grupo 879486" transform="translate(42.984 0.733)">
                    <path id="Trazado_273755" data-name="Trazado 273755" d="M196.166,513.063a18.917,18.917,0,0,0-5.082-2.664,24.5,24.5,0,0,1,3.5,3.411,21.856,21.856,0,0,1,1.811,2.459s-10.17,5.165-13.269,7.28a35.052,35.052,0,0,0-3.509-2.8,11.915,11.915,0,0,0-4.418-2.136s1.307,1.409,2.654,3.052a29.544,29.544,0,0,1,2.275,3.059s-6.17,3.241-9.66,8.668c0,0-7.032-13.129,2.15-24.4,7.052-8.661,20.952-8.316,29.523-4.391,0,0,.033.014.086.043a15.523,15.523,0,0,1,5.892,4.348,96.586,96.586,0,0,1-9.175,6.1S197.738,514.127,196.166,513.063Z" transform="translate(-167.89 -501.95)" fill="#00b43a"/>
                    <g id="Grupo_879485" data-name="Grupo 879485" transform="translate(14.25 1.858)" opacity="0.4">
                      <path id="Trazado_273756" data-name="Trazado 273756" d="M202.76,505.654c.829,1.733-7.132,3.142-7.8.5S201.931,503.92,202.76,505.654Z" transform="translate(-187.454 -504.262)" fill="#00ff3f"/>
                      <path id="Trazado_273757" data-name="Trazado 273757" d="M187.591,505c2.119-.382,4.156,4.821,1.2,5.349S184.035,505.637,187.591,505Z" transform="translate(-185.627 -504.403)" fill="#00ff3f"/>
                    </g>
                    <path id="Trazado_273758" data-name="Trazado 273758" d="M177.849,523.391a29.538,29.538,0,0,1,2.275,3.059s-6.17,3.241-9.66,8.668c0,0-7.032-13.129,2.15-24.4-4.525,6.751-1.951,16.85,3.974,13.383C176.98,523.869,177.4,523.63,177.849,523.391Z" transform="translate(-167.89 -503.672)" fill="#005527" opacity="0.28"/>
                    <path id="Trazado_273759" data-name="Trazado 273759" d="M197.449,516.712a21.856,21.856,0,0,1,1.811,2.459s-10.17,5.165-13.269,7.28a35.052,35.052,0,0,0-3.509-2.8C186.754,521.5,192.559,518.988,197.449,516.712Z" transform="translate(-170.758 -504.851)" fill="#005527" opacity="0.28"/>
                    <path id="Trazado_273760" data-name="Trazado 273760" d="M215.032,509.648a96.575,96.575,0,0,1-9.175,6.1s-1.2-.966-2.774-2.03c1.971-.938,3.729-1.825,5.1-2.607,5.347-3.087,1.586-5.455.962-5.815A15.523,15.523,0,0,1,215.032,509.648Z" transform="translate(-174.807 -502.608)" fill="#005527" opacity="0.28"/>
                  </g>
                  <g id="Grupo_879488" data-name="Grupo 879488" transform="translate(0 21.155)">
                    <path id="Trazado_273761" data-name="Trazado 273761" d="M160.653,539.356c-3.556,1.642-12.147,3.623-12.147,3.623-.419-1.184-.922-2.446-1.393-3.566-.783-1.882-1.48-3.347-1.48-3.347a34.579,34.579,0,0,0-.265,4.151c-.04,1.994.039,3.6.039,3.6-3.317,1.177-12.605,3.756-12.605,3.756-.066-1.31-.112-2.621-.145-3.82-.073-2.875-.073-5.1-.073-5.1a34.7,34.7,0,0,0-2.269,5.4c-.889,2.622-1.493,4.933-1.493,4.933-5.526,1.649-14.43,4.933-14.43,4.933a31.37,31.37,0,0,1,5.766-16.991,23.585,23.585,0,0,1,11.982-8.379A22.673,22.673,0,0,1,149,529.5c.006,0,.006.007.013.007A30.667,30.667,0,0,1,160.653,539.356Z" transform="translate(-114.391 -527.367)" fill="#00b43a"/>
                    <g id="Grupo_879487" data-name="Grupo 879487" transform="translate(23.32 2.14)" opacity="0.33">
                      <path id="Trazado_273762" data-name="Trazado 273762" d="M144.362,530.8c-1.02,1.923,3.534,3.326,5.251,1.388S145.192,529.233,144.362,530.8Z" transform="translate(-143.573 -530.03)" fill="#00ff3f"/>
                      <path id="Trazado_273763" data-name="Trazado 273763" d="M156.211,534.232c1.588-1.445,6.549,1.266,4.28,3.241S154.2,536.063,156.211,534.232Z" transform="translate(-145.823 -530.776)" fill="#00ff3f"/>
                      <path id="Trazado_273764" data-name="Trazado 273764" d="M145.532,537.383c2.288-.588,2.654,5.573,0,5.222S142.547,538.15,145.532,537.383Z" transform="translate(-143.416 -531.468)" fill="#00ff3f"/>
                    </g>
                    <path id="Trazado_273765" data-name="Trazado 273765" d="M130.314,546.388c-.889,2.622-1.493,4.933-1.493,4.933-5.526,1.649-14.43,4.933-14.43,4.933a31.37,31.37,0,0,1,5.766-16.991h.006C116.587,544.506,121.377,547.255,130.314,546.388Z" transform="translate(-114.391 -529.705)" fill="#005527" opacity="0.28"/>
                    <path id="Trazado_273766" data-name="Trazado 273766" d="M149.875,546.96c-3.317,1.177-12.605,3.756-12.605,3.756-.066-1.31-.112-2.621-.145-3.82.816-.127,1.658-.275,2.528-.458a55.843,55.843,0,0,0,10.184-3.08C149.8,545.353,149.875,546.96,149.875,546.96Z" transform="translate(-118.859 -530.51)" fill="#005527" opacity="0.28"/>
                    <path id="Trazado_273767" data-name="Trazado 273767" d="M168.658,539.881c-3.556,1.642-12.147,3.623-12.147,3.623-.419-1.184-.922-2.446-1.393-3.566,5.8-2.868,8.372-6.547,1.9-9.9A30.667,30.667,0,0,1,168.658,539.881Z" transform="translate(-122.396 -527.892)" fill="#005527" opacity="0.28"/>
                  </g>
                  <g id="Grupo_879490" data-name="Grupo 879490" transform="translate(45.558 24.06)">
                    <path id="Trazado_273768" data-name="Trazado 273768" d="M198.952,551.378a47,47,0,0,0,.617-5.673s-1.38,2.305-3.072,4.679c-.4.564-.816,1.128-1.241,1.663,0,0-5.752-3.058-10.177-5.173a32.994,32.994,0,0,0,1.334-3.39,15.054,15.054,0,0,0,.882-4.362s-1.2,1.163-2.627,2.445a33.122,33.122,0,0,1-3.57,2.883,50.482,50.482,0,0,1-10-5.349s4.538-7.625,15.532-8.1a28.906,28.906,0,0,1,6.953.606c9.779,2,13.932,11.333,15.683,18.316a1.259,1.259,0,0,0,.047.2c0,.006.006.014.006.021.047.169.086.345.12.514a42.5,42.5,0,0,1,1.081,7.252s-8.247-2.819-11.975-4.229C198.541,553.689,198.734,552.745,198.952,551.378Z" transform="translate(-171.094 -530.983)" fill="#00b43a"/>
                    <g id="Grupo_879489" data-name="Grupo 879489" transform="translate(22.499 3.862)" opacity="0.29">
                      <path id="Trazado_273769" data-name="Trazado 273769" d="M208.5,541.642c1.824-.586,5.55,5.958,2.731,7.757S206.432,542.306,208.5,541.642Z" transform="translate(-200.777 -536.933)" fill="#00ff3f"/>
                      <path id="Trazado_273770" data-name="Trazado 273770" d="M200.362,544.314c1.725-.34,2.449,5.578.345,5.615S198.637,544.653,200.362,544.314Z" transform="translate(-199.097 -537.463)" fill="#00ff3f"/>
                      <path id="Trazado_273771" data-name="Trazado 273771" d="M202.067,536.135c.963-1.455,3.443,2.085,2.482,3.421S200.579,538.384,202.067,536.135Z" transform="translate(-199.601 -535.79)" fill="#00ff3f"/>
                    </g>
                    <path id="Trazado_273772" data-name="Trazado 273772" d="M184.668,541.573a33.107,33.107,0,0,1-3.57,2.883,50.483,50.483,0,0,1-10-5.349s4.538-7.625,15.532-8.1v.007C179.493,531.636,180.581,536.654,184.668,541.573Z" transform="translate(-171.094 -530.988)" fill="#005527" opacity="0.28"/>
                    <path id="Trazado_273773" data-name="Trazado 273773" d="M193.212,549.531a32.443,32.443,0,0,0,6.707,3.911c-.4.564-.816,1.128-1.241,1.663,0,0-5.752-3.058-10.177-5.173a33,33,0,0,0,1.334-3.39A34.9,34.9,0,0,0,193.212,549.531Z" transform="translate(-174.515 -534.042)" fill="#005527" opacity="0.28"/>
                    <path id="Trazado_273774" data-name="Trazado 273774" d="M217.23,562.733s-8.247-2.819-11.975-4.229c0,0,.193-.944.411-2.312,5.713,2.058,10.94,2.332,10.483-.712A42.5,42.5,0,0,1,217.23,562.733Z" transform="translate(-177.808 -535.798)" fill="#005527" opacity="0.28"/>
                  </g>
                </g>
              </g>
              <g id="Grupo_879496" data-name="Grupo 879496" transform="translate(21.486 129.903)">
                <g id="Grupo_879493" data-name="Grupo 879493" transform="translate(97.519 9.545)">
                  <path id="Trazado_273775" data-name="Trazado 273775" d="M262.508,616.77a46.18,46.18,0,0,1,6.362-5.232l.241.321a56.632,56.632,0,0,0-6.12,5.221Z" transform="translate(-262.508 -607.268)" fill="#abd038"/>
                  <path id="Trazado_273776" data-name="Trazado 273776" d="M269.331,611.449s-.037-3.109,4.407-3.516C273.738,607.933,273.041,611.909,269.331,611.449Z" transform="translate(-263.849 -606.56)" fill="#abd038"/>
                  <path id="Trazado_273777" data-name="Trazado 273777" d="M267.008,612.264a4.964,4.964,0,0,1-1.163-6.04S269.188,609.2,267.008,612.264Z" transform="translate(-263.056 -606.224)" fill="#abd038"/>
                  <path id="Trazado_273778" data-name="Trazado 273778" d="M267.726,614.214s.478,3.841,4.666,2.391C272.392,616.605,271.678,613.032,267.726,614.214Z" transform="translate(-263.534 -607.747)" fill="#abd038"/>
                </g>
                <path id="Trazado_273779" data-name="Trazado 273779" d="M246.079,622.868l-104.944.971s-.482-25.317,18.261-28.969a26.857,26.857,0,0,1,5.223-.526h.007c14.938-.014,21.066,13.426,21.066,13.426a14.1,14.1,0,0,1,13.638-6.326,14.931,14.931,0,0,1,12.417,9.007,10,10,0,0,1,7.794-1.359,8.8,8.8,0,0,1,5.844,4.521s3.893-4.865,11.928-2.921c5.106,1.241,7.261,5.821,8.152,9A17.3,17.3,0,0,1,246.079,622.868Z" transform="translate(-141.134 -594.344)" fill="#8fce1e"/>
                <g id="Grupo_879494" data-name="Grupo 879494" transform="translate(32.374 6.702)" opacity="0.32">
                  <path id="Trazado_273780" data-name="Trazado 273780" d="M182.9,602.865c2.879-1.236,8.82,4.22,4.958,6.829S178.858,604.6,182.9,602.865Z" transform="translate(-181.427 -602.686)" fill="#f3ff8b"/>
                  <path id="Trazado_273781" data-name="Trazado 273781" d="M219.883,608.059c-2.032.616.129,5.471,1.982,4.738S222.258,607.34,219.883,608.059Z" transform="translate(-188.824 -603.727)" fill="#f3ff8b"/>
                  <path id="Trazado_273782" data-name="Trazado 273782" d="M260.207,618.445c-2.1,2.113,4.017,3.759,4.382,1.8S262.719,615.915,260.207,618.445Z" transform="translate(-196.825 -605.567)" fill="#f3ff8b"/>
                </g>
                <path id="Trazado_273783" data-name="Trazado 273783" d="M246.079,622.868l-104.944.971s-.482-25.317,18.261-28.969a26.857,26.857,0,0,1,5.223-.526c-12.462.621-13.47,21.468-9.13,24.923,3.346,2.659,62.891,1.22,89.976.423A17.3,17.3,0,0,1,246.079,622.868Z" transform="translate(-141.134 -594.344)" fill="#005900" opacity="0.25"/>
                <g id="Grupo_879495" data-name="Grupo 879495" transform="translate(6.083 5.443)" opacity="0.36">
                  <path id="Trazado_273784" data-name="Trazado 273784" d="M172.214,613.211c3.9-.411,5.113,6.817.73,7.3S167.587,613.7,172.214,613.211Z" transform="translate(-152.727 -603.492)" fill="#009119"/>
                  <path id="Trazado_273785" data-name="Trazado 273785" d="M212.893,610.487c2.689,0,4.139,4.87,0,5.113S209.727,610.487,212.893,610.487Z" transform="translate(-160.78 -602.96)" fill="#009119"/>
                  <path id="Trazado_273786" data-name="Trazado 273786" d="M174.118,602.072c1.547-3.095,6.574,2.192,4.87,3.9S172.9,604.507,174.118,602.072Z" transform="translate(-153.658 -601.119)" fill="#009119"/>
                  <path id="Trazado_273787" data-name="Trazado 273787" d="M154.8,610.4c3.9,2.192-1.461,10.226-4.869,8.035S150.9,608.2,154.8,610.4Z" transform="translate(-148.705 -602.868)" fill="#009119"/>
                  <path id="Trazado_273788" data-name="Trazado 273788" d="M198.623,618.8c-1.7,1.948,2.678,6.33,4.626,3.408S200.327,616.853,198.623,618.8Z" transform="translate(-158.44 -604.457)" fill="#009119"/>
                  <path id="Trazado_273789" data-name="Trazado 273789" d="M236.218,622.047c1.551,3.077-3.9,8.255-7.062,4.116S234.757,619.149,236.218,622.047Z" transform="translate(-164.383 -605.001)" fill="#009119"/>
                  <path id="Trazado_273790" data-name="Trazado 273790" d="M259.691,622.934c1.542,1.885-3.9,6.087-5.6,2.922S257.5,620.256,259.691,622.934Z" transform="translate(-169.351 -605.181)" fill="#009119"/>
                </g>
              </g>
              <g id="Grupo_879498" data-name="Grupo 879498" transform="translate(155.096 112.326)">
                <path id="Trazado_273791" data-name="Trazado 273791" d="M441.355,619.6H307.427s1.512-7.056,8.335-9.006,10.957.73,10.957.73-2.192-5.354,2.432-7.794,8.035,1.461,8.035,1.461-2.68-9.737,4.383-12.9a12.64,12.64,0,0,1,2.075-.73,9.676,9.676,0,0,1,9.364,2.425c-.08-.438-2.732-14.185,8.525-18.743,11.446-4.624,18.261,6.333,18.261,6.333s3.9-10.226,13.4-8.765S403.9,586.978,403.9,586.978s4.141-4.872,10.957-.979,3.9,11.687,3.9,11.687,7.056-5.492,14.119-1.651,4.872,12.367,4.872,12.367a4.825,4.825,0,0,1,4.682,2.075,6.719,6.719,0,0,1,.672,1.089C445.051,615.466,441.355,619.6,441.355,619.6Z" transform="translate(-307.427 -572.468)" fill="#8fce1e"/>
                <path id="Trazado_273792" data-name="Trazado 273792" d="M441.355,624.222H307.427s1.512-7.056,8.335-9.006,10.957.73,10.957.73-2.192-5.354,2.432-7.794,8.035,1.461,8.035,1.461-2.68-9.737,4.383-12.9a12.64,12.64,0,0,1,2.075-.73,8.656,8.656,0,0,0-.416,1.965c-.146,1.541,4.054,11.293,6.435,8.261-2.571,3.265.672,8.436,4.741,9.277s8.137-1.125,11.833-3.024c3.915,6.011,14.5,5.5,17.816-.862,5.164,6.516,15.624,7.991,22.387,3.149,4.237,5.631,13.426,6.581,18.722,1.943,5.558,2.308,13.075,4.142,16.676-.672a7.576,7.576,0,0,0,.591-.921,6.719,6.719,0,0,1,.672,1.089C445.051,620.088,441.355,624.222,441.355,624.222Z" transform="translate(-307.427 -577.09)" fill="#005900" opacity="0.25"/>
                <g id="Grupo_879497" data-name="Grupo 879497" transform="translate(37.655 5.448)" opacity="0.36">
                  <path id="Trazado_273793" data-name="Trazado 273793" d="M357.305,601.934c2.517,1.1.243,4.712-1.948,3.67S354.626,600.767,357.305,601.934Z" transform="translate(-354.293 -583.664)" fill="#009119"/>
                  <path id="Trazado_273794" data-name="Trazado 273794" d="M356.549,614.165c-2.212.385-1.238,4.524.954,3.306S358.761,613.78,356.549,614.165Z" transform="translate(-354.49 -586.103)" fill="#009119"/>
                  <path id="Trazado_273795" data-name="Trazado 273795" d="M373.392,604.17c3.277,1.241,3.409,7.148-2.191,6.536S368.036,602.143,373.392,604.17Z" transform="translate(-356.989 -584.082)" fill="#009119"/>
                  <path id="Trazado_273796" data-name="Trazado 273796" d="M383.845,582.448c5.483,2.243,1.948,10.713-4.383,8.766S378.488,580.257,383.845,582.448Z" transform="translate(-358.676 -579.81)" fill="#009119"/>
                  <path id="Trazado_273797" data-name="Trazado 273797" d="M390.837,608.09c5.46,1.313.487,12.18-4.626,9.193S384.263,606.509,390.837,608.09Z" transform="translate(-360.068 -584.876)" fill="#009119"/>
                  <path id="Trazado_273798" data-name="Trazado 273798" d="M411.024,580.425c-4.475,3.836,2.434,11.93,7.061,8.278S416.137,576.042,411.024,580.425Z" transform="translate(-365.159 -579.249)" fill="#009119"/>
                  <path id="Trazado_273799" data-name="Trazado 273799" d="M437.144,597.061c3.071.768,2.434,3.023-.487,3.946S434.221,596.331,437.144,597.061Z" transform="translate(-370.095 -582.737)" fill="#009119"/>
                  <path id="Trazado_273800" data-name="Trazado 273800" d="M438.486,613.136c3.175.414,3.165,2.5,0,2.952S436.619,612.892,438.486,613.136Z" transform="translate(-370.464 -585.907)" fill="#009119"/>
                  <path id="Trazado_273801" data-name="Trazado 273801" d="M470.04,620.983c2.79-1.58,3.652,4.458.487,4.773S467.848,622.223,470.04,620.983Z" transform="translate(-376.695 -587.399)" fill="#009119"/>
                  <path id="Trazado_273802" data-name="Trazado 273802" d="M407.9,601.7c4.036-.972,5.844,8.059,1.461,8.619S402.544,602.986,407.9,601.7Z" transform="translate(-364.227 -583.646)" fill="#009119"/>
                </g>
              </g>
              <g id="Grupo_879509" data-name="Grupo 879509" transform="translate(186.724 35.466)">
                <g id="Grupo_879499" data-name="Grupo 879499" transform="translate(22.853 47.034)">
                  <path id="Trazado_273803" data-name="Trazado 273803" d="M443.543,568.968c-.223,8.164-.439,12.766-4.805,14.4s-15.712.969-16.8,1.846c-.851.68-.779,16.9-.707,23.993.019,2,.039,3.28.039,3.28l-23.777.767s.223-24.111,0-25.2-11.469,1.094-18.062-2.618-2.665-18.324-4.2-26.507l9.3-2.3s-.072,4.079-.066,8.694c.006,5.342.125,11.4.59,12.693.877,2.4,10.474,1.742,12.006,1.31.17-.046.308-.51.419-1.3.917-6.436.2-34.8.112-42.67h23.679s.144,7.724.268,15.541c.1,5.807.177,11.673.177,14.461,0,5.342-.112,7.922.431,9.048a1.249,1.249,0,0,0,.472.556c1.061.655,10.226,0,12.189-.654s1.094-35.266,1.094-35.266,7.2-1.394,7.2-.74c0,.308.144,5.329.275,11.4C443.529,556.511,443.654,564.654,443.543,568.968Z" transform="translate(-375.237 -535.346)" fill="#714c1f"/>
                  <path id="Trazado_273804" data-name="Trazado 273804" d="M454.854,550.373a7.026,7.026,0,0,1-3.142.714c-2.095-.17-1.113,20.942-2.422,23.888s-12.11,2.978-14.075,2.3a2.771,2.771,0,0,1-1.591-2.206,1.249,1.249,0,0,0,.472.556c1.061.655,10.226,0,12.189-.654s1.094-35.266,1.094-35.266,7.2-1.394,7.2-.74C454.58,539.277,454.724,544.3,454.854,550.373Z" transform="translate(-386.713 -536.024)" fill="#381b03" opacity="0.38"/>
                  <path id="Trazado_273805" data-name="Trazado 273805" d="M421.232,609.2c.019,2,.039,3.28.039,3.28l-23.777.767s.223-24.111,0-25.2-11.469,1.094-18.062-2.618-2.665-18.324-4.2-26.507l9.3-2.3s-.072,4.079-.066,8.694A5.294,5.294,0,0,1,382.6,564.3a13.167,13.167,0,0,1-3.162,1.65c-1.846.655-1.486,12.438.622,16.2s17.675,2.789,17.675,2.789a35.951,35.951,0,0,0-.249-6.926c.917-6.436.2-34.8.112-42.67h23.679s.144,7.724.268,15.541c-1.748.2-4.478-.229-6.8-3.764a18.726,18.726,0,0,1-5.329,4.1,30.636,30.636,0,0,0-4.491,2.186c-.818.589.164,53.085,0,54.414C404.807,608.712,414.653,609.065,421.232,609.2Z" transform="translate(-375.237 -535.346)" fill="#381b03" opacity="0.38"/>
                </g>
                <g id="Grupo_879500" data-name="Grupo 879500" transform="translate(27.047 53.596)">
                  <path id="Trazado_273806" data-name="Trazado 273806" d="M394.937,553.208s6.272,9.606,18.1,7.855,13.451-17.551,13.451-17.551h2s.142,15.729-15.456,19.586-21.461-11.84-21.461-11.84Z" transform="translate(-382.641 -543.513)" fill="#00b43a"/>
                  <path id="Trazado_273807" data-name="Trazado 273807" d="M383.059,555.738s1.934,14.767,14.591,14.984,19.64-18.151,19.64-25.825h1.745s-2.558,25.822-20.7,27.786-17.878-22.476-17.878-22.476Z" transform="translate(-380.457 -543.785)" fill="#00b43a"/>
                  <path id="Trazado_273808" data-name="Trazado 273808" d="M441.235,547.383s2.913,13.643,12.22,12.842c11.336-.975,11.855-14.15,11.855-14.15h1.232s.436,14.4-12.654,16.148S439,547.383,439,547.383Z" transform="translate(-391.963 -544.016)" fill="#00b43a"/>
                </g>
                <g id="Grupo_879503" data-name="Grupo 879503" transform="translate(17.719)">
                  <path id="Trazado_273809" data-name="Trazado 273809" d="M452.263,512a15.645,15.645,0,0,1-1.689,2.246s3.627,6.351-.576,12.5-14.258,0-14.258,0a12.922,12.922,0,0,1-9.525,10.645c-8.759,2.475-13.087-5.977-13.087-5.977s-2.265,7.561-10.344,7.358S394.713,529,394.713,529s-4.288,6.829-12.072,5.467-7.783-10-7.783-10-10.442-9.689-3.8-22.566,22.565-11.345,22.565-11.345,1.532-13.316,15.057-13.747a18.429,18.429,0,0,1,3.915.268c9.977,1.826,11.43,11.947,11.43,11.947s5.388-4.36,11.28-1.742a9.373,9.373,0,0,1,5.676,8.511s8.726-2.626,12.438,4.471C455.824,504.882,453.9,509.4,452.263,512Z" transform="translate(-368.846 -476.806)" fill="#00b43a"/>
                  <g id="Grupo_879501" data-name="Grupo 879501" transform="translate(45.366 5.854)" opacity="0.29">
                    <path id="Trazado_273810" data-name="Trazado 273810" d="M444.045,493.145c-2.406,2.547,5.073,6.71,7.2,4.092S446.827,490.2,444.045,493.145Z" transform="translate(-428.899 -485.68)" fill="#00ff3f"/>
                    <path id="Trazado_273811" data-name="Trazado 273811" d="M466.764,505.339c3.711-2.652,5.737,6.392,2.787,6.856S464.716,506.8,466.764,505.339Z" transform="translate(-433.288 -488.173)" fill="#00ff3f"/>
                    <path id="Trazado_273812" data-name="Trazado 273812" d="M426.755,484.193c3.07-1.04,6.034,6.293,2.462,7.546S423.857,485.175,426.755,484.193Z" transform="translate(-425.31 -484.093)" fill="#00ff3f"/>
                  </g>
                  <g id="Grupo_879502" data-name="Grupo 879502" transform="translate(8.689 10.001)">
                    <path id="Trazado_273813" data-name="Trazado 273813" d="M386.12,503.959c4.409,1.249-1.126,9.383-5.132,7.855S383.039,503.086,386.12,503.959Z" transform="translate(-379.661 -492.129)" fill="#009119"/>
                    <path id="Trazado_273814" data-name="Trazado 273814" d="M405.288,515.34c4.967,1.5-2.4,13.031-6.765,11.323S400.924,514.017,405.288,515.34Z" transform="translate(-383.091 -494.359)" fill="#009119"/>
                    <path id="Trazado_273815" data-name="Trazado 273815" d="M385.71,518.631c4.891,1.094.971,7.3-2.851,6.271S382.783,517.976,385.71,518.631Z" transform="translate(-379.971 -495.017)" fill="#009119"/>
                    <path id="Trazado_273816" data-name="Trazado 273816" d="M417.034,489.3c3.146-.6-.568,5.019-2.313,4.147S414.765,489.736,417.034,489.3Z" transform="translate(-386.414 -489.253)" fill="#009119"/>
                    <path id="Trazado_273817" data-name="Trazado 273817" d="M420.141,505.263c3-1.712,3.033,4.582.535,5.018S417.087,507.008,420.141,505.263Z" transform="translate(-387.252 -492.342)" fill="#009119"/>
                    <path id="Trazado_273818" data-name="Trazado 273818" d="M405.314,500.309c3.055,2.4-4.583,10.155-7.419,6.823S402.26,497.908,405.314,500.309Z" transform="translate(-383.118 -491.316)" fill="#009119"/>
                  </g>
                  <path id="Trazado_273819" data-name="Trazado 273819" d="M450.574,514.243s3.627,6.351-.576,12.5-14.258,0-14.258,0a12.922,12.922,0,0,1-9.525,10.645c-8.759,2.475-13.087-5.977-13.087-5.977s-2.265,7.561-10.344,7.358S394.713,529,394.713,529s-4.288,6.829-12.072,5.467-7.783-10-7.783-10-10.442-9.689-3.8-22.566,22.565-11.345,22.565-11.345,1.532-13.316,15.057-13.747a18.429,18.429,0,0,1,3.915.268c-5.08.785-9.839,1.964-11.777,7.973-1.735,5.4,2.56,12.241,8.216,11.894-4.288.354-8.688.91-12.445,3s-6.762,6.068-6.494,10.364c.373,5.95,8.078,10.016,13.2,6.959-2.017,3.142,1.637,7.437,5.368,7.43s6.894-2.644,9.591-5.224a8.885,8.885,0,0,0,16.6.753c3.594,4.1,11.253,3.248,13.859-1.544,1.061-1.944,1.361-4.315,2.814-5.983a5.8,5.8,0,0,1,.74-.714A15.645,15.645,0,0,1,450.574,514.243Z" transform="translate(-368.846 -476.806)" fill="#006b3c" opacity="0.28"/>
                </g>
                <g id="Grupo_879506" data-name="Grupo 879506" transform="translate(0 39.347)">
                  <path id="Trazado_273820" data-name="Trazado 273820" d="M395.4,546.231a5.968,5.968,0,0,1-4.1,5.82,10.934,10.934,0,0,1-3.319.726s2.841,6.985-2.835,8.51-7.64-4.249-7.64-4.249a6.261,6.261,0,0,1-6.408,5.375,5.986,5.986,0,0,1-6.246-5.375s-4.143,8.177-11.894,4.033-2.069-14.625-2.069-14.625-8.078-6.108-1.532-13.963c3.915-4.7,9.84-4.635,13.97-3.824a24.265,24.265,0,0,1,4.74,1.421s3.116-6.546,12.058-3.489,7.856,14.4,7.856,14.4S395.4,539.9,395.4,546.231Z" transform="translate(-346.793 -525.779)" fill="#8fce1e"/>
                  <g id="Grupo_879504" data-name="Grupo 879504" transform="translate(31.508 4.554)" opacity="0.44">
                    <path id="Trazado_273821" data-name="Trazado 273821" d="M386.648,531.627c2.221-1.3,5.766,4.789,3.829,7.062S384.428,532.929,386.648,531.627Z" transform="translate(-386.008 -531.446)" fill="#f3ff8b"/>
                    <path id="Trazado_273822" data-name="Trazado 273822" d="M400.38,547.8c1.789-.242,3.437,3.084.819,3.738S397.762,548.155,400.38,547.8Z" transform="translate(-388.518 -534.658)" fill="#f3ff8b"/>
                  </g>
                  <g id="Grupo_879505" data-name="Grupo 879505" transform="translate(5.272 6.475)">
                    <path id="Trazado_273823" data-name="Trazado 273823" d="M360.216,538.348c2.818,2.178-1.948,7.45-4.131,4.053S358.24,536.82,360.216,538.348Z" transform="translate(-353.774 -534.626)" fill="#00b43a"/>
                    <path id="Trazado_273824" data-name="Trazado 273824" d="M371.123,545.6c1.9,2.009-6.45,9.022-8.432,5.6S368.444,542.761,371.123,545.6Z" transform="translate(-355.127 -535.985)" fill="#00b43a"/>
                    <path id="Trazado_273825" data-name="Trazado 273825" d="M357.774,558.751c2.292,1.047-1.238,5.607-3.529,3.894S354.429,557.223,357.774,558.751Z" transform="translate(-353.355 -538.663)" fill="#00b43a"/>
                    <path id="Trazado_273826" data-name="Trazado 273826" d="M383.97,534.068c4.482,1.364,1.091,6.632-2.182,5.825S378.951,532.539,383.97,534.068Z" transform="translate(-358.531 -533.837)" fill="#00b43a"/>
                    <path id="Trazado_273827" data-name="Trazado 273827" d="M381.247,554.817c3.073,2.264.055,8.51-4.664,5.455S377.1,551.761,381.247,554.817Z" transform="translate(-357.554 -537.784)" fill="#00b43a"/>
                  </g>
                  <path id="Trazado_273828" data-name="Trazado 273828" d="M387.976,553.379s2.841,6.985-2.835,8.51-7.64-4.249-7.64-4.249a6.261,6.261,0,0,1-6.408,5.375,5.986,5.986,0,0,1-6.246-5.375s-4.143,8.177-11.894,4.033-2.069-14.625-2.069-14.625-8.078-6.108-1.532-13.963c3.915-4.7,9.84-4.635,13.97-3.824-3.836.661-7.214,2.115-8.805,6.482a6.3,6.3,0,0,0-.412,3.1c.373,2.383,2.691,4.085,5.067,4.484a15.22,15.22,0,0,0,7.1-.969,12.3,12.3,0,0,0-5.473,5.106,4.743,4.743,0,0,0-.713,3.418c.484,1.859,2.743,2.769,4.628,2.442a11.8,11.8,0,0,0,4.982-2.749c-1.093,2.206,1,5.067,3.463,5.178s4.648-1.938,5.3-4.315a4.341,4.341,0,1,0,8.681-.085,4.756,4.756,0,0,0,4.163,1.3A10.934,10.934,0,0,1,387.976,553.379Z" transform="translate(-346.793 -526.381)" fill="#006800" opacity="0.14"/>
                </g>
                <g id="Grupo_879508" data-name="Grupo 879508" transform="translate(64.53 29.139)">
                  <path id="Trazado_273829" data-name="Trazado 273829" d="M465.737,541.6c-6.763,2.448-10.095-3.542-10.095-3.542s.275,5.676-4.962,6.33a5.868,5.868,0,0,1-6.547-4.144s-.871,4.8-3.712,5.015a3.644,3.644,0,0,1-3.758-1.964s-9.335,3.5-9.551-4.654,7.627-6.252,7.627-6.252-6.756-11.351,3.064-17.244a13.354,13.354,0,0,1,7.254-2.068c6,.117,9.989,4.687,9.989,4.687s4.8-3.928,9.82,0,0,10.7,0,10.7a5.419,5.419,0,0,1,3.477,1.5C471.511,532.991,471.026,539.688,465.737,541.6Z" transform="translate(-427.109 -513.074)" fill="#8fce1e"/>
                  <path id="Trazado_273830" data-name="Trazado 273830" d="M469.741,520.615c1.65-1.469,5.2,3.6,2.752,5.073S468.454,521.761,469.741,520.615Z" transform="translate(-435.398 -514.504)" fill="#f3ff8b" opacity="0.44"/>
                  <path id="Trazado_273831" data-name="Trazado 273831" d="M465.737,541.6c-6.763,2.448-10.095-3.542-10.095-3.542s.275,5.676-4.962,6.33a5.868,5.868,0,0,1-6.547-4.144s-.871,4.8-3.712,5.015a3.644,3.644,0,0,1-3.758-1.964s-9.335,3.5-9.551-4.654,7.627-6.252,7.627-6.252-6.756-11.351,3.064-17.244a13.354,13.354,0,0,1,7.254-2.068A12.889,12.889,0,0,0,441,515.014c-2.213,1.663-3.64,4.583-2.926,7.26a7.106,7.106,0,0,0,4.367,4.524,13.731,13.731,0,0,0,6.435.615c-3.162,1.2-4.026,6.088-1.466,8.294s7.273.635,7.986-2.671c1.624,3.043,5.107,5.237,8.5,4.595,3.346-.628,5.852-4.589,4.445-7.672C471.511,532.991,471.026,539.688,465.737,541.6Z" transform="translate(-427.109 -513.074)" fill="#006800" opacity="0.14"/>
                  <g id="Grupo_879507" data-name="Grupo 879507" transform="translate(2.919 5.315)">
                    <path id="Trazado_273832" data-name="Trazado 273832" d="M446.357,519.721c2.672.382,1.091,5.019-1.964,4.364S443.3,519.285,446.357,519.721Z" transform="translate(-433.124 -519.689)" fill="#00b43a"/>
                    <path id="Trazado_273833" data-name="Trazado 273833" d="M460.883,523.507c2.737.746.219,4.146-1.964,3.055S458.482,522.852,460.883,523.507Z" transform="translate(-436.084 -520.419)" fill="#00b43a"/>
                    <path id="Trazado_273834" data-name="Trazado 273834" d="M448.22,529.5c2.565.436.82,3.9-1.58,3.479S445.653,529.061,448.22,529.5Z" transform="translate(-433.624 -521.609)" fill="#00b43a"/>
                    <path id="Trazado_273835" data-name="Trazado 273835" d="M432.261,540.8c3.78-2.219,5,3.7,1.921,4.794S429.276,542.554,432.261,540.8Z" transform="translate(-430.742 -523.742)" fill="#00b43a"/>
                    <path id="Trazado_273836" data-name="Trazado 273836" d="M469.756,536.264c3.491.873,2.537,5.49-1.132,4.164S466.264,535.391,469.756,536.264Z" transform="translate(-437.756 -522.921)" fill="#00b43a"/>
                  </g>
                </g>
              </g>
              <g id="Grupo_879525" data-name="Grupo 879525" transform="translate(31.578 144.398)">
                <g id="Grupo_879512" data-name="Grupo 879512">
                  <g id="Grupo_879510" data-name="Grupo 879510" transform="translate(0 4.998)">
                    <path id="Trazado_273837" data-name="Trazado 273837" d="M157.376,618.606l-.07,9.485h.652v-9.485Z" transform="translate(-154.403 -618.606)" fill="#00713d"/>
                    <path id="Trazado_273838" data-name="Trazado 273838" d="M156.619,625.879a3.485,3.485,0,0,0-2.918-2.784S153.394,626.29,156.619,625.879Z" transform="translate(-153.693 -619.488)" fill="#00713d"/>
                    <path id="Trazado_273839" data-name="Trazado 273839" d="M157.768,626.77s.5-2.681,3.805-1.444C161.573,625.326,160.976,628.007,157.768,626.77Z" transform="translate(-154.494 -619.863)" fill="#00713d"/>
                  </g>
                  <g id="Grupo_879511" data-name="Grupo 879511" transform="translate(0.008)">
                    <path id="Trazado_273840" data-name="Trazado 273840" d="M156.855,619.466s-3.65-.888-3.094-5.406A5.014,5.014,0,0,1,156.855,619.466Z" transform="translate(-153.703 -612.715)" fill="#ff7a8a"/>
                    <path id="Trazado_273841" data-name="Trazado 273841" d="M157.782,619.466s3.65-.888,3.094-5.406A5.014,5.014,0,0,0,157.782,619.466Z" transform="translate(-154.491 -612.715)" fill="#ff7a8a"/>
                    <path id="Trazado_273842" data-name="Trazado 273842" d="M157.57,619.137a6.628,6.628,0,0,1,0-6.751S159.566,616.394,157.57,619.137Z" transform="translate(-154.279 -612.386)" fill="#ff7a8a"/>
                  </g>
                </g>
                <g id="Grupo_879515" data-name="Grupo 879515" transform="translate(238.24 0.024)">
                  <g id="Grupo_879513" data-name="Grupo 879513" transform="translate(0 4.997)">
                    <path id="Trazado_273843" data-name="Trazado 273843" d="M453.9,618.636l-.07,9.485h.652v-9.485Z" transform="translate(-450.923 -618.636)" fill="#00713d"/>
                    <path id="Trazado_273844" data-name="Trazado 273844" d="M453.139,625.909a3.485,3.485,0,0,0-2.918-2.784S449.914,626.32,453.139,625.909Z" transform="translate(-450.213 -619.518)" fill="#00713d"/>
                    <path id="Trazado_273845" data-name="Trazado 273845" d="M454.288,626.8s.5-2.681,3.805-1.444C458.093,625.356,457.5,628.037,454.288,626.8Z" transform="translate(-451.014 -619.893)" fill="#00713d"/>
                  </g>
                  <g id="Grupo_879514" data-name="Grupo 879514" transform="translate(0.008)">
                    <path id="Trazado_273846" data-name="Trazado 273846" d="M453.375,619.5s-3.65-.888-3.094-5.406A5.014,5.014,0,0,1,453.375,619.5Z" transform="translate(-450.223 -612.745)" fill="#ff7a8a"/>
                    <path id="Trazado_273847" data-name="Trazado 273847" d="M454.3,619.5s3.65-.888,3.094-5.406A5.014,5.014,0,0,0,454.3,619.5Z" transform="translate(-451.011 -612.745)" fill="#ff7a8a"/>
                    <path id="Trazado_273848" data-name="Trazado 273848" d="M454.09,619.167a6.628,6.628,0,0,1,0-6.751S456.086,616.424,454.09,619.167Z" transform="translate(-450.799 -612.416)" fill="#ff7a8a"/>
                  </g>
                </g>
                <g id="Grupo_879518" data-name="Grupo 879518" transform="translate(27.675 2.346)">
                  <g id="Grupo_879516" data-name="Grupo 879516" transform="translate(0 4.09)">
                    <path id="Trazado_273849" data-name="Trazado 273849" d="M191.152,620.4l-.057,7.764h.534V620.4Z" transform="translate(-188.719 -620.397)" fill="#00713d"/>
                    <path id="Trazado_273850" data-name="Trazado 273850" d="M190.532,626.35a2.851,2.851,0,0,0-2.388-2.279A1.992,1.992,0,0,0,190.532,626.35Z" transform="translate(-188.138 -621.119)" fill="#00713d"/>
                    <path id="Trazado_273851" data-name="Trazado 273851" d="M191.473,627.078s.413-2.2,3.114-1.182C194.587,625.9,194.1,628.092,191.473,627.078Z" transform="translate(-188.793 -621.425)" fill="#00713d"/>
                  </g>
                  <g id="Grupo_879517" data-name="Grupo 879517" transform="translate(0.007)">
                    <path id="Trazado_273852" data-name="Trazado 273852" d="M190.726,621.1s-2.987-.727-2.532-4.425A4.1,4.1,0,0,1,190.726,621.1Z" transform="translate(-188.146 -615.575)" fill="#ff7a8a"/>
                    <path id="Trazado_273853" data-name="Trazado 273853" d="M191.485,621.1s2.987-.727,2.532-4.425A4.1,4.1,0,0,0,191.485,621.1Z" transform="translate(-188.791 -615.575)" fill="#ff7a8a"/>
                    <path id="Trazado_273854" data-name="Trazado 273854" d="M191.311,620.832a5.422,5.422,0,0,1,0-5.526S192.944,618.586,191.311,620.832Z" transform="translate(-188.618 -615.306)" fill="#ff7a8a"/>
                  </g>
                </g>
                <g id="Grupo_879521" data-name="Grupo 879521" transform="translate(52.976 1.785)">
                  <g id="Grupo_879519" data-name="Grupo 879519" transform="translate(0 4.056)">
                    <path id="Trazado_273855" data-name="Trazado 273855" d="M222.617,619.657l-.056,7.7h.53v-7.7Z" transform="translate(-220.204 -619.657)" fill="#00713d"/>
                    <path id="Trazado_273856" data-name="Trazado 273856" d="M222,625.56a2.827,2.827,0,0,0-2.368-2.259A1.975,1.975,0,0,0,222,625.56Z" transform="translate(-219.628 -620.373)" fill="#00713d"/>
                    <path id="Trazado_273857" data-name="Trazado 273857" d="M222.935,626.283s.41-2.177,3.088-1.172C226.023,625.111,225.539,627.288,222.935,626.283Z" transform="translate(-220.278 -620.677)" fill="#00713d"/>
                  </g>
                  <g id="Grupo_879520" data-name="Grupo 879520" transform="translate(0.006)">
                    <path id="Trazado_273858" data-name="Trazado 273858" d="M222.194,620.355s-2.963-.721-2.512-4.389A4.071,4.071,0,0,1,222.194,620.355Z" transform="translate(-219.636 -614.875)" fill="#ff7a8a"/>
                    <path id="Trazado_273859" data-name="Trazado 273859" d="M222.946,620.355s2.963-.721,2.512-4.389A4.071,4.071,0,0,0,222.946,620.355Z" transform="translate(-220.275 -614.875)" fill="#ff7a8a"/>
                    <path id="Trazado_273860" data-name="Trazado 273860" d="M222.774,620.088a5.38,5.38,0,0,1,0-5.48S224.394,617.86,222.774,620.088Z" transform="translate(-220.103 -614.608)" fill="#ff7a8a"/>
                  </g>
                </g>
                <g id="Grupo_879524" data-name="Grupo 879524" transform="translate(186.676 2.764)">
                  <g id="Grupo_879522" data-name="Grupo 879522" transform="translate(0 4.056)">
                    <path id="Trazado_273861" data-name="Trazado 273861" d="M389.025,620.875l-.057,7.7h.53v-7.7Z" transform="translate(-386.612 -620.875)" fill="#00713d"/>
                    <path id="Trazado_273862" data-name="Trazado 273862" d="M388.41,626.778a2.827,2.827,0,0,0-2.369-2.259A1.975,1.975,0,0,0,388.41,626.778Z" transform="translate(-386.035 -621.591)" fill="#00713d"/>
                    <path id="Trazado_273863" data-name="Trazado 273863" d="M389.342,627.5s.411-2.177,3.089-1.172C392.431,626.329,391.947,628.506,389.342,627.5Z" transform="translate(-386.685 -621.895)" fill="#00713d"/>
                  </g>
                  <g id="Grupo_879523" data-name="Grupo 879523" transform="translate(0.006)">
                    <path id="Trazado_273864" data-name="Trazado 273864" d="M388.6,621.573s-2.962-.721-2.512-4.389A4.07,4.07,0,0,1,388.6,621.573Z" transform="translate(-386.043 -616.093)" fill="#ff7a8a"/>
                    <path id="Trazado_273865" data-name="Trazado 273865" d="M389.354,621.573s2.962-.721,2.512-4.389A4.071,4.071,0,0,0,389.354,621.573Z" transform="translate(-386.683 -616.093)" fill="#ff7a8a"/>
                    <path id="Trazado_273866" data-name="Trazado 273866" d="M389.182,621.306a5.38,5.38,0,0,1,0-5.48S390.8,619.078,389.182,621.306Z" transform="translate(-386.51 -615.826)" fill="#ff7a8a"/>
                  </g>
                </g>
              </g>
              <path id="Trazado_273867" data-name="Trazado 273867" d="M143.941,555.31a2.466,2.466,0,0,1,3.093,0,3.291,3.291,0,0,1,1.289,3.37s1.289-1.971,3.223-1.49a2.794,2.794,0,0,1,1.971,2.621" transform="translate(-120.199 -456.665)" fill="none" stroke="#4b4b4a" stroke-miterlimit="10" stroke-width="1.412"/>
              <path id="Trazado_273868" data-name="Trazado 273868" d="M283.122,469.514a3.908,3.908,0,0,1,2.2-2.935,5.3,5.3,0,0,1,4.188.392,3.144,3.144,0,0,1,2.05-3.572c2.569-.857,3.667.611,3.667.611" transform="translate(-147.554 -438.652)" fill="none" stroke="#4b4b4a" stroke-miterlimit="10" stroke-width="1.34"/>
              <path id="Trazado_273869" data-name="Trazado 273869" d="M263.016,512.868a3.868,3.868,0,0,1,3.473-1.055,5.249,5.249,0,0,1,3.112,2.761,3.11,3.11,0,0,1,3.725-1.652c2.55.819,2.568,2.632,2.568,2.632" transform="translate(-143.603 -448.203)" fill="none" stroke="#4b4b4a" stroke-miterlimit="10" stroke-width="1.478"/>
              <g id="Grupo_879526" data-name="Grupo 879526" transform="translate(38.502 4.732)">
                <path id="Trazado_273870" data-name="Trazado 273870" d="M166.443,477.644c-7.3,0-3.835-8.316,2.009-5.984,0,0-4.806-6.972,2.009-11.182,6.209-3.835,12.723,2.374,12.723,2.374s-1.4-14.061,9.008-14.061,10.044,12.417,10.044,12.417,4.383-6.208,9.5-3.469,2.739,9.678,2.739,9.678,9.861-1.461,11.139,3.469-2.557,5.991-6.026,5.991S166.443,477.644,166.443,477.644Z" transform="translate(-162.312 -440.566)" fill="#f3ff8b"/>
                <path id="Trazado_273871" data-name="Trazado 273871" d="M289.064,494.893c-5.81,0-4.949-5.84-.723-6.388a11.632,11.632,0,0,1,7.148,1.278s-3.1-5.365,1.1-7.522,6.574,2.39,6.574,2.39.183-10.39,8.4-8.93,4.93,10.269,4.93,10.269,2.739-2.819,6.209-1.339,1.526,5.132,1.526,5.132,6.881-2.191,7.79,1.826-6.029,3.284-8.22,3.284Z" transform="translate(-186.414 -445.831)" fill="#f3ff8b"/>
                <path id="Trazado_273872" data-name="Trazado 273872" d="M381.5,461.93c-10.564,0-10.2-3.834-8.19-6.026s6.391-2.557,10.226-.913c0,0-2.192-3.47,0-5.113s4.93,0,4.93,0-2.446-11.14,6.539-11.322,7.34,11.687,7.34,11.687,3.1-2.921,6.756-1.278a4.239,4.239,0,0,1,2.374,5.3s7.179-3.835,11.442-.366-.121,8.035-4.686,8.035Z" transform="translate(-203.563 -438.553)" fill="#f3ff8b"/>
              </g>
              <g id="Grupo_879531" data-name="Grupo 879531" transform="translate(126.834 120.297)">
                <g id="Grupo_879527" data-name="Grupo 879527" transform="translate(11.167 20.069)">
                  <path id="Trazado_273873" data-name="Trazado 273873" d="M289.49,607.367V615.2c0,1.22.61,8.73.61,8.73l-1.455.187" transform="translate(-286.641 -607.367)" fill="none" stroke="#1f1f1f" stroke-miterlimit="10" stroke-width="1.351"/>
                  <path id="Trazado_273874" data-name="Trazado 273874" d="M289.422,607.542s-2.769,6.1-3.238,6.711,4.13,2.487,4.412,2.722.187,1.126.187,1.126" transform="translate(-286.15 -607.401)" fill="none" stroke="#1f1f1f" stroke-miterlimit="10" stroke-width="1.351"/>
                </g>
                <g id="Grupo_879528" data-name="Grupo 879528" transform="translate(3.182)">
                  <path id="Trazado_273875" data-name="Trazado 273875" d="M296.573,606.4c-.234.19-5.442-3.8-9.809-3.426s-10.183-.7-10.512-4.785,1.41-5.4,2.674-7.319,1.5-2.819.986-3.571-2.483-.935-2.344-2.79c.058-.811,1.022-1.578,2.184-1.921a3.45,3.45,0,0,1,3.214.445c1.783,1.5,2.717,4.924-.284,7.787s-4.127,5.492-2.389,6.289,2.293-2.3,5.208-3.287,6.377-.182,8.729,3.287S296.807,606.215,296.573,606.4Z" transform="translate(-276.212 -582.389)" fill="#ff7a8a"/>
                  <path id="Trazado_273876" data-name="Trazado 273876" d="M298.135,606.031v-.014a7.962,7.962,0,0,0-5.792-3.528c-4.193-.577-6.976-.855-7.327-4.017-.095-.9,1.351-1.98,3.375-2.265a7.564,7.564,0,0,1,5.361,1.294c4.142,2.827,4.405,8.561,4.405,8.561A.214.214,0,0,1,298.135,606.031Z" transform="translate(-277.941 -585.09)" fill="#ff5186"/>
                  <path id="Trazado_273877" data-name="Trazado 273877" d="M298.135,606.034a7.962,7.962,0,0,0-5.792-3.528c-4.193-.577-6.976-.855-7.327-4.017-.095-.9,1.351-1.98,3.375-2.265-2.578.621-1.614,3.813,1.951,4.047C294.052,600.519,297.361,602.718,298.135,606.034Z" transform="translate(-277.941 -585.108)" fill="#ca0047" opacity="0.24"/>
                  <path id="Trazado_273878" data-name="Trazado 273878" d="M296.573,606.446c-.234.19-5.442-3.8-9.809-3.426s-10.183-.7-10.512-4.785,1.41-5.4,2.674-7.319,1.5-2.819.986-3.571-2.483-.935-2.344-2.79c.058-.811,1.022-1.578,2.184-1.921a12.176,12.176,0,0,0,1.826,2.205c1.643,1.79.423,4.259-2.337,7.261s-2.169,8.357.993,8.751S292.4,599.06,296.573,606.446Z" transform="translate(-276.212 -582.437)" fill="#ca0047" opacity="0.24"/>
                </g>
                <path id="Trazado_273879" data-name="Trazado 273879" d="M281.208,585.269c-.2.2-.454.276-.564.166s-.035-.363.166-.564.454-.276.564-.166S281.409,585.067,281.208,585.269Z" transform="translate(-273.891 -582.834)" fill="#1f1f1f"/>
                <g id="Grupo_879530" data-name="Grupo 879530" transform="translate(0 0.592)">
                  <g id="Grupo_879529" data-name="Grupo 879529">
                    <path id="Trazado_273880" data-name="Trazado 273880" d="M278.454,585.279a.775.775,0,0,1-.591.9c-.7.095-2.2-.986-3.513-1.453l-.08-.022a2.162,2.162,0,0,0-1.987.161c-.095-.519-.051-1.454,1.454-1.688h.007a5.568,5.568,0,0,1,1.665.03,5.028,5.028,0,0,1,2.644,1.1A1.573,1.573,0,0,1,278.454,585.279Z" transform="translate(-272.252 -583.125)" fill="#ffcf2f"/>
                    <path id="Trazado_273881" data-name="Trazado 273881" d="M274.269,584.714a2.163,2.163,0,0,0-1.987.162c-.095-.519-.051-1.454,1.454-1.688h.007A2.851,2.851,0,0,1,274.269,584.714Z" transform="translate(-272.252 -583.137)" fill="#1f1f1f"/>
                  </g>
                  <path id="Trazado_273882" data-name="Trazado 273882" d="M278.454,585.279a.775.775,0,0,1-.591.9c-.7.095-2.2-.986-3.513-1.453l-.08-.022a2.162,2.162,0,0,0-1.987.161c-.095-.519-.051-1.454,1.454-1.688h.007a5.568,5.568,0,0,1,1.665.03,1.132,1.132,0,0,0,.183.811C276.314,585.352,278.06,586.061,278.454,585.279Z" transform="translate(-272.252 -583.125)" fill="#ca0047" opacity="0.24"/>
                </g>
              </g>
              <g id="Grupo_879534" data-name="Grupo 879534" transform="translate(174.511 126.23)">
                <path id="Trazado_273883" data-name="Trazado 273883" d="M370.417,608.087s2.911.832,5.06-.415a4.1,4.1,0,0,0,2.079-3.466l.624.255a4.866,4.866,0,0,1-2.426,3.9,7.264,7.264,0,0,1-5.337.56Z" transform="translate(-339.223 -592.61)" fill="#fff"/>
                <path id="Trazado_273884" data-name="Trazado 273884" d="M363.966,609.257a14.045,14.045,0,0,1-1.176,5.756c0,.307-.358,4.7-.562,6.976-.066.753-.117,1.271-.131,1.337-.037.146-.446.234-.869.234a1.374,1.374,0,0,1-.935-.234,6.04,6.04,0,0,1-.2-1.468c-.182-2.257-.336-6.289-.489-6.289-.073,0-.379,0-.759.022-.453.015-1.008.037-1.388.059a2.4,2.4,0,0,0-.416.059c-.153.051-.307,3.805-.431,5.931a11.082,11.082,0,0,1-.125,1.41c-.138.35-1.249.277-1.592.138a4.7,4.7,0,0,1-.226-1.673c-.139-2.242-.2-5.946-.395-5.946-.044,0-.212-.007-.468-.029-.446-.023-1.162-.073-1.98-.154-.636-.051-1.337-.125-2.023-.212-.709-.095-1.4-.2-1.98-.321-.168-.043-.336-.08-.482-.116,0,0-.182,4.046-.285,6.376-.036.9-.065,1.535-.065,1.592,0,.2-1.249.066-1.592,0a4.627,4.627,0,0,1-.256-1.68c-.175-2.476-.292-6.793-.445-6.844a13.373,13.373,0,0,0-1.731-.278c-.2,0-.664,4.47-.9,6.976-.095.891-.139,1.527-.139,1.621,0,.343-1.666.27-1.731,0-.015-.073-.022-.738-.015-1.71,0-2.848.066-8.29.015-8.97a2.785,2.785,0,0,0-.19-.738,13.108,13.108,0,0,1-.636-2.381,20.636,20.636,0,0,1-.284-3.053c-.014-.423-.03-.84-.037-1.249-.022-.759-.051-1.453-.117-1.957-.051-.446-.139-.738-.263-.738-.212-.022-2,.066-3.631.1a12.409,12.409,0,0,1-2.673-.1c-.555-.278-.767-4.653-.767-5a15.8,15.8,0,0,1,3.331-.84c3.477-.709,8.473-1.585,8.868-1.585.153,0,.27.139.379.38a29.017,29.017,0,0,1,.8,4.544c.037.2.066.395.11.584a7.285,7.285,0,0,0,.438,1.314,4.482,4.482,0,0,0,2.352,2.272,7.5,7.5,0,0,0,1.7.482c.132.022.255.043.387.058.336.044.693.088,1.073.125.614.059,1.271.1,1.958.153.489.036.993.066,1.49.088,1.016.059,2.038.1,2.966.139.57.022,1.1.043,1.578.059.818.029,1.483.043,1.9.058C362.651,604.611,363.966,605.445,363.966,609.257Z" transform="translate(-331.592 -590.659)" fill="#fff"/>
                <path id="Trazado_273885" data-name="Trazado 273885" d="M341.093,594.493l-.7-1.7s4.506-1.594,6.308-1.04,1.617,4,2.079,6.17c.672,3.151,1.308,5.055,11.779,6.028,0,0-8.452,1.458-12.057-1.176s-2.581-7.986-3.119-8.318S341.093,594.493,341.093,594.493Z" transform="translate(-333.322 -590.139)" fill="#353534"/>
                <path id="Trazado_273886" data-name="Trazado 273886" d="M341.687,598.459c0,.477.217.865.485.865s.485-.387.485-.865-.218-.865-.485-.865S341.687,597.981,341.687,598.459Z" transform="translate(-333.576 -591.31)" fill="#1f1f1f"/>
                <g id="Grupo_879532" data-name="Grupo 879532" transform="translate(7.337 9.128)">
                  <path id="Trazado_273887" data-name="Trazado 273887" d="M363.721,618.127c.377-.022.931-.044,1.387-.06,0-2.651.044-8.025.182-11.108-.476-.017-1.009-.034-1.575-.061A70.3,70.3,0,0,0,363.721,618.127Z" transform="translate(-345.199 -602.267)" fill="#353534"/>
                  <path id="Trazado_273888" data-name="Trazado 273888" d="M356.764,617.813c.821.078,1.536.128,1.98.155.089-2.689.288-7.8.682-11.257-.5-.027-1-.055-1.491-.088A50.011,50.011,0,0,0,356.764,617.813Z" transform="translate(-343.877 -602.213)" fill="#353534"/>
                  <path id="Trazado_273889" data-name="Trazado 273889" d="M351.788,617.191c.577.122,1.265.233,1.974.322.227-2.751.682-7.769,1.237-11.13-.382-.039-.738-.077-1.07-.121-.133-.017-.26-.039-.388-.061A49.552,49.552,0,0,0,351.788,617.191Z" transform="translate(-342.899 -602.13)" fill="#353534"/>
                  <path id="Trazado_273890" data-name="Trazado 273890" d="M341.262,610.718a13.484,13.484,0,0,0,.638,2.379c1.714-1.791,4.952-5.113,7.863-7.708a4.583,4.583,0,0,1-1.342-.865C346.525,606.065,343.331,608.7,341.262,610.718Z" transform="translate(-340.83 -601.8)" fill="#353534"/>
                  <path id="Trazado_273891" data-name="Trazado 273891" d="M340.724,603.791c.061.5.088,1.2.111,1.957,1.6-.865,4.548-2.435,6.477-3.294a6.931,6.931,0,0,1-.439-1.32C345.171,601.844,342.615,602.92,340.724,603.791Z" transform="translate(-340.724 -601.134)" fill="#353534"/>
                </g>
                <path id="Trazado_273892" data-name="Trazado 273892" d="M366.407,609.35a14.044,14.044,0,0,1-1.176,5.756c0,.307-.358,4.7-.562,6.976-.066.753-.117,1.271-.131,1.337-.037.146-.446.234-.869.234q-.286-4.952-.57-9.9a7.818,7.818,0,0,0-.592-3.016c-1.016-2.024-3.572-2.74-5.836-2.733s-4.558.512-6.771.007a7.589,7.589,0,0,1-4.806-11.321,17.951,17.951,0,0,1,1.519-1.936,29.018,29.018,0,0,1,.8,4.544c.037.2.066.394.11.584a7.286,7.286,0,0,0,.438,1.314,4.481,4.481,0,0,0,2.352,2.272,7.5,7.5,0,0,0,1.7.482c.132.022.255.043.387.058.336.044.693.088,1.073.125.614.059,1.271.1,1.958.153.489.036.993.066,1.49.088,1.016.059,2.038.1,2.966.139.57.022,1.1.043,1.578.059.818.029,1.483.043,1.9.058C365.093,604.7,366.407,605.538,366.407,609.35Z" transform="translate(-334.034 -590.752)" fill="#03236a" opacity="0.22"/>
                <path id="Trazado_273893" data-name="Trazado 273893" d="M379.171,605.4s2.912-1.525.555-4.991C379.726,600.41,376.884,603.044,379.171,605.4Z" transform="translate(-340.769 -591.864)" fill="#353534"/>
                <g id="Grupo_879533" data-name="Grupo 879533" transform="translate(0.001 5.208)">
                  <path id="Trazado_273894" data-name="Trazado 273894" d="M331.593,597.1c0,.344.211,4.714.765,4.991a11.965,11.965,0,0,0,2.673.105,39.192,39.192,0,0,0-.105-5.939A15.5,15.5,0,0,0,331.593,597.1Z" transform="translate(-331.593 -596.255)" fill="#353534"/>
                  <path id="Trazado_273895" data-name="Trazado 273895" d="M369.2,628.738l-2.141-.133a6.141,6.141,0,0,0,.206,1.47c.277.344,1.735.277,1.8,0C369.08,630.008,369.13,629.486,369.2,628.738Z" transform="translate(-338.563 -602.613)" fill="#353534"/>
                  <path id="Trazado_273896" data-name="Trazado 273896" d="M362.245,628.3l-1.947-.122a4.9,4.9,0,0,0,.227,1.674c.344.139,1.453.206,1.6-.138A12.513,12.513,0,0,0,362.245,628.3Z" transform="translate(-337.235 -602.529)" fill="#353534"/>
                  <path id="Trazado_273897" data-name="Trazado 273897" d="M350.361,627.651l-1.914-.088a4.745,4.745,0,0,0,.256,1.686c.344.067,1.592.2,1.592,0C350.294,629.188,350.321,628.55,350.361,627.651Z" transform="translate(-334.906 -602.408)" fill="#353534"/>
                  <path id="Trazado_273898" data-name="Trazado 273898" d="M342.286,628.98c.067.278,1.73.344,1.73,0,0-.088.05-.726.139-1.619l-1.886-.088C342.264,628.243,342.269,628.909,342.286,628.98Z" transform="translate(-333.691 -602.352)" fill="#353534"/>
                </g>
                <path id="Trazado_273899" data-name="Trazado 273899" d="M345.794,593.716s1.1-3.133,3.3-3.943c0,0,.812,3.672-2.228,5.077C346.865,594.85,345.39,595.4,345.794,593.716Z" transform="translate(-334.37 -589.773)" fill="#fff"/>
              </g>
              <g id="Grupo_879539" data-name="Grupo 879539" transform="translate(97.471 82.787)">
                <g id="Grupo_879535" data-name="Grupo 879535" transform="translate(13.125 17.95)">
                  <path id="Trazado_273900" data-name="Trazado 273900" d="M256.755,567.127c-.059.525-1.928,1.351-3.294,1.7-.819.219-1.454.263-1.417-.03.109-.774.533-8.86.321-9.729s2.308-1.8,2.739,0c0,0,.146.613.358,1.5A51.853,51.853,0,0,1,256.755,567.127Z" transform="translate(-252.042 -558.043)" fill="#303030"/>
                  <path id="Trazado_273901" data-name="Trazado 273901" d="M255.462,560.567h-1.183c-.782,0-.884,4.376-.818,8.262-.819.219-1.454.263-1.417-.03.109-.774.533-8.86.321-9.729s2.308-1.8,2.739,0C255.1,559.07,255.25,559.683,255.462,560.567Z" transform="translate(-252.042 -558.043)" fill="#161616" opacity="0.53"/>
                </g>
                <g id="Grupo_879536" data-name="Grupo 879536" transform="translate(0 0.269)">
                  <path id="Trazado_273902" data-name="Trazado 273902" d="M251.893,554.745s-8.517,2.827-13.871-3.119c-4.609-5.12-1.8-14.2,3.681-15.442a5.9,5.9,0,0,1,2.848.058,8.657,8.657,0,0,0,.431,4.865c.986,2.52,5.653,2.754,6.822,12.812C251.835,554.182,251.864,554.459,251.893,554.745Z" transform="translate(-235.706 -536.037)" fill="#303030"/>
                  <path id="Trazado_273903" data-name="Trazado 273903" d="M251.893,554.781s-8.517,2.827-13.871-3.119c-4.609-5.12-1.8-14.2,3.681-15.442,0,0-5.676,4.068-2.148,12.973,1.731,4.368,7.136,5.676,12.249,4.762C251.835,554.218,251.864,554.5,251.893,554.781Z" transform="translate(-235.706 -536.073)" fill="#161616" opacity="0.35"/>
                  <path id="Trazado_273904" data-name="Trazado 273904" d="M245.438,536.718a5.67,5.67,0,0,0-5.622,2.275c-2.141,3.013-1.392,6.964,1.232,6.851s2.648-4.739,4.911-5.521Z" transform="translate(-236.269 -536.155)" fill="#fff"/>
                  <path id="Trazado_273905" data-name="Trazado 273905" d="M244.777,539.463a.5.5,0,1,1-.5-.556A.528.528,0,0,1,244.777,539.463Z" transform="translate(-237.294 -536.601)" fill="none" stroke="#000" stroke-miterlimit="10" stroke-width="0.898"/>
                </g>
                <g id="Grupo_879537" data-name="Grupo 879537" transform="translate(7.977 5.222)">
                  <path id="Trazado_273906" data-name="Trazado 273906" d="M254.407,556.8a17.9,17.9,0,0,1-5.1-2.855l-.007-.008a9.437,9.437,0,0,1-2.958-3.93c-1.709-4.689.212-7.808.212-7.808.2.065.4.138.591.211l.008.008C254.933,545.532,254.407,556.8,254.407,556.8Z" transform="translate(-245.635 -542.202)" fill="#484540"/>
                  <path id="Trazado_273907" data-name="Trazado 273907" d="M254.779,556.857a17.9,17.9,0,0,1-5.1-2.855c1.351.3,3.624.525,3.711-1.344.109-2.323-4.667-8.641-5.865-10.182C255.305,545.586,254.779,556.857,254.779,556.857Z" transform="translate(-246.006 -542.256)" fill="#85827f" opacity="0.54"/>
                </g>
                <g id="Grupo_879538" data-name="Grupo 879538" transform="translate(8.492)">
                  <path id="Trazado_273908" data-name="Trazado 273908" d="M254.533,542.159c-.036.095-.088.154-.138.146a.674.674,0,0,1-.139-.044,2.868,2.868,0,0,1-.38-.2,16.432,16.432,0,0,0-1.782-.987,3.76,3.76,0,0,0-.417-.175c-.029-.007-.051-.022-.08-.029l-.263-.088a1.447,1.447,0,0,0-.19-.059c-.066-.014-.132-.036-.2-.051s-.168-.036-.248-.051-.168-.022-.255-.037a4.01,4.01,0,0,0-.416-.022,4.457,4.457,0,0,0-.716.059l-.153.022a4.84,4.84,0,0,0-.607.125.123.123,0,0,0-.051.007c-.2.043-.395.088-.57.124l-.212.044c-.321.043-.57.029-.709-.139a3.563,3.563,0,0,1-.664-1.8,8.78,8.78,0,0,1,.124-3.01c.051-.124.431-.241,1.016-.277a7.133,7.133,0,0,1,1.234.029,8.944,8.944,0,0,1,3.28.986c.066.03.132.066.2.1a4.423,4.423,0,0,1,1.8,1.972A5.512,5.512,0,0,1,254.533,542.159Z" transform="translate(-246.275 -535.702)" fill="#ffcf2f"/>
                  <path id="Trazado_273909" data-name="Trazado 273909" d="M254.55,542.877c-.036.095-.088.154-.138.146a.674.674,0,0,1-.139-.044l-.007-.007a3.8,3.8,0,0,1-.373-.2,16.432,16.432,0,0,0-1.782-.987q-.208-.1-.417-.175c-.029-.007-.051-.022-.08-.029a1.857,1.857,0,0,0-.263-.088,1.447,1.447,0,0,0-.19-.059c-.066-.022-.132-.036-.2-.051s-.168-.036-.248-.051-.168-.022-.255-.037a4.01,4.01,0,0,0-.416-.022,4.457,4.457,0,0,0-.716.059l-.153.022a4.84,4.84,0,0,0-.607.125.123.123,0,0,0-.051.007c-.2.043-.395.088-.57.124l-.212.044c-.321.043-.57.029-.709-.139a3.563,3.563,0,0,1-.664-1.8,7.309,7.309,0,0,1,1.972-.358,7.08,7.08,0,0,1,2.353.278,6.363,6.363,0,0,1,1.373.6c.109.066.219.139.329.219a7.259,7.259,0,0,1,2.155,2.41A.007.007,0,0,0,254.55,542.877Z" transform="translate(-246.292 -536.42)" fill="#e7a100"/>
                  <path id="Trazado_273910" data-name="Trazado 273910" d="M255.032,542.169c-.036.095-.088.154-.138.146a.674.674,0,0,1-.139-.044,2.868,2.868,0,0,1-.38-.2,16.432,16.432,0,0,0-1.782-.987,3.76,3.76,0,0,0-.417-.175c-.029-.007-.051-.022-.08-.029l-.263-.088a1.438,1.438,0,0,0-.19-.059c-.066-.015-.132-.036-.2-.052s-.168-.036-.248-.051-.168-.022-.255-.037a3.994,3.994,0,0,0-.416-.022,4.457,4.457,0,0,0-.716.059l-.153.022a4.84,4.84,0,0,0-.607.125.123.123,0,0,0-.051.007,16.127,16.127,0,0,1-.183-2.126c-.007-.307,0-.584.015-.847a7.363,7.363,0,0,1,.386-2.053,8.943,8.943,0,0,1,3.28.986c.066.03.132.066.2.1a4.423,4.423,0,0,1,1.8,1.972A5.512,5.512,0,0,1,255.032,542.169Z" transform="translate(-246.774 -535.713)" fill="#8fce1e"/>
                  <path id="Trazado_273911" data-name="Trazado 273911" d="M255.552,542.41c-.036.095-.088.154-.138.146a.674.674,0,0,1-.139-.044,2.868,2.868,0,0,1-.38-.2,16.421,16.421,0,0,0-1.782-.987,3.739,3.739,0,0,0-.417-.175c-.029-.007-.051-.022-.08-.029l-.263-.088a1.457,1.457,0,0,0-.19-.059c-.066-.014-.132-.036-.2-.051s-.168-.036-.248-.051-.168-.022-.255-.037a7.069,7.069,0,0,1,.227-1.658c.036-.132.08-.256.117-.373a4.179,4.179,0,0,1,1.212-1.819c.066.03.132.066.2.1a4.423,4.423,0,0,1,1.8,1.972A5.512,5.512,0,0,1,255.552,542.41Z" transform="translate(-247.294 -535.954)" fill="#ff7a8a"/>
                  <path id="Trazado_273912" data-name="Trazado 273912" d="M255.854,542.918c-.036.095-.088.154-.138.146a.674.674,0,0,1-.139-.044,2.868,2.868,0,0,1-.38-.2,16.432,16.432,0,0,0-1.782-.987,3.76,3.76,0,0,0-.417-.175,3.318,3.318,0,0,1,.651-1.1.111.111,0,0,1,.043-.059,3.387,3.387,0,0,1,1.621-.935A5.512,5.512,0,0,1,255.854,542.918Z" transform="translate(-247.596 -536.461)" fill="#1f1f1f"/>
                </g>
                <path id="Trazado_273913" data-name="Trazado 273913" d="M254.256,542.264a2.868,2.868,0,0,1-.38-.2,16.423,16.423,0,0,0-1.782-.987,3.736,3.736,0,0,0-.417-.175c-.029-.007-.051-.022-.08-.029a1.865,1.865,0,0,0-.263-.088,1.456,1.456,0,0,0-.19-.059c-.066-.014-.132-.036-.2-.051s-.168-.036-.248-.051-.168-.022-.255-.037a4.01,4.01,0,0,0-.416-.022,4.457,4.457,0,0,0-.716.059l-.153.022a4.851,4.851,0,0,0-.607.125.123.123,0,0,0-.051.007c-.2.043-.395.088-.57.124l-.212.044c-.321.043-.57.029-.709-.139a3.563,3.563,0,0,1-.664-1.8,8.78,8.78,0,0,1,.124-3.01c.051-.124.431-.241,1.016-.277-.8.774-.862,1.563.848,2.082a9.316,9.316,0,0,0,1.154.256,3.789,3.789,0,0,1,1.3.5,7.22,7.22,0,0,1,1.257.971c.095.088.19.182.285.278a16.358,16.358,0,0,1,1.921,2.454Z" transform="translate(-237.783 -535.706)" fill="#db0000" opacity="0.24"/>
              </g>
            </g>
            <g id="Grupo_879544" data-name="Grupo 879544" transform="translate(18.74 158.151)">
              <g id="Grupo_879541" data-name="Grupo 879541" transform="translate(4.269 3.287)">
                <path id="Trazado_273914" data-name="Trazado 273914" d="M408.546,641.148a23.593,23.593,0,0,1-3.828,3.96,103,103,0,0,1-18.451,12.5c-6.208,2.968-12.417,12.41-17.9,14.029s-8.765,1.619-13.148,4.856c-.5.367-1.066.761-1.7,1.176-4.931,3.222-13.447,7.49-17.655,7.727-4.748.27-10.957,8.094-14.974,11.331s-14.244,11.062-19.357,11.871-9.862,3.777-12.053,7.285-11.687,8.633-14.609,8.633-2.921,2.158-6.837,2.428-5.581-4.047-10.328-7.285-5.844-3.507-10.226-5.665-7.67-5.126-12.783-7.014-9.13-5.666-13.149-8.364-9.861-5.4-12.052-7.014-5.113-7.015-9.5-7.015-8.035-1.888-10.957-3.507-9.5-5.666-12.417-7.015-7.67-6.205-10.957-9.712-7.67-3.238-10.226-4.856-5.113-8.634-6.209-11.6-6.208-8.9-6.208-8.9v-5.4H409.642S411.468,636.831,408.546,641.148Z" transform="translate(-143.029 -633.594)" fill="#775d26"/>
                <path id="Trazado_273915" data-name="Trazado 273915" d="M408.546,641.148a23.593,23.593,0,0,1-3.828,3.96,4.107,4.107,0,0,1-2.4-3.307c-4.339,2.136-11.139.485-12.914-3.141-1.826,2.73-7.721,3.238-10.358.9-3.1,2.369-9.175,1.953-11.636-.8-1.643,3.254-8.1,4.462-11.643,2.18-.307,3.195-5.157,5.455-9.43,4.916a11.314,11.314,0,0,1-8.934-6.324c-1.987,2.7-8.941,2.439-10.328-.464-2.235,3.167-9.393,3.366-11.95.34-2.1,2.617-7.757,3.1-10.606.906-.643,2.283-3.689,4.063-6.837,4s-6.062-1.959-6.537-4.263c-1.944,2.1-7.282,1.327-8.006-1.166-2.747,2.757-9.138,2.855-12.038.184,1.227,3.3-2.023,7.106-6.574,7.711s-9.4-2.137-9.8-5.542a.453.453,0,0,1,0-.14c-2.8.944-8.02-.566-7.794-2.843-4.529,3.3-11.439,4.705-17.611,3.577-2.1,2.088-6.727,2.423-9.328.675.248,2.811-3.367,5.455-7.166,5.25-2.227-.119-4.309-1.057-6.537-1a5.922,5.922,0,0,0-5.011,9.141c2.308,3.518,6.99,5.811,10.241,8.886,5.954,5.628,6.713,13.409,11.833,19.469,3.251,3.847,8.086,6.793,12.834,9.67l31.029,18.777a17.893,17.893,0,0,0,6.077,2.682c5.244.95,10.263-2.131,13.308-5.422s5.413-7.176,10-9.286c3.769-1.732,8.5-1.969,12.381-3.572,4.638-1.915,7.45-5.509,11.132-8.337,8.035-6.189,19.9-8.563,31.154-10.678.745-.141,1.5-.28,2.25-.411-4.931,3.222-13.447,7.49-17.655,7.727-4.748.27-10.957,8.094-14.974,11.331s-14.244,11.062-19.357,11.871-9.862,3.777-12.053,7.285-11.687,8.633-14.609,8.633-2.921,2.158-6.837,2.428-5.581-4.047-10.328-7.285-5.844-3.507-10.226-5.665-7.67-5.126-12.783-7.014-9.13-5.666-13.149-8.364-9.861-5.4-12.052-7.014-5.113-7.015-9.5-7.015-8.035-1.888-10.957-3.507-9.5-5.666-12.417-7.015-7.67-6.205-10.957-9.712-7.67-3.238-10.226-4.856-5.113-8.634-6.209-11.6-6.208-8.9-6.208-8.9v-5.4H409.642S411.468,636.831,408.546,641.148Z" transform="translate(-143.029 -633.594)" fill="#381b03" opacity="0.21"/>
              </g>
              <g id="Grupo_879543" data-name="Grupo 879543">
                <path id="Trazado_273916" data-name="Trazado 273916" d="M138.334,630.233c-1.862,1.862.73,12.417,4.383,12.053s4.383-6.939,4.383-6.939.73,7.3,5.113,8.4,6.208-7.67,6.208-7.67.73,6.574,6.574,6.574,5.113-6.574,5.113-6.574,1.826,12.053,5.479,12.417,5.113-12.417,5.113-12.417,1.461,6.939,5.844,6.939,4.383-9.13,4.383-9.13,1.825,6.574,5.844,6.939,3.652-7.3,3.652-7.3,1.1,7.3,4.383,8.035,2.922-6.939,2.922-6.939.73,10.957,5.113,12.053,5.113-11.322,5.113-11.322.73,6.209,5.478,6.574,3.652-6.209,3.652-6.209,2.921,5.844,7.67,4.748,4.017-5.844,4.017-5.844a4.193,4.193,0,0,0,3.287,4.017c3.287.73,5.479-5.478,5.479-5.478s1.1,5.12,3.652,6.212,3.653-4.387,3.653-4.387,1.461,10.226,6.574,11.322,7.3-12.783,7.3-12.783a7.948,7.948,0,0,0,6.939,5.848c5.844.726,6.574-5.117,6.574-5.117a4.821,4.821,0,0,0,4.383,5.117c4.748.726,4.748-6.212,4.748-6.212s0,9.5,5.478,10.591,4.748-10.957,4.748-10.957,1.461,7.67,6.939,7.67,8.766-7.67,8.766-7.67-1.1,4.756,3.287,6.578,5.113-6.578,5.113-6.578-1.1,5.852,4.748,6.578a5.589,5.589,0,0,0,6.574-4.752s.366,11.321,8.4,12.053,8.765-13.148,8.765-13.148,1.826,7.67,6.574,7.67,5.113-7.67,5.113-7.67,2.557,6.939,6.939,6.939,4.748-5.844,4.748-5.844,1.461,6.574,5.479,6.208,6.939-6.208,6.939-6.208,1.461,5.478,5.478,6.939,6.939-6.209,6.939-6.209,0,10.591,5.844,10.226,5.113-15.34,2.922-15.34S139.978,628.589,138.334,630.233Z" transform="translate(-137.715 -629.503)" fill="#15963c"/>
                <g id="Grupo_879542" data-name="Grupo 879542" transform="translate(13.707 2.432)" opacity="0.21">
                  <path id="Trazado_273917" data-name="Trazado 273917" d="M474.3,635.559c1.5.333,1.948,5.843-.487,6.574S472.111,635.072,474.3,635.559Z" transform="translate(-217.183 -633.121)" fill="#00ff3f"/>
                  <path id="Trazado_273918" data-name="Trazado 273918" d="M461.455,635.456c1.7,1.482-1.761,4.187-3.315,3.321S459.751,633.973,461.455,635.456Z" transform="translate(-214.319 -633.04)" fill="#00ff3f"/>
                  <path id="Trazado_273919" data-name="Trazado 273919" d="M443.823,634.047c3.637.33,1.461,6.581-1.217,5.847S441.145,633.8,443.823,634.047Z" transform="translate(-211.053 -632.826)" fill="#00ff3f"/>
                  <path id="Trazado_273920" data-name="Trazado 273920" d="M335.6,636.371c2.227-.409,2.228,5.435.28,5.435S333.375,636.78,335.6,636.371Z" transform="translate(-190.033 -633.281)" fill="#00ff3f"/>
                  <path id="Trazado_273921" data-name="Trazado 273921" d="M294.943,636.373c1.8-.318-.882,6.018-1.964,5.97S292.631,636.782,294.943,636.373Z" transform="translate(-181.843 -633.283)" fill="#00ff3f"/>
                  <path id="Trazado_273922" data-name="Trazado 273922" d="M311.488,632.532c2.281-.133.771,4.682-.933,4.167S308.832,632.688,311.488,632.532Z" transform="translate(-185.16 -632.53)" fill="#00ff3f"/>
                  <path id="Trazado_273923" data-name="Trazado 273923" d="M259.447,633.589c1.57.208-.343,5.748-1.993,4.883S256.69,633.223,259.447,633.589Z" transform="translate(-174.794 -632.734)" fill="#00ff3f"/>
                  <path id="Trazado_273924" data-name="Trazado 273924" d="M234.844,635.117c1.719.561-.119,9.658-2.067,8.657S233.016,634.522,234.844,635.117Z" transform="translate(-169.957 -633.032)" fill="#00ff3f"/>
                  <path id="Trazado_273925" data-name="Trazado 273925" d="M197.361,637.72c2.7-.034.826,4.6-.673,4.355S195.15,637.747,197.361,637.72Z" transform="translate(-162.804 -633.55)" fill="#00ff3f"/>
                  <path id="Trazado_273926" data-name="Trazado 273926" d="M172.392,636.348c2.688.721,2.136,6.506-.959,5.971S168.473,635.3,172.392,636.348Z" transform="translate(-157.624 -633.257)" fill="#00ff3f"/>
                  <path id="Trazado_273927" data-name="Trazado 273927" d="M355.777,633.968c2.64,1.319-2.906,5.608-4.11,3.9S353.137,632.648,355.777,633.968Z" transform="translate(-193.416 -632.755)" fill="#00ff3f"/>
                  <path id="Trazado_273928" data-name="Trazado 273928" d="M398.965,640.428c2.9-.505,2.172,5.635-.993,4.391S396.062,640.934,398.965,640.428Z" transform="translate(-202.21 -634.076)" fill="#00ff3f"/>
                  <path id="Trazado_273929" data-name="Trazado 273929" d="M376.592,634.515c.008,1.366,4.34,3.185,4.976.529S376.58,632.5,376.592,634.515Z" transform="translate(-198.373 -632.627)" fill="#00ff3f"/>
                  <path id="Trazado_273930" data-name="Trazado 273930" d="M156.213,637.7c2.459-.758,2.673,3.138.619,3.625S153.754,638.454,156.213,637.7Z" transform="translate(-154.776 -633.526)" fill="#00ff3f"/>
                </g>
              </g>
            </g>
          </g>
        </g>
      </g>
    </g>
  </g>
</svg>
