<svg xmlns="http://www.w3.org/2000/svg" width="310.574" height="147.324" viewBox="0 0 310.574 147.324">
  <g id="Grupo_882877" data-name="Grupo 882877" transform="translate(-273.43 -3837.838)">
    <g id="Grupo_879554" data-name="Grupo 879554" transform="translate(263.431 3792.582)">
      <g id="Grupo_879561" data-name="Grupo 879561" transform="translate(9.999 45.897)">
        <path id="Trazado_273931" data-name="Trazado 273931" d="M100.594,299.173c20.757,3.13,41.369,6,61.85,11.073,28.93,7.162,58.795,3.991,88.239,6.206,13.621,1.025,27.238,3.208,40.865,2.329,8.924-.576,17.088-5.443,25.584-6.458a14.358,14.358,0,0,0,8.6-4.5c5.014-5.267-20.888-12.062-23.732-12.779-13.529-3.412-27.15-6.245-40.658-9.792-21.174-5.539-43.55-3.739-65.22-5.673q-74.935-6.686-149.306-20.537c-6.282-1.171-33.484.417-24.461,16.842,2.323,4.229,6.578,5.976,10.541,7.371A314.016,314.016,0,0,0,87.239,297.1Q93.927,298.18,100.594,299.173Z" transform="translate(-15.796 -172.301)" fill="#2c2c4f" opacity="0.4"/>
        <g id="Grupo_879560" data-name="Grupo 879560">
          <path id="Trazado_273932" data-name="Trazado 273932" d="M334.42,112.672c-.453.906-2.111,1.08-4.191,1.519-3.364.709-6.767,1.217-10.177,1.639-6.558.811-13.156,1.237-19.731,1.878-11.7,1.139-23.455,1.819-35.216,1.8-10.607-.015-23.557.748-33.588-2.746-10.274-3.578-19.79-9.827-29.027-15.449a143.025,143.025,0,0,1-15.256-10.206c-3.518-2.818-6.761-5.961-10-9.1L166.558,71.656c-6.982-6.769-17.183-14.393-21.78-23.009,4.83-1.873,12.194-1.006,17.365-.9,14.007.3,28.3,2.541,41.842-1.071.233-.063,9.419,9.718,10.6,10.638,4.576,3.548,7.775,4.2,13.491,5.022a313.528,313.528,0,0,0,35.243,3.514c5.122.154,10.373.118,15.186,1.878,6.564,2.4,11.471,7.8,16.9,12.2,12.663,10.249,29.566,16.048,38.2,29.862C334.507,111.222,334.708,112.1,334.42,112.672Z" transform="translate(-84.153 -46.681)" fill="#8b8ba3"/>
          <g id="Grupo_879555" data-name="Grupo 879555" transform="translate(139.877 59.231)">
            <path id="Trazado_273933" data-name="Trazado 273933" d="M435.311,189.926q4.99,10.008,10.737,19.613c4.584,7.658,8.935,16.605,16.495,21.527a4.743,4.743,0,0,1,1.51,1.325,3.909,3.909,0,0,1,.445,1.144c.571,2.252,1.159,7.557-.889,9.15-1.658,1.29-5.677.081-7.612.117l-21.187.4c-2.722.052-5.168-.063-7.911.221a47.05,47.05,0,0,1-9.908.165,61.972,61.972,0,0,1-6.472-1.169l-13.509-2.937c-1.873-.407-4.569-1.542-6.46-1.287-1.652.223-3.678,1.726-5.063,2.592a13.277,13.277,0,0,1-3.42,1.813,10.38,10.38,0,0,1-2.9.223q-28.617-.51-57.2-2.138c-2.685-7.694.7-16.159,2.712-23.589a110.823,110.823,0,0,1,9.813-23.534c1.529-2.832,3.4-8.99,6.481-10.424a7.412,7.412,0,0,1,3.576-.4c5.042.293,10.1.836,15.112,1.466,4.934.621,7.33-1.375,11.612-3.89a13.29,13.29,0,0,1,4.087-1.816,13.468,13.468,0,0,1,4.259.1,465.661,465.661,0,0,0,48.323,3.625C433.154,182.339,433.294,185.88,435.311,189.926Z" transform="translate(-320.969 -178.362)" fill="#2c2c4f"/>
            <g id="Grupo_879554-2" data-name="Grupo 879554" transform="translate(0 3.289)">
              <path id="Trazado_273934" data-name="Trazado 273934" d="M342.1,247.324c-1.3-3.021-1.233-6.666-.679-9.992,2.8-16.806,15.311-30.971,18.611-47.445-.126-.013-.247-.02-.376-.036-3.877-.488-7.784-.919-11.69-1.228a50.908,50.908,0,0,0-12.3,8.532c-.124.115-.238.24-.361.356-.284.634-.555,1.217-.815,1.7a110.82,110.82,0,0,0-9.813,23.534c-2.012,7.429-5.4,15.895-2.712,23.589Q332.029,246.906,342.1,247.324Z" transform="translate(-320.969 -187.297)" fill="#07073d"/>
              <path id="Trazado_273935" data-name="Trazado 273935" d="M530.53,246.824c1.935-.036,5.953,1.172,7.612-.117,2.047-1.593,1.46-6.9.889-9.15a3.909,3.909,0,0,0-.445-1.144,4.737,4.737,0,0,0-1.51-1.325c-7.56-4.922-11.911-13.869-16.495-21.527q-5.742-9.6-10.737-19.613c-2.017-4.046-2.157-7.586-7.373-7.706q-7.276-.166-14.544-.569a60.9,60.9,0,0,0,6.833,4.708,20.307,20.307,0,0,1,5.445,3.937c1.618,1.907,2.329,4.4,3.1,6.775a90.2,90.2,0,0,0,20.176,34.048c-11.794,5.279-23.768,2.233-35.963,4.178-6.9,1.1-11.194,6.805-17.514.476-4.96-4.968-6.524-13.68-8.191-20.192-1.162-4.54-5.147-12.41-5.131-16.737q-.045,12.422-.091,24.844c-.012,3.42.984,12.135-.154,18.946.055-.013.111-.019.166-.033a13.277,13.277,0,0,0,3.42-1.813c1.385-.865,3.411-2.368,5.063-2.592,1.891-.255,4.587.88,6.46,1.287l13.509,2.937a61.977,61.977,0,0,0,6.472,1.169,47.051,47.051,0,0,0,9.908-.165c2.742-.285,5.189-.17,7.911-.221Z" transform="translate(-395.501 -185.674)" fill="#07073d"/>
            </g>
          </g>
          <path id="Trazado_273936" data-name="Trazado 273936" d="M426.043,183.763c6.856.124,13.7.529,20.544.9-.941-1.436-2.278-2.378-4.919-2.438a465.661,465.661,0,0,1-48.323-3.625,13.468,13.468,0,0,0-4.259-.1A13.29,13.29,0,0,0,385,180.315c-4.282,2.515-6.677,4.511-11.612,3.89-5.011-.63-10.07-1.173-15.112-1.466a7.413,7.413,0,0,0-3.576.4c-3.079,1.434-4.952,7.592-6.481,10.424q-1.182,2.189-2.294,4.42c11.048-6.472,27.608-7.176,38.417-10.462a65.029,65.029,0,0,1,18.448-2.585C409.853,181.81,418.386,183.625,426.043,183.763Z" transform="translate(-194.822 -119.131)" fill="#a6a6bc"/>
          <path id="Trazado_273937" data-name="Trazado 273937" d="M74.842,51.9A5.135,5.135,0,0,0,71.8,50.5c-1.3.025-2.358,1.012-3.269,1.942a294.393,294.393,0,0,0-54.6,77.673c-1.9,3.926-3.741,8.022-3.923,12.379a23.31,23.31,0,0,0,2.767,11.185,63.008,63.008,0,0,0,4.84,8.977.8.8,0,0,0,.7.431c4.413.6,8.731,1.486,13.126,2.164q12,1.853,24.09,3.074a4.06,4.06,0,0,0,2.528-.365l6.586-2.627a3.15,3.15,0,0,1,2.871-.094c2.059.7,4.139,1.281,6.2,1.917a54.584,54.584,0,0,0,8.941,2.22c2.956.39,5.972.148,8.947.263,6.59.256,13.175.628,19.767.846,3.955.131,44.118,2.142,44.49.309q.493-2.432,1.053-4.849a182.029,182.029,0,0,1,12.768-36.691q2.079-4.4,4.393-8.681a45.894,45.894,0,0,1,5.095-7.8c-1.708-.256-3.443-.332-5.159-.567a26.619,26.619,0,0,1-4.328-1.011c-1.984-.612-3.952-1.271-5.93-1.9a135.69,135.69,0,0,1-13.312-5.017c-4.259-1.867-8.418-3.957-12.471-6.234q-3.16-1.777-6.237-3.7c-6.011-3.745-11.857-7.913-17.5-12.24Z" transform="translate(-9.999 -48.781)" fill="#62627c"/>
          <g id="Grupo_879556" data-name="Grupo 879556" transform="translate(10.7 17.538)">
            <path id="Trazado_273938" data-name="Trazado 273938" d="M312.945,173.432a43.945,43.945,0,0,0-1.178-5.118,26.875,26.875,0,0,1-4.234-.993c-1.984-.612-3.952-1.271-5.93-1.9a135.688,135.688,0,0,1-13.312-5.017c-4.259-1.867-8.418-3.957-12.471-6.235q-1.441-.81-2.863-1.653c1.581,1.9,3.284,3.724,4.856,5.523,6.66,7.619,11.845,17.114,11.864,27.233.025,12.508-7.785,23.774-17.013,32.218a120.064,120.064,0,0,1-12.122,9.6c13.188.52,32.909,1.119,33.169-.163q.493-2.432,1.053-4.849a182.029,182.029,0,0,1,12.768-36.691q2.08-4.4,4.393-8.681.577-1.068,1.177-2.1C313.047,174.209,313.01,173.819,312.945,173.432Z" transform="translate(-158.546 -122.449)" fill="#494968"/>
            <path id="Trazado_273939" data-name="Trazado 273939" d="M137.979,198.344c-1.756,5.3-6.271,10.653-8.747,15.774-2.711,5.609-5.12,11.359-7.383,17.161-2.2,5.651-3.424,11.9-4.92,18.012l6.556-2.615a3.15,3.15,0,0,1,2.871-.094c1.587.543,3.183,1.013,4.774,1.489a4.651,4.651,0,0,1-.563-.8,8.265,8.265,0,0,1-.618-4.24A160.54,160.54,0,0,1,137.979,198.344Z" transform="translate(-79.532 -147.663)" fill="#494968"/>
            <path id="Trazado_273940" data-name="Trazado 273940" d="M66.854,117.075c10.447-8.331,17.5-20.09,24.258-31.4a116.634,116.634,0,0,1-27.1,8.007c-.676.113-1.354.218-2.033.322a294.7,294.7,0,0,0-28.188,42.366C44.527,129.765,57.259,124.727,66.854,117.075Z" transform="translate(-33.788 -85.672)" fill="#494968"/>
          </g>
          <path id="Trazado_273941" data-name="Trazado 273941" d="M345.959,184.6a26.62,26.62,0,0,1-4.328-1.011c-1.578-.486-3.146-1-4.717-1.509-.806,3.391-.351,7.935-.476,11.207a67.626,67.626,0,0,1-1.8,15.114c-3.254,12.057-7.9,23.732-12.119,35.5,3.166-.091,5.209-.308,5.292-.714q.493-2.432,1.053-4.849a182.032,182.032,0,0,1,12.768-36.691q2.08-4.4,4.393-8.681a45.89,45.89,0,0,1,5.095-7.8C349.41,184.907,347.675,184.83,345.959,184.6Z" transform="translate(-181.944 -121.174)" fill="#7e7e9e"/>
          <path id="Trazado_273942" data-name="Trazado 273942" d="M152.075,56.841c4.082,5.788,9.214,10.675,14.4,15.464,5.217,4.816,10.3,9.4,16.424,13.043a201.991,201.991,0,0,0,18.845,9.44,162.871,162.871,0,0,1,18.787,9.71c5.782,3.644,12.3,6.272,17.891,10.141a25.7,25.7,0,0,1,8.9,10.512q1.161-2.3,2.384-4.576a45.893,45.893,0,0,1,5.095-7.8c-1.708-.256-3.443-.332-5.159-.567a26.621,26.621,0,0,1-4.328-1.011c-1.984-.612-3.952-1.271-5.93-1.9a135.689,135.689,0,0,1-13.312-5.017c-4.259-1.867-8.418-3.957-12.471-6.235q-3.16-1.776-6.237-3.7c-6.011-3.745-11.857-7.913-17.5-12.24L150.474,51.9a5.184,5.184,0,0,0-3.01-1.4C149.086,52.549,150.578,54.718,152.075,56.841Z" transform="translate(-85.631 -48.784)" fill="#a6a6bc"/>
          <path id="Trazado_273943" data-name="Trazado 273943" d="M350.2,188.207c2.451,2.093,4.366,5.362,6.218,7.639,1.291,1.588,1.34.834,3.078-.011a22.935,22.935,0,0,1,3.89-1.336l6.525-1.824a1.57,1.57,0,0,0,1.042-.627,1.555,1.555,0,0,0,.115-.762q-.051-2.756-.1-5.512a1.124,1.124,0,0,0-.141-.64,1.137,1.137,0,0,0-.892-.336c-2.512-.168-5.079-.119-7.558-.273-3.926-.245-7.957-2.1-11.7-3.226a.783.783,0,0,0-1.219.525l-1.172,3.23a8.716,8.716,0,0,0-.475,1.633A9.168,9.168,0,0,1,350.2,188.207Z" transform="translate(-195.86 -120.692)" fill="#bcbcd3"/>
          <g id="Grupo_879557" data-name="Grupo 879557" transform="translate(118.759)">
            <path id="Trazado_273944" data-name="Trazado 273944" d="M448.587,125.915l-31.116,10.838a205.848,205.848,0,0,0,49.027.662C460.59,133.562,454.294,130.052,448.587,125.915Z" transform="translate(-352.945 -90.275)" fill="#757487"/>
            <path id="Trazado_273945" data-name="Trazado 273945" d="M299.188,62.341c-5.716-.823-8.915-1.474-13.491-5.022-1.186-.92-10.371-10.7-10.6-10.638-.357.095-.716.17-1.073.257l.193.448c6.441,14.96,10.662,28.964,20.912,42.159q3.185-13.44,6.371-26.879C300.726,62.559,299.956,62.452,299.188,62.341Z" transform="translate(-274.019 -46.681)" fill="#757487"/>
          </g>
          <g id="Grupo_879558" data-name="Grupo 879558" transform="translate(88.044 32.968)">
            <path id="Trazado_273946" data-name="Trazado 273946" d="M211.233,129.067c1.9-.724,3.908-1.176,5.787-1.955a35.292,35.292,0,0,0,4.962-2.708l6.249-3.857a12.229,12.229,0,0,1-4.332,6.433,25.108,25.108,0,0,1-7.026,3.8,18.784,18.784,0,0,1-5.557,1.363c-1.868.1-3.751-.651-5.581-.973C207.535,130.387,209.4,129.765,211.233,129.067Z" transform="translate(-205.735 -120.289)" fill="#bcbcd3"/>
            <path id="Trazado_273947" data-name="Trazado 273947" d="M218.534,126.592c-2.134.969-4.33,1.827-6.555,2.614q-1.549.548-3.118,1.051c-.874.281-1.79.314-2.638.588.835-1.951,3.205-3.334,5.03-4.487a50.825,50.825,0,0,1,5.119-2.907c1.6-.767,3.99-2.048,5.842-2.048.613-.187,6.591-1.523,6.5-1.425C226.315,122.549,222.587,124.753,218.534,126.592Z" transform="translate(-206.004 -119.974)" fill="#494968"/>
          </g>
          <g id="Grupo_879559" data-name="Grupo 879559" transform="translate(108.215 99.61)">
            <path id="Trazado_273948" data-name="Trazado 273948" d="M254.729,270.767c1.434.252,2.832.709,4.272.919a25.276,25.276,0,0,0,4.042.154l5.253-.081a8.75,8.75,0,0,1-5.019,2.366,17.973,17.973,0,0,1-5.71-.238,13.441,13.441,0,0,1-3.915-1.2,18.024,18.024,0,0,1-3.073-2.642C251.973,270.224,253.346,270.524,254.729,270.767Z" transform="translate(-250.58 -269.184)" fill="#bcbcd3"/>
            <path id="Trazado_273949" data-name="Trazado 273949" d="M260.011,270.962c-1.667-.187-3.33-.464-4.986-.8q-1.152-.231-2.3-.5c-.64-.148-1.215-.463-1.837-.605,1.228-.893,3.191-.874,4.735-.914a36.351,36.351,0,0,1,4.211.089c1.267.117,3.2.2,4.34.882.445.11,4.607,1.479,4.516,1.506A23.342,23.342,0,0,1,260.011,270.962Z" transform="translate(-250.749 -268.13)" fill="#494968"/>
          </g>
        </g>
      </g>
      <g id="Grupo_879562" data-name="Grupo 879562" transform="translate(82.057 109.447)">
        <path id="Trazado_273950" data-name="Trazado 273950" d="M177.336,216.747a161.866,161.866,0,0,1,15-28.784,177.556,177.556,0,0,0-13.185,48.4c3.6-9.831,10.747-17.883,17.736-25.678a92.744,92.744,0,0,0-9.815,29.375c5.305-12.545,13.463-23.639,21.547-34.6A146.34,146.34,0,0,0,197.186,227.4c-2.785,6.666-4.374,13.628-6.535,20.5-2.288.316-20.364-.059-20.456.761C171.344,237.781,173.277,226.906,177.336,216.747Z" transform="translate(-170.196 -187.963)" fill="#99a000"/>
        <path id="Trazado_273951" data-name="Trazado 273951" d="M181.288,268.345q1.165-6.689,2.64-13.319c-.4.9-.784,1.812-1.126,2.744a162.413,162.413,0,0,1,5.286-26.058c-5.1,10.807-11.167,26.6-11.257,37.933,5.253-.251,15.763-.1,17.471-.337,2.161-6.873,3.75-13.835,6.535-20.5a146.34,146.34,0,0,1,11.433-21.942c-8.084,10.963-16.242,22.057-21.547,34.6a92.756,92.756,0,0,1,9.815-29.375q-1.007,1.122-2.013,2.254a85.32,85.32,0,0,0-5.437,12.148C190.275,254.441,188.173,263.482,181.288,268.345Z" transform="translate(-173.846 -209.367)" fill="#475412" opacity="0.4"/>
      </g>
      <g id="Grupo_879564" data-name="Grupo 879564" transform="translate(175.481 101.685)">
        <path id="Trazado_273952" data-name="Trazado 273952" d="M425.723,181.914c.648.9,1,1.946,1.716,2.85,1.777,2.252,1.639,5.554.455,8.167-1.1,2.427-1.847,4.688-1.344,7.387a51.259,51.259,0,0,0,1.778,5.389,6.916,6.916,0,0,1-.229,5.51c-1.255,2.1-4.066,2.864-5.351,4.949-.985,1.6-.86,3.6-.991,5.475-.137,1.962-1.07,5.239-3.45,5.37-2.528.138-4.574-2.4-7.2-.406-1.31.993-.721,2.061-1.258,3.509-.427,1.15-.729,1.161-1.668,1.939a4.924,4.924,0,0,1-1.135.645,55.1,55.1,0,0,1-12.529,3.933c-.642.12,1.535,2.1,1.859,2.223,1.353.524,3.282.269,4.71.272,3.416.006,6.83-.191,10.23-.518,6.707-.645,13.349-1.8,19.98-2.974,13.27-2.339,26.787-4.822,40.3-3.245,1.441.168,3.2.251,4.019-.943a3.769,3.769,0,0,0,.506-1.5,50.291,50.291,0,0,0-10.85-40.733c-2.023-2.4-4.383-4.684-7.353-5.709-2.385-.823-5.029.269-7.228-1.414a58.33,58.33,0,0,1-4.258-4c-3.374-3.176-5.169.4-8.549.78-3.182.358-5.573-2.13-7.931-3.843a11.841,11.841,0,0,0-6.736-2.581,2.363,2.363,0,0,0-.948.081,1.92,1.92,0,0,0-.995,1.111c-1.6,3.731,1.962,5.524,4.051,7.784A5.016,5.016,0,0,1,425.723,181.914Z" transform="translate(-386.975 -171.658)" fill="#07073d" opacity="0.5"/>
        <g id="Grupo_879563" data-name="Grupo 879563">
          <path id="Trazado_273953" data-name="Trazado 273953" d="M498.478,229.407a11.752,11.752,0,0,1,1.335,2.838c1.291,3.53,1.3,7.6-3.347,8.043-6.307.6-13.868,1.936-20.157,1.062-16.2-2.253-31.7,3.665-47.121-3.312-2.642-1.195-5.623-2.3-8.375-1.381-3.338,1.113-5.687,4.529-9.16,5.306-3.366.752-8.061-.569-11.422-1.152a48.274,48.274,0,0,0-14.512-.354c-2.727.3-5.987.181-7.531-2.086a1.244,1.244,0,0,1-.272-.971,1.464,1.464,0,0,1,.762-.782c2.563-1.54,5.476-3.14,8.384-2.443,1.076.258,2.067.821,3.157,1.009,1.858.32,3.705-.484,5.419-1.269l4.336-1.986a4.161,4.161,0,0,0,2.419-2c.463-1.257-.28-2.943.7-3.855,1.563-1.451,7-.9,9.16-.853-2.418-.057,2.381-8.438,2.784-8.991,1.766-2.42,5.159-4.007,6.527-6.3,1.107-1.856-.335-4.106-1.182-6.094a11.061,11.061,0,0,1-.615-6.675c.594-2.675,2.194-5.311,1.526-7.97-.674-2.678-1.091-7.517-2.626-9.664-1.558-2.181-8.442-3.689-6.947-7.221.745-1.761,3.211-1.744,5.1-1.433l10.176,1.68a6.5,6.5,0,0,1,2.805.921c.629.454,1.12,1.148,1.868,1.355a5.4,5.4,0,0,0,1.842-.065c5.443-.41,3.779,7.881,10.043,7.885a15.036,15.036,0,0,1,10.94,4.83c3.53,3.864,5.124,8.7,9.344,12,1.913,1.5,3.659,2.032,4.8,4.318.663,1.327-.409,2.5-.1,3.756.58,2.388,3.659,3.07,5.665,2.8a2.821,2.821,0,0,1,1.208-.011,2.236,2.236,0,0,1,1.077.948c.82,1.181,1.529,2.615,2.883,3.1,1.316.47,2.775-.146,4.164.022a6.7,6.7,0,0,1,2.608.384,4.38,4.38,0,0,1,1.276,1.317,56.983,56.983,0,0,1,3.675,7.109C492.667,226.334,496.515,226.645,498.478,229.407Z" transform="translate(-377.892 -170.708)" fill="#99a000"/>
          <path id="Trazado_273954" data-name="Trazado 273954" d="M496.466,246.227c4.648-.44,4.638-4.513,3.347-8.043a11.763,11.763,0,0,0-1.335-2.838c-1.964-2.761-5.812-3.072-7.388-6.19a56.983,56.983,0,0,0-3.675-7.109,4.387,4.387,0,0,0-1.276-1.317,6.705,6.705,0,0,0-2.608-.383c-1.389-.167-2.848.448-4.164-.022-1.354-.483-2.062-1.918-2.883-3.1a2.236,2.236,0,0,0-1.077-.948,2.821,2.821,0,0,0-1.208.011c-2.006.269-5.085-.413-5.665-2.8-.305-1.259.767-2.43.1-3.756-1.143-2.285-2.889-2.821-4.8-4.318-4.22-3.3-5.815-8.135-9.344-12a15.036,15.036,0,0,0-10.94-4.83c-4.905,0-4.96-5.073-7.362-7.082-9.6,8.114-16.849,6.639-9.6,22.191,2.254,4.835,3.276,11.753-1.3,14.492a6.522,6.522,0,0,1-1.381.619,15.378,15.378,0,0,1-5.639.308,17.016,17.016,0,0,0-3.233,3.054c-.4.553-5.2,8.934-2.784,8.991-2.155-.05-7.6-.6-9.16.853-.982.912-.238,2.6-.7,3.855a4.161,4.161,0,0,1-2.419,2l-4.336,1.986c-1.714.785-3.561,1.589-5.419,1.269-1.09-.187-2.081-.751-3.157-1.009-2.908-.7-5.821.9-8.384,2.443a1.464,1.464,0,0,0-.762.782,1.245,1.245,0,0,0,.272.971c1.543,2.267,4.8,2.384,7.531,2.086a48.272,48.272,0,0,1,14.512.354c3.361.583,8.057,1.9,11.422,1.151,3.473-.776,5.822-4.192,9.16-5.305,2.752-.917,5.733.187,8.375,1.381,15.419,6.976,30.92,1.058,47.121,3.311C482.6,248.163,490.159,246.823,496.466,246.227Z" transform="translate(-377.892 -176.647)" fill="#475412" opacity="0.4"/>
          <path id="Trazado_273955" data-name="Trazado 273955" d="M498.478,239.972c-1.964-2.761-5.812-3.072-7.388-6.19a56.983,56.983,0,0,0-3.675-7.109,4.387,4.387,0,0,0-1.276-1.317,6.705,6.705,0,0,0-2.608-.383c-1.389-.167-2.848.448-4.164-.022-1.354-.483-2.062-1.918-2.883-3.1a2.235,2.235,0,0,0-1.077-.948,2.821,2.821,0,0,0-1.208.011c-2.006.269-5.085-.413-5.665-2.8-.305-1.259.767-2.43.1-3.756-1.143-2.285-2.889-2.821-4.8-4.318-4.22-3.3-5.815-8.135-9.344-12a15.036,15.036,0,0,0-10.94-4.83c-2.724,0-3.95-1.566-4.915-3.3-.363,1.448-1.352,4.764-2.823,5.291-1.833.655-4.267.24-3.748,3.011a1.39,1.39,0,0,0,.4.78c1.68,1.59,7.694-1.474,9.651-.838.771.251,1.4.843,2.179,1.07,2.025.59,4.544-1.374,6.124.024a5.365,5.365,0,0,1,1.092,2.087c.88,2.087,2.819,3.492,4.614,4.872s3.633,3,4.134,5.21-1.12,4.97-3.371,4.733c-2.1-.221-3.659-2.855-5.882-2.155-3.531,1.113-.358,4.556-1.731,6.149a1.761,1.761,0,0,1-1.027.48,9.5,9.5,0,0,1-3.509.031,12.391,12.391,0,0,0-.688,2.855l-6.3-.472a9.009,9.009,0,0,0-.232,4.373,4.573,4.573,0,0,1-3.251-.483,4.927,4.927,0,0,0-2.092-1,1.583,1.583,0,0,0-.9,2.923c.716.448,1.692.276,2.411.72a5.521,5.521,0,0,1,.821.746,3.779,3.779,0,0,0,6.237-1.763,2.4,2.4,0,0,1,.491-1.191,1.818,1.818,0,0,1,.98-.368,4.947,4.947,0,0,1,3.627.332,2.528,2.528,0,0,0,.806.487,1.669,1.669,0,0,0,.856-.11l2.629-.823a6.677,6.677,0,0,1,1.188,2.7,2.283,2.283,0,0,1-1.276,2.444c-.5.175-1.144.162-1.407.62-.277.483.144,1.092.636,1.352a8.293,8.293,0,0,1,1.508.705,1.812,1.812,0,0,1,.148,2.441,2.593,2.593,0,0,1-2.451.816c-1.811-.312-2.918-1.159-4.078.693-.728,1.162-.027,2.827-.71,3.912-1.444,2.3-4.8,1.134-6.571-.1-2.566-1.8-4.224-3.628-7.777-2.968.558.681.021,1.783-.782,2.144a5.479,5.479,0,0,1-2.6.175,3.113,3.113,0,0,0-2.474.643c-.33.339-.518.812-.9,1.093-.824.6-1.953.011-2.845-.486a14.158,14.158,0,0,0-5.319-1.7c-1.453-.16-3.316.2-3.658,1.618-.235.977.411,1.95.433,2.954a3.278,3.278,0,0,1-1.943,2.812,11.767,11.767,0,0,1-8.263.4c-3.441-1.016-6.883-2.775-10.424-2.193-3.137.515-6.369,2.816-9.19,1.352a18.6,18.6,0,0,1-2.053-1.5c-.217.127-.435.254-.647.381a1.464,1.464,0,0,0-.762.782,1.245,1.245,0,0,0,.272.971c1.543,2.268,4.8,2.384,7.531,2.086a48.273,48.273,0,0,1,14.512.354c3.361.583,8.057,1.9,11.422,1.152,3.473-.776,5.822-4.192,9.16-5.306,2.752-.917,5.733.187,8.375,1.381,15.419,6.976,30.92,1.058,47.121,3.312,6.289.875,13.85-.465,20.157-1.062,4.648-.44,4.638-4.513,3.347-8.043A11.764,11.764,0,0,0,498.478,239.972Z" transform="translate(-377.892 -181.273)" fill="#475412" opacity="0.4"/>
          <path id="Trazado_273956" data-name="Trazado 273956" d="M476.281,175.329a3.607,3.607,0,0,0,.342-.552c-.131,0-.247-.019-.387-.009a5.419,5.419,0,0,1-1.842.065c-.748-.208-1.239-.9-1.868-1.355a6.5,6.5,0,0,0-2.805-.921l-10.177-1.68a6.827,6.827,0,0,0-3.994.294c0,2.275,3.758,3.463,5.722,3.572a2.481,2.481,0,0,1,2.388,1.458,11.79,11.79,0,0,1,.088,1.554,2.789,2.789,0,0,0,2.582,2.122,8.16,8.16,0,0,0,3.5-.706C472.221,178.307,474.743,177.348,476.281,175.329Z" transform="translate(-420.619 -170.715)" fill="#c6c624"/>
          <path id="Trazado_273957" data-name="Trazado 273957" d="M560.3,269.962a11.764,11.764,0,0,0-1.335-2.838c-1.964-2.761-5.812-3.072-7.388-6.19a56.983,56.983,0,0,0-3.674-7.109,4.387,4.387,0,0,0-1.276-1.317,6.705,6.705,0,0,0-2.608-.383c-1.389-.167-2.848.448-4.164-.022-1.354-.483-2.062-1.918-2.883-3.1a2.235,2.235,0,0,0-1.077-.948,2.821,2.821,0,0,0-1.208.011c-2.006.269-5.085-.413-5.665-2.8-.3-1.259.767-2.43.1-3.756a6.415,6.415,0,0,0-1.857-2.249,7.432,7.432,0,0,0,.062,1.883,4.7,4.7,0,0,1-.263,3.047c-.533.894-2.028,1.229-2.578.345-.307-.493-.235-1.206-.682-1.578-.584-.485-1.53.123-1.683.867a3.187,3.187,0,0,0,.225,1.654c.063.187.129.372.189.556a3.066,3.066,0,0,1,.052,2.219c-1,2.146-5.493.129-6.937,1.44-1.1.995-.329,3,1.026,3.6a6.563,6.563,0,0,0,4.346-.161,7.243,7.243,0,0,1,4.354-.3c1.391.507,2.343,2.39,1.385,3.519-.411.484-1.139.874-1.044,1.5.088.578.806.779,1.387.852l9.77,1.233c1.2.152,2.539.382,3.247,1.364a1.972,1.972,0,0,1-1.375,3.11c-.588.038-1.219-.214-1.745.051-.843.426-.556,1.838.277,2.283,1.055.564,3.636.167,4.753-.215,1.87-.64,3.454-2.041,5.4-2.411s4.448,1.2,3.83,3.073c-.632,1.917-3.391,1.706-5.313,1.09-.8.4.192,1.456.673,2.2.8,1.246-.457,3.032-1.933,3.147a4.27,4.27,0,0,1-3.634-2.173,6.562,6.562,0,0,1-7.156-1.011c-1.736.179-2.944,1.731-4.352,2.763s-3.874,1.287-4.5-.341c-.677-1.75,1.613-3.69.832-5.4a2.363,2.363,0,0,0-1.375-1.147,4.028,4.028,0,0,0-5.113,2.83c-.128.614-.106,1.255-.267,1.862a3.333,3.333,0,0,1-5.254,1.465,2.494,2.494,0,0,0-.7-.582c-1.51-.636-1.882,2.758-3.516,2.867-1.23.082-1.734-1.766-2.931-2.063a2.159,2.159,0,0,0-2.16,1.274,10.619,10.619,0,0,1-1.345,2.32c-1.353,1.362-3.688.857-5.331-.138s-3.135-2.41-5.033-2.7a6.99,6.99,0,0,0-4.682,1.277c-.117.074-.223.166-.338.245.628.239,1.248.5,1.848.774,15.419,6.976,30.92,1.058,47.121,3.311,6.289.875,13.85-.465,20.157-1.062C561.6,277.564,561.586,273.491,560.3,269.962Z" transform="translate(-438.375 -208.424)" fill="#475412" opacity="0.4"/>
          <path id="Trazado_273958" data-name="Trazado 273958" d="M526.348,231.681a5.759,5.759,0,0,1,3.753-.2,3.512,3.512,0,0,1,1.95,1.942c.632,1.658-.259,1.761-1.629,1.694a2.886,2.886,0,0,0-2.409,1.722,13.746,13.746,0,0,1-1.524,2.713,2.076,2.076,0,0,1-2.771.468,1.842,1.842,0,0,1-.195-2.254,4,4,0,0,1,1.9-1.482,2.913,2.913,0,0,1-.615-3.283A2.854,2.854,0,0,1,526.348,231.681Z" transform="translate(-457.857 -204.019)" fill="#475412" opacity="0.4"/>
          <path id="Trazado_273959" data-name="Trazado 273959" d="M521.582,284.543a.806.806,0,0,0-.158-.441.918.918,0,0,0-.347-.215c-.97-.414-2.832-1.772-3.76-.629a1.168,1.168,0,0,0,.03,1.488c.233.247.58.376.777.653.551.776-.393,2.133.366,2.708a1.292,1.292,0,0,0,.893.164C520.906,288.146,521.752,285.9,521.582,284.543Z" transform="translate(-454.463 -232.385)" fill="#475412" opacity="0.4"/>
          <path id="Trazado_273960" data-name="Trazado 273960" d="M433.251,315.417a2.763,2.763,0,0,0,1.159-.038,7.189,7.189,0,0,1,2.9-.169,2.483,2.483,0,0,0,1.074.149c.729-.159.95-1.073,1.026-1.815a1.411,1.411,0,0,0-.133-.968,1.083,1.083,0,0,0-.7-.384,6.886,6.886,0,0,0-4.232.976C433.536,313.609,431.121,314.885,433.251,315.417Z" transform="translate(-407.879 -248.515)" fill="#475412" opacity="0.4"/>
          <path id="Trazado_273961" data-name="Trazado 273961" d="M475.9,180.889q1.8,0,3.6-.008c.366,0,.8-.047.97-.372a.836.836,0,0,0,0-.626,3.1,3.1,0,0,0-2.53-1.918c-1.614-.407-2.183-.3-3.726-1.35a2.226,2.226,0,0,0-1.056-.475.766.766,0,0,0-.847.624c-.024.52.6.771,1.056,1.028C475.009,178.722,473.687,180.883,475.9,180.889Z" transform="translate(-429.841 -173.695)" fill="#e8d758" opacity="0.6"/>
          <path id="Trazado_273962" data-name="Trazado 273962" d="M460.4,214.387a19.378,19.378,0,0,0,3.067-1.4c1.29-.751,2.617-1.88,2.616-3.371,0-1.324-1.044-2.379-1.974-3.321-1.523-1.544-3.008-3.859-1.893-5.719.694-1.159,2.224-1.7,2.706-2.964.767-2.006-1.584-3.793-2.1-5.877-.33-1.321.109-2.7.213-4.053a13.028,13.028,0,0,0-1.534-6.58,4.152,4.152,0,0,0-2.158-2.356c-.835-.25-1.8.04-2.57-.366a12.306,12.306,0,0,1-3.93-4c-1.4,3.491,5.413,5,6.963,7.166,1.535,2.147,1.952,6.986,2.626,9.664.668,2.659-.932,5.3-1.526,7.97a11.058,11.058,0,0,0,.616,6.675c.846,1.989,2.288,4.238,1.181,6.094A10.1,10.1,0,0,1,460.4,214.387Z" transform="translate(-419.022 -172.724)" fill="#757f02"/>
          <path id="Trazado_273963" data-name="Trazado 273963" d="M457.429,277.185c1.2-1.417,2.287-3.164,4.082-3.64a25.641,25.641,0,0,1,2.557-.264,2.266,2.266,0,0,0,1.958-1.436,1.862,1.862,0,0,0-1.185-2.03,3.763,3.763,0,0,0-2.511.029,9.321,9.321,0,0,0-6.226,7.948A1.38,1.38,0,0,0,457.429,277.185Z" transform="translate(-420.923 -225.123)" fill="#99a000"/>
        </g>
      </g>
      <g id="Grupo_879566" data-name="Grupo 879566" transform="translate(16.288 45.256)">
        <path id="Trazado_273964" data-name="Trazado 273964" d="M175.395,80.412a33.958,33.958,0,0,1,5.081,1.513c3.774,1.07,7.793.455,11.713.612,6.442.257,12.156,3.3,18.359,4.689,2.5.558,5.332,1.739,7.87,1.766,2.95.03,5.4-1.195,8.37.015,1.049.427,1.994,1.082,3.05,1.489a13.307,13.307,0,0,0,5.121.588,76.313,76.313,0,0,0,9.51-.749q-.587-.363-1.174-.725c-3.805-2.343-7.618-4.692-11.2-7.289-1.068-.774-2.122-1.562-3.141-2.387-5.433-4.4-10.34-9.8-16.9-12.2-4.813-1.76-10.063-1.724-15.186-1.878a313.643,313.643,0,0,1-35.243-3.514,39.775,39.775,0,0,1-7.173-1.489,21.058,21.058,0,0,1-6.318-3.533c-1.186-.919-10.371-10.7-10.6-10.638-.357.095-.716.17-1.073.257-13.219,3.222-27.131,1.107-40.769.814-5.17-.111-12.535-.978-17.364.9.006.012.014.024.021.036a7.565,7.565,0,0,0-2.113,1.657A293.136,293.136,0,0,0,56.58,72.548h0q-1.976,2.476-3.9,4.993c-.079.1-.154.208-.233.311q-1.78,2.337-3.513,4.707c-.178.244-.351.491-.528.735q-1.588,2.187-3.138,4.4c-.17.244-.337.491-.506.736Q43.2,90.68,41.684,92.954c-.131.2-.26.395-.39.592q-1.573,2.372-3.1,4.772l-.262.416q-1.59,2.51-3.129,5.051l-.134.224q-1.6,2.643-3.138,5.319l-.042.072q-3.934,6.834-7.507,13.866c.32-.059.64-.128.954-.2A30.96,30.96,0,0,0,36.7,117.355a13.171,13.171,0,0,1,4.226-2.675c2.452-.706,5.01.372,7.462,1.077s5.5.871,7.141-1.085a21.265,21.265,0,0,0,1.479-2.59c2.032-3.271,6.5-3.78,10.348-3.944q7.582-.324,15.163-.647c3.67-.155,7.886-.283,9.6-4.294.7-1.637.5-3.531,1.07-5.216,1.36-3.992,7.613-5.046,10.207-1.721.878,1.125,1.339,2.557,2.347,3.571,3.119,3.135,7.393.969,11.1.652,2.446-.209,4.1-.636,6.352.854a5.708,5.708,0,0,1,1.716,1.606c.809,1.265.744,2.886,1.2,4.317a6.088,6.088,0,0,0,4.6,4.062,5.925,5.925,0,0,0,5.7-2.24c4.218-5.7.668-15.134,8.052-19.3,2.97-1.675,6.457-2.1,9.832-2.588,3.944-.569,8.831-.955,12.275-3.085C169.507,82.291,171.46,79.941,175.395,80.412Z" transform="translate(-23.98 -46.04)" fill="#07073d" opacity="0.3"/>
        <g id="Grupo_879565" data-name="Grupo 879565" transform="translate(1.557)">
          <path id="Trazado_273965" data-name="Trazado 273965" d="M137.209,45.289l-17.66.112-32.717.206a25.823,25.823,0,0,0-6.731.635C71.627,48.584,67.284,57.294,62.4,63.7c-5.905,7.733-14.945,14.559-22.154,21.152-3.8,3.476-7.7,7.093-9.789,11.8-2.348,5.308-6.975,29.26,3.9,18.139,2.809-2.872,2.987-5.161,7.48-4.986,5.972.233,9.755,3.158,15.653-.614,1.629-1.042,3.088-2.419,4.925-3.024a13.042,13.042,0,0,1,4.022-.444l12-.071a11.281,11.281,0,0,0,4.427-.621c5.04-2.17,4.228-9.538,8.464-11.585,1.725-.833,3.785-.244,5.676-.548,2.179-.35,4-1.86,6.126-2.456,5.24-1.472,6.76,2.632,9.917,5.339,4.231,3.627,6.829,1.562,11.649,2.505,4.706.922,3.053,3.473,4.329,7.466a4.926,4.926,0,0,0,5.219,3.43c6-1.022,3.559-14.408,7.465-18.668,4.411-4.812,12.27-5.637,18.293-6.837,8.562-1.707,13.2-10.646,22.052-4.862,2.258,1.474,5.209.844,7.9.69,9.545-.55,18.395,5.566,27.954,5.717,3.63.057,7.375-.741,10.827.384,1.982.646,3.733,1.893,5.735,2.475a18.383,18.383,0,0,0,6.6.272,1.889,1.889,0,0,0,1.316-.457c.428-.485.247-1.234.043-1.849-.731-2.2-1.745-4.685-3.955-5.379-4.759-1.494-3.455-1.784-6.152-5.612-3.979-5.647-13.9-9.5-19.843-12.7a10.763,10.763,0,0,0-2.8-1.17,17.767,17.767,0,0,0-3.666-.1,29,29,0,0,1-5.774-.79c-9.915-2.041-19.192-5.118-28.852-8.137-10.151-2.928-18.2-6.97-29.163-6.9Z" transform="translate(-27.441 -45.256)" fill="#99a000"/>
          <path id="Trazado_273966" data-name="Trazado 273966" d="M275.356,62.359a10.756,10.756,0,0,0-2.8-1.17,17.768,17.768,0,0,0-3.666-.1,29,29,0,0,1-5.774-.79c-9.915-2.041-19.192-5.118-28.852-8.137-10.151-2.928-18.2-6.97-29.163-6.9l-5.022.032-17.66.112-32.717.206a25.822,25.822,0,0,0-6.73.635c-.432.12-.846.266-1.256.417,3.67,2.49,10.9,3.628,13.962,5.882-.743.982-2.812,2.7-2.615,4.247.174,1.364,1.7,2.173,3.078,2.191a25.947,25.947,0,0,0,4.053-.708c3.063-.453,7.955,3.182,11.308,5.128.484.281.936.527,1.345.72,1.922.906,3.946,2.715,3.4,4.767-1.3,4.879-.92,5.745,2.935,8.993,2.942,2.478,5.794,6.963,9.391,8.465,7.258,3.029,15.716-3.806,21.421-7.479,1.38-.889,2.877-2.124,2.8-3.764s-1.765-3.12-1.231-4.68c.381-1.112,1.685-1.557,2.823-1.854l13.875-3.622c6.922-1.807,3.9,3.569,9.018,5.169a10.248,10.248,0,0,0,6.345-.506c2.876-1,6.184-2.842,9.334-2.362,2.709.412,4.313,2.5,7.036,2.556,6.186.119,11.159-4.069,17.248.545a13.24,13.24,0,0,0,2.872,1.977,8.956,8.956,0,0,0,3.6.4c2.07-.053,4.427-.242,5.7-1.878a3.57,3.57,0,0,0,.426-.717C285.251,67,279.391,64.525,275.356,62.359Z" transform="translate(-90.317 -45.256)" fill="#c6c624"/>
          <path id="Trazado_273967" data-name="Trazado 273967" d="M238.476,90.131c-4.759-1.494-3.455-1.784-6.152-5.612-.223-.317-.471-.626-.73-.931-.965,1.535-2.841,2.256-4.579,2.847a33.5,33.5,0,0,1-8.791,2.128c-7.823.444-13.609-5.236-21.128-5.452a17.571,17.571,0,0,0-6.618.655c-1.237.457-2.362,1.19-3.621,1.583-6,1.874-12.056-4.432-18.231-3.251-3.018.578-5.382,2.832-7.972,4.487-4.3,2.747-9.4,3.9-14.113,5.851-8.566,3.544-10.858,8.893-12.508,17.392a5.341,5.341,0,0,1-1.359,3.057c-.843.762-2.4.816-2.966-.168.513-5.054.592-8.705-4.6-9.16-2.764-.242-7.261,2.463-9.139-.9-.559-1-.5-2.276-1.152-3.219-.954-1.386-2.945-1.474-4.4-2.328-4.051-2.386-2.109-8.742-4.064-13.018-1.928-4.218-7.253-5.557-11.888-5.7a8.717,8.717,0,0,1-3.534-.559,4.266,4.266,0,0,1-.882-.567c-2.379-1.967-2.657-6.231-5.429-7.874-2.689-1.6-6.275.106-9.21-.973-2.52-.927-3.828-3.556-5.113-5.96-2.932,3.372-5.347,7.349-7.906,10.7C56.491,80.894,47.451,87.72,40.242,94.313c-3.8,3.476-7.7,7.093-9.789,11.8-2.348,5.307-6.975,29.26,3.9,18.139,2.809-2.872,2.987-5.161,7.481-4.986,5.971.233,9.755,3.158,15.652-.614,1.629-1.042,3.088-2.419,4.925-3.024a13.043,13.043,0,0,1,4.022-.444l12-.071a11.283,11.283,0,0,0,4.428-.621c5.04-2.17,4.228-9.538,8.465-11.585,1.725-.833,3.784-.244,5.676-.548,2.179-.35,4-1.86,6.126-2.456,5.24-1.472,6.76,2.632,9.918,5.339,4.231,3.627,6.829,1.562,11.648,2.505,4.706.922,3.053,3.473,4.329,7.466a4.926,4.926,0,0,0,5.219,3.43c6-1.022,3.559-14.408,7.465-18.668,4.411-4.812,12.27-5.637,18.293-6.838,8.563-1.707,13.2-10.646,22.052-4.862,2.258,1.474,5.209.844,7.9.69,9.545-.55,18.395,5.566,27.954,5.717,3.63.057,7.375-.741,10.827.384,1.982.646,3.733,1.893,5.735,2.475a18.383,18.383,0,0,0,6.6.272,1.889,1.889,0,0,0,1.316-.457c.428-.485.247-1.235.043-1.849C241.7,93.313,240.686,90.825,238.476,90.131Z" transform="translate(-27.441 -54.721)" fill="#757f02"/>
          <path id="Trazado_273968" data-name="Trazado 273968" d="M223.161,81.169c.252.971-.343,1.971-.284,2.971.118,1.989,2.528,2.879,4.5,3.159,2.9.413,6.4.3,8.039-2.132s.44-5.729,1.024-8.6c1.653-8.1,15.186-10.342,21.666-10.876a10.874,10.874,0,0,1,3.079.04c.725.149,1.41.445,2.122.647,2.858.811,5.9.072,8.779-.668.939-.242,2.1-.786,2-1.75a1.7,1.7,0,0,0-.412-.841c-1.818-2.271-5.144-2.5-8.051-2.4s-6.142.219-8.341-1.685c-.778-.674-1.359-1.558-2.169-2.192-1.448-1.133-3.4-1.313-5.235-1.449-11.077-.821-23.791-.385-34.668,2.295-2.361.567-4.171.887-4.974,3.485-1.546,5.005,2.613,3.773,5.71,5.127,4.714,2.06,2.093,5.2,2.127,8.7C218.113,79.461,222.316,77.921,223.161,81.169Z" transform="translate(-127.827 -50.63)" fill="#e8d758" opacity="0.6"/>
          <path id="Trazado_273969" data-name="Trazado 273969" d="M382.927,81.389a.236.236,0,0,0,0-.164.475.475,0,0,0-.182-.2c-2.247-1.639-6.346-2.188-9-3.156a21.269,21.269,0,0,0-2.7-.853c-3.2-.7-8.008-.372-9.293,3.243-.51,1.436.47,3.338,1.993,3.381,3.227.09,5.125-3.182,8.079-3.459,1.563-.147,2.978,1,4.542,1.376a14.772,14.772,0,0,0,6.03.169C382.6,81.688,382.867,81.565,382.927,81.389Z" transform="translate(-211.298 -62.566)" fill="#e8d758" opacity="0.6"/>
          <path id="Trazado_273970" data-name="Trazado 273970" d="M184.1,59.488c.21-.2.395-.428.608-.627a7.241,7.241,0,0,1,3.344-1.351,22.907,22.907,0,0,0,6.133-2.5.655.655,0,0,0,.315-.3c.135-.373-.4-.613-.792-.647-2.948-.258-6.168-.5-9.011.5-1.668.591-6.265,3.176-3.316,5.173a2.212,2.212,0,0,0,2.545-.1C183.99,59.593,184.047,59.542,184.1,59.488Z" transform="translate(-111.608 -49.975)" fill="#e8d758" opacity="0.6"/>
          <path id="Trazado_273971" data-name="Trazado 273971" d="M234.464,92.723a6.322,6.322,0,0,1,3.418-2.217c1.4-.148,3.008.987,2.768,2.376-.2,1.154-1.445,1.765-2.536,2.194a5.422,5.422,0,0,1-2.679.555C233.233,95.323,233.453,93.965,234.464,92.723Z" transform="translate(-140.938 -70.145)" fill="#eadf5c"/>
          <path id="Trazado_273972" data-name="Trazado 273972" d="M247.363,111.755a.773.773,0,0,1,.573-.022,1.132,1.132,0,0,1,.371.375,2.4,2.4,0,0,0,2.173.892,2.4,2.4,0,0,0,1.864-1.431,3.885,3.885,0,0,0,.239-1.394c.028-1.113-.295-2.458-1.356-2.795-1.871-.594-5,1.624-6.11,2.984C243.095,112.849,245.487,112.41,247.363,111.755Z" transform="translate(-146.781 -79.381)" fill="#eadf5c"/>
          <path id="Trazado_273973" data-name="Trazado 273973" d="M327.418,72.166c.056-.029.114-.058.176-.087,1.145-.542,2.485-.039,3.657.159.44.075.946.224,1.1.643.227.605-.46,1.152-1.073,1.36C329.778,74.753,324.441,73.708,327.418,72.166Z" transform="translate(-191.997 -59.88)" fill="#eadf5c"/>
          <path id="Trazado_273974" data-name="Trazado 273974" d="M111.091,142.747c-1.7-3.164-5.171-5.473-8.787-5.1a22.948,22.948,0,0,1-3.741.44c-2.321-.147-4.209-1.831-6.3-2.84a11.725,11.725,0,0,0-14.493,4.163c-1.014,1.608-1.738,3.586-3.434,4.444-2.434,1.231-5.358-.547-8.06-.168-2.765.387-4.653,2.868-6.755,4.706s-5.616,3.012-7.469.924c-.82-.925-1.117-2.333-2.193-2.943a3.545,3.545,0,0,0-2.085-.287c-4.406.412-13.145,6.827-16.694,2.151a7.546,7.546,0,0,1-.957-1.791c-2.4,6.583-6.143,27.9,4.239,17.288,2.809-2.872,2.987-5.161,7.481-4.986,5.971.233,9.755,3.158,15.652-.614,1.629-1.042,3.088-2.419,4.925-3.024a13.042,13.042,0,0,1,4.022-.444l12-.071a11.283,11.283,0,0,0,4.428-.621c5.04-2.17,4.228-9.538,8.465-11.585,1.725-.833,3.784-.244,5.676-.548,2.179-.35,4-1.86,6.126-2.456C107.182,138.247,109.011,140.442,111.091,142.747Z" transform="translate(-27.441 -94.2)" fill="#475412" opacity="0.4"/>
          <path id="Trazado_273975" data-name="Trazado 273975" d="M62.777,129.868a2.762,2.762,0,0,1,1.285,1.474,2.28,2.28,0,0,0,.515,1.1,1.554,1.554,0,0,0,1.114.206,13.612,13.612,0,0,0,5.785-1.447,5.866,5.866,0,0,0,3.152-4.8c.01-1.464-.694-2.953-.249-4.349.694-2.179,3.893-3.169,3.86-5.456-.022-1.6-1.822-2.687-3.413-2.562-4.32.339-10.36,6.52-14,8.85-1.554,1-5.8,4.288-6.3,5.961a4.38,4.38,0,0,0-.272,2.135,1.5,1.5,0,0,0,1.512,1.273,2.44,2.44,0,0,0,1.279-.873,6.1,6.1,0,0,1,3.623-1.966A3.648,3.648,0,0,1,62.777,129.868Z" transform="translate(-42.165 -83.094)" fill="#475412" opacity="0.4"/>
          <path id="Trazado_273976" data-name="Trazado 273976" d="M170.758,111.312c-1.135-.359-2.556-.435-3.335.466a2.307,2.307,0,0,0-.31,2.279,4.412,4.412,0,0,0,1.488,1.863,8.332,8.332,0,0,0,4.433,1.735c1.486.121,3.279-.031,4.144,1.183.439.616.508,1.462,1.032,2.008,1.653,1.72,3.458-.727,3.537-2.283a10.127,10.127,0,0,0-1.537-4.831c-1.113-1.811-7.985-6.02-6.1-1.692A7.432,7.432,0,0,1,170.758,111.312Z" transform="translate(-104.197 -80.96)" fill="#99a000"/>
          <path id="Trazado_273977" data-name="Trazado 273977" d="M116.813,86.7c1.424-.584,2.828-1.4,4.367-1.375a1.041,1.041,0,0,1,.561.131,1.638,1.638,0,0,1,.439.63,3.011,3.011,0,0,0,2.644,1.36,8.883,8.883,0,0,0,3.02-.7,2.316,2.316,0,0,0,1.086-.64c.606-.771.017-1.913-.712-2.57C125.408,81,120.333,80.19,116.78,81.29c-1.3.4-4.453,1.909-5.01,3.217C110.477,87.545,115.224,87.352,116.813,86.7Z" transform="translate(-73.717 -64.818)" fill="#99a000"/>
        </g>
      </g>
    </g>
  </g>
</svg>
