<svg xmlns="http://www.w3.org/2000/svg" width="270.51" height="260.543" viewBox="0 0 270.51 260.543">
  <g id="Grupo_882273" data-name="Grupo 882273" transform="translate(-1944.889 -1430.991)">
    <g id="Grupo_881866" data-name="Grupo 881866" transform="translate(1944.889 1544.454)">
      <path id="Trazado_279035" data-name="Trazado 279035" d="M2064.639,1653.248c-11.881-2.943-23.521.057-31.191,3.092-9.656,3.819-18.273,9.536-26.983,15.553a1.638,1.638,0,0,0,1.863,2.7c8.547-5.9,16.993-11.509,26.325-15.2,7.227-2.859,18.157-5.694,29.2-2.959a1.638,1.638,0,0,0,.787-3.18Z" transform="translate(-1968.552 -1630.389)" fill="#52754b"/>
      <path id="Trazado_279036" data-name="Trazado 279036" d="M2031.681,1644.211c-20.411,3.731-45.569-1.711-62.6-13.535a1.638,1.638,0,1,0-1.869,2.691c13.985,9.708,33.237,15.275,51.165,15.275a77.58,77.58,0,0,0,13.895-1.208,1.638,1.638,0,1,0-.589-3.223Z" transform="translate(-1953.292 -1621.969)" fill="#52754b"/>
      <g id="Grupo_881864" data-name="Grupo 881864" transform="translate(6.406 29.391)">
        <path id="Trazado_279037" data-name="Trazado 279037" d="M1992.515,1668.385a15.776,15.776,0,0,0-9.241-3.684,16.718,16.718,0,0,0-8.056,2.367,14.824,14.824,0,0,0-4.57,3.545,6.391,6.391,0,0,0-1.271,5.184,12.17,12.17,0,0,0-5.422,3.225c-.914.943-1.755,1.834-1.688,3.144-1.05,1.14-2.341,2.044-3.342,3.228a4.671,4.671,0,0,0-1.25,4.236,9.6,9.6,0,0,0-1.781,9.363l7.616.7a33.443,33.443,0,0,0,6.281.18,10.781,10.781,0,0,0,5.6-2.365,14.147,14.147,0,0,0,13.16-3.206,3.106,3.106,0,0,0,1.236-3.076c3.934-1.165,6.889-4.679,8.115-8.6a22.525,22.525,0,0,0-.094-12.151C1996.032,1670.727,1993.934,1669.484,1992.515,1668.385Z" transform="translate(-1955.369 -1664.701)" fill="#52754b"/>
        <path id="Trazado_279038" data-name="Trazado 279038" d="M1997.945,1674.155c-3.3,5.043-9.973,9.062-12.3,10.358a80.864,80.864,0,0,1-10.011,4.444c-2.208.863-4.491,1.755-6.683,2.762-6.2,2.85-10.485,6.236-13.042,10.315.058.213.123.424.2.634l.293.027c2.454-4.063,6.676-7.436,12.871-10.282,2.172-1,4.444-1.886,6.642-2.745a81.422,81.422,0,0,0,10.105-4.489c2.29-1.277,8.706-5.143,12.215-10.105-.068-.307-.133-.617-.21-.921C1998,1674.156,1997.971,1674.152,1997.945,1674.155Z" transform="translate(-1955.581 -1668.375)" fill="#52754b" style="mix-blend-mode: multiply;isolation: isolate"/>
      </g>
      <g id="Grupo_881865" data-name="Grupo 881865">
        <path id="Trazado_279039" data-name="Trazado 279039" d="M1980.288,1631.9a12.316,12.316,0,0,0-1.377-7.642,13.06,13.06,0,0,0-4.9-4.358,11.583,11.583,0,0,0-4.235-1.562,4.989,4.989,0,0,0-3.959,1.3,9.493,9.493,0,0,0-4.376-2.258,3.338,3.338,0,0,0-2.78.18c-1.188-.225-2.321-.707-3.518-.88a3.648,3.648,0,0,0-3.323.922,7.491,7.491,0,0,0-6.936,2.688l2.683,5.332a26.122,26.122,0,0,0,2.475,4.235,8.407,8.407,0,0,0,3.88,2.733,11.039,11.039,0,0,0,7.559,7.392,2.423,2.423,0,0,0,2.548-.452,9.988,9.988,0,0,0,9.045,1.825,17.59,17.59,0,0,0,8.01-5.082C1980.19,1635.193,1980.146,1633.291,1980.288,1631.9Z" transform="translate(-1944.889 -1616.617)" fill="#808680"/>
        <path id="Trazado_279040" data-name="Trazado 279040" d="M1969.118,1634.44a63.153,63.153,0,0,1-7.079-4.8c-1.483-1.106-3.017-2.249-4.59-3.285-4.45-2.933-8.461-4.369-12.218-4.376q-.176.189-.339.391l.1.2c3.705-.053,7.683,1.35,12.126,4.277,1.558,1.027,3.085,2.165,4.562,3.265a63.56,63.56,0,0,0,7.147,4.839c1.792.989,7,3.642,11.738,3.916.176-.172.353-.343.524-.52-.013-.016-.023-.036-.035-.052C1976.353,1638.2,1970.936,1635.443,1969.118,1634.44Z" transform="translate(-1944.891 -1618.703)" fill="#52754b" style="mix-blend-mode: multiply;isolation: isolate"/>
      </g>
    </g>
    <g id="Grupo_881869" data-name="Grupo 881869" transform="translate(2130.865 1602.393)">
      <path id="Trazado_279041" data-name="Trazado 279041" d="M2296.36,1761.757a62.922,62.922,0,0,1-27.069-43.062c-.306-2.161-1.8-3.733-3.109-5.122a19.963,19.963,0,0,1-1.43-1.617,1.391,1.391,0,1,0-2.218,1.678,22.368,22.368,0,0,0,1.628,1.852c1.128,1.191,2.193,2.315,2.375,3.6a65.711,65.711,0,0,0,28.26,44.974,1.391,1.391,0,0,0,1.563-2.3Z" transform="translate(-2254.24 -1711.404)" fill="#52754b"/>
      <path id="Trazado_279042" data-name="Trazado 279042" d="M2301.748,1746.72c-5.22.078-10.8-2.3-15.656-6.752-4.521-4.148-11.081-13-14.294-17.958a1.391,1.391,0,1,0-2.335,1.513c3.294,5.083,10.047,14.181,14.749,18.5,5.274,4.837,11.379,7.486,17.232,7.486.118,0,.238,0,.356,0a1.391,1.391,0,0,0,1.365-1.417A1.41,1.41,0,0,0,2301.748,1746.72Z" transform="translate(-2256.957 -1715.281)" fill="#52754b"/>
      <g id="Grupo_881867" data-name="Grupo 881867" transform="translate(29.821 19.608)">
        <path id="Trazado_279043" data-name="Trazado 279043" d="M2336.654,1756.593a10.375,10.375,0,0,0-4.985-3.074,13.625,13.625,0,0,0-9.868-8.534,2.991,2.991,0,0,0-3.1.748c-3.112-2.436-7.521-2.791-11.277-1.565a21.7,21.7,0,0,0-9.482,6.863c1.188,1.256,1.386,3.6,1.316,5.324a15.2,15.2,0,0,0,2.272,9.309,16.116,16.116,0,0,0,6.358,5,14.311,14.311,0,0,0,5.335,1.6,6.159,6.159,0,0,0,4.778-1.9,11.712,11.712,0,0,0,5.56,2.452c1.25.191,2.419.353,3.41-.432,1.48.187,2.911.695,4.4.818a4.5,4.5,0,0,0,4.023-1.386,9.247,9.247,0,0,0,8.341-3.834l-3.707-6.365A32.29,32.29,0,0,0,2336.654,1756.593Z" transform="translate(-2297.935 -1743.482)" fill="#808680"/>
        <path id="Trazado_279044" data-name="Trazado 279044" d="M2328.323,1767.753c-2-1.147-3.962-2.433-5.864-3.678a78.525,78.525,0,0,0-9.168-5.42c-2.281-1.083-8.9-3.957-14.752-3.937-.2.225-.41.449-.606.679.017.018.03.042.048.062,5.8-.228,12.681,2.762,15,3.86a77.848,77.848,0,0,1,9.079,5.372c1.911,1.25,3.886,2.543,5.9,3.7,5.7,3.276,10.75,4.742,15.379,4.469.135-.164.265-.333.387-.507l-.142-.244C2339.022,1772.452,2334.017,1771.025,2328.323,1767.753Z" transform="translate(-2297.933 -1747.85)" fill="#52754b" style="mix-blend-mode: multiply;isolation: isolate"/>
      </g>
      <path id="Trazado_279045" data-name="Trazado 279045" d="M2270.086,1772.087c-3.193,5.455-4.167,11.9-6.576,17.746-3.324,8.063-9.263,14.722-13.9,22.112a1.915,1.915,0,0,0-.417,1.536,1.758,1.758,0,0,0,1.422.946c5.033,1.065,9.847-2.236,13.936-5.357,3.813-2.911,8.057-6.85,7.217-11.572a4.965,4.965,0,0,1-.174-2.482c.376-1.071,1.606-1.513,2.6-2.057,3.461-1.887,5-6.212,4.725-10.144C2278.684,1779.383,2274.787,1764.054,2270.086,1772.087Z" transform="translate(-2249.145 -1734.101)" fill="#293b26"/>
      <g id="Grupo_881868" data-name="Grupo 881868" transform="translate(24.654 39.814)">
        <path id="Trazado_279046" data-name="Trazado 279046" d="M2322.863,1805.166c-.423-1.431-1.211-2.729-1.695-4.141.567-1.13.17-2.242-.27-3.427a11.718,11.718,0,0,0-3.531-4.945,6.159,6.159,0,0,0,.889-5.064,14.3,14.3,0,0,0-2.655-4.9,16.1,16.1,0,0,0-6.187-5.21,15.2,15.2,0,0,0-9.576-.334c-1.677.419-4.009.7-5.48-.206a21.693,21.693,0,0,0-4.794,10.679c-.437,3.927.807,8.172,3.824,10.724a2.991,2.991,0,0,0-.1,3.191,13.624,13.624,0,0,0,10.361,7.928,10.381,10.381,0,0,0,4.023,4.257,32.219,32.219,0,0,0,5.608,2.275l6.986,2.337a9.245,9.245,0,0,0,2.059-8.946A4.5,4.5,0,0,0,2322.863,1805.166Z" transform="translate(-2289.48 -1776.54)" fill="#52754b"/>
        <path id="Trazado_279047" data-name="Trazado 279047" d="M2311.113,1798.924a77.811,77.811,0,0,1-7.105-7.8c-1.546-2.043-5.871-8.172-6.827-13.9-.022-.013-.048-.021-.07-.034-.186.239-.363.487-.542.732,1.17,5.735,5.33,11.631,6.853,13.644a78.292,78.292,0,0,0,7.17,7.875c1.605,1.609,3.264,3.273,4.793,4.995,4.359,4.911,6.774,9.521,7.364,14.056l.268.09c.146-.156.285-.318.418-.483-.673-4.587-3.134-9.233-7.5-14.15C2314.392,1802.212,2312.725,1800.54,2311.113,1798.924Z" transform="translate(-2292.236 -1776.793)" fill="#52754b" style="mix-blend-mode: multiply;isolation: isolate"/>
      </g>
    </g>
    <g id="Grupo_881874" data-name="Grupo 881874" transform="translate(2104.794 1431.501)">
      <path id="Trazado_279048" data-name="Trazado 279048" d="M2258.091,1441l-8.024,6.039c-3.97,2.988-8.076,6.078-11.284,10.049-4.437,5.494-6.839,12.3-9.161,18.877-2.354,6.667-4.787,13.562-9.333,18.946a60,60,0,0,1-5.688,5.615c-2.919,2.634-5.937,5.359-8.017,8.807a.633.633,0,1,0,1.084.654c1.984-3.288,4.931-5.949,7.782-8.522a60.832,60.832,0,0,0,5.806-5.738c4.7-5.561,7.169-12.567,9.56-19.342,2.287-6.479,4.652-13.178,8.953-18.5,3.11-3.849,7.151-6.891,11.06-9.833l8.024-6.039a.633.633,0,0,0-.762-1.011Z" transform="translate(-2206.493 -1435.343)" fill="#2f3b2c"/>
      <g id="Grupo_881870" data-name="Grupo 881870" transform="translate(45.513)">
        <path id="Trazado_279049" data-name="Trazado 279049" d="M2283.221,1432.02c-1.946-1.114-2.347,2.871-2.258,3.828a11.024,11.024,0,0,0,2.269,5.716c2.216-1.112,1.117-6.531.618-8.467A1.636,1.636,0,0,0,2283.221,1432.02Z" transform="translate(-2280.952 -1431.825)" fill="#52754b"/>
        <path id="Trazado_279050" data-name="Trazado 279050" d="M2286.053,1446.048l-.31.015.248.045C2286.01,1446.088,2286.033,1446.068,2286.053,1446.048Z" transform="translate(-2282.815 -1437.354)" fill="#3e5838"/>
        <path id="Trazado_279051" data-name="Trazado 279051" d="M2293.847,1439.54c.162-.348.219-.877-.142-1.011a.691.691,0,0,0-.315-.018,6.513,6.513,0,0,0-3.443,1.837,27.3,27.3,0,0,1-3.353,2.488,2.253,2.253,0,0,0-.345.278c2.11-.1,4.327-.292,5.993-1.572A5.424,5.424,0,0,0,2293.847,1439.54Z" transform="translate(-2283.012 -1434.421)" fill="#3e5838"/>
        <path id="Trazado_279052" data-name="Trazado 279052" d="M2293.348,1446.737c-.816-.273-2.007.182-2.9.114-.522-.04-1.039-.122-1.555-.214-.646-.116-1.291-.248-1.94-.334-.1-.013-.213-.024-.322-.027l-.705-.129c-.726.779-.249,1.7.862,2.145a8.93,8.93,0,0,0,2.5.731c.883.078,4.812-.3,4.665-1.615A.859.859,0,0,0,2293.348,1446.737Z" transform="translate(-2282.752 -1437.392)" fill="#3e5838"/>
        <path id="Trazado_279053" data-name="Trazado 279053" d="M2289.107,1432.93a3.534,3.534,0,0,0-1.02,1.737l-1.675,4.777c-.149.426-.59,1.477.1,1.4.492-.053,1.317-1.2,1.6-1.532a13.54,13.54,0,0,0,2.739-4.935,1.673,1.673,0,0,0,.031-1.233A1.223,1.223,0,0,0,2289.107,1432.93Z" transform="translate(-2282.967 -1432.146)" fill="#808680"/>
      </g>
      <g id="Grupo_881871" data-name="Grupo 881871" transform="translate(34.107 8.707)">
        <path id="Trazado_279054" data-name="Trazado 279054" d="M2264.561,1446.264c-1.946-1.114-2.346,2.87-2.257,3.828a11.019,11.019,0,0,0,2.269,5.716c2.216-1.112,1.118-6.531.619-8.468A1.635,1.635,0,0,0,2264.561,1446.264Z" transform="translate(-2262.292 -1446.069)" fill="#52754b"/>
        <path id="Trazado_279055" data-name="Trazado 279055" d="M2275.187,1453.784c.162-.349.219-.877-.141-1.011a.7.7,0,0,0-.315-.018,6.51,6.51,0,0,0-3.443,1.837,27.361,27.361,0,0,1-3.353,2.488,2.282,2.282,0,0,0-.345.277c2.11-.1,4.327-.292,5.993-1.571A5.426,5.426,0,0,0,2275.187,1453.784Z" transform="translate(-2264.352 -1448.665)" fill="#3e5838"/>
        <path id="Trazado_279056" data-name="Trazado 279056" d="M2274.688,1460.98c-.817-.272-2.007.183-2.9.114-.522-.04-1.039-.122-1.554-.214-.646-.116-1.292-.247-1.941-.333a3.2,3.2,0,0,0-.321-.028l-.705-.129c-.726.779-.249,1.7.862,2.145a8.927,8.927,0,0,0,2.5.73c.883.078,4.812-.3,4.664-1.615A.859.859,0,0,0,2274.688,1460.98Z" transform="translate(-2264.092 -1451.636)" fill="#3e5838"/>
        <path id="Trazado_279057" data-name="Trazado 279057" d="M2267.394,1460.291l-.309.015.247.045C2267.351,1460.331,2267.373,1460.311,2267.394,1460.291Z" transform="translate(-2264.155 -1451.598)" fill="#3e5838"/>
        <path id="Trazado_279058" data-name="Trazado 279058" d="M2270.448,1447.173a3.544,3.544,0,0,0-1.02,1.738l-1.674,4.777c-.15.426-.591,1.477.1,1.4.492-.053,1.317-1.2,1.6-1.532a13.55,13.55,0,0,0,2.74-4.934,1.672,1.672,0,0,0,.03-1.233A1.224,1.224,0,0,0,2270.448,1447.173Z" transform="translate(-2264.308 -1446.39)" fill="#808680"/>
      </g>
      <g id="Grupo_881872" data-name="Grupo 881872" transform="translate(23.983 23.311)">
        <path id="Trazado_279059" data-name="Trazado 279059" d="M2247.015,1471.068c-1.745-.5-1.293,2.709-1.039,3.445a8.918,8.918,0,0,0,2.883,4.059c1.529-1.3-.377-5.351-1.143-6.778A1.324,1.324,0,0,0,2247.015,1471.068Z" transform="translate(-2245.729 -1470.371)" fill="#52754b"/>
        <path id="Trazado_279060" data-name="Trazado 279060" d="M2251.361,1481.8l.2-.012c.011-.02.028-.04.041-.06Z" transform="translate(-2247.918 -1474.536)" fill="#3e5838"/>
        <path id="Trazado_279061" data-name="Trazado 279061" d="M2256.167,1476.135a4.4,4.4,0,0,0,.876-1.883c.061-.306,0-.732-.306-.768a.551.551,0,0,0-.251.047,5.271,5.271,0,0,0-2.354,2.106,22.145,22.145,0,0,1-2.158,2.6,1.762,1.762,0,0,0-.212.283A8.431,8.431,0,0,0,2256.167,1476.135Z" transform="translate(-2248.074 -1471.33)" fill="#3e5838"/>
        <path id="Trazado_279062" data-name="Trazado 279062" d="M2257.551,1480.249c-.694-.057-1.543.529-2.256.647a12.646,12.646,0,0,1-1.264.131c-.531.033-1.062.054-1.591.111-.084.009-.171.022-.258.041l-.579.034c-.421.752.13,1.384,1.089,1.521a7.214,7.214,0,0,0,2.1.094c.709-.108,3.728-1.158,3.358-2.167A.7.7,0,0,0,2257.551,1480.249Z" transform="translate(-2247.957 -1473.96)" fill="#3e5838"/>
        <path id="Trazado_279063" data-name="Trazado 279063" d="M2252.419,1470.378a2.87,2.87,0,0,0-.468,1.562q-.2,2.039-.4,4.078c-.036.364-.18,1.275.348,1.083.377-.136.8-1.2.967-1.513a10.972,10.972,0,0,0,1.205-4.408,1.356,1.356,0,0,0-.213-.975A.991.991,0,0,0,2252.419,1470.378Z" transform="translate(-2247.975 -1469.962)" fill="#808680"/>
      </g>
      <g id="Grupo_881873" data-name="Grupo 881873" transform="translate(17.328 41.177)">
        <path id="Trazado_279064" data-name="Trazado 279064" d="M2236.127,1500.3c-1.744-.5-1.293,2.708-1.038,3.444a8.925,8.925,0,0,0,2.883,4.059c1.529-1.3-.377-5.35-1.142-6.777A1.322,1.322,0,0,0,2236.127,1500.3Z" transform="translate(-2234.841 -1499.601)" fill="#52754b"/>
        <path id="Trazado_279065" data-name="Trazado 279065" d="M2246.664,1509.479c-.695-.057-1.543.529-2.256.647a12.658,12.658,0,0,1-1.263.131c-.531.034-1.063.054-1.591.111-.083.009-.171.022-.258.04l-.578.034c-.421.752.13,1.383,1.089,1.521a7.2,7.2,0,0,0,2.1.093c.709-.107,3.728-1.158,3.358-2.167A.7.7,0,0,0,2246.664,1509.479Z" transform="translate(-2237.07 -1503.189)" fill="#3e5838"/>
        <path id="Trazado_279066" data-name="Trazado 279066" d="M2240.474,1511.03l.2-.012c.011-.02.029-.041.041-.061Z" transform="translate(-2237.031 -1503.765)" fill="#3e5838"/>
        <path id="Trazado_279067" data-name="Trazado 279067" d="M2245.28,1505.365a4.38,4.38,0,0,0,.876-1.883c.061-.305,0-.732-.305-.768a.562.562,0,0,0-.251.046,5.273,5.273,0,0,0-2.353,2.107,22.14,22.14,0,0,1-2.158,2.6,1.793,1.793,0,0,0-.212.283A8.424,8.424,0,0,0,2245.28,1505.365Z" transform="translate(-2237.187 -1500.56)" fill="#3e5838"/>
        <path id="Trazado_279068" data-name="Trazado 279068" d="M2241.531,1499.607a2.871,2.871,0,0,0-.468,1.563q-.2,2.039-.4,4.078c-.035.364-.181,1.275.348,1.083.377-.137.8-1.2.967-1.514a10.971,10.971,0,0,0,1.2-4.407,1.354,1.354,0,0,0-.213-.976A.991.991,0,0,0,2241.531,1499.607Z" transform="translate(-2237.088 -1499.191)" fill="#808680"/>
      </g>
    </g>
    <g id="Grupo_881879" data-name="Grupo 881879" transform="translate(2089.536 1430.991)">
      <path id="Trazado_279069" data-name="Trazado 279069" d="M2212.281,1439.432l-6.053,8.013c-3,3.963-6.092,8.062-8.085,12.765-2.756,6.5-3.194,13.7-3.617,20.669-.429,7.057-.872,14.355-3.762,20.782a59.893,59.893,0,0,1-3.924,6.962c-2.082,3.336-4.233,6.786-5.286,10.674a.634.634,0,0,0,.446.777.651.651,0,0,0,.166.022.634.634,0,0,0,.611-.468c1-3.707,3.1-7.076,5.137-10.334a60.672,60.672,0,0,0,4-7.113c2.986-6.639,3.437-14.054,3.872-21.225.417-6.858.848-13.949,3.518-20.251,1.932-4.559,4.981-8.594,7.93-12.5l6.053-8.013a.633.633,0,1,0-1.01-.763Z" transform="translate(-2181.532 -1434.174)" fill="#2f3b2c"/>
      <g id="Grupo_881875" data-name="Grupo 881875" transform="translate(24.064)">
        <path id="Trazado_279070" data-name="Trazado 279070" d="M2222.413,1432.683c-2.177-.536-1.466,3.405-1.117,4.3a11.023,11.023,0,0,0,3.753,4.872c1.825-1.678-.721-6.587-1.734-8.311A1.631,1.631,0,0,0,2222.413,1432.683Z" transform="translate(-2220.901 -1431.629)" fill="#52754b"/>
        <path id="Trazado_279071" data-name="Trazado 279071" d="M2228.245,1445.746l.25-.024c.013-.025.029-.05.043-.075Z" transform="translate(-2223.756 -1436.688)" fill="#3e5838"/>
        <path id="Trazado_279072" data-name="Trazado 279072" d="M2235.853,1443.358c-.86-.037-1.881.727-2.754.906a15.666,15.666,0,0,1-1.554.222c-.653.067-1.309.117-1.958.213a3.168,3.168,0,0,0-.317.062l-.713.07c-.484.949.228,1.7,1.419,1.825a8.908,8.908,0,0,0,2.6.015c.871-.168,4.546-1.608,4.041-2.836A.858.858,0,0,0,2235.853,1443.358Z" transform="translate(-2223.818 -1435.798)" fill="#3e5838"/>
        <path id="Trazado_279073" data-name="Trazado 279073" d="M2234.053,1438.378a5.417,5.417,0,0,0,.992-2.367c.06-.38-.031-.9-.414-.933a.692.692,0,0,0-.308.07,6.515,6.515,0,0,0-2.8,2.713,27.293,27.293,0,0,1-2.54,3.314,2.286,2.286,0,0,0-.255.362C2230.726,1440.863,2232.8,1440.067,2234.053,1438.378Z" transform="translate(-2223.942 -1432.579)" fill="#3e5838"/>
        <path id="Trazado_279074" data-name="Trazado 279074" d="M2229.2,1431.547a3.538,3.538,0,0,0-.5,1.951q-.148,2.526-.3,5.053c-.027.451-.162,1.582.482,1.32.458-.186.935-1.516,1.121-1.914a13.552,13.552,0,0,0,1.276-5.5,1.669,1.669,0,0,0-.31-1.193A1.224,1.224,0,0,0,2229.2,1431.547Z" transform="translate(-2223.806 -1430.991)" fill="#808680"/>
      </g>
      <g id="Grupo_881876" data-name="Grupo 881876" transform="translate(15.493 11.508)">
        <path id="Trazado_279075" data-name="Trazado 279075" d="M2208.391,1451.509c-2.178-.535-1.467,3.406-1.118,4.3a11.024,11.024,0,0,0,3.753,4.872c1.825-1.678-.721-6.586-1.734-8.311A1.634,1.634,0,0,0,2208.391,1451.509Z" transform="translate(-2206.878 -1450.456)" fill="#52754b"/>
        <path id="Trazado_279076" data-name="Trazado 279076" d="M2214.222,1464.572l.251-.024c.012-.024.028-.05.042-.075Z" transform="translate(-2209.733 -1455.515)" fill="#3e5838"/>
        <path id="Trazado_279077" data-name="Trazado 279077" d="M2221.83,1462.184c-.86-.037-1.879.727-2.754.906-.513.1-1.032.168-1.554.221-.653.067-1.309.117-1.958.213-.1.015-.21.035-.316.062l-.713.07c-.484.949.228,1.7,1.418,1.825a8.945,8.945,0,0,0,2.6.015c.871-.167,4.545-1.608,4.04-2.836A.858.858,0,0,0,2221.83,1462.184Z" transform="translate(-2209.794 -1454.624)" fill="#3e5838"/>
        <path id="Trazado_279078" data-name="Trazado 279078" d="M2220.031,1457.2a5.419,5.419,0,0,0,.991-2.367c.061-.38-.031-.9-.414-.933a.679.679,0,0,0-.308.069,6.509,6.509,0,0,0-2.8,2.713,27.364,27.364,0,0,1-2.54,3.315,2.288,2.288,0,0,0-.255.362C2216.7,1459.69,2218.781,1458.894,2220.031,1457.2Z" transform="translate(-2209.919 -1451.406)" fill="#3e5838"/>
        <path id="Trazado_279079" data-name="Trazado 279079" d="M2215.179,1450.373a3.545,3.545,0,0,0-.5,1.951q-.149,2.527-.3,5.053c-.026.45-.161,1.582.482,1.32.459-.186.935-1.517,1.121-1.915a13.55,13.55,0,0,0,1.276-5.5,1.672,1.672,0,0,0-.31-1.194A1.224,1.224,0,0,0,2215.179,1450.373Z" transform="translate(-2209.783 -1449.817)" fill="#808680"/>
      </g>
      <g id="Grupo_881877" data-name="Grupo 881877" transform="translate(9.549 28.328)">
        <path id="Trazado_279080" data-name="Trazado 279080" d="M2198.086,1480.3c-1.815,0-.5,2.96-.051,3.6a8.925,8.925,0,0,0,3.889,3.109c1.112-1.671-1.834-5.041-2.963-6.2A1.323,1.323,0,0,0,2198.086,1480.3Z" transform="translate(-2197.154 -1478.488)" fill="#52754b"/>
        <path id="Trazado_279081" data-name="Trazado 279081" d="M2210.774,1485.349c-.683.136-1.338.933-1.99,1.242a12.64,12.64,0,0,1-1.179.473c-.5.178-1.007.344-1.5.545-.078.032-.159.068-.237.109l-.546.192c-.2.84.505,1.295,1.465,1.163a7.214,7.214,0,0,0,2.049-.489c.652-.3,3.265-2.139,2.632-3.007A.7.7,0,0,0,2210.774,1485.349Z" transform="translate(-2200.316 -1480.445)" fill="#3e5838"/>
        <path id="Trazado_279082" data-name="Trazado 279082" d="M2205.027,1489.573l.193-.068c.005-.022.017-.046.023-.07Z" transform="translate(-2200.215 -1482.039)" fill="#3e5838"/>
        <path id="Trazado_279083" data-name="Trazado 279083" d="M2208.959,1481.975a4.39,4.39,0,0,0,.325-2.052c-.026-.31-.2-.7-.5-.654a.562.562,0,0,0-.229.114,5.276,5.276,0,0,0-1.684,2.672,22.079,22.079,0,0,1-1.359,3.1,1.755,1.755,0,0,0-.126.33A8.42,8.42,0,0,0,2208.959,1481.975Z" transform="translate(-2200.353 -1478.085)" fill="#3e5838"/>
        <path id="Trazado_279084" data-name="Trazado 279084" d="M2204.774,1477.447a.99.99,0,0,0-1.338.562,2.868,2.868,0,0,0-.02,1.631q.369,2.015.74,4.03c.066.359.177,1.276.633.946.324-.235.444-1.372.513-1.721a10.965,10.965,0,0,0-.054-4.569A1.353,1.353,0,0,0,2204.774,1477.447Z" transform="translate(-2199.546 -1477.336)" fill="#808680"/>
      </g>
      <g id="Grupo_881878" data-name="Grupo 881878" transform="translate(8.065 47.336)">
        <path id="Trazado_279085" data-name="Trazado 279085" d="M2195.658,1511.4c-1.815,0-.5,2.96-.051,3.6a8.92,8.92,0,0,0,3.889,3.109c1.112-1.671-1.834-5.04-2.962-6.2A1.324,1.324,0,0,0,2195.658,1511.4Z" transform="translate(-2194.726 -1509.585)" fill="#52754b"/>
        <path id="Trazado_279086" data-name="Trazado 279086" d="M2202.6,1520.669l.193-.068c0-.022.016-.047.022-.07Z" transform="translate(-2197.786 -1513.136)" fill="#3e5838"/>
        <path id="Trazado_279087" data-name="Trazado 279087" d="M2206.53,1513.072a4.39,4.39,0,0,0,.324-2.052c-.026-.31-.2-.7-.505-.654a.556.556,0,0,0-.228.114,5.265,5.265,0,0,0-1.683,2.673,22.2,22.2,0,0,1-1.36,3.095,1.869,1.869,0,0,0-.126.331A8.425,8.425,0,0,0,2206.53,1513.072Z" transform="translate(-2197.924 -1509.182)" fill="#3e5838"/>
        <path id="Trazado_279088" data-name="Trazado 279088" d="M2208.346,1516.446c-.683.136-1.338.933-1.992,1.242a12.463,12.463,0,0,1-1.179.473c-.5.179-1.007.344-1.5.545a2.481,2.481,0,0,0-.237.109l-.546.192c-.2.839.506,1.295,1.465,1.163a7.215,7.215,0,0,0,2.05-.488c.652-.3,3.265-2.139,2.631-3.007A.693.693,0,0,0,2208.346,1516.446Z" transform="translate(-2197.887 -1511.542)" fill="#3e5838"/>
        <path id="Trazado_279089" data-name="Trazado 279089" d="M2202.346,1508.543a.991.991,0,0,0-1.339.562,2.872,2.872,0,0,0-.021,1.631q.371,2.015.74,4.031c.066.359.177,1.275.633.946.324-.235.443-1.373.513-1.721a10.979,10.979,0,0,0-.054-4.569A1.355,1.355,0,0,0,2202.346,1508.543Z" transform="translate(-2197.117 -1508.432)" fill="#808680"/>
      </g>
    </g>
    <g id="Grupo_881884" data-name="Grupo 881884" transform="translate(1965.389 1518.614)">
      <path id="Trazado_279090" data-name="Trazado 279090" d="M2063.7,1611.8c-3.9-1.447-7.357-3.986-10.7-6.441-2.037-1.495-4.144-3.04-6.353-4.349a39.269,39.269,0,0,0-18.47-5.442c-1.3-.049-2.609-.033-3.877-.018-1.172.014-2.386.027-3.569-.009-11.006-.352-22.269-5.3-31.713-13.944a.633.633,0,0,0-.855.934c9.667,8.844,21.219,13.913,32.527,14.275,1.214.039,2.439.024,3.625.01,1.253-.015,2.548-.03,3.814.018A37.986,37.986,0,0,1,2046,1602.1c2.156,1.278,4.238,2.805,6.25,4.281,3.416,2.506,6.949,5.1,11.011,6.607a.633.633,0,0,0,.441-1.187Z" transform="translate(-1982.131 -1577.098)" fill="#2f3b2c"/>
      <g id="Grupo_881880" data-name="Grupo 881880" transform="translate(39.212 12.438)">
        <path id="Trazado_279091" data-name="Trazado 279091" d="M2043.549,1603.862a1.074,1.074,0,0,0-.822.354c-.853,1.329,2.179,2.049,2.909,2.084a7.6,7.6,0,0,0,4.358-1.083C2049.153,1603.452,2045.025,1603.7,2043.549,1603.862Z" transform="translate(-2042.577 -1598.211)" fill="#52754b"/>
        <path id="Trazado_279092" data-name="Trazado 279092" d="M2048.489,1594.848c-.264-.158-.667-.256-.769,0a.479.479,0,0,0-.014.233,5.653,5.653,0,0,0,1.389,2.754,24.631,24.631,0,0,1,1.885,2.757,2.032,2.032,0,0,0,.21.28,8.379,8.379,0,0,0-1.18-4.616A5.009,5.009,0,0,0,2048.489,1594.848Z" transform="translate(-2044.568 -1594.69)" fill="#3e5838"/>
        <path id="Trazado_279093" data-name="Trazado 279093" d="M2053.411,1604.8c0,.079.007.158.011.237l.035-.18C2053.441,1604.838,2053.426,1604.816,2053.411,1604.8Z" transform="translate(-2046.789 -1598.619)" fill="#3e5838"/>
        <path id="Trazado_279094" data-name="Trazado 279094" d="M2054.466,1595.35a.543.543,0,0,0-.511.379c-.209.578.134,1.512.079,2.166a10.58,10.58,0,0,1-.167,1.133c-.09.469-.192.934-.259,1.408a2.088,2.088,0,0,0-.022.237l-.1.51c.592.622,1.292.365,1.635-.413a5.815,5.815,0,0,0,.563-1.78C2055.746,1598.341,2055.471,1595.379,2054.466,1595.35Z" transform="translate(-2046.818 -1594.946)" fill="#3e5838"/>
        <path id="Trazado_279095" data-name="Trazado 279095" d="M2048.3,1600.468a12.4,12.4,0,0,0-3.749-2.559,1.347,1.347,0,0,0-.938-.153c-.463.167-.482.853-.169,1.3a3.244,3.244,0,0,0,1.32.942l3.631,1.75c.325.156,1.123.6,1.068.074C2049.419,1601.451,2048.548,1600.717,2048.3,1600.468Z" transform="translate(-2042.831 -1595.867)" fill="#808680"/>
      </g>
      <g id="Grupo_881881" data-name="Grupo 881881">
        <path id="Trazado_279096" data-name="Trazado 279096" d="M1981.284,1587.458a1.319,1.319,0,0,0-.6.814c-.2,1.8,2.889.815,3.57.441a8.9,8.9,0,0,0,3.507-3.522C1986.224,1583.906,1982.559,1586.464,1981.284,1587.458Z" transform="translate(-1979.303 -1578.422)" fill="#52754b"/>
        <path id="Trazado_279097" data-name="Trazado 279097" d="M1990.6,1585.026l-.047-.2c-.021-.008-.044-.021-.066-.031C1990.529,1584.873,1990.568,1584.95,1990.6,1585.026Z" transform="translate(-1983.117 -1578.406)" fill="#3e5838"/>
        <path id="Trazado_279098" data-name="Trazado 279098" d="M1987.692,1574.409a.692.692,0,0,0-.3.664c.062.693.784,1.429,1.021,2.111.139.4.245.81.344,1.222.123.516.234,1.037.38,1.547a2.463,2.463,0,0,0,.084.247l.132.564c.813.287,1.34-.361,1.313-1.328a7.212,7.212,0,0,0-.266-2.087C1990.172,1576.668,1988.623,1573.875,1987.692,1574.409Z" transform="translate(-1981.911 -1574.342)" fill="#3e5838"/>
        <path id="Trazado_279099" data-name="Trazado 279099" d="M1983.7,1578.017a4.405,4.405,0,0,0-2-.545c-.31-.008-.722.12-.7.43a.558.558,0,0,0,.089.24,5.282,5.282,0,0,0,2.476,1.961,22.165,22.165,0,0,1,2.93,1.685,1.816,1.816,0,0,0,.315.161A8.44,8.44,0,0,0,1983.7,1578.017Z" transform="translate(-1979.422 -1575.558)" fill="#3e5838"/>
        <path id="Trazado_279100" data-name="Trazado 279100" d="M1984.054,1582.963a11,11,0,0,0-4.547-.443,1.35,1.35,0,0,0-.924.374.989.989,0,0,0,.416,1.39,2.865,2.865,0,0,0,1.619.2l4.085-.3c.364-.026,1.287-.037,1.007-.525C1985.511,1583.312,1984.393,1583.07,1984.054,1582.963Z" transform="translate(-1978.427 -1577.494)" fill="#808680"/>
      </g>
      <g id="Grupo_881882" data-name="Grupo 881882" transform="translate(11.482 8.232)">
        <path id="Trazado_279101" data-name="Trazado 279101" d="M2000.069,1600.925a1.319,1.319,0,0,0-.6.814c-.2,1.8,2.889.816,3.57.441a8.894,8.894,0,0,0,3.507-3.521C2005.009,1597.374,2001.344,1599.932,2000.069,1600.925Z" transform="translate(-1998.088 -1591.889)" fill="#52754b"/>
        <path id="Trazado_279102" data-name="Trazado 279102" d="M2009.39,1598.493l-.047-.2c-.021-.008-.045-.021-.067-.031C2009.314,1598.34,2009.354,1598.417,2009.39,1598.493Z" transform="translate(-2001.903 -1591.873)" fill="#3e5838"/>
        <path id="Trazado_279103" data-name="Trazado 279103" d="M2006.477,1587.876a.693.693,0,0,0-.3.665c.062.693.784,1.429,1.021,2.111.139.4.245.81.343,1.222.124.516.234,1.037.38,1.547a2.516,2.516,0,0,0,.084.247l.132.564c.813.287,1.34-.361,1.313-1.328a7.209,7.209,0,0,0-.266-2.087C2008.957,1590.135,2007.408,1587.342,2006.477,1587.876Z" transform="translate(-2000.696 -1587.808)" fill="#3e5838"/>
        <path id="Trazado_279104" data-name="Trazado 279104" d="M2002.481,1591.484a4.4,4.4,0,0,0-2-.545c-.311-.008-.722.12-.7.43a.561.561,0,0,0,.089.24,5.284,5.284,0,0,0,2.476,1.961,22.17,22.17,0,0,1,2.93,1.686,1.846,1.846,0,0,0,.316.161A8.436,8.436,0,0,0,2002.481,1591.484Z" transform="translate(-1998.207 -1589.026)" fill="#3e5838"/>
        <path id="Trazado_279105" data-name="Trazado 279105" d="M2002.839,1596.43a10.991,10.991,0,0,0-4.546-.443,1.354,1.354,0,0,0-.924.374.989.989,0,0,0,.416,1.389,2.868,2.868,0,0,0,1.619.2l4.085-.3c.364-.026,1.286-.037,1.007-.525C2004.3,1596.779,2003.178,1596.537,2002.839,1596.43Z" transform="translate(-1997.212 -1590.961)" fill="#808680"/>
      </g>
      <g id="Grupo_881883" data-name="Grupo 881883" transform="translate(28.704 14.377)">
        <path id="Trazado_279106" data-name="Trazado 279106" d="M2030.475,1610.118a1.23,1.23,0,0,0-.156.927c.59,1.584,2.748-.532,3.159-1.13a8.306,8.306,0,0,0,1.448-4.4C2033.1,1605.087,2031.122,1608.756,2030.475,1610.118Z" transform="translate(-2027.288 -1600.823)" fill="#52754b"/>
        <path id="Trazado_279107" data-name="Trazado 279107" d="M2025.832,1602.918c-.262.123-.551.4-.406.653a.512.512,0,0,0,.174.162,4.914,4.914,0,0,0,2.884.595,20.762,20.762,0,0,1,3.147.175,1.724,1.724,0,0,0,.33,0,7.85,7.85,0,0,0-4.23-1.975A4.1,4.1,0,0,0,2025.832,1602.918Z" transform="translate(-2025.387 -1599.677)" fill="#3e5838"/>
        <path id="Trazado_279108" data-name="Trazado 279108" d="M2036.141,1605.762l.191.143-.122-.146C2036.188,1605.762,2036.163,1605.76,2036.141,1605.762Z" transform="translate(-2029.568 -1600.933)" fill="#3e5838"/>
        <path id="Trazado_279109" data-name="Trazado 279109" d="M2033.07,1599.405c-.474-.471-2.933-2.148-3.485-1.312a.647.647,0,0,0,.027.68c.342.551,1.252.862,1.735,1.33.283.275.543.571.8.873.319.378.629.765.964,1.129a2.358,2.358,0,0,0,.173.171l.346.414c.8-.1.966-.863.538-1.657A6.718,6.718,0,0,0,2033.07,1599.405Z" transform="translate(-2026.986 -1597.863)" fill="#3e5838"/>
        <path id="Trazado_279110" data-name="Trazado 279110" d="M2030.2,1605.585a10.255,10.255,0,0,0-3.973,1.538,1.264,1.264,0,0,0-.614.7c-.113.5.414.961.928.983a2.679,2.679,0,0,0,1.431-.515l3.279-1.961c.293-.175,1.057-.57.62-.86C2031.56,1605.264,2030.528,1605.532,2030.2,1605.585Z" transform="translate(-2025.469 -1600.791)" fill="#808680"/>
      </g>
    </g>
    <g id="Grupo_881887" data-name="Grupo 881887" transform="translate(1980.243 1445.924)">
      <g id="Grupo_881885" data-name="Grupo 881885" transform="translate(50.139)">
        <path id="Trazado_279111" data-name="Trazado 279111" d="M2116.338,1528.755c5.505,38.929,20.135-2.083,22.328-19.421,2.335-18.464-.172-37.98-9.794-53.912C2122,1478.148,2112.928,1504.645,2116.338,1528.755Z" transform="translate(-2096.745 -1455.422)" fill="#ba8833"/>
        <path id="Trazado_279112" data-name="Trazado 279112" d="M2134.788,1547.452l1.452-1.194c19.28-14.612,28.686-41.109,22.935-64.607A91.68,91.68,0,0,0,2134.788,1547.452Z" transform="translate(-2104.174 -1465.619)" fill="#c8a05c"/>
        <path id="Trazado_279113" data-name="Trazado 279113" d="M2084.9,1466.013a91.681,91.681,0,0,0,23.392,66.161l.351-1.847C2114.1,1506.759,2104.363,1480.382,2084.9,1466.013Z" transform="translate(-2084.755 -1459.539)" fill="#8b6626"/>
      </g>
      <g id="Grupo_881886" data-name="Grupo 881886" transform="translate(0 24.863)">
        <path id="Trazado_279114" data-name="Trazado 279114" d="M2027.684,1508.431c13.226,19.718,27.981,43.522,48.8,56.159,33.606,20.4,11.146-16.9-.879-29.579C2062.795,1521.5,2046.106,1511.08,2027.684,1508.431Z" transform="translate(-2012.43 -1500.893)" fill="#ba8833"/>
        <path id="Trazado_279115" data-name="Trazado 279115" d="M2071.685,1496.1a91.683,91.683,0,0,0,35.458,60.558l0-1.88C2108.05,1530.6,2093.509,1506.536,2071.685,1496.1Z" transform="translate(-2029.535 -1496.098)" fill="#c8a05c"/>
        <path id="Trazado_279116" data-name="Trazado 279116" d="M2002.728,1554.479a91.683,91.683,0,0,0,66.009,23.82l-1.207-1.441C2052.753,1557.7,2026.175,1548.526,2002.728,1554.479Z" transform="translate(-2002.728 -1518.095)" fill="#8b6626"/>
      </g>
      <path id="Trazado_279117" data-name="Trazado 279117" d="M2130.108,1578.819c-.808-1.065-2.191-1.5-4.383-.885-2.156.6-3.894,2.162-5.875,3.2-4.428,2.328-9.745,1.922-14.7,1.271-2.079-.273-4.274-.564-6.206.25-8.072,3.405,1.925,9.786,5.512,12.012,6.722,4.17,15.9,6.3,19.849,13.513,1.287,2.353,2.712,4.868,5.146,6s6.068-.112,6.238-2.788c.344-5.425-7.6-8.831-7.61-14.976C2128.064,1591.145,2133.962,1583.9,2130.108,1578.819Z" transform="translate(-2038.937 -1502.94)" fill="#3e5838"/>
      <path id="Trazado_279118" data-name="Trazado 279118" d="M2138.172,1538.256a.862.862,0,0,0-1.127.464,55.021,55.021,0,0,0-4.113,24.49.862.862,0,0,0,.859.808l.054,0a.862.862,0,0,0,.807-.914,53.27,53.27,0,0,1,3.984-23.718A.863.863,0,0,0,2138.172,1538.256Z" transform="translate(-2053.304 -1487.598)" fill="#fff"/>
      <path id="Trazado_279119" data-name="Trazado 279119" d="M2147.365,1516.229a20.286,20.286,0,0,0-5.649,8.572.863.863,0,0,0,.54,1.093.875.875,0,0,0,.276.045.862.862,0,0,0,.817-.586,18.552,18.552,0,0,1,5.168-7.842.862.862,0,1,0-1.152-1.282Z" transform="translate(-2056.742 -1478.975)" fill="#fff"/>
      <path id="Trazado_279120" data-name="Trazado 279120" d="M2082.872,1534.073a.862.862,0,0,0-1.632.555,43.276,43.276,0,0,0,11.225,17.48.862.862,0,1,0,1.183-1.254A41.544,41.544,0,0,1,2082.872,1534.073Z" transform="translate(-2033.232 -1485.771)" fill="#fff"/>
      <path id="Trazado_279121" data-name="Trazado 279121" d="M2105.646,1570.106a.861.861,0,1,0-1.435.954,34.552,34.552,0,0,0,5.283,6.207.862.862,0,0,0,1.171-1.265A32.827,32.827,0,0,1,2105.646,1570.106Z" transform="translate(-2042.124 -1499.856)" fill="#fff"/>
      <path id="Trazado_279122" data-name="Trazado 279122" d="M2064.785,1559.069a.862.862,0,1,0-.442,1.666,34.653,34.653,0,0,1,14.789,8.212.862.862,0,0,0,1.181-1.256A36.393,36.393,0,0,0,2064.785,1559.069Z" transform="translate(-2026.432 -1495.704)" fill="#fff"/>
      <path id="Trazado_279123" data-name="Trazado 279123" d="M2136.126,1609.392a24.086,24.086,0,0,1-6.312,1.324.862.862,0,0,0,.061,1.721c.021,0,.042,0,.063,0a25.768,25.768,0,0,0,6.765-1.418.862.862,0,1,0-.577-1.625Z" transform="translate(-2051.822 -1515.259)" fill="#fff"/>
    </g>
    <g id="Grupo_881888" data-name="Grupo 881888" transform="translate(2096.923 1472.847)">
      <path id="Trazado_279124" data-name="Trazado 279124" d="M2259.74,1534.265a2.571,2.571,0,0,0-1.774.391l-5.831,2.893c.159-2.513,1.834-4.656,3.588-6.464,1.411-1.454,2.985-2.913,3.524-4.866a10.707,10.707,0,0,0,.261-2.812,135.1,135.1,0,0,0-1.787-22.513,2.247,2.247,0,0,0-.3-.939c-.8-1.166-2.568-.007-3.459,1.093-4.161,5.135-8.585,8.51-13.993,12.333a15.234,15.234,0,0,0-2.689,2.23c-1.431,1.616-2.1,3.742-2.874,5.758a48.929,48.929,0,0,1-5.62,10.581c-2.1-2.541,1.174-6.5.009-9.584-.174-.46-.528-.932-1.019-.936a1.5,1.5,0,0,0-.817.343c-9.427,6.437-20.786,12.788-27.179,22.494a5.857,5.857,0,0,0-1.28,3.4c.081,1.43,1.124,2.593,2.052,3.685a38.02,38.02,0,0,1,5.458,8.5c-3.692.846-6.923-3.085-10.71-3.159a1.538,1.538,0,0,0-1.331.486,1.75,1.75,0,0,0-.227.921c-.358,6.519-.067,12.855,2.383,18.973a7.715,7.715,0,0,0,2.866,3.986,7.566,7.566,0,0,0,3.976.775c4.99-.06,10.917-4.05,14.248-.2,2.645,3.057-2.343,9.276,3.846,11.323,2.922.966,5.925-1.009,8.371-2.876,6.376-4.7,12.4-8.8,18-14.423a1.566,1.566,0,0,0,.612-1.126c-.039-.494-.521-.819-.96-1.048a17.932,17.932,0,0,0-5.328-1.792c-1.01-.17-2.3-.506-2.4-1.525-.094-.966,1.01-1.569,1.943-1.836a21.151,21.151,0,0,1,5.954-.81,12.354,12.354,0,0,0,3.852-.257c8.375-2.662,10.1-23.532,9.913-30.473C2260.991,1535.784,2260.719,1534.539,2259.74,1534.265Z" transform="translate(-2193.617 -1499.468)" fill="#657960"/>
      <path id="Trazado_279125" data-name="Trazado 279125" d="M2265.84,1512.155a.637.637,0,0,0-.776.452c-6.437,24.375-19.729,48.85-41.83,77.025a.635.635,0,1,0,1,.784c22.212-28.315,35.576-52.936,42.059-77.484A.636.636,0,0,0,2265.84,1512.155Z" transform="translate(-2205.078 -1504.392)" fill="#fff"/>
      <path id="Trazado_279126" data-name="Trazado 279126" d="M2242.046,1586.036c-3.136-12.33-6.1-23.977-2.552-36.367a.635.635,0,1,0-1.221-.35c-3.641,12.721-.638,24.529,2.541,37.03l.213.837a.635.635,0,1,0,1.231-.312Z" transform="translate(-2210.329 -1518.668)" fill="#fff"/>
      <path id="Trazado_279127" data-name="Trazado 279127" d="M2276.129,1567.807a59.926,59.926,0,0,1-23.327,18.247.635.635,0,1,0,.51,1.163,61.189,61.189,0,0,0,23.824-18.634.635.635,0,1,0-1.006-.776Z" transform="translate(-2216.477 -1525.939)" fill="#fff"/>
      <path id="Trazado_279128" data-name="Trazado 279128" d="M2272.8,1526.542a.636.636,0,0,0-.569.7,67.045,67.045,0,0,1-3.132,26.243.636.636,0,0,0,.389.81.646.646,0,0,0,.211.035.635.635,0,0,0,.6-.425,68.438,68.438,0,0,0,3.2-26.79A.636.636,0,0,0,2272.8,1526.542Z" transform="translate(-2222.945 -1509.992)" fill="#fff"/>
      <path id="Trazado_279129" data-name="Trazado 279129" d="M2203.427,1611.215a.635.635,0,0,0,.436,1.193,15.359,15.359,0,0,1,18.109,6.774.636.636,0,1,0,1.113-.614A16.669,16.669,0,0,0,2203.427,1611.215Z" transform="translate(-2197.268 -1542.561)" fill="#fff"/>
      <path id="Trazado_279130" data-name="Trazado 279130" d="M2236.7,1621.781a.635.635,0,0,0-.156,1.261,10.025,10.025,0,0,1,8.432,8.562.636.636,0,0,0,1.264-.137A11.345,11.345,0,0,0,2236.7,1621.781Z" transform="translate(-2210.087 -1547.015)" fill="#fff"/>
      <path id="Trazado_279131" data-name="Trazado 279131" d="M2226.517,1578.66c-3.522-4.462-4.511-10.439-5.382-15.713a.635.635,0,0,0-1.254.208c.9,5.425,1.913,11.573,5.638,16.292a32.768,32.768,0,0,0,7.206,6.238.635.635,0,1,0,.729-1.041A31.719,31.719,0,0,1,2226.517,1578.66Z" transform="translate(-2203.824 -1523.939)" fill="#fff"/>
      <path id="Trazado_279132" data-name="Trazado 279132" d="M2242.166,1562.956a.634.634,0,0,0-.6.67,19,19,0,0,1-3.379,11.921.634.634,0,0,0,.157.884.626.626,0,0,0,.362.114.634.634,0,0,0,.521-.271,20.272,20.272,0,0,0,3.606-12.721A.629.629,0,0,0,2242.166,1562.956Z" transform="translate(-2210.9 -1524.148)" fill="#fff"/>
      <path id="Trazado_279133" data-name="Trazado 279133" d="M2279.436,1591.456a11.749,11.749,0,0,1-15.31,1.229.635.635,0,1,0-.751,1.024,13.228,13.228,0,0,0,7.736,2.516q.5,0,1-.039a13.207,13.207,0,0,0,8.23-3.838.635.635,0,0,0-.906-.892Z" transform="translate(-2220.635 -1535.155)" fill="#fff"/>
      <path id="Trazado_279134" data-name="Trazado 279134" d="M2284.035,1577.766a13.6,13.6,0,0,1-8.172,3.578.635.635,0,0,0,.048,1.268l.05,0a14.876,14.876,0,0,0,8.938-3.913.635.635,0,0,0-.865-.931Z" transform="translate(-2225.362 -1529.841)" fill="#fff"/>
    </g>
    <g id="Grupo_881892" data-name="Grupo 881892" transform="translate(2031.744 1566.081)">
      <g id="Grupo_881891" data-name="Grupo 881891">
        <path id="Trazado_279135" data-name="Trazado 279135" d="M2161.254,1733.115c-3.544-4.057-7.861-8.464-13.242-8.226-6.352.282-10.362,6.74-13.229,12.416l5.46-7.3a124.57,124.57,0,0,0-10.361,16c-3.539,6.507-6.561,13.692-5.96,21.075.9,11.1,10.164,20.241,20.732,23.738,14.546,4.814,32.559-.747,39.889-14.2a17.157,17.157,0,0,0,2.325-7.665c.152-6-4.032-11.137-7.982-15.659Z" transform="translate(-2101.314 -1680.331)" fill="#ff8f83"/>
        <path id="Trazado_279136" data-name="Trazado 279136" d="M2207.544,1711.78c-9.305-.887-18.067-2.315-27.229-3.564-6.631-.9-13.591.955-14.561,8.419-1.913,14.71,16,33.418,27.834,38.808a19.072,19.072,0,0,0,8.714,2.082c6.836-.339,11.97-6.179,15.968-11.733,2.673-3.715,5.261-7.582,6.652-11.942s1.46-9.328-.769-13.325C2220.98,1714.837,2214.028,1712.4,2207.544,1711.78Z" transform="translate(-2117.551 -1673.771)" fill="#ffa59c"/>
        <path id="Trazado_279137" data-name="Trazado 279137" d="M2163.114,1726.28l1.252-.383c-.079-.046-.146-.1-.222-.152A5.05,5.05,0,0,0,2163.114,1726.28Z" transform="translate(-2116.58 -1680.667)" fill="#ff8f83"/>
        <path id="Trazado_279138" data-name="Trazado 279138" d="M2192.961,1660.076c-3.722-3.444-7.745-7.042-12.746-7.883-3.51-.589-7.085.266-10.542,1.116-3.791.932-7.771,1.964-10.584,4.671-4.331,4.169-4.593,10.9-4.567,16.909.042,9.506.615,18.637,6.281,22.187a11.551,11.551,0,0,1,2.283-.57c.2-.033.393-.057.588-.088l-2.649.81h0c2.7,1.581,6.526,1.934,11.93.532l14.747-3.826c6.4-1.659,15.4-6.308,17.442-13.42C2207.49,1672.363,2198.165,1664.892,2192.961,1660.076Z" transform="translate(-2113.239 -1651.998)" fill="#ff8f83"/>
        <path id="Trazado_279139" data-name="Trazado 279139" d="M2119.936,1662.446c-4.872.161-9.546,1.87-14.085,3.646-2.091.818-4.253,1.71-5.741,3.389a14.6,14.6,0,0,0-2.629,5.611c-3.917,12.883-9.261,21.162,4.811,30.316,5.85,3.805,12.775,5.585,19.646,6.81,17.83,3.179,11.673-16.187,13.3-26.583.956-6.111,1.549-13-2.253-17.873C2129.983,1663.917,2124.808,1662.285,2119.936,1662.446Z" transform="translate(-2089.376 -1656.056)" fill="#ffbcb5"/>
        <path id="Trazado_279140" data-name="Trazado 279140" d="M2131.742,1724.229c-5.257-1.888-10.562-3.788-16.1-4.537a25.5,25.5,0,0,0-7.488.034c-4.318.678-8.118,2.463-12.6,4.618a16.712,16.712,0,0,0-5.3,3.57c-2.208,2.435-3.016,5.84-3.219,9.12-.568,9.2,3.034,18.276,8.356,25.8a24.458,24.458,0,0,0,6.242,6.505c13.406,8.845,26.276-4.147,30.026-16.455a51.844,51.844,0,0,0,1.546-8q.989-7.106,1.978-14.211c.232-1.663.406-3.545-.664-4.839A6.124,6.124,0,0,0,2131.742,1724.229Z" transform="translate(-2086.984 -1678.214)" fill="#ffa59c"/>
        <g id="Grupo_881890" data-name="Grupo 881890" transform="translate(18.122 20.696)">
          <path id="Trazado_279141" data-name="Trazado 279141" d="M2144.745,1696.323c-8.04,4.278-1.406,16.781,6.648,12.5S2152.8,1692.038,2144.745,1696.323Z" transform="translate(-2126.144 -1689.583)" fill="#fff"/>
          <g id="Grupo_881889" data-name="Grupo 881889">
            <path id="Trazado_279142" data-name="Trazado 279142" d="M2157.813,1716.6c-11.082,1.171-12.953,17.175-1.052,19.077C2171.8,1738.081,2171.262,1715.181,2157.813,1716.6Z" transform="translate(-2129.072 -1697.784)" fill="#fff"/>
            <path id="Trazado_279143" data-name="Trazado 279143" d="M2133.02,1738.1c-7.9,4.2-1.381,16.49,6.533,12.279S2140.935,1733.886,2133.02,1738.1Z" transform="translate(-2121.611 -1705.829)" fill="#fff"/>
            <path id="Trazado_279144" data-name="Trazado 279144" d="M2157.439,1747.658c-7.9,4.2-1.381,16.49,6.534,12.279S2165.353,1743.447,2157.439,1747.658Z" transform="translate(-2131.103 -1709.546)" fill="#fff"/>
            <path id="Trazado_279145" data-name="Trazado 279145" d="M2182.051,1731.341c-7.9,4.2-1.381,16.49,6.533,12.279S2189.965,1727.13,2182.051,1731.341Z" transform="translate(-2140.671 -1703.202)" fill="#fff"/>
            <path id="Trazado_279146" data-name="Trazado 279146" d="M2173.6,1699.32c-7.9,4.2-1.381,16.49,6.533,12.279S2181.519,1695.109,2173.6,1699.32Z" transform="translate(-2137.388 -1690.754)" fill="#fff"/>
            <path id="Trazado_279147" data-name="Trazado 279147" d="M2130.7,1713.555c-7.9,4.2-1.381,16.49,6.534,12.279S2138.616,1709.344,2130.7,1713.555Z" transform="translate(-2120.709 -1696.288)" fill="#fff"/>
            <path id="Trazado_279148" data-name="Trazado 279148" d="M2184.469,1757.932c-3.292,1.751-.575,6.87,2.723,5.116S2187.767,1756.177,2184.469,1757.932Z" transform="translate(-2142.423 -1713.736)" fill="#fff"/>
            <path id="Trazado_279149" data-name="Trazado 279149" d="M2195.774,1718.623c-3.292,1.752-.575,6.871,2.722,5.117S2199.072,1716.869,2195.774,1718.623Z" transform="translate(-2146.818 -1698.455)" fill="#fff"/>
            <path id="Trazado_279150" data-name="Trazado 279150" d="M2160.7,1686.224c-3.35,1.782-.585,6.992,2.77,5.207S2164.054,1684.439,2160.7,1686.224Z" transform="translate(-2133.172 -1685.857)" fill="#fff"/>
            <path id="Trazado_279151" data-name="Trazado 279151" d="M2124.416,1702.25c-3.351,1.782-.586,6.992,2.77,5.207S2127.772,1700.465,2124.416,1702.25Z" transform="translate(-2119.067 -1692.087)" fill="#fff"/>
            <path id="Trazado_279152" data-name="Trazado 279152" d="M2118.124,1734.163c-3.292,1.752-.575,6.871,2.722,5.116S2121.422,1732.409,2118.124,1734.163Z" transform="translate(-2116.631 -1704.496)" fill="#fff"/>
            <path id="Trazado_279153" data-name="Trazado 279153" d="M2148.547,1763.083c-3.292,1.752-.575,6.871,2.722,5.116S2151.845,1761.329,2148.547,1763.083Z" transform="translate(-2128.458 -1715.739)" fill="#fff"/>
          </g>
        </g>
        <path id="Trazado_279154" data-name="Trazado 279154" d="M2186.035,1737.953c-3.35,1.782-.585,6.992,2.77,5.206S2189.391,1736.168,2186.035,1737.953Z" transform="translate(-2124.9 -1685.271)" fill="#ffa59c"/>
        <path id="Trazado_279155" data-name="Trazado 279155" d="M2161.141,1754.841c-3.35,1.782-.586,6.992,2.77,5.207S2164.5,1753.056,2161.141,1754.841Z" transform="translate(-2115.222 -1691.836)" fill="#ffa59c"/>
        <path id="Trazado_279156" data-name="Trazado 279156" d="M2137.464,1745.945c-3.35,1.782-.585,6.992,2.77,5.207S2140.82,1744.16,2137.464,1745.945Z" transform="translate(-2106.018 -1688.377)" fill="#ffa59c"/>
        <path id="Trazado_279157" data-name="Trazado 279157" d="M2163.155,1726.447c-3.349,1.782-.585,6.991,2.77,5.206S2166.511,1724.662,2163.155,1726.447Z" transform="translate(-2116.006 -1680.797)" fill="#ffa59c"/>
        <path id="Trazado_279158" data-name="Trazado 279158" d="M2134.519,1720.554c-3.35,1.783-.585,6.992,2.77,5.206S2137.875,1718.769,2134.519,1720.554Z" transform="translate(-2104.873 -1678.507)" fill="#ffa59c"/>
        <path id="Trazado_279159" data-name="Trazado 279159" d="M2147.252,1700.664c-3.35,1.783-.585,6.992,2.77,5.207S2150.608,1698.879,2147.252,1700.664Z" transform="translate(-2109.823 -1670.774)" fill="#ffa59c"/>
        <path id="Trazado_279160" data-name="Trazado 279160" d="M2175.018,1706.292c-3.35,1.782-.586,6.991,2.77,5.206S2178.374,1704.507,2175.018,1706.292Z" transform="translate(-2120.617 -1672.962)" fill="#ffa59c"/>
      </g>
      <path id="Trazado_279161" data-name="Trazado 279161" d="M2111.547,1791.143a20.851,20.851,0,0,1-13.584-12,.729.729,0,1,0-1.349.552,22.335,22.335,0,0,0,14.552,12.859.709.709,0,0,0,.191.026.729.729,0,0,0,.189-1.432Z" transform="translate(-2090.706 -1701.248)" fill="#fff"/>
      <path id="Trazado_279162" data-name="Trazado 279162" d="M2132.594,1798a2.851,2.851,0,0,1-2.521.712.728.728,0,1,0-.313,1.423,4.154,4.154,0,0,0,.889.1,4.284,4.284,0,0,0,2.957-1.183.728.728,0,0,0-1.011-1.048Z" transform="translate(-2103.391 -1708.679)" fill="#fff"/>
      <path id="Trazado_279163" data-name="Trazado 279163" d="M2216.106,1794.052a.726.726,0,0,0-.786.665,17.032,17.032,0,0,1-6.639,12.006.729.729,0,1,0,.875,1.165,18.512,18.512,0,0,0,7.215-13.05A.728.728,0,0,0,2216.106,1794.052Z" transform="translate(-2134.181 -1707.221)" fill="#fff"/>
      <path id="Trazado_279164" data-name="Trazado 279164" d="M2243.258,1722.846a.728.728,0,1,0-.189,1.444,8.921,8.921,0,0,1,7.38,9.491.729.729,0,0,0,.638.809.7.7,0,0,0,.086.005.729.729,0,0,0,.722-.643A10.306,10.306,0,0,0,2243.258,1722.846Z" transform="translate(-2147.416 -1679.538)" fill="#fff"/>
      <path id="Trazado_279165" data-name="Trazado 279165" d="M2253.27,1753.942a.731.731,0,0,0-.978.326l-.91,1.82a.729.729,0,0,0,1.3.651l.91-1.821A.729.729,0,0,0,2253.27,1753.942Z" transform="translate(-2150.864 -1691.599)" fill="#fff"/>
      <path id="Trazado_279166" data-name="Trazado 279166" d="M2175.694,1661.519a15.859,15.859,0,0,0-10.335,5.4.728.728,0,1,0,1.105.949,14.387,14.387,0,0,1,9.376-4.9.729.729,0,0,0,.652-.8A.721.721,0,0,0,2175.694,1661.519Z" transform="translate(-2117.384 -1655.697)" fill="#fff"/>
      <path id="Trazado_279167" data-name="Trazado 279167" d="M2195.642,1658.935l-2.277-.45a.728.728,0,0,0-.282,1.429l2.276.45a.7.7,0,0,0,.142.015.729.729,0,0,0,.141-1.444Z" transform="translate(-2128.001 -1654.514)" fill="#fff"/>
      <path id="Trazado_279168" data-name="Trazado 279168" d="M2106.019,1676.635l-.967.9a.728.728,0,0,0-.039,1.029.8.8,0,0,0,.1.091,43.464,43.464,0,0,0-2.306,8.362.727.727,0,0,0,.595.841.71.71,0,0,0,.123.011.729.729,0,0,0,.717-.606,42.026,42.026,0,0,1,2.939-9.8.729.729,0,0,0-1.163-.826Z" transform="translate(-2093.132 -1661.5)" fill="#fff"/>
    </g>
    <g id="Grupo_881893" data-name="Grupo 881893" transform="translate(1947.632 1614.755)">
      <path id="Trazado_279169" data-name="Trazado 279169" d="M2031.565,1758.9c-6.318,4.833-12.419,10.109-17,16.612s-7.564,14.381-7.052,22.319,4.923,15.822,12.07,19.315a8.589,8.589,0,0,0,5.716.99c2.972-.734,4.8-3.839,5.3-6.857.955-5.66-1.5-11.277-2.269-16.966-.822-6.087.308-12.285,2.089-18.164C2031.447,1772.772,2042.3,1750.683,2031.565,1758.9Z" transform="translate(-1971.956 -1741.524)" fill="#a25a00"/>
      <path id="Trazado_279170" data-name="Trazado 279170" d="M1992.087,1747.977c-6.133.342-12.424-.023-18.144-2.26-5.346-2.09-10.225-5.8-15.95-6.212-3.053-.218-6.5.822-7.916,3.536a8.588,8.588,0,0,0-.388,5.788c1.706,7.769,8.325,13.918,15.918,16.29s15.953,1.333,23.353-1.582,13.968-7.6,20.157-12.6C2019.637,1742.446,1995.609,1747.78,1992.087,1747.977Z" transform="translate(-1949.377 -1734.68)" fill="#a25a00"/>
      <path id="Trazado_279171" data-name="Trazado 279171" d="M2009.968,1758.359c-8.044,1.136-16.256,2.395-23.444,6.18-12.078,6.359-19.734,19.3-22.288,32.71l17.583-6.01c5.336-1.824,10.777-3.7,15.246-7.142,4.129-3.176,7.193-7.5,10.193-11.762,3.2-4.543,6.743-9.356,10.067-13.318C2014.985,1757.787,2012.516,1758,2009.968,1758.359Z" transform="translate(-1955.153 -1741.912)" fill="#ba8833"/>
      <path id="Trazado_279172" data-name="Trazado 279172" d="M2043.121,1743.1a10.553,10.553,0,0,0-6.163.366c-1.388.463-4.679,1.321-5.053,2.936-.519,2.236,3.666,3.695,5.075,4.861a14.722,14.722,0,0,1,4.306,6.794c.551,1.625.53,5.236,1.955,6.295.043.032.086.061.13.087,2.348,1.432,6.231-4.229,6.917-5.832a11.565,11.565,0,0,0-.264-9.473A11.172,11.172,0,0,0,2043.121,1743.1Z" transform="translate(-1981.443 -1735.967)" fill="#52754b"/>
      <path id="Trazado_279173" data-name="Trazado 279173" d="M2061.865,1731.687a2.154,2.154,0,0,0-2.589,1.605,23.151,23.151,0,0,1-7.138,11.948,2.153,2.153,0,1,0,2.854,3.225,27.493,27.493,0,0,0,8.478-14.19A2.154,2.154,0,0,0,2061.865,1731.687Z" transform="translate(-1989.043 -1731.63)" fill="#52754b"/>
      <path id="Trazado_279174" data-name="Trazado 279174" d="M2027.737,1843a16.5,16.5,0,0,1-8.958-8.787.728.728,0,1,0-1.34.571,17.962,17.962,0,0,0,9.755,9.567.726.726,0,0,0,.947-.4A.728.728,0,0,0,2027.737,1843Z" transform="translate(-1975.813 -1771.338)" fill="#fff"/>
      <path id="Trazado_279175" data-name="Trazado 279175" d="M2035.056,1765.691a.728.728,0,0,0-.929.446,45.492,45.492,0,0,1-14.27,20.155.729.729,0,1,0,.912,1.136,46.973,46.973,0,0,0,14.733-20.809A.728.728,0,0,0,2035.056,1765.691Z" transform="translate(-1976.671 -1744.855)" fill="#fff"/>
      <path id="Trazado_279176" data-name="Trazado 279176" d="M1990,1802.479a30.634,30.634,0,0,1-9.183,2.8.729.729,0,0,0,.1,1.45.7.7,0,0,0,.1-.007,32.072,32.072,0,0,0,9.619-2.93.728.728,0,1,0-.637-1.31Z" transform="translate(-1961.354 -1759.144)" fill="#fff"/>
      <path id="Trazado_279177" data-name="Trazado 279177" d="M1970.882,1769.078a18.089,18.089,0,0,1-13.995-10.245.729.729,0,0,0-1.325.606,19.578,19.578,0,0,0,15.143,11.086.767.767,0,0,0,.089.005.729.729,0,0,0,.088-1.452Z" transform="translate(-1951.756 -1742.04)" fill="#fff"/>
    </g>
    <g id="Grupo_881894" data-name="Grupo 881894" transform="translate(2135.197 1546.445)">
      <path id="Trazado_279178" data-name="Trazado 279178" d="M2318.4,1661c-19.054,15.554-40.593,24.114-60.672,24.114-.039,0-.1-.017-.124,0a1.375,1.375,0,0,0,0,2.75h.126c20.709,0,42.87-8.782,62.411-24.734a1.375,1.375,0,0,0-1.74-2.131Z" transform="translate(-2256.233 -1635.74)" fill="#808680"/>
      <path id="Trazado_279179" data-name="Trazado 279179" d="M2350.51,1665.721a54.773,54.773,0,0,1-30.077,12.341,1.375,1.375,0,0,0,.115,2.746c.039,0,.079,0,.119,0a57.56,57.56,0,0,0,31.6-12.967,1.376,1.376,0,0,0-1.759-2.115Z" transform="translate(-2280.702 -1637.574)" fill="#808680"/>
      <path id="Trazado_279180" data-name="Trazado 279180" d="M2345.345,1642.971a28.909,28.909,0,0,0-16.255,21.272,5.813,5.813,0,0,0,.047,2.628,1.376,1.376,0,1,0,2.636-.787,3.493,3.493,0,0,1,.032-1.407,26.1,26.1,0,0,1,14.67-19.2,1.375,1.375,0,0,0-1.131-2.507Z" transform="translate(-2284.507 -1628.805)" fill="#808680"/>
      <path id="Trazado_279181" data-name="Trazado 279181" d="M2322.246,1703.187c-6.521,2.359-14,.52-20.5-1.388l-.936-.275c-6.86-2.022-13.951-4.112-21.077-2.619a1.375,1.375,0,1,0,.564,2.692c6.447-1.35,13.2.64,19.736,2.565l.938.276c4.515,1.326,9.489,2.616,14.431,2.616a22.7,22.7,0,0,0,7.774-1.28,1.375,1.375,0,0,0-.935-2.587Z" transform="translate(-2264.945 -1650.401)" fill="#808680"/>
      <path id="Trazado_279182" data-name="Trazado 279182" d="M2343.609,1631.5a20.708,20.708,0,0,0-8.262,17.193,1.376,1.376,0,0,0,1.374,1.324h.053a1.375,1.375,0,0,0,1.323-1.426,17.922,17.922,0,0,1,7.15-14.88,1.375,1.375,0,0,0-1.637-2.21Z" transform="translate(-2286.983 -1624.29)" fill="#808680"/>
      <path id="Trazado_279183" data-name="Trazado 279183" d="M2304.958,1642.344a24.326,24.326,0,0,0-12.761,16.239,46.875,46.875,0,0,0-.812,5.683c-.116,1.162-.238,2.364-.414,3.52-.526,3.438-1.548,5.935-3.123,7.635a1.375,1.375,0,1,0,2.018,1.869c1.961-2.115,3.212-5.089,3.824-9.088.187-1.225.311-2.463.432-3.66a43.837,43.837,0,0,1,.758-5.35,21.547,21.547,0,0,1,11.3-14.386,1.376,1.376,0,1,0-1.226-2.463Z" transform="translate(-2268.381 -1628.553)" fill="#808680"/>
      <path id="Trazado_279184" data-name="Trazado 279184" d="M2334.279,1689.231c-4.816,5.318-12.6,7.066-19.572,8.075a1.375,1.375,0,0,0,.2,2.736,1.465,1.465,0,0,0,.2-.014c7.46-1.079,15.816-2.987,21.217-8.952a1.375,1.375,0,0,0-2.039-1.845Z" transform="translate(-2278.506 -1646.661)" fill="#808680"/>
      <path id="Trazado_279185" data-name="Trazado 279185" d="M2342.885,1711.418a13.229,13.229,0,0,1-13.962-2.232,1.375,1.375,0,1,0-1.853,2.033,15.969,15.969,0,0,0,10.683,4.016,15.3,15.3,0,0,0,6.26-1.307,1.376,1.376,0,0,0-1.127-2.51Z" transform="translate(-2283.597 -1654.455)" fill="#808680"/>
      <path id="Trazado_279186" data-name="Trazado 279186" d="M2310.321,1655.376a20.657,20.657,0,0,0-14.176,7.346,1.375,1.375,0,0,0,2.116,1.758,18.139,18.139,0,0,1,12.278-6.362,1.375,1.375,0,1,0-.218-2.742Z" transform="translate(-2271.625 -1633.674)" fill="#808680"/>
      <path id="Trazado_279187" data-name="Trazado 279187" d="M2303.947,1631.87a14.069,14.069,0,0,0-5.189,15.251,1.375,1.375,0,1,0,2.629-.809,11.4,11.4,0,0,1,4.15-12.2,1.375,1.375,0,1,0-1.591-2.245Z" transform="translate(-2272.542 -1624.439)" fill="#808680"/>
      <path id="Trazado_279188" data-name="Trazado 279188" d="M2365.267,1664.224c3.048,8.308,15.965,3.583,12.911-4.738S2362.213,1655.9,2365.267,1664.224Z" transform="translate(-2298.44 -1633.583)" fill="#808680"/>
      <path id="Trazado_279189" data-name="Trazado 279189" d="M2347.348,1715.539c3.049,8.307,15.965,3.583,12.911-4.738S2344.294,1707.217,2347.348,1715.539Z" transform="translate(-2291.474 -1653.532)" fill="#808680"/>
      <path id="Trazado_279190" data-name="Trazado 279190" d="M2296.219,1629.911c3.049,8.307,15.965,3.583,12.911-4.738S2293.165,1621.59,2296.219,1629.911Z" transform="translate(-2271.597 -1620.244)" fill="#808680"/>
      <path id="Trazado_279191" data-name="Trazado 279191" d="M2343.8,1628.96c3.048,8.307,15.965,3.583,12.911-4.738S2340.75,1620.638,2343.8,1628.96Z" transform="translate(-2290.096 -1619.874)" fill="#808680"/>
      <path id="Trazado_279192" data-name="Trazado 279192" d="M2361.8,1675.085c3.049,8.307,15.965,3.584,12.911-4.738S2358.742,1666.763,2361.8,1675.085Z" transform="translate(-2297.091 -1637.805)" fill="#999e99"/>
      <path id="Trazado_279193" data-name="Trazado 279193" d="M2310.085,1638.671c3.049,8.307,15.965,3.583,12.911-4.738S2307.031,1630.349,2310.085,1638.671Z" transform="translate(-2276.988 -1623.649)" fill="#999e99"/>
      <path id="Trazado_279194" data-name="Trazado 279194" d="M2344.153,1703.929c3.048,8.307,15.965,3.583,12.912-4.738S2341.1,1695.607,2344.153,1703.929Z" transform="translate(-2290.232 -1649.019)" fill="#999e99"/>
      <path id="Trazado_279195" data-name="Trazado 279195" d="M2349.093,1643.641c2.439,6.646,12.772,2.867,10.329-3.79S2346.65,1636.984,2349.093,1643.641Z" transform="translate(-2292.188 -1626.288)" fill="#d1d3d1"/>
      <path id="Trazado_279196" data-name="Trazado 279196" d="M2342.784,1691.76c2.439,6.646,12.772,2.867,10.329-3.79S2340.341,1685.1,2342.784,1691.76Z" transform="translate(-2289.736 -1644.995)" fill="#d1d3d1"/>
      <path id="Trazado_279197" data-name="Trazado 279197" d="M2311.369,1656.952c2.439,6.646,12.772,2.867,10.329-3.79S2308.927,1650.3,2311.369,1656.952Z" transform="translate(-2277.523 -1631.463)" fill="#d1d3d1"/>
      <path id="Trazado_279198" data-name="Trazado 279198" d="M2354.136,1658.834c2.439,6.646,12.771,2.867,10.329-3.79S2351.693,1652.177,2354.136,1658.834Z" transform="translate(-2294.149 -1632.194)" fill="#5a5b5a"/>
      <path id="Trazado_279199" data-name="Trazado 279199" d="M2372.242,1677.839c1.016,2.769,5.321,1.194,4.3-1.579S2371.224,1675.065,2372.242,1677.839Z" transform="translate(-2301.272 -1641.231)" fill="#fff"/>
      <path id="Trazado_279200" data-name="Trazado 279200" d="M2352.824,1626.378c1.017,2.77,5.322,1.195,4.3-1.579S2351.806,1623.6,2352.824,1626.378Z" transform="translate(-2293.723 -1621.225)" fill="#fff"/>
      <path id="Trazado_279201" data-name="Trazado 279201" d="M2316.508,1639.172c1.017,2.77,5.322,1.195,4.3-1.579S2315.491,1636.4,2316.508,1639.172Z" transform="translate(-2279.605 -1626.199)" fill="#fff"/>
      <path id="Trazado_279202" data-name="Trazado 279202" d="M2348.445,1691.365c1.017,2.77,5.322,1.194,4.3-1.579S2347.427,1688.591,2348.445,1691.365Z" transform="translate(-2292.02 -1646.489)" fill="#fff"/>
      <path id="Trazado_279203" data-name="Trazado 279203" d="M2350.249,1709.344c1.016,2.77,5.322,1.2,4.3-1.579S2349.231,1706.57,2350.249,1709.344Z" transform="translate(-2292.722 -1653.478)" fill="#fff"/>
      <path id="Trazado_279204" data-name="Trazado 279204" d="M2360.783,1717.729c1.016,2.769,5.322,1.194,4.3-1.58S2359.765,1714.955,2360.783,1717.729Z" transform="translate(-2296.817 -1656.738)" fill="#fff"/>
      <path id="Trazado_279205" data-name="Trazado 279205" d="M2361.549,1658.861c1.017,2.769,5.322,1.194,4.3-1.579S2360.531,1656.087,2361.549,1658.861Z" transform="translate(-2297.114 -1633.853)" fill="#fff"/>
      <path id="Trazado_279206" data-name="Trazado 279206" d="M2376.807,1661.251c1.016,2.769,5.322,1.194,4.3-1.579S2375.788,1658.477,2376.807,1661.251Z" transform="translate(-2303.046 -1634.782)" fill="#fff"/>
      <path id="Trazado_279207" data-name="Trazado 279207" d="M2299.951,1630.336c1.017,2.769,5.321,1.194,4.3-1.58S2298.933,1627.562,2299.951,1630.336Z" transform="translate(-2273.168 -1622.764)" fill="#fff"/>
      <path id="Trazado_279208" data-name="Trazado 279208" d="M2354.5,1645.468c1.016,2.77,5.322,1.194,4.3-1.579S2353.486,1642.694,2354.5,1645.468Z" transform="translate(-2294.376 -1628.646)" fill="#fff"/>
      <path id="Trazado_279209" data-name="Trazado 279209" d="M2316.953,1659.249c1.016,2.769,5.322,1.194,4.3-1.58S2315.934,1656.475,2316.953,1659.249Z" transform="translate(-2279.778 -1634.004)" fill="#fff"/>
    </g>
  </g>
</svg>
