<svg xmlns="http://www.w3.org/2000/svg" width="89.467" height="86" viewBox="0 0 89.467 86">
  <g id="Grupo_882880" data-name="Grupo 882880" transform="translate(-815.456 -6012.255)">
    <path id="Trazado_275274" data-name="Trazado 275274" d="M43,0A43,43,0,1,1,0,43,43,43,0,0,1,43,0Z" transform="translate(815.456 6012.255)" fill="#9dd2f5"/>
    <path id="Trazado_275275" data-name="Trazado 275275" d="M66.378,65.736c4.806,3.445,12.207,3.607,15-1.252,1.855-3.23-.033-7.638-1.846-10.656A40.852,40.852,0,0,0,66.378,65.736Z" transform="translate(758.229 5963.889)" fill="#8ab3e8"/>
    <path id="Trazado_275276" data-name="Trazado 275276" d="M408.784,113.73a40.549,40.549,0,0,0-13.765-30.487c-1.654,2.193-2.149,5.7-1.155,10.494,1.991,9.6-10.9,11.639-2.821,21.913,4.216,5.364,11.414,5.393,17.276,4.223a40.933,40.933,0,0,0,.465-6.142Z" transform="translate(492.673 5940.354)" fill="#8ab3e8"/>
    <path id="Trazado_271869" data-name="Trazado 271869" d="M978.231,74.83s.716-9.911-.8-15.6c-1.136-4.27-4.3-7.877-5.8-9.41-.326-.331-.8-.034-.791.494l.54,26.77Z" transform="translate(173.689 6753.414) rotate(-51)" fill="#b2b2b2"/>
    <path id="Trazado_271870" data-name="Trazado 271870" d="M986.489,98.039l-.2-19.314,2.548,20.048Z" transform="translate(143.526 6747.559) rotate(-51)" fill="#8c8c8c"/>
    <path id="Trazado_271871" data-name="Trazado 271871" d="M1014.426,415.115s5.882,19.191,7.194,34.6c.966,11.338-.3,24.817-1.034,31.145a3.676,3.676,0,0,1-4.047,3.232l-2.545-.276a3.821,3.821,0,0,1-3.241-4.922c1.616-5.248,3.991-14.4,4.087-23.122.224-20.346-5.075-34.254-5.075-34.254Z" transform="translate(-114.448 6566.87) rotate(-51)" fill="#555b60"/>
    <path id="Trazado_271872" data-name="Trazado 271872" d="M1020.436,457.292l.705,2.419a8.7,8.7,0,0,0,3.434-1.618,6.18,6.18,0,0,0,1.611-2.93l-1.1-3.99Z" transform="translate(-146.894 6553.42) rotate(-51)" fill="#464c4f"/>
    <path id="Trazado_271873" data-name="Trazado 271873" d="M872.319,70.516s-1.13-9.876.276-15.618c1.055-4.311,4.3-8.04,5.848-9.63.335-.344.854-.065.862.463l.411,26.773Z" transform="translate(235.167 6684.273) rotate(-51)" fill="#c1c1c1"/>
    <ellipse id="Elipse_5886" data-name="Elipse 5886" cx="7.239" cy="7.239" rx="7.239" ry="7.239" transform="translate(835.103 6050.071) rotate(-64.283)" fill="#697077"/>
    <path id="Trazado_271874" data-name="Trazado 271874" d="M794.409,416.921s-5.211,19.384-5.987,34.826c-.571,11.365,1.161,24.792,2.116,31.09a3.676,3.676,0,0,0,4.157,3.089l2.534-.364a3.821,3.821,0,0,0,3.068-5.032c-1.8-5.189-4.489-14.253-4.889-22.966-.931-20.326,3.881-34.41,3.881-34.41Z" transform="translate(14.413 6405.059) rotate(-51)" fill="#697077"/>
    <path id="Trazado_271875" data-name="Trazado 271875" d="M800.477,1060.476c-1.752-5.057-4.353-13.8-4.854-22.3a7.551,7.551,0,0,0-4.1-.113,11.524,11.524,0,0,0-3.01.875,195.948,195.948,0,0,0,2.2,23.848,3.676,3.676,0,0,0,4.157,3.089l2.534-.364A3.821,3.821,0,0,0,800.477,1060.476Z" transform="translate(-436.412 6040.238) rotate(-51)" fill="#d66654"/>
    <path id="Trazado_271876" data-name="Trazado 271876" d="M1020.578,1058.072c1.532-5.128,4.06-14.059,4.192-22.58a7.553,7.553,0,0,1,4.088-.29,11.525,11.525,0,0,1,3.045.744,195.907,195.907,0,0,1-1.168,23.921,3.676,3.676,0,0,1-4.02,3.266l-2.547-.254A3.936,3.936,0,0,1,1020.578,1058.072Z" transform="translate(-570.719 6210.212) rotate(-51)" fill="#d66654"/>
    <ellipse id="Elipse_5887" data-name="Elipse 5887" cx="3.267" cy="3.267" rx="3.267" ry="3.267" transform="translate(840.706 6048.895) rotate(-73.5)" fill="#d66654"/>
    <path id="Trazado_271877" data-name="Trazado 271877" d="M946.065,420.441a3.267,3.267,0,0,1-4.606,4.527,3.267,3.267,0,1,0,4.606-4.527Z" transform="translate(-78.163 6514.157) rotate(-51)" fill="#b25147"/>
    <path id="Trazado_271878" data-name="Trazado 271878" d="M814.132,890.766c-.072.869-.09,1.741-.1,2.612q-.119,8.157.365,16.309a6.13,6.13,0,0,0,.862,3.333,1.25,1.25,0,0,0,.6.486,1.065,1.065,0,0,0,1.2-.676,2.955,2.955,0,0,0,.1-1.49c-.631-5.753-2.5-11.438-1.975-17.2.135-1.475.428-2.935.5-4.414.028-.573-.234-1.163-.871-.842C814.262,889.161,814.174,890.259,814.132,890.766Z" transform="translate(-343.21 6146.345) rotate(-51)" fill="#fff" opacity="0.24"/>
    <path id="Trazado_271879" data-name="Trazado 271879" d="M836.619,1288.53a2.19,2.19,0,0,0-.077,1.2,32.262,32.262,0,0,0,1,4.806,1.24,1.24,0,0,0,.2.444,1.092,1.092,0,0,0,.552.318,1.829,1.829,0,0,0,1.567-.117,1.627,1.627,0,0,0,.608-1.312,5.069,5.069,0,0,0-.249-1.441l-.8-2.911a2.7,2.7,0,0,0-.5-1.121C838.373,1287.79,837.005,1287.693,836.619,1288.53Z" transform="translate(-646.146 5928.063) rotate(-51)" fill="#fff" opacity="0.24"/>
    <path id="Trazado_271880" data-name="Trazado 271880" d="M1085.122,959.1a15.036,15.036,0,0,0-.1,2.959,51.154,51.154,0,0,1-1.724,14.365c-.145.54-.255,1.222.185,1.566a.947.947,0,0,0,.851.114c.987-.3,1.29-1.525,1.42-2.548q.689-5.394,1.014-10.826a22.027,22.027,0,0,0-.18-5.645C1086.39,958.09,1085.3,958.113,1085.122,959.1Z" transform="translate(-551.914 6300.84) rotate(-51)" fill="#fff" opacity="0.24"/>
    <path id="Trazado_271881" data-name="Trazado 271881" d="M889.872,86.668a16.176,16.176,0,0,0-.367,1.972,8.654,8.654,0,0,0,.432,3.724c.147.423.384.886.819.993a1,1,0,0,0,1.068-.615,2.8,2.8,0,0,0,.163-1.312,27.09,27.09,0,0,1,.1-6.939c.278-1.268.8-2.469,1.2-3.7.415-1.31.742-2.635,1.281-3.9a16.359,16.359,0,0,0-1.319,1.322,13.24,13.24,0,0,0-1.156,1.838,21.573,21.573,0,0,0-1.588,4.141C890.268,85.007,890.064,85.836,889.872,86.668Z" transform="translate(201.78 6678.354) rotate(-51)" fill="#fff" opacity="0.26"/>
  </g>
</svg>
