<svg xmlns="http://www.w3.org/2000/svg" width="83.999" height="92.054" viewBox="0 0 83.999 92.054">
  <g id="Grupo_882877" data-name="Grupo 882877" transform="translate(-292 -5912.425)">
    <g id="covid-19" transform="translate(292 5912.425)">
      <path id="Trazado_2359" data-name="Trazado 2359" fill="#ff7186"/>
      <path id="Trazado_2371" data-name="Trazado 2371" d="M18.752,55.072c2.41,2.834,8.1,2.56,11.887-3.283,4.907-7.578,15.85-3.477,22.748-10.375,4.965-4.965,1.837-12.931-.306-17.005A41.5,41.5,0,0,0,18.752,55.072Z" transform="translate(-15.579 -20.279)" fill="#ffdd40"/>
      <path id="Trazado_2372" data-name="Trazado 2372" d="M357.488,368.657c-4.522-.388-11.649-.11-14.289,4.925-3.64,6.942-13.811,8.957-9.237,16.749A41.591,41.591,0,0,0,357.488,368.657Z" transform="translate(-276.486 -306.174)" fill="#ffdd40"/>
      <path id="Trazado_275271" data-name="Trazado 275271" d="M41,0C63.644,0,82,18.58,82,41.5S63.644,83,41,83,0,64.42,0,41.5,18.356,0,41,0Z" transform="translate(1.999 4.033)" fill="#ffc839"/>
      <path id="Trazado_275272" data-name="Trazado 275272" d="M18.752,55.072c2.41,2.834,8.1,2.56,11.887-3.283,4.907-7.578,15.85-3.477,22.748-10.375,4.965-4.965,1.837-12.931-.306-17.005A41.5,41.5,0,0,0,18.752,55.072Z" transform="translate(-15.579 -20.376)" fill="#ffdd40"/>
      <path id="Trazado_275273" data-name="Trazado 275273" d="M357.488,368.657c-4.522-.388-11.649-.11-14.289,4.925-3.64,6.942-13.811,8.957-9.237,16.749A41.591,41.591,0,0,0,357.488,368.657Z" transform="translate(-276.486 -306.271)" fill="#ffdd40"/>
    </g>
    <g id="Grupo_878230" data-name="Grupo 878230" transform="translate(311.5 5918.861)">
      <path id="Trazado_271851" data-name="Trazado 271851" d="M3038.341,174.731a14.731,14.731,0,0,1,8.242,14.194c-.458,10.03-11.321,16.128-11.321,16.128s-11.241-.306-13.472,3.192-5.674,12.262-5.674,12.262l-7.592-3.014s3.645-11.837,6.035-14.29c4.065-4.172,12.74-7.226,12.74-7.226s8.7-.233,11.865-7.509C3041.363,183.42,3039.33,178.42,3038.341,174.731Z" transform="translate(-3004.212 -173.834)" fill="#b2b2b2"/>
      <path id="Trazado_271852" data-name="Trazado 271852" d="M3241.438,184.014a16.519,16.519,0,0,0-1.352-5.5,28.673,28.673,0,0,0-1.666-3.759,9.857,9.857,0,0,0-1.07-.571c.989,3.689,3.022,8.689.824,13.736-2.376,5.457-7.862,6.952-10.456,7.359.66.786,1.26,1.687,2.328,1.562a11.068,11.068,0,0,0,3.633-1.174,14.9,14.9,0,0,0,5.6-5.072A11.749,11.749,0,0,0,3241.438,184.014Z" transform="translate(-3203.222 -173.335)" fill="#c1c1c1"/>
      <path id="Trazado_271853" data-name="Trazado 271853" d="M3162.417,416.266a12.134,12.134,0,0,1-2.428.454,26.679,26.679,0,0,0-6.52,1.55,16.989,16.989,0,0,1-2.9,1.043,9.579,9.579,0,0,1-2.312.112,3.337,3.337,0,0,1-2.775-1.114,3.516,3.516,0,0,1-.324-2.119q.094-1.659.188-3.319a1.257,1.257,0,0,1,.074-.426,1.171,1.171,0,0,1,.4-.442,11.214,11.214,0,0,1,4.436-1.855C3151.725,409.827,3163.2,416,3162.417,416.266Z" transform="translate(-3128.241 -387.564)" fill="#999"/>
      <path id="Trazado_271854" data-name="Trazado 271854" d="M3152.58,166.332l.48,26.816a2.843,2.843,0,0,0,2.473,2.77c2.984.388,7.8,1.4,8.994,3.942,1.765,3.755,2.928,14.338,2.928,14.338l9.19-1.975s-2.5-12.673-4.126-15.688c-2.747-5.1-12.032-9.321-12.032-9.321s3.179-3.468,1.959-10.043c-.971-5.231-5.065-9.555-7.68-11.851A1.317,1.317,0,0,0,3152.58,166.332Z" transform="translate(-3135.002 -164.987)" fill="#c1c1c1"/>
      <g id="Grupo_878228" data-name="Grupo 878228" transform="translate(19.965 23.386)">
        <ellipse id="Elipse_5885" data-name="Elipse 5885" cx="2.766" cy="2.766" rx="2.766" ry="2.766" transform="translate(0 2.117) rotate(-22.5)" fill="#b2b2b2"/>
        <path id="Trazado_271855" data-name="Trazado 271855" d="M3202.605,431a2.762,2.762,0,0,1-2.823,4.717,2.763,2.763,0,1,0,2.823-4.717Z" transform="translate(-3197.823 -429.894)" fill="#999"/>
        <path id="Trazado_271856" data-name="Trazado 271856" d="M3193.168,437.005l3.779-3.9s.447.156.313.238-3.784,4.028-3.784,4.028Z" transform="translate(-3191.818 -431.803)" fill="#999"/>
      </g>
      <path id="Trazado_271857" data-name="Trazado 271857" d="M3261.958,561.141a2.711,2.711,0,0,0-1.269.837,2.779,2.779,0,0,0-.344,1.539c-.037,1.356.153,3.061,1.435,3.506.51.177,1.08.089,1.6.242,1.144.339,1.63,1.664,1.916,2.822,2.455,9.931,2.24,20.338,1.169,30.512-.161,1.532-.287,3.256.709,4.431a4.426,4.426,0,0,0,2.965,1.312,9.794,9.794,0,0,0,3.9-.371,5.81,5.81,0,0,0,2.26-1.2c1.442-1.325,1.75-3.453,1.916-5.4a208.03,208.03,0,0,0,.273-22.616,99.621,99.621,0,0,0-1.039-14.334,15.23,15.23,0,0,0-1.169-4.109,2.417,2.417,0,0,0-.877-1.1,2.557,2.557,0,0,0-1.428-.224C3271.9,557.1,3263.949,560.328,3261.958,561.141Z" transform="translate(-3232.84 -520.879)" fill="#f4d240"/>
      <path id="Trazado_271858" data-name="Trazado 271858" d="M3323.549,739.329a8.783,8.783,0,0,0,.268-2.329q.2-8.107.044-16.217a30.812,30.812,0,0,0-.6-6.5c-.221-.937-.648-1.981-1.568-2.263A3.049,3.049,0,0,0,3320.4,712a18.626,18.626,0,0,0-2.837.375c2.115,9.52,1.875,19.442.852,29.154a14.528,14.528,0,0,0-.107,1.881,10.377,10.377,0,0,0,1.666-.515A5.97,5.97,0,0,0,3323.549,739.329Z" transform="translate(-3284.795 -661.576)" fill="#697077"/>
      <path id="Trazado_271859" data-name="Trazado 271859" d="M2980.068,547.78a2.71,2.71,0,0,1,1.221.906,2.779,2.779,0,0,1,.259,1.556c-.038,1.356-.321,3.048-1.625,3.421-.52.149-1.083.03-1.609.154-1.161.275-1.719,1.571-2.068,2.712-3,9.781-3.357,20.184-2.847,30.4.077,1.538.107,3.267-.952,4.385a4.426,4.426,0,0,1-3.033,1.147,9.8,9.8,0,0,1-3.874-.586,5.81,5.81,0,0,1-2.19-1.327c-1.367-1.4-1.557-3.544-1.615-5.5a207.937,207.937,0,0,1,.973-22.6,99.646,99.646,0,0,1,1.827-14.255,15.238,15.238,0,0,1,1.393-4.039,2.418,2.418,0,0,1,.937-1.046,2.555,2.555,0,0,1,1.438-.145C2970.365,543.192,2978.125,546.858,2980.068,547.78Z" transform="translate(-2961.687 -508.129)" fill="#f4d240"/>
      <g id="Grupo_878229" data-name="Grupo 878229" transform="translate(35.094 36.193)">
        <path id="Trazado_271860" data-name="Trazado 271860" d="M3353.374,577.812a99.587,99.587,0,0,0-1.039-14.334,15.213,15.213,0,0,0-1.169-4.109,2.416,2.416,0,0,0-.877-1.1,2.213,2.213,0,0,0-1.16-.233,3.41,3.41,0,0,1,.461.742,15.222,15.222,0,0,1,1.169,4.109,99.623,99.623,0,0,1,1.039,14.334,207.968,207.968,0,0,1-.273,22.616c-.166,1.951-.473,4.079-1.915,5.4a5.811,5.811,0,0,1-2.26,1.2,9.8,9.8,0,0,1-3.9.371c-.216-.023-.435-.056-.651-.1a5.351,5.351,0,0,0,2.227.686,9.793,9.793,0,0,0,3.9-.371,5.807,5.807,0,0,0,2.26-1.2c1.442-1.325,1.75-3.453,1.915-5.4A207.968,207.968,0,0,0,3353.374,577.812Z" transform="translate(-3342.799 -558.039)" fill="#e8b73d"/>
      </g>
      <path id="Trazado_271861" data-name="Trazado 271861" d="M3011.793,554.648a2.71,2.71,0,0,0-1.22-.906c-1.573-.746-6.957-3.29-10.046-4.351,3.088,1.219,7.141,3.134,8.47,3.764a2.71,2.71,0,0,1,1.221.906,2.779,2.779,0,0,1,.259,1.556c-.038,1.356-.321,3.048-1.625,3.421-.52.149-1.083.029-1.609.154-1.161.275-1.719,1.571-2.068,2.712-3,9.781-3.357,20.184-2.847,30.4.077,1.538.107,3.267-.952,4.385a4.426,4.426,0,0,1-3.033,1.147,9.8,9.8,0,0,1-3.083-.334,7.905,7.905,0,0,0,.784.335,9.8,9.8,0,0,0,3.874.586,4.426,4.426,0,0,0,3.033-1.147c1.059-1.118,1.029-2.847.952-4.385-.509-10.218-.151-20.62,2.847-30.4.35-1.141.907-2.437,2.068-2.712.526-.125,1.09-.005,1.609-.154,1.3-.373,1.587-2.065,1.626-3.421A2.779,2.779,0,0,0,3011.793,554.648Z" transform="translate(-2992.167 -513.994)" fill="#e8b73d"/>
      <path id="Trazado_271862" data-name="Trazado 271862" d="M3032.877,727.988a8.765,8.765,0,0,1-.139-2.34q.252-8.105.849-16.195a30.8,30.8,0,0,1,.959-6.459c.272-.923.756-1.942,1.69-2.174a3.051,3.051,0,0,1,1.288.056,18.628,18.628,0,0,1,2.812.531c-2.636,9.389-2.943,19.31-2.456,29.062a14.558,14.558,0,0,1,0,1.883,10.384,10.384,0,0,1-1.634-.605A5.967,5.967,0,0,1,3032.877,727.988Z" transform="translate(-3026.181 -651.434)" fill="#697077"/>
      <path id="Trazado_271863" data-name="Trazado 271863" d="M3072.11,703.794c-2.542,9.28-2.833,19.069-2.354,28.694a13.6,13.6,0,0,1-.011,2.039,10.5,10.5,0,0,0,1.553.568,14.558,14.558,0,0,0,0-1.883c-.46-9.234-.209-18.618,2.056-27.559q.068-.273.14-.545l.034-.129q.109-.416.225-.83A8.35,8.35,0,0,0,3072.11,703.794Z" transform="translate(-3059.631 -654.179)" fill="#54595e"/>
      <path id="Trazado_271864" data-name="Trazado 271864" d="M2987.332,564.351a5.25,5.25,0,0,0-.551,1.914q-.676,4.4-1.351,8.8a42.792,42.792,0,0,0-.721,8.051.941.941,0,0,0,.274.761.652.652,0,0,0,.846-.2,1.9,1.9,0,0,0,.3-.9q.872-5.77,1.743-11.54a8.941,8.941,0,0,1,.879-3.144,3.037,3.037,0,0,1,2.639-1.66c.562.031,1.093.272,1.652.33a1.279,1.279,0,0,0,1.4-.685c.2-.623-.375-1.214-.923-1.572C2991.847,563.415,2988.694,562.059,2987.332,564.351Z" transform="translate(-2982.575 -526.442)" fill="#fff" opacity="0.35"/>
      <path id="Trazado_271865" data-name="Trazado 271865" d="M2977.513,808.944q-.093,2.163-.185,4.325a11.568,11.568,0,0,0,.1,2.7c.08.415.333.913.753.868.36-.038.537-.455.608-.81a12.256,12.256,0,0,0,.177-1.761q.14-2.665.28-5.33C2979.349,806.885,2977.6,806.965,2977.513,808.944Z" transform="translate(-2975.858 -748.271)" fill="#fff" opacity="0.35"/>
      <path id="Trazado_271866" data-name="Trazado 271866" d="M3273.1,593.187a2.112,2.112,0,0,0,1.61-.35,14.87,14.87,0,0,1,3.918-1.329,4.064,4.064,0,0,0,1.074-.293,3.328,3.328,0,0,0,.777-.593c.372-.352.765-.846.577-1.323a1.032,1.032,0,0,0-1-.534,6.543,6.543,0,0,0-2.739,1.178c-1.25.638-2.724.655-3.965,1.269C3272.633,591.569,3271.942,592.759,3273.1,593.187Z" transform="translate(-3243.863 -549.741)" fill="#fff" opacity="0.35"/>
      <path id="Trazado_271867" data-name="Trazado 271867" d="M3327.729,701a104.673,104.673,0,0,1,1.657,15,.878.878,0,0,0,1.044-.347,2.4,2.4,0,0,0,.345-1.133,51.172,51.172,0,0,0-.352-11.586,6.514,6.514,0,0,0-.434-2.015C3329.407,699.625,3327.358,698.985,3327.729,701Z" transform="translate(-3293.982 -650.471)" fill="#fff" opacity="0.35"/>
      <path id="Trazado_271868" data-name="Trazado 271868" d="M3184.8,201.561a1.7,1.7,0,0,0,.087,1.528,1.061,1.061,0,0,0,1.424,0,2.482,2.482,0,0,0,.721-1.371,13.611,13.611,0,0,0-.11-5.727,14.626,14.626,0,0,0-1.017-3.459,18.219,18.219,0,0,0-1.881-2.974,19.978,19.978,0,0,0-3.378-3.893c.87.725,1.515,2.39,2.125,3.363a16.451,16.451,0,0,1,2.03,12.528Z" transform="translate(-3160.484 -183.765)" fill="#fff" opacity="0.35"/>
    </g>
  </g>
</svg>
