<svg xmlns="http://www.w3.org/2000/svg" width="94" height="94" viewBox="0 0 94 94">
  <g id="Grupo_882876" data-name="Grupo 882876" transform="translate(-340.5 -497.9)">
    <g id="Grupo_882315" data-name="Grupo 882315" transform="translate(0 2.9)">
      <circle id="_2-vector" data-name="2-vector" cx="47" cy="47" r="47" transform="translate(340.5 495)" fill="#f6f6f6"/>
      <path id="Exclusión_1" data-name="Exclusión 1" d="M-5272.345,11765.447a25.94,25.94,0,0,1-21.05-10.2,21.96,21.96,0,0,1-2.392-4.137,20.557,20.557,0,0,1-1.715-8.2c0-.1,0-.205.009-.291s.009-.193.009-.291c.17-8.854,3.474-17.648,10.1-26.885,6.107-8.538,11.542-13.177,14.238-15.183a1.348,1.348,0,0,1,.808-.269,1.34,1.34,0,0,1,.828.286,71.188,71.188,0,0,1,14.286,15.2,60.745,60.745,0,0,1,7.215,13.038,39.542,39.542,0,0,1,2.851,14.4,21.257,21.257,0,0,1-7.378,15.932A26.586,26.586,0,0,1-5272.345,11765.447Zm15.953-24.658a1.319,1.319,0,0,0-1.26.871c-2.718,6.844-6.656,10.526-13.595,12.711a1.342,1.342,0,0,0-.932,1.531,1.328,1.328,0,0,0,1.342,1.159h.08c8.668,0,15.732-6.592,15.747-14.693v-.221A1.352,1.352,0,0,0-5256.393,11740.789Zm-29.22-21.564c-.066,0-.125.064-.174.191-.313.808-.249,4.281.687,8.45.642,2.86,2.2,8.1,5.388,11.01a10.993,10.993,0,0,0,7.518,2.946,10.1,10.1,0,0,0,3.927-.735,6.54,6.54,0,0,0,2.28-1.993,17.727,17.727,0,0,0,3.648.836.419.419,0,0,0,.063,0c.444,0,.754-.586.8-1.152.034-.451-.1-.959-.591-1.034a12.394,12.394,0,0,1-3.277-.69c.968-4.593-1.558-9.09-4.491-11.51-1.866-1.539-4.15-1.9-6.567-2.289-3.09-.493-6.285-1-9.079-3.962A.187.187,0,0,0-5285.613,11719.225Zm18.143,18.957h0c-4.582-1.376-8.58-4.8-11.128-7.429a.222.222,0,0,1-.053-.251.254.254,0,0,1,.226-.157.234.234,0,0,1,.149.057,35.906,35.906,0,0,0,11.377,6.349,2.2,2.2,0,0,1-.57,1.432Z" transform="translate(5659.832 -11194.25)" fill="#9dca4e"/>
    </g>
  </g>
</svg>
