<svg xmlns="http://www.w3.org/2000/svg" width="94" height="94" viewBox="0 0 94 94">
  <g id="Grupo_882877" data-name="Grupo 882877" transform="translate(-757.5 -494.878)">
    <g id="Grupo_882313" data-name="Grupo 882313" transform="translate(-120 -0.122)">
      <g id="_2-vector" data-name="2-vector" transform="translate(877.5 495)" fill="#f6f6f6" stroke="#fff" stroke-width="1">
        <circle cx="47" cy="47" r="47" stroke="none"/>
        <circle cx="47" cy="47" r="46.5" fill="none"/>
      </g>
      <g id="Grupo_882308" data-name="Grupo 882308" transform="translate(121)">
        <path id="Icon_ionic-ios-leaf" data-name="Icon ionic-ios-leaf" d="M20.68,17.916a8.625,8.625,0,0,1-2.375-.5,8.9,8.9,0,0,0-3.253-8.339C11.991,6.554,7.34,8.388,3.716,4.551c-.844-.9-.354,10.04,4.182,14.184a7.975,7.975,0,0,0,8.292,1.6,4.747,4.747,0,0,0,1.65-1.445,12.511,12.511,0,0,0,2.643.605C21.106,19.574,21.422,18.031,20.68,17.916Zm-3.914.315A20.075,20.075,0,0,1,8.7,12.851a.174.174,0,0,1,.234-.256,25.926,25.926,0,0,0,8.241,4.6A1.59,1.59,0,0,1,16.766,18.232Z" transform="translate(791.466 526.997)" fill="#9dca4d"/>
        <path id="Icon_awesome-recycle" data-name="Icon awesome-recycle" d="M25.191,35.747a2.185,2.185,0,0,1-3.285,2.343l-5.56-3.474L9.4,45.726a4.376,4.376,0,0,0,3.7,6.686h7.1a1.638,1.638,0,0,1,1.638,1.638v5.46A1.638,1.638,0,0,1,20.2,61.147H13.119A13.111,13.111,0,0,1,2.007,41.1L8.944,29.991,3.385,26.518a2.185,2.185,0,0,1,.666-3.98L19.1,19.064A2.184,2.184,0,0,1,21.717,20.7l3.474,15.046ZM38.643,10.781,44.278,19.8l-5.561,3.475a2.185,2.185,0,0,0,.666,3.98L54.43,30.728a2.184,2.184,0,0,0,2.619-1.637l3.474-15.046A2.185,2.185,0,0,0,57.238,11.7l-5.553,3.47L46.052,6.152a13.11,13.11,0,0,0-22.223,0l-2.452,3.926a1.638,1.638,0,0,0,.521,2.257l4.63,2.893a1.638,1.638,0,0,0,2.257-.521l2.451-3.923A4.372,4.372,0,0,1,38.643,10.781ZM67.874,41.1l-3.755-6.014a1.638,1.638,0,0,0-2.257-.522L57.24,37.452a1.638,1.638,0,0,0-.521,2.257l3.762,6.021a4.375,4.375,0,0,1-3.7,6.682h-13.1V45.863a2.185,2.185,0,0,0-3.728-1.544L29.029,55.235a2.184,2.184,0,0,0,0,3.088L39.949,69.241A2.185,2.185,0,0,0,43.676,67.7v-6.55H56.763A13.111,13.111,0,0,0,67.874,41.1Z" transform="translate(767.25 505.75)" fill="#9dca4d"/>
      </g>
    </g>
  </g>
</svg>
