<svg xmlns="http://www.w3.org/2000/svg" width="94" height="88.782" viewBox="0 0 94 88.782">
  <g id="Grupo_882883" data-name="Grupo 882883" transform="translate(-291.999 -6204.236)">
    <g id="Componente_1_5" data-name="Componente 1 – 5" transform="translate(291.999 6204.236)">
      <path id="Trazado_275274" data-name="Trazado 275274" d="M43,0A43,43,0,1,1,0,43,43,43,0,0,1,43,0Z" fill="#9dd2f5"/>
      <path id="Trazado_275275" data-name="Trazado 275275" d="M66.378,65.736c4.806,3.445,12.207,3.607,15-1.252,1.855-3.23-.033-7.638-1.846-10.656A40.852,40.852,0,0,0,66.378,65.736Z" transform="translate(-57.227 -48.366)" fill="#8ab3e8"/>
      <path id="Trazado_275276" data-name="Trazado 275276" d="M408.784,113.73a40.549,40.549,0,0,0-13.765-30.487c-1.654,2.193-2.149,5.7-1.155,10.494,1.991,9.6-10.9,11.639-2.821,21.913,4.216,5.364,11.414,5.393,17.276,4.223a40.933,40.933,0,0,0,.465-6.142Z" transform="translate(-322.783 -71.901)" fill="#8ab3e8"/>
    </g>
    <g id="Grupo_881633" data-name="Grupo 881633" transform="translate(189.869 4891.37)">
      <path id="Trazado_275997" data-name="Trazado 275997" d="M195.739,1514.372a4.613,4.613,0,0,1-4.086,1.777h0c-2.369-.044-5.638-1-10.638-1.777-6.455-1.009-15.315,2.211-22.814,2.867h-.005a18.678,18.678,0,0,1-7.065-.5c-8.215-2.532-24.838,1.677-26.41-5.372h0l-.01-.041c-1.516-7.107,4.98-6.429,9.745-11.336a11.238,11.238,0,0,0,1.408-1.791c3.311-5.189,3.14-13.393,3.14-19.817,0-.213,0-.417,0-.615a12.378,12.378,0,0,1,.623-4.525c1.031-2.592,3.672-4.352,10.2-11.154q1.164-1.213,2.318-2.235c8.7-7.735,16.878-7.748,23.067-7.113l.384.041c14.568,1.574,15.495,20.219,14.366,32.991a99.283,99.283,0,0,1-1.589,11c-.419,2.015.464,4.221,1.767,6.4C192.889,1507.755,197.5,1512.193,195.739,1514.372Z" transform="translate(0 -115.706)" fill="#fbcd7f"/>
      <path id="Trazado_275998" data-name="Trazado 275998" d="M197.054,1515.773c-2.6,3.215-6.064,1.354-14.725,0s-21.656,4.907-29.885,2.369-24.838,1.677-26.41-5.372h0c.883-2.214,3.691-4.536,10.013-6.25-5.558,3.074-4.981,8.8,3.466,6.767s7.8,3.046,26.636-3.214,15.591-26.057,15.591-40.778c0-7.479-2.627-12.259-5.211-15.153l.384.041c20.356,2.2,14.076,37.733,12.777,43.994S199.653,1512.559,197.054,1515.773Z" transform="translate(-1.315 -117.107)" fill="#8e551d" opacity="0.24" style="mix-blend-mode: multiply;isolation: isolate"/>
      <path id="Trazado_275999" data-name="Trazado 275999" d="M214.556,1515.725c-6.715,5.467-1.95,26.111-1.95,26.111s-8.49,3.1-12.948-2.35c3.311-5.189,3.14-13.393,3.14-19.817,0-7.224,1.082-6.142,10.828-16.294q1.164-1.213,2.318-2.235C214.118,1505.81,212.482,1511.977,214.556,1515.725Z" transform="translate(-63.797 -156.992)" fill="#8e551d" opacity="0.24" style="mix-blend-mode: multiply;isolation: isolate"/>
      <path id="Trazado_276000" data-name="Trazado 276000" d="M232.184,1590.807c-6.008,3.492-9.764,3.687-11.754,3.328a12.379,12.379,0,0,1,.623-4.525C224.1,1591.99,232.184,1590.807,232.184,1590.807Z" transform="translate(-81.425 -232.073)" fill="#8e551d" opacity="0.24" style="mix-blend-mode: multiply;isolation: isolate"/>
      <path id="Trazado_276001" data-name="Trazado 276001" d="M380.714,1825.486c-2.369-.043-5.638-1-10.638-1.777-6.455-1.009-15.315,2.211-22.814,2.867a31.154,31.154,0,0,0,7.5-2.729c8.229-4.231,10.179-7.869,16.459-6.6C376.289,1818.27,374.169,1823.1,380.714,1825.486Z" transform="translate(-189.063 -425.042)" fill="#8e551d" opacity="0.24" style="mix-blend-mode: multiply;isolation: isolate"/>
      <path id="Trazado_276002" data-name="Trazado 276002" d="M516.688,1689.806a19.839,19.839,0,0,0-2.57-1.183c-4.656-1.776-5.521-4.822-4.44-8.374.794-2.6,3.683-3.619,6.831-7.84a99.272,99.272,0,0,1-1.589,11C514.5,1685.425,515.385,1687.632,516.688,1689.806Z" transform="translate(-326.545 -302.341)" fill="#8e551d" opacity="0.24" style="mix-blend-mode: multiply;isolation: isolate"/>
      <path id="Trazado_276003" data-name="Trazado 276003" d="M285.139,1670.049a16.77,16.77,0,0,0,15.015.654c8.518-3.587,11.077-20.788,11.077-20.788s2.349,19.458-9.489,23.631S285.139,1670.049,285.139,1670.049Z" transform="translate(-136.341 -283.252)" fill="#8e551d" opacity="0.24" style="mix-blend-mode: multiply;isolation: isolate"/>
      <path id="Trazado_276004" data-name="Trazado 276004" d="M305.557,1672.3c-1.548,2.928,2.942,8.009,9.583,5.415s11.405-9.25,9.1-13.875S308.9,1665.986,305.557,1672.3Z" transform="translate(-153.409 -293.775)" fill="#f7e8a4" opacity="0.72"/>
      <path id="Trazado_276005" data-name="Trazado 276005" d="M304.969,1497.24c-4.47,6.072-3.321,12.828.866,12.828s3.9-9.25,8.232-10.378,12.846-3.333,10.1-6.63S308.434,1492.534,304.969,1497.24Z" transform="translate(-150.746 -148.912)" fill="#f7e8a4" opacity="0.72"/>
      <path id="Trazado_276006" data-name="Trazado 276006" d="M200.116,1790.479c-3.427.246-6.425,3.215-5.594,6.091s6.352-1.184,9.492-.423S209.536,1789.8,200.116,1790.479Z" transform="translate(-59.319 -402.504)" fill="#f7e8a4" opacity="0.72"/>
      <g id="Grupo_881620" data-name="Grupo 881620" transform="translate(148.803 1316.152)">
        <path id="Trazado_276007" data-name="Trazado 276007" d="M299.566,1316.172c-.071.1-1.788,2.4-.686,4.294.552.952,1.145,4.214,1.124,7.54a21.882,21.882,0,0,1-.221,3.079c-.334,2.247-1.084,4.167-2.486,4.942-3.979,2.2-12.066,4.646-12.066,4.646a6.627,6.627,0,0,1,2.315-5.968c2.934-2.307-2.008-8.653.364-10.746l.014-.013c2.373-2.08,5.8-1.416,7.4-3.869.075-.116.153-.228.232-.34A13.522,13.522,0,0,1,299.566,1316.172Z" transform="translate(-285.175 -1316.169)" fill="#bc7e46"/>
        <path id="Trazado_276008" data-name="Trazado 276008" d="M310.967,1339.72c2.179,1.435,3.62,5.268,4.451,8.27a21.881,21.881,0,0,1-.221,3.078c-1.166-.957-3.209-2.648-5.927-4.967a7.965,7.965,0,0,0-5.932-2.173c2.373-2.08,5.8-1.416,7.4-3.869C310.809,1339.944,310.888,1339.832,310.967,1339.72Z" transform="translate(-300.589 -1336.153)" fill="#8e551d" opacity="0.24" style="mix-blend-mode: multiply;isolation: isolate"/>
        <path id="Trazado_276009" data-name="Trazado 276009" d="M285.539,1340.655s6.466-2.223,10.975-.233,11.766,1.886,12.2-3.175-10.746-17.659-8.838-21.1c-3.572,2.989-.54,6.191-1.428,7.5s-4.622-1.284-5.559.8,3.936,6.969,2.049,9.806S287.369,1336.3,285.539,1340.655Z" transform="translate(-285.484 -1316.152)" fill="#fbcd7f"/>
        <path id="Trazado_276010" data-name="Trazado 276010" d="M339.963,1367.874c-.4.663,10,7.238,11.8,11.068-.8-5.077-9.755-9.411-9.146-10.078s2.82.331,2.82.331S340.866,1366.38,339.963,1367.874Z" transform="translate(-331.662 -1359.676)" fill="#8e551d" opacity="0.24" style="mix-blend-mode: multiply;isolation: isolate"/>
        <path id="Trazado_276011" data-name="Trazado 276011" d="M374.888,1332.235c-1.081-.264,1.409,6.584,3.143,8.311C376.432,1336.386,375.883,1332.478,374.888,1332.235Z" transform="translate(-361.088 -1329.795)" fill="#8e551d" opacity="0.24" style="mix-blend-mode: multiply;isolation: isolate"/>
        <path id="Trazado_276012" data-name="Trazado 276012" d="M322.348,1413.675c3.258.677,6.832,1.3,7.2-.7s-5.941-9.2-7.707-9.4,1.809,4.636-1.013,6.317-6.167,1.307-6.408,2.675S318.047,1412.781,322.348,1413.675Z" transform="translate(-309.987 -1390.338)" fill="#f7e8a4" opacity="0.72"/>
      </g>
      <g id="Grupo_881621" data-name="Grupo 881621" transform="translate(162.662 1335.515)">
        <path id="Trazado_276013" data-name="Trazado 276013" d="M386.959,1444.447a8.064,8.064,0,0,1-2.45,4.859c-.068.059-.14.117-.211.173l-.054.042c-2.46,1.873-6.947,1.018-7.138.981-.263-.052-.412-.233-.333-.406a.573.573,0,0,1,.618-.219c.061.011,4.069.766,6.1-.782l.046-.036c.043-.034.085-.069.126-.1a7.626,7.626,0,0,0,2.3-4.551c.017-.179.253-.315.528-.3S386.976,1444.267,386.959,1444.447Z" transform="translate(-376.752 -1444.1)" fill="#9b4a13"/>
        <path id="Trazado_276014" data-name="Trazado 276014" d="M378.369,1483.6c-.142.158.536.4,1.469.3s1.378.246,1.56.115A7.8,7.8,0,0,0,378.369,1483.6Z" transform="translate(-378.108 -1477.576)" fill="#f4c879" opacity="0.39"/>
        <path id="Trazado_276015" data-name="Trazado 276015" d="M397.7,1484.235c-.067.113.87.419,1.177.263S397.846,1484,397.7,1484.235Z" transform="translate(-394.531 -1478.093)" fill="#f4c879" opacity="0.39"/>
        <path id="Trazado_276016" data-name="Trazado 276016" d="M406.108,1483.424a1.475,1.475,0,0,0,1.261.045C407.673,1483.232,406.08,1483.233,406.108,1483.424Z" transform="translate(-401.665 -1477.355)" fill="#f4c879" opacity="0.39"/>
        <path id="Trazado_276017" data-name="Trazado 276017" d="M417.087,1480.708c.032.124.766-.111.79-.256S417.033,1480.5,417.087,1480.708Z" transform="translate(-410.98 -1474.908)" fill="#f4c879" opacity="0.39"/>
        <path id="Trazado_276018" data-name="Trazado 276018" d="M425.723,1444.447a8.064,8.064,0,0,1-2.45,4.859.192.192,0,0,0-.123-.21,1.589,1.589,0,0,0-.721-.141,7.626,7.626,0,0,0,2.3-4.551c.017-.179.253-.315.528-.3S425.741,1444.267,425.723,1444.447Z" transform="translate(-415.516 -1444.1)" fill="#8e551d" opacity="0.24" style="mix-blend-mode: multiply;isolation: isolate"/>
      </g>
      <g id="Grupo_881622" data-name="Grupo 881622" transform="translate(162.837 1341.529)">
        <path id="Trazado_276019" data-name="Trazado 276019" d="M378.781,1494.986a.269.269,0,0,1-.15.014.275.275,0,0,1-.2-.17,6.989,6.989,0,0,1-.353-2.634,7.951,7.951,0,0,1,.546-2.561c1.009-2.575-.656-5.354-.673-5.382a.275.275,0,0,1,.091-.377.266.266,0,0,1,.067-.029.271.271,0,0,1,.31.12c.075.122,1.825,3.035.716,5.868a7.172,7.172,0,0,0-.194,4.8A.275.275,0,0,1,378.781,1494.986Z" transform="translate(-377.907 -1483.836)" fill="#9b4a13"/>
        <path id="Trazado_276020" data-name="Trazado 276020" d="M379.669,1494.986a.269.269,0,0,1-.15.014.275.275,0,0,1-.2-.17,6.99,6.99,0,0,1-.353-2.634c.432.065.5-.81.561-1.445.063-.7.569-2.409.635-3.366s-.578-1.956-.67-2.694a1.111,1.111,0,0,0-.495-.844.271.271,0,0,1,.31.12c.075.122,1.825,3.035.716,5.868a7.172,7.172,0,0,0-.194,4.8A.275.275,0,0,1,379.669,1494.986Z" transform="translate(-378.796 -1483.836)" fill="#8e551d" opacity="0.24" style="mix-blend-mode: multiply;isolation: isolate"/>
        <path id="Trazado_276021" data-name="Trazado 276021" d="M379.775,1486.741c-.158.025.016.551.078.563S380.09,1486.691,379.775,1486.741Z" transform="translate(-379.437 -1486.299)" fill="#f4c879" opacity="0.39"/>
        <path id="Trazado_276022" data-name="Trazado 276022" d="M381.731,1490.537c-.166-.04-.041.631.049.657S381.928,1490.585,381.731,1490.537Z" transform="translate(-381.083 -1489.522)" fill="#f4c879" opacity="0.39"/>
        <path id="Trazado_276023" data-name="Trazado 276023" d="M383.527,1496.034c-.079-.033-.045.424.028.447S383.68,1496.1,383.527,1496.034Z" transform="translate(-382.638 -1494.186)" fill="#f4c879" opacity="0.39"/>
        <path id="Trazado_276024" data-name="Trazado 276024" d="M381.67,1523.374c-.1-.059-.289.43-.21.5S381.77,1523.434,381.67,1523.374Z" transform="translate(-380.906 -1517.386)" fill="#f4c879" opacity="0.39"/>
        <path id="Trazado_276025" data-name="Trazado 276025" d="M380.507,1528.411c-.15-.036-.283.734-.145.769S380.657,1528.447,380.507,1528.411Z" transform="translate(-379.941 -1521.664)" fill="#f4c879" opacity="0.39"/>
      </g>
      <g id="Grupo_881623" data-name="Grupo 881623" transform="translate(159.772 1341.159)">
        <path id="Trazado_276026" data-name="Trazado 276026" d="M357.882,1495.089a.522.522,0,0,0,.233.035.477.477,0,0,0,.357-.187,7.523,7.523,0,0,0,1.1-3.211,7.694,7.694,0,0,0-.335-3.225c-1.06-3.3,2.134-6.535,2.167-6.568a.291.291,0,0,0-.066-.476.447.447,0,0,0-.1-.043.522.522,0,0,0-.513.112c-.143.142-3.5,3.537-2.335,7.162a7.273,7.273,0,0,1-.681,5.945A.3.3,0,0,0,357.882,1495.089Z" transform="translate(-357.655 -1481.389)" fill="#9b4a13"/>
        <path id="Trazado_276027" data-name="Trazado 276027" d="M357.882,1495.089a.522.522,0,0,0,.233.035.477.477,0,0,0,.357-.187,7.523,7.523,0,0,0,1.1-3.211c-.694.03-.628-1.058-.588-1.849.045-.875-.4-3.04-.308-4.229s1.312-2.348,1.609-3.248a1.582,1.582,0,0,1,.953-.985.522.522,0,0,0-.513.112c-.143.142-3.5,3.537-2.335,7.162a7.273,7.273,0,0,1-.681,5.945A.3.3,0,0,0,357.882,1495.089Z" transform="translate(-357.655 -1481.389)" fill="#8e551d" opacity="0.24" style="mix-blend-mode: multiply;isolation: isolate"/>
        <path id="Trazado_276028" data-name="Trazado 276028" d="M377.376,1484.911c.243.049-.139.679-.239.686S376.889,1484.813,377.376,1484.911Z" transform="translate(-374.102 -1484.371)" fill="#f4c879" opacity="0.39"/>
        <path id="Trazado_276029" data-name="Trazado 276029" d="M373.621,1489.4c.269-.031-.065.784-.213.806S373.3,1489.434,373.621,1489.4Z" transform="translate(-370.955 -1488.185)" fill="#f4c879" opacity="0.39"/>
        <path id="Trazado_276030" data-name="Trazado 276030" d="M370.433,1496c.131-.031-.016.529-.136.548S370.18,1496.058,370.433,1496Z" transform="translate(-368.318 -1493.785)" fill="#f4c879" opacity="0.39"/>
        <path id="Trazado_276031" data-name="Trazado 276031" d="M367,1529.854c.167-.062.367.565.228.645S366.827,1529.917,367,1529.854Z" transform="translate(-365.536 -1522.516)" fill="#f4c879" opacity="0.39"/>
        <path id="Trazado_276032" data-name="Trazado 276032" d="M367.527,1536.218c.244-.027.295.939.07.966S367.283,1536.245,367.527,1536.218Z" transform="translate(-365.909 -1527.92)" fill="#f4c879" opacity="0.39"/>
      </g>
      <path id="Trazado_276033" data-name="Trazado 276033" d="M411.633,1489.161a10.308,10.308,0,0,1-1.5,1.777,36.515,36.515,0,0,0-1.875-10.462,8.479,8.479,0,0,0,.867-2.448,12.447,12.447,0,0,1-1.058,1.89,29.681,29.681,0,0,0-4.043-7.841,46.969,46.969,0,0,1,3.5,8.6,17.239,17.239,0,0,1-2.26,2.453,46.016,46.016,0,0,0-2.191-7.524c.6,2.708,1.119,5.363,1.551,8.082-.682.571-.879.7-1.6,1.22-.274.207-.579.37-.865.562-.517.365-1.086.644-1.637.959a34.977,34.977,0,0,0-1.343-4.511q.435,2.41.8,4.81c-.5.241.293-.153-1.471.723-.637.286-1.284.551-1.922.865.691-.136,1.381-.3,2.068-.481.891-.306,1.046-.358,1.417-.492a59.558,59.558,0,0,1,.7,8.737,62.408,62.408,0,0,1-13.584,2.3,40.937,40.937,0,0,0,8.513-.311,32.536,32.536,0,0,0,3.365-.654c.532-.121,1.611-.432,1.686-.456a15.544,15.544,0,0,1-1.574,6.919c1.572-1.858,2.174-4.747,2.338-7.172a24.1,24.1,0,0,0,3.977-1.718,28.935,28.935,0,0,1-.781,6.035,20.206,20.206,0,0,0,1.448-6.414,17.23,17.23,0,0,0,3.374-2.579c.118,2.007.126,4.025.055,6.054a33.033,33.033,0,0,0,.553-6.7A8.749,8.749,0,0,0,411.633,1489.161Zm-10.063,6.662a36.34,36.34,0,0,0-.895-8.726,17.169,17.169,0,0,0,2.36-1.219,11.79,11.79,0,0,0,1.332-.909q.2-.157.4-.321a61.4,61.4,0,0,1,.743,9.519A28.787,28.787,0,0,1,401.569,1495.823Zm4.647-2.035a42.179,42.179,0,0,0-.77-9.731,13.912,13.912,0,0,0,2.281-2.671,49.54,49.54,0,0,1,1.776,10.125A19.02,19.02,0,0,1,406.217,1493.789Z" transform="translate(-222.95 -132.328)" fill="#8e551d" opacity="0.21"/>
      <path id="Trazado_276034" data-name="Trazado 276034" d="M236.287,1645.873a7.9,7.9,0,0,1-1.7-3.388,12.186,12.186,0,0,0,5.073-.034,23.1,23.1,0,0,1-5.176-.513,10.128,10.128,0,0,1,.1-3.469,6.5,6.5,0,0,0-.6,3.348,13.827,13.827,0,0,1-2.449-.878,21.9,21.9,0,0,1,.445-5.395,14.025,14.025,0,0,0-.943,5.145,14.272,14.272,0,0,1-1.419-.873,7.4,7.4,0,0,0,1.427,1.237,9.66,9.66,0,0,0,3.332,7.375,11.735,11.735,0,0,1-2.814-7.057,9.82,9.82,0,0,0,2.488.99,6.2,6.2,0,0,0,1.842,3.51,17.977,17.977,0,0,1-2.429-.222,8.258,8.258,0,0,0,2.956.678,6.135,6.135,0,0,0,.706.473q-.223-.227-.435-.46a15.278,15.278,0,0,0,6.073-1.071A48.01,48.01,0,0,1,236.287,1645.873Z" transform="translate(-89.224 -271.056)" fill="#8e551d" opacity="0.21"/>
    </g>
  </g>
</svg>
