<svg xmlns="http://www.w3.org/2000/svg" width="94" height="94" viewBox="0 0 94 94">
  <g id="Grupo_882878" data-name="Grupo 882878" transform="translate(-1173.5 -498.473)">
    <g id="Grupo_882314" data-name="Grupo 882314" transform="translate(0 3.473)">
      <g id="_2-vector" data-name="2-vector" transform="translate(1173.5 495)" fill="#f6f6f6" stroke="#fff" stroke-width="1">
        <circle cx="47" cy="47" r="47" stroke="none"/>
        <circle cx="47" cy="47" r="46.5" fill="none"/>
      </g>
      <g id="Grupo_882309" data-name="Grupo 882309" transform="translate(111 43.482)">
        <path id="Icon_ionic-ios-leaf" data-name="Icon ionic-ios-leaf" d="M19.405,15.047a9.672,9.672,0,0,1-2.663-.559c.746-3.538-1.071-7.224-3.648-9.352C9.662,2.305,4.446,4.361.382.058c-.947-1-.4,11.259,4.69,15.906a8.943,8.943,0,0,0,9.3,1.8,5.324,5.324,0,0,0,1.85-1.621,14.031,14.031,0,0,0,2.964.679C19.884,16.906,20.237,15.176,19.405,15.047Zm-4.389.354C11.3,14.286,8.07,11.528,5.976,9.367a.2.2,0,0,1,.263-.287,29.074,29.074,0,0,0,9.242,5.159A1.783,1.783,0,0,1,15.016,15.4Z" transform="matrix(0.695, 0.719, -0.719, 0.695, 1116.884, 463.009)" fill="#9dca4e"/>
        <path id="Icon_ionic-ios-leaf-2" data-name="Icon ionic-ios-leaf" d="M18.71,14.507a9.326,9.326,0,0,1-2.568-.539C16.861,10.557,15.11,7,12.625,4.951,9.315,2.223,4.286,4.2.368.056-.544-.912-.014,10.912,4.89,15.392a8.622,8.622,0,0,0,8.966,1.733,5.133,5.133,0,0,0,1.784-1.563,13.528,13.528,0,0,0,2.858.655C19.171,16.3,19.512,14.632,18.71,14.507Zm-4.232.341c-3.582-1.074-6.7-3.734-8.717-5.817a.188.188,0,0,1,.254-.277,28.032,28.032,0,0,0,8.91,4.974A1.719,1.719,0,0,1,14.478,14.848Z" transform="matrix(-0.309, 0.951, -0.951, -0.309, 1145.125, 475.057)" fill="#9dca4e"/>
        <path id="Icon_awesome-simplybuilt" data-name="Icon awesome-simplybuilt" d="M48.887,4.5h-10.8a2.709,2.709,0,0,0-2.71,2.679v4.034H16.5V7.179A2.7,2.7,0,0,0,13.791,4.5H2.992A2.685,2.685,0,0,0,.3,7.179V40.941a2.689,2.689,0,0,0,2.71,2.679H48.9a2.689,2.689,0,0,0,2.71-2.679V7.179A2.718,2.718,0,0,0,48.887,4.5ZM15.125,34.228a6.775,6.775,0,1,1,6.785-6.765,6.767,6.767,0,0,1-6.785,6.765Zm21.639,0a6.775,6.775,0,1,1,6.765-6.785A6.77,6.77,0,0,1,36.764,34.228Z" transform="translate(1077.724 483.138)" fill="#9dca4e"/>
      </g>
    </g>
  </g>
</svg>
