<svg xmlns="http://www.w3.org/2000/svg" width="83.999" height="87.033" viewBox="0 0 83.999 87.033">
  <g id="Grupo_882881" data-name="Grupo 882881" transform="translate(-292 -6104.904)">
    <g id="covid-19" transform="translate(292 6104.904)">
      <path id="Trazado_2359" data-name="Trazado 2359" fill="#ff7186"/>
      <path id="Trazado_2371" data-name="Trazado 2371" d="M18.752,55.072c2.41,2.834,8.1,2.56,11.887-3.283,4.907-7.578,15.85-3.477,22.748-10.375,4.965-4.965,1.837-12.931-.306-17.005A41.5,41.5,0,0,0,18.752,55.072Z" transform="translate(-15.579 -20.279)" fill="#ffdd40"/>
      <path id="Trazado_2372" data-name="Trazado 2372" d="M357.488,368.657c-4.522-.388-11.649-.11-14.289,4.925-3.64,6.942-13.811,8.957-9.237,16.749A41.591,41.591,0,0,0,357.488,368.657Z" transform="translate(-276.486 -306.174)" fill="#ffdd40"/>
      <path id="Trazado_275271" data-name="Trazado 275271" d="M41,0C63.644,0,82,18.58,82,41.5S63.644,83,41,83,0,64.42,0,41.5,18.356,0,41,0Z" transform="translate(1.999 4.033)" fill="#ffc839"/>
      <path id="Trazado_275272" data-name="Trazado 275272" d="M18.752,55.072c2.41,2.834,8.1,2.56,11.887-3.283,4.907-7.578,15.85-3.477,22.748-10.375,4.965-4.965,1.837-12.931-.306-17.005A41.5,41.5,0,0,0,18.752,55.072Z" transform="translate(-15.579 -20.376)" fill="#ffdd40"/>
      <path id="Trazado_275273" data-name="Trazado 275273" d="M357.488,368.657c-4.522-.388-11.649-.11-14.289,4.925-3.64,6.942-13.811,8.957-9.237,16.749A41.591,41.591,0,0,0,357.488,368.657Z" transform="translate(-276.486 -306.271)" fill="#ffdd40"/>
    </g>
    <g id="Grupo_881139" data-name="Grupo 881139" transform="translate(-433.613 6028.439)">
      <path id="Trazado_275450" data-name="Trazado 275450" d="M1122.49,82.456a12.894,12.894,0,0,1-2.051-.226c-.625-.174-1.442-.66-1.824-.486s-1.442,5.457-2,6.326-2.468,4.553-2.364,5.665,1.078,2.12,1.668,2.954,2.433-.243,2.433-.243l.382-2.815a17.927,17.927,0,0,1-.869-5.318c.209-1.877,1.182-5.039,1.634-5.318a10.51,10.51,0,0,1,2.815-.174S1123.985,82.89,1122.49,82.456Z" transform="translate(-331.367 0)" fill="#d1d1d1" fill-rule="evenodd"/>
      <path id="Trazado_275451" data-name="Trazado 275451" d="M1132.515,175.921a10.906,10.906,0,0,0-1.807-4.205,21.37,21.37,0,0,1-2.78-4.032c-.1-.556.625-1.981.695-3.2s.139-2.05.556-1.946,1.078,1.251,1.564,2.085a38.319,38.319,0,0,1,2.328,5.352C1133.522,171.473,1133.8,176.269,1132.515,175.921Z" transform="translate(-343.373 -70.996)" fill="#bdbdbd" fill-rule="evenodd"/>
      <path id="Trazado_275452" data-name="Trazado 275452" d="M1166.13,223.762s1.147,3.059,1.459,3.823,1.425,1.738,1.807,3.093-3.024,2.329-3.024,2.329a8.946,8.946,0,0,1-.8-3.3A14.955,14.955,0,0,0,1166.13,223.762Z" transform="translate(-376.432 -124.78)" fill="#d1d1d1" fill-rule="evenodd"/>
      <path id="Trazado_275453" data-name="Trazado 275453" d="M856.5,453.531s.973,5.144.556,7.438a7.785,7.785,0,0,0,.347,5.213c.765,1.946,2.016,5.456,1.946,6.464a27.7,27.7,0,0,0-.208,2.885c.069.452,3.684-1.008,3.684-1.008S861.817,455.026,856.5,453.531Z" transform="translate(-104.963 -326.607)" fill="#bdbdbd" fill-rule="evenodd"/>
      <path id="Trazado_275454" data-name="Trazado 275454" d="M862.5,465.819a23.719,23.719,0,0,0,.765,4.622c.626,2.12,1.634,4.1,1.495,5.8s-.7,3.441-.1,5.422a11.341,11.341,0,0,0,1.112,3.024c.209.209,2.4-1.494,2.676-2.78S867.087,467.557,862.5,465.819Z" transform="translate(-110.232 -337.4)" fill="#e0e0e0" fill-rule="evenodd"/>
      <path id="Trazado_275455" data-name="Trazado 275455" d="M1182.512,605.048s-1.6,3.2-.765,6.117a37.49,37.49,0,0,1,1.494,6.812c-.035.869-1.495,1.7-3.893,1.912s-7.055-2.468-7.055-2.468,4.692-13.207,6.5-15.292S1182.338,602.2,1182.512,605.048Z" transform="translate(-382.353 -456.402)" fill="#bdbdbd" fill-rule="evenodd"/>
      <path id="Trazado_275456" data-name="Trazado 275456" d="M909.815,574.924a8.786,8.786,0,0,0-.347,2.919c.208.9-.209,1.008-.487,2.05a8.948,8.948,0,0,0,.73,5.109c.834,1.772.938,2.711.626,3.58s-1.217,2.78-2.329,3.058-3.475-2.016-4.692-2.259-1.841.383-2.641.383-2.155-1.529-4.1-2.259a59.509,59.509,0,0,0-7.681-2.537,63.88,63.88,0,0,1-6.569-1.877c-1.043-.313-4.761-2.641-7.159-2.954a23.286,23.286,0,0,0-5.908.139,12.731,12.731,0,0,0-4.657,1.008,3.825,3.825,0,0,1-1.529.626s2.051-4.657,4.761-5.943S899.145,563.455,909.815,574.924Z" transform="translate(-110.734 -428.746)" fill="#d1d1d1" fill-rule="evenodd"/>
      <path id="Trazado_275457" data-name="Trazado 275457" d="M756.19,196.516s1.5-2.4-.521-7.889-3.2-7.437-5.283-13.276-4.1-10.774-5.213-12.3-.834-2.641-.765-4.17a31.855,31.855,0,0,0-1.425-8.028c-.73-2.05-2.224-5.7-3.371-7.02a33.774,33.774,0,0,1-2.453-3.4s1.515-.286,2.036.062.139,1.529.626,2.433,2.19,3.371,3.684,6.256,1.877,5.978,2.328,7.681.834,3.683,1.877,4.587,16.96,11.678,20.3,18.768S767.729,199.4,756.19,196.516Z" transform="translate(-0.135 -51.485)" fill="#d1d1d1" fill-rule="evenodd"/>
      <path id="Trazado_275458" data-name="Trazado 275458" d="M756.055,187.046a8.8,8.8,0,0,1-1.251,2.416c-.531.481-1.008.608-1.112,1.164a5.791,5.791,0,0,1-1.147,2.781c-.73.7-.9,1.494-.208,1.772s3.11-3.806,4.292-4.292a7.131,7.131,0,0,1,4.344.33,41.268,41.268,0,0,0,4.709,2.016c1.043.243,2.4.1,3.371.278s1.321.834,2.572.9,2.642-.834,3.754-.765,8.028,3.962,9.94,3.58a16.541,16.541,0,0,0,4-1.633,22.03,22.03,0,0,0,3.024-1.355c.626-.417,2.016-1.529,3.128-2.155s4.762-2.12,3.719-6.43-18.212-22.452-24.467-25.649-14.666-8.376-14.666-8.376-4.692-4.483-6.534-6.742-4.692-4.936-7.264-8.828a31.939,31.939,0,0,1-3.267-5.839c-.417-.834-.521-.765-1.286-.521s-1.077.66-2.016.765-1.981-.07-2.572.313,1.356.382,2.815,2.12,5.283,5.561,6.256,7.785,1.738,5,2.224,6.325,1.182,2.989.765,3.823a2.774,2.774,0,0,1-1.6,1.147,8.251,8.251,0,0,1,.765,1.947,3.539,3.539,0,0,0,.834,1.877c.521.66,1.842,2.189,2.294,2.711a1.8,1.8,0,0,1,.243,2.051,1.823,1.823,0,0,0-.417,1.494,5.791,5.791,0,0,0,1.112,2.607,6.953,6.953,0,0,0,1.946,1.981c.556.243.382,0,1.216.938a9.01,9.01,0,0,0,3.024,2.19c1.147.521,2.016.521,2.919,1.321s1.147,1.251,1.112,1.7-.9.487-1.321.313-1.043-.347-1.043,0,.348.521,1.078.834.938.035.938.348-.313.382.278.73a13.726,13.726,0,0,1,1.634.938c.66.487,1.529.9,1.773,1.772s-.487.8-1.147.834-2.85-.417-3.163-.347,2.607,2.155,2.12,2.572a5.95,5.95,0,0,1-2.294.7c-.8.174-1.217-.035-1.773.973S759.218,186.455,756.055,187.046Z" transform="translate(0 -42.015)" fill="#efefef" fill-rule="evenodd"/>
      <path id="Trazado_275459" data-name="Trazado 275459" d="M982.432,370.9s2.328,1.842,3.406,2.746,1.564.834,1.425,1.321-2.294-.487-3.232-.869-3.023-1.738-3.58-1.668-.66,1.286.452,2.4a8.048,8.048,0,0,0,2.885,1.842,68.745,68.745,0,0,1,7.646,5.387c2.224,1.807,5.248,3.962,6.047,4.935s.313,2.12.452,3.371a4.705,4.705,0,0,0,3.093,3.475,20.985,20.985,0,0,0,6.326,1.147,4.977,4.977,0,0,1,3.236,1.044c.738.568,1.03,2.124,1.729,2.834s1.325,1.371,1.325,1.371.069-2.955.626-3.719,1.112-3.128,1.564-4.727,1.286-5.283,2.155-6.916-.243-3.754-1.008-5.561a24.959,24.959,0,0,1-1.286-4.761c-.139-.7-2.328-5-6.29-5.908S984.778,367.763,982.432,370.9Z" transform="translate(-213.483 -251.592)" fill="#e0e0e0" fill-rule="evenodd"/>
      <path id="Trazado_275460" data-name="Trazado 275460" d="M1099.351,437.35c.191-.683.373-1.382.541-1.975.452-1.6,1.286-5.283,2.155-6.916s-.243-3.754-1.008-5.561a24.976,24.976,0,0,1-1.286-4.761,2.251,2.251,0,0,0-.136-.389,27.622,27.622,0,0,1-6.787.951c0,5.846-10.512,4.2-14.286,3.355-8.425-1.884,4.7,2.3,6.2,3.308,2.575,1.723,11.738,4.363,3.355,4.363C1083.925,429.723,1092.177,433.978,1099.351,437.35Z" transform="translate(-297.544 -295.175)" fill="#efefef" fill-rule="evenodd"/>
      <path id="Trazado_275461" data-name="Trazado 275461" d="M870.544,253.055s3.123,4.292,4.583,5.96.7,2.259.07,2.537.243.938,1.043,1.772a14.09,14.09,0,0,0,4.136,2.781,8.531,8.531,0,0,1,3.371,2.016c.834.9,1.077,1.877,1.6,2.294a14.466,14.466,0,0,0,2.985,1.072,19.475,19.475,0,0,0,3.549.77c1.355.209,2.433-.208,4.31-.035s2.989.9,4.31.8a56.4,56.4,0,0,1,6.151-.556c2.259.035,2.989.348,3.858.313a3.745,3.745,0,0,0,1.981-.869,3.314,3.314,0,0,1,2.572-1.182c1.946-.174,4.448,2.746,4.448,2.746a27.186,27.186,0,0,1-1.6-4.657c-.278-1.668-.626-3.614-.626-3.614l-19.219-1.981L884.3,259.258s-7.4-1.286-8.932-2.085A33.59,33.59,0,0,1,870.544,253.055Z" transform="translate(-117.299 -150.511)" fill="#f9f9f9" fill-rule="evenodd"/>
      <path id="Trazado_275462" data-name="Trazado 275462" d="M979.7,560.527c.243-.487-1.355-1.564-1.077-1.946s2.19-.069,2.815.313a16.046,16.046,0,0,0,2.259,1.529,14.717,14.717,0,0,0,2.607.556c.591.1.035-.556,1.738.139s3.58,1.495,3.893,2.155-1.529.1-2.051,0-4.727-1.529-5.422-1.46-2.919,1.355-4.344,1.738a27.038,27.038,0,0,1-5.978.591c-1.738-.035-2.66-.364-2.781-.765s3.615-.174,3.788-.452-1.46-1.772-.869-2.12S979.286,561.952,979.7,560.527Z" transform="translate(-205.853 -418.729)" fill="#f9f9f9" fill-rule="evenodd"/>
      <path id="Trazado_275463" data-name="Trazado 275463" d="M986.692,114.265a36.705,36.705,0,0,0,6.167,4.308,34.8,34.8,0,0,0,9.976,3.438,22.862,22.862,0,0,1,5.525,1.289,13.431,13.431,0,0,0,4,1.043c1.077,0,4.684-.2,5.908-1.7a3.5,3.5,0,0,0,1.043-2.537s-1.008-5.318-.487-7.959,1.46-6.43,1.008-9.627-2.016-8.48-3.2-10.322-1.6-3.267-2.259-3.58a28.452,28.452,0,0,0-3.927-.746l-.174.365a3.523,3.523,0,0,1,2.015.9c.765.8,1.078,2.294,2.155,3.51s1.251,3.406,1.529,4.483a19.894,19.894,0,0,1-.069,5.352c-.209,1.6-2.059,6.655-3.058,7.229a19.851,19.851,0,0,0-2.746,1.633,37.642,37.642,0,0,0-3.406,2.711c-.9.9-2.607.834-3.51,1.251a4.778,4.778,0,0,1-2.224.66c-.834,0-1.39-.382-2.085-.382a18.882,18.882,0,0,1-2.78-.035c-.938-.139-1.39-.66-2.537-.556a10.7,10.7,0,0,1-2.4-.208C990.461,114.75,987.75,114.3,986.692,114.265Z" transform="translate(-219.322 -5.412)" fill="#efefef" fill-rule="evenodd"/>
      <path id="Trazado_275464" data-name="Trazado 275464" d="M1059.327,161.265s5.118,1.1,7.415.551a39.529,39.529,0,0,0,6.615-2.205c1.286-.643,1.13-1.389,2.494-2.991s4.3-4.542,4.672-6.1-.459-12.036-.459-12.036a85.041,85.041,0,0,1,2.021,9.1,13.762,13.762,0,0,1-1.562,7.9c-1.1,2.3-3.307,2.94-3.951,6.156s3.7,1.426,2.021,3.216-8.177-.459-10.382-.459S1059.327,161.265,1059.327,161.265Z" transform="translate(-283.124 -49.869)" fill="#fff" fill-rule="evenodd"/>
    </g>
  </g>
</svg>
