<svg xmlns="http://www.w3.org/2000/svg" xmlns:xlink="http://www.w3.org/1999/xlink" width="95.234" height="84.538" viewBox="0 0 95.234 84.538">
  <defs>
    <linearGradient id="linear-gradient" x1="-5.863" y1="8.023" x2="-5.563" y2="7.235" gradientUnits="objectBoundingBox">
      <stop offset="0" stop-color="#cdccad"/>
      <stop offset="0.35" stop-color="#d6d6b5"/>
      <stop offset="0.944" stop-color="#f0f1cb"/>
      <stop offset="1" stop-color="#f3f4ce"/>
    </linearGradient>
    <linearGradient id="linear-gradient-2" x1="-9.136" y1="9.217" x2="-8.402" y2="9.357" gradientUnits="objectBoundingBox">
      <stop offset="0" stop-color="#eeebe2"/>
      <stop offset="1" stop-color="#dccda9"/>
    </linearGradient>
    <linearGradient id="linear-gradient-3" x1="-18.207" y1="12.614" x2="-18.207" y2="11.637" gradientUnits="objectBoundingBox">
      <stop offset="0" stop-color="#90a8bb"/>
      <stop offset="0.201" stop-color="#8ca4b6"/>
      <stop offset="0.41" stop-color="#8399aa"/>
      <stop offset="0.622" stop-color="#738795"/>
      <stop offset="0.835" stop-color="#5d6f78"/>
      <stop offset="1" stop-color="#48575d"/>
    </linearGradient>
    <linearGradient id="linear-gradient-4" x1="-9.279" y1="15.075" x2="-9.03" y2="14.243" gradientUnits="objectBoundingBox">
      <stop offset="0" stop-color="#f3f4ce"/>
      <stop offset="0.629" stop-color="#d9d9b8"/>
      <stop offset="1" stop-color="#d0cfb0"/>
    </linearGradient>
  </defs>
  <g id="Grupo_882882" data-name="Grupo 882882" transform="translate(-817.456 -6108.937)">
    <path id="Trazado_2371" data-name="Trazado 2371" d="M18.752,55.072c2.41,2.834,8.1,2.56,11.887-3.283,4.907-7.578,15.85-3.477,22.748-10.375,4.965-4.965,1.837-12.931-.306-17.005A41.5,41.5,0,0,0,18.752,55.072Z" transform="translate(799.878 6084.625)" fill="#ffdd40"/>
    <path id="Trazado_2372" data-name="Trazado 2372" d="M357.488,368.657c-4.522-.388-11.649-.11-14.289,4.925-3.64,6.942-13.811,8.957-9.237,16.749A41.591,41.591,0,0,0,357.488,368.657Z" transform="translate(538.971 5798.73)" fill="#ffdd40"/>
    <path id="Trazado_275271" data-name="Trazado 275271" d="M41,0C63.644,0,82,18.58,82,41.5S63.644,83,41,83,0,64.42,0,41.5,18.356,0,41,0Z" transform="translate(817.456 6108.937)" fill="#ffc839"/>
    <path id="Trazado_275272" data-name="Trazado 275272" d="M18.752,55.072c2.41,2.834,8.1,2.56,11.887-3.283,4.907-7.578,15.85-3.477,22.748-10.375,4.965-4.965,1.837-12.931-.306-17.005A41.5,41.5,0,0,0,18.752,55.072Z" transform="translate(799.878 6084.528)" fill="#ffdd40"/>
    <path id="Trazado_275273" data-name="Trazado 275273" d="M357.488,368.657c-4.522-.388-11.649-.11-14.289,4.925-3.64,6.942-13.811,8.957-9.237,16.749A41.591,41.591,0,0,0,357.488,368.657Z" transform="translate(538.971 5798.633)" fill="#ffdd40"/>
    <g id="Grupo_881482" data-name="Grupo 881482" transform="translate(710.378 5989.351)">
      <path id="Trazado_275825" data-name="Trazado 275825" d="M197.413,193.492l-18.359,10.531c-5.534.961-17-4.921-24.295-17.921s-7.953-26.489-1.467-30.129l17.7-9.557c6.485-3.64,17.658,3.947,24.954,16.947S203.9,189.852,197.413,193.492Z" fill="url(#linear-gradient)"/>
      <path id="Trazado_275826" data-name="Trazado 275826" d="M195.946,163.363c-7.3-13-18.469-20.587-24.954-16.947s-5.829,17.129,1.467,30.129,19.476,19.3,24.954,16.947C204.245,190.552,203.242,176.363,195.946,163.363Z" fill="url(#linear-gradient-2)"/>
      <ellipse id="Elipse_5952" data-name="Elipse 5952" cx="8.787" cy="18.363" rx="8.787" ry="18.363" transform="translate(169.013 157.421) rotate(-29.303)" fill="url(#linear-gradient-3)"/>
      <g id="Grupo_881481" data-name="Grupo 881481">
        <g id="Grupo_881480" data-name="Grupo 881480">
          <path id="Trazado_275827" data-name="Trazado 275827" d="M193.65,164.652a31.233,31.233,0,0,1,4.157,12.74c.26,3.987-.8,6.856-2.975,8.079a4.681,4.681,0,0,1-1.07.437c-4.542,1.238-11.458-4.046-16.086-12.292-5.056-9.008-5.586-18.348-1.182-20.82a4.734,4.734,0,0,1,1.069-.436C182.106,151.121,189.022,156.406,193.65,164.652Zm.818,20.171c1.916-1.075,2.838-3.7,2.6-7.383A30.486,30.486,0,0,0,193,165.015c-4.466-7.957-11.019-13.09-15.242-11.938a3.948,3.948,0,0,0-.9.368c-4.047,2.271-3.389,11.156,1.467,19.807,4.465,7.958,11.018,13.09,15.242,11.939A3.948,3.948,0,0,0,194.468,184.823Z" fill="#928f70"/>
        </g>
      </g>
      <path id="Trazado_275828" data-name="Trazado 275828" d="M194.688,164.069c5.395,9.612,5.735,19.7.759,22.5a5.571,5.571,0,0,1-1.262.516c-5.1,1.39-12.645-4.147-17.547-12.883a31.547,31.547,0,0,1-4.283-13.752c-.159-4.275,1.093-7.382,3.524-8.746a5.594,5.594,0,0,1,1.262-.515C182.242,149.795,189.786,155.334,194.688,164.069Zm.577,22.174c4.8-2.693,4.394-12.559-.9-21.992-4.821-8.591-12.184-14.054-17.125-12.707a5.234,5.234,0,0,0-1.178.481c-2.3,1.293-3.488,4.279-3.334,8.408a31.188,31.188,0,0,0,4.235,13.585c4.821,8.59,12.183,14.052,17.125,12.705A5.25,5.25,0,0,0,195.265,186.243Z" fill="#394855" style="mix-blend-mode: soft-light;isolation: isolate"/>
      <path id="Trazado_275829" data-name="Trazado 275829" d="M195.431,163.652a35.84,35.84,0,0,1,4.866,15.634c.18,4.853-1.24,8.378-4,9.926a6.329,6.329,0,0,1-1.431.585c-5.794,1.579-14.364-4.715-19.935-14.641a35.841,35.841,0,0,1-4.866-15.634c-.18-4.852,1.24-8.378,4-9.926a6.337,6.337,0,0,1,1.432-.585C181.29,147.432,189.86,153.726,195.431,163.652Zm.686,25.236c2.631-1.476,3.984-4.881,3.809-9.589a35.5,35.5,0,0,0-4.818-15.465c-5.491-9.782-13.879-16-19.513-14.464a5.955,5.955,0,0,0-1.348.55c-2.631,1.476-3.983,4.882-3.808,9.589a35.474,35.474,0,0,0,4.818,15.465c5.49,9.782,13.879,16,19.513,14.464A5.967,5.967,0,0,0,196.117,188.888Z" fill="#394855" style="mix-blend-mode: soft-light;isolation: isolate"/>
      <path id="Trazado_275830" data-name="Trazado 275830" d="M166.831,160.742h0a58.263,58.263,0,0,0-4.053-9.891l8.216-4.436C167.217,148.534,165.867,153.991,166.831,160.742Z" fill="#bbbd96"/>
      <path id="Trazado_275831" data-name="Trazado 275831" d="M148.99,169.2s-1.89-8.54-5.948-13.65c-3.4-4.279-9.663-8.071-9.663-8.071L149.2,136.1a39.6,39.6,0,0,1,10.22,9.466c4.834,6.193,7.409,15.175,7.409,15.175Z" fill="url(#linear-gradient-4)"/>
    </g>
  </g>
</svg>
