<svg xmlns="http://www.w3.org/2000/svg" width="663" height="231" viewBox="0 0 663 231">
  <g id="Grupo_882878" data-name="Grupo 882878" transform="translate(-446.5 -3397.315)">
    <path id="Trazado_298405" data-name="Trazado 298405" d="M0,0H663V220H0Z" transform="translate(446.5 3408.315)" fill="#e8e8e8"/>
    <g id="Trazado_298406" data-name="Trazado 298406" transform="translate(446.5 3397.315)" fill="#fff">
      <path d="M 651.5 221.5 L 0.5 221.5 L 0.5 0.5 L 651.5 0.5 L 651.5 221.5 Z" stroke="none"/>
      <path d="M 1 1 L 1 221 L 651 221 L 651 1 L 1 1 M 0 0 L 652 0 L 652 222 L 0 222 L 0 0 Z" stroke="none" fill="#afafaf"/>
    </g>
    <g id="Grupo_877282" data-name="Grupo 877282" transform="translate(447.096 3424.139)">
      <line id="Línea_165" data-name="Línea 165" x2="650.205" fill="none" stroke="#707070" stroke-width="1"/>
      <line id="Línea_166" data-name="Línea 166" x2="650.205" transform="translate(0 23.843)" fill="none" stroke="#707070" stroke-width="1"/>
      <line id="Línea_167" data-name="Línea 167" x2="650.205" transform="translate(0 50.071)" fill="none" stroke="#707070" stroke-width="1"/>
      <line id="Línea_168" data-name="Línea 168" x2="650.205" transform="translate(0 100.141)" fill="none" stroke="#707070" stroke-width="1"/>
      <line id="Línea_169" data-name="Línea 169" x2="650.205" transform="translate(0 170.478)" fill="none" stroke="#707070" stroke-width="1"/>
      <line id="Línea_170" data-name="Línea 170" y2="94.18" transform="translate(79.874 100.141)" fill="none" stroke="#707070" stroke-width="1"/>
      <line id="Línea_171" data-name="Línea 171" y2="94.18" transform="translate(218.716 100.141)" fill="none" stroke="#707070" stroke-width="1"/>
      <line id="Línea_172" data-name="Línea 172" y2="94.18" transform="translate(381.565 100.141)" fill="none" stroke="#707070" stroke-width="1"/>
      <line id="Línea_173" data-name="Línea 173" y2="94.18" transform="translate(483.791 100.141)" fill="none" stroke="#707070" stroke-width="1"/>
    </g>
    <path id="Trazado_298407" data-name="Trazado 298407" d="M11.5-4.286A4.97,4.97,0,0,1,9.922-.979,5.184,5.184,0,0,1,6.383.186,4.76,4.76,0,0,1,2.547-1.531,6.905,6.905,0,0,1,1.1-6.123v-1.3a7.7,7.7,0,0,1,.673-3.312,5.024,5.024,0,0,1,1.906-2.194,5.308,5.308,0,0,1,2.857-.765,4.881,4.881,0,0,1,3.451,1.2A5.029,5.029,0,0,1,11.5-9.166H9.713a3.881,3.881,0,0,0-1.007-2.345,3.046,3.046,0,0,0-2.166-.726,3.187,3.187,0,0,0-2.677,1.263,5.8,5.8,0,0,0-.969,3.593v1.309a5.959,5.959,0,0,0,.918,3.5,2.968,2.968,0,0,0,2.57,1.3A3.428,3.428,0,0,0,8.66-1.944,3.733,3.733,0,0,0,9.713-4.286Zm1.707-.826a5.929,5.929,0,0,1,.58-2.653,4.325,4.325,0,0,1,1.614-1.818,4.394,4.394,0,0,1,2.361-.64A4.233,4.233,0,0,1,21.083-8.8a5.461,5.461,0,0,1,1.266,3.776v.121a5.981,5.981,0,0,1-.561,2.63,4.262,4.262,0,0,1-1.6,1.814,4.445,4.445,0,0,1-2.4.649,4.223,4.223,0,0,1-3.307-1.419,5.433,5.433,0,0,1-1.266-3.757Zm1.726.2a4.294,4.294,0,0,0,.775,2.681,2.479,2.479,0,0,0,2.073,1.011A2.464,2.464,0,0,0,19.863-2.24a4.7,4.7,0,0,0,.77-2.871,4.287,4.287,0,0,0-.784-2.677,2.492,2.492,0,0,0-2.083-1.025A2.465,2.465,0,0,0,15.716-7.8,4.661,4.661,0,0,0,14.937-4.908Zm9.11-.2a5.929,5.929,0,0,1,.58-2.653,4.326,4.326,0,0,1,1.614-1.818,4.394,4.394,0,0,1,2.361-.64A4.233,4.233,0,0,1,31.919-8.8a5.461,5.461,0,0,1,1.266,3.776v.121a5.981,5.981,0,0,1-.561,2.63,4.262,4.262,0,0,1-1.6,1.814,4.445,4.445,0,0,1-2.4.649,4.223,4.223,0,0,1-3.307-1.419,5.433,5.433,0,0,1-1.266-3.757Zm1.726.2a4.294,4.294,0,0,0,.775,2.681,2.479,2.479,0,0,0,2.073,1.011A2.464,2.464,0,0,0,30.7-2.24a4.7,4.7,0,0,0,.77-2.871,4.287,4.287,0,0,0-.784-2.677A2.492,2.492,0,0,0,28.6-8.813,2.465,2.465,0,0,0,26.552-7.8,4.661,4.661,0,0,0,25.772-4.908ZM40.189-8.5a5.143,5.143,0,0,0-.844-.065,2.262,2.262,0,0,0-2.292,1.438V0H35.337V-10.038h1.67l.028,1.16a2.672,2.672,0,0,1,2.394-1.345,1.753,1.753,0,0,1,.761.13Zm1.16,3.4a5.88,5.88,0,0,1,1.095-3.716,3.462,3.462,0,0,1,2.867-1.406A3.481,3.481,0,0,1,48.1-9.018V-14.25h1.716V0H48.242l-.083-1.076A3.5,3.5,0,0,1,45.292.186a3.429,3.429,0,0,1-2.844-1.429,5.947,5.947,0,0,1-1.1-3.729Zm1.716.195a4.452,4.452,0,0,0,.705,2.672,2.279,2.279,0,0,0,1.948.965A2.5,2.5,0,0,0,48.1-2.737V-7.348a2.523,2.523,0,0,0-2.366-1.419,2.29,2.29,0,0,0-1.967.974A4.9,4.9,0,0,0,43.065-4.908ZM56.647.186a4.386,4.386,0,0,1-3.321-1.341,4.976,4.976,0,0,1-1.28-3.586v-.315a6.024,6.024,0,0,1,.571-2.667,4.451,4.451,0,0,1,1.6-1.837,4.012,4.012,0,0,1,2.222-.663,3.759,3.759,0,0,1,3.043,1.29,5.583,5.583,0,0,1,1.085,3.692v.714h-6.8a3.568,3.568,0,0,0,.867,2.4,2.727,2.727,0,0,0,2.111.914,2.989,2.989,0,0,0,1.54-.371,3.869,3.869,0,0,0,1.1-.983l1.048.816A4.215,4.215,0,0,1,56.647.186Zm-.213-9a2.289,2.289,0,0,0-1.744.756,3.675,3.675,0,0,0-.872,2.12h5.028v-.13a3.269,3.269,0,0,0-.705-2.027A2.155,2.155,0,0,0,56.434-8.813Zm7.737-1.225.056,1.262a3.658,3.658,0,0,1,3.006-1.447q3.182,0,3.21,3.59V0H68.727V-6.643a2.311,2.311,0,0,0-.5-1.6,1.989,1.989,0,0,0-1.517-.52,2.477,2.477,0,0,0-1.466.445,3.024,3.024,0,0,0-.983,1.169V0H62.548V-10.038ZM79.229,0a3.605,3.605,0,0,1-.241-1.058A3.829,3.829,0,0,1,76.13.186a3.543,3.543,0,0,1-2.435-.84,2.716,2.716,0,0,1-.951-2.129,2.838,2.838,0,0,1,1.192-2.435,5.621,5.621,0,0,1,3.354-.867h1.67v-.789a1.928,1.928,0,0,0-.538-1.433,2.163,2.163,0,0,0-1.586-.533,2.5,2.5,0,0,0-1.54.464,1.367,1.367,0,0,0-.622,1.123H72.948a2.369,2.369,0,0,1,.533-1.452,3.641,3.641,0,0,1,1.447-1.109,4.869,4.869,0,0,1,2.009-.408,3.968,3.968,0,0,1,2.718.867,3.129,3.129,0,0,1,1.021,2.389v4.62a5.649,5.649,0,0,0,.353,2.2V0ZM76.38-1.308a3.016,3.016,0,0,0,1.531-.417,2.525,2.525,0,0,0,1.048-1.085v-2.06H77.614q-3.154,0-3.154,1.846A1.562,1.562,0,0,0,75-1.763,2.068,2.068,0,0,0,76.38-1.308ZM82.949-5.1a5.88,5.88,0,0,1,1.095-3.716,3.462,3.462,0,0,1,2.867-1.406A3.481,3.481,0,0,1,89.7-9.018V-14.25h1.716V0H89.842l-.083-1.076A3.5,3.5,0,0,1,86.892.186a3.429,3.429,0,0,1-2.844-1.429,5.947,5.947,0,0,1-1.1-3.729Zm1.716.195a4.452,4.452,0,0,0,.705,2.672,2.279,2.279,0,0,0,1.948.965A2.5,2.5,0,0,0,89.7-2.737V-7.348a2.523,2.523,0,0,0-2.366-1.419,2.29,2.29,0,0,0-1.967.974A4.9,4.9,0,0,0,84.665-4.908ZM100.279,0a3.605,3.605,0,0,1-.241-1.058A3.829,3.829,0,0,1,97.18.186a3.543,3.543,0,0,1-2.435-.84,2.716,2.716,0,0,1-.951-2.129,2.838,2.838,0,0,1,1.192-2.435,5.621,5.621,0,0,1,3.354-.867h1.67v-.789a1.928,1.928,0,0,0-.538-1.433,2.163,2.163,0,0,0-1.586-.533,2.5,2.5,0,0,0-1.54.464,1.367,1.367,0,0,0-.622,1.123H94a2.369,2.369,0,0,1,.533-1.452,3.641,3.641,0,0,1,1.447-1.109,4.869,4.869,0,0,1,2.009-.408,3.968,3.968,0,0,1,2.718.867,3.129,3.129,0,0,1,1.021,2.389v4.62a5.649,5.649,0,0,0,.353,2.2V0ZM97.431-1.308a3.016,3.016,0,0,0,1.531-.417,2.525,2.525,0,0,0,1.048-1.085v-2.06H98.665q-3.154,0-3.154,1.846a1.562,1.562,0,0,0,.538,1.262A2.068,2.068,0,0,0,97.431-1.308Zm12.831-1.354a1.263,1.263,0,0,0-.524-1.081,5.045,5.045,0,0,0-1.828-.663,8.641,8.641,0,0,1-2.069-.668A2.943,2.943,0,0,1,104.709-6a2.219,2.219,0,0,1-.366-1.28,2.6,2.6,0,0,1,1.044-2.087,4.076,4.076,0,0,1,2.667-.854,4.194,4.194,0,0,1,2.769.881,2.8,2.8,0,0,1,1.062,2.254h-1.726a1.549,1.549,0,0,0-.6-1.215,2.242,2.242,0,0,0-1.508-.51,2.347,2.347,0,0,0-1.466.408,1.285,1.285,0,0,0-.529,1.067,1.041,1.041,0,0,0,.492.937,6.05,6.05,0,0,0,1.777.6,9.257,9.257,0,0,1,2.083.687,3.038,3.038,0,0,1,1.183.96,2.361,2.361,0,0,1,.385,1.368A2.569,2.569,0,0,1,110.9-.626a4.514,4.514,0,0,1-2.792.812,5.055,5.055,0,0,1-2.134-.427,3.47,3.47,0,0,1-1.452-1.192A2.873,2.873,0,0,1,104-3.089h1.716a1.777,1.777,0,0,0,.691,1.368,2.681,2.681,0,0,0,1.7.506,2.768,2.768,0,0,0,1.563-.394A1.212,1.212,0,0,0,110.261-2.663ZM128.7-13.508v9.185a4.308,4.308,0,0,1-1.2,3.126A4.841,4.841,0,0,1,124.261.167l-.473.019a5.056,5.056,0,0,1-3.535-1.2A4.28,4.28,0,0,1,118.917-4.3v-9.2h1.763V-4.36a3.09,3.09,0,0,0,.807,2.278,3.1,3.1,0,0,0,2.3.812,3.123,3.123,0,0,0,2.315-.807,3.084,3.084,0,0,0,.8-2.273v-9.157Zm12.144,1.457H136.5V0h-1.772V-12.051h-4.333v-1.457h10.446Zm4.3-1.457L149.56-2.486l4.416-11.021h2.31V0H154.5V-5.26l.167-5.678L150.237,0h-1.364l-4.425-10.91.176,5.65V0h-1.781V-13.508Z" transform="translate(453.5 3417.315)" fill="#636363"/>
    <path id="Trazado_298408" data-name="Trazado 298408" d="M3.358-1.457h6.4V0H1.568V-13.508H3.358Zm13.953.464A3.646,3.646,0,0,1,14.371.186a3.12,3.12,0,0,1-2.445-.932,4.036,4.036,0,0,1-.849-2.76v-6.531h1.716v6.485q0,2.282,1.855,2.282a2.569,2.569,0,0,0,2.616-1.466v-7.3h1.716V0H17.349ZM21.18-5.1a5.9,5.9,0,0,1,1.085-3.734,3.471,3.471,0,0,1,2.876-1.387,3.453,3.453,0,0,1,2.867,1.3l.083-1.113H29.66v9.8A4.084,4.084,0,0,1,28.5,2.83a4.262,4.262,0,0,1-3.1,1.123,5.163,5.163,0,0,1-2.125-.464A3.657,3.657,0,0,1,21.69,2.217l.891-1.03a3.356,3.356,0,0,0,2.7,1.364,2.63,2.63,0,0,0,1.953-.705,2.7,2.7,0,0,0,.7-1.985V-1A3.528,3.528,0,0,1,25.123.186,3.429,3.429,0,0,1,22.27-1.234,6.2,6.2,0,0,1,21.18-5.1Zm1.726.195a4.5,4.5,0,0,0,.7,2.667,2.261,2.261,0,0,0,1.948.969,2.514,2.514,0,0,0,2.384-1.475V-7.329a2.543,2.543,0,0,0-2.366-1.438,2.281,2.281,0,0,0-1.958.974A4.9,4.9,0,0,0,22.906-4.908ZM38.445,0A3.605,3.605,0,0,1,38.2-1.058,3.829,3.829,0,0,1,35.347.186a3.543,3.543,0,0,1-2.435-.84,2.716,2.716,0,0,1-.951-2.129,2.838,2.838,0,0,1,1.192-2.435,5.621,5.621,0,0,1,3.354-.867h1.67v-.789a1.928,1.928,0,0,0-.538-1.433,2.163,2.163,0,0,0-1.586-.533,2.5,2.5,0,0,0-1.54.464,1.367,1.367,0,0,0-.622,1.123H32.165A2.369,2.369,0,0,1,32.7-8.707a3.641,3.641,0,0,1,1.447-1.109,4.869,4.869,0,0,1,2.009-.408,3.968,3.968,0,0,1,2.718.867,3.129,3.129,0,0,1,1.021,2.389v4.62a5.649,5.649,0,0,0,.353,2.2V0ZM35.6-1.308a3.016,3.016,0,0,0,1.531-.417,2.525,2.525,0,0,0,1.048-1.085v-2.06H36.831q-3.154,0-3.154,1.846a1.562,1.562,0,0,0,.538,1.262A2.068,2.068,0,0,0,35.6-1.308ZM47.435-8.5a5.143,5.143,0,0,0-.844-.065A2.262,2.262,0,0,0,44.3-7.125V0H42.583V-10.038h1.67l.028,1.16a2.672,2.672,0,0,1,2.394-1.345,1.753,1.753,0,0,1,.761.13Z" transform="translate(829.5 3417.315)" fill="#636363"/>
    <path id="Trazado_298409" data-name="Trazado 298409" d="M3.349-5.288V0H1.568V-13.508H6.55a5.005,5.005,0,0,1,3.474,1.132,3.837,3.837,0,0,1,1.257,3A3.786,3.786,0,0,1,10.052-6.35,5.229,5.229,0,0,1,6.531-5.288Zm0-1.457h3.2a3.2,3.2,0,0,0,2.189-.674A2.464,2.464,0,0,0,9.5-9.365,2.545,2.545,0,0,0,8.739-11.3a3,3,0,0,0-2.087-.753h-3.3ZM19.38,0a3.605,3.605,0,0,1-.241-1.058A3.829,3.829,0,0,1,16.282.186a3.543,3.543,0,0,1-2.435-.84A2.716,2.716,0,0,1,12.9-2.783a2.838,2.838,0,0,1,1.192-2.435,5.621,5.621,0,0,1,3.354-.867h1.67v-.789a1.928,1.928,0,0,0-.538-1.433,2.163,2.163,0,0,0-1.586-.533,2.5,2.5,0,0,0-1.54.464,1.367,1.367,0,0,0-.622,1.123H13.1a2.369,2.369,0,0,1,.533-1.452A3.641,3.641,0,0,1,15.08-9.815a4.869,4.869,0,0,1,2.009-.408,3.968,3.968,0,0,1,2.718.867,3.129,3.129,0,0,1,1.021,2.389v4.62a5.649,5.649,0,0,0,.353,2.2V0ZM16.532-1.308a3.016,3.016,0,0,0,1.531-.417,2.525,2.525,0,0,0,1.048-1.085v-2.06H17.766q-3.154,0-3.154,1.846a1.562,1.562,0,0,0,.538,1.262A2.068,2.068,0,0,0,16.532-1.308ZM28.37-8.5a5.143,5.143,0,0,0-.844-.065,2.262,2.262,0,0,0-2.292,1.438V0H23.518V-10.038h1.67l.028,1.16a2.672,2.672,0,0,1,2.394-1.345,1.753,1.753,0,0,1,.761.13ZM33.8-1.215a2.472,2.472,0,0,0,1.6-.557,1.958,1.958,0,0,0,.761-1.392h1.624a3.112,3.112,0,0,1-.594,1.642A3.911,3.911,0,0,1,35.732-.278,4.216,4.216,0,0,1,33.8.186a4.135,4.135,0,0,1-3.261-1.368,5.45,5.45,0,0,1-1.211-3.743v-.288a6.043,6.043,0,0,1,.538-2.607,4.1,4.1,0,0,1,1.545-1.772,4.388,4.388,0,0,1,2.38-.631,4.026,4.026,0,0,1,2.806,1.011,3.614,3.614,0,0,1,1.192,2.625H36.163a2.365,2.365,0,0,0-.738-1.6,2.294,2.294,0,0,0-1.637-.626,2.4,2.4,0,0,0-2.027.942,4.422,4.422,0,0,0-.719,2.723v.325a4.334,4.334,0,0,0,.714,2.672A2.414,2.414,0,0,0,33.8-1.215ZM43.882.186a4.386,4.386,0,0,1-3.321-1.341,4.976,4.976,0,0,1-1.28-3.586v-.315a6.024,6.024,0,0,1,.571-2.667,4.451,4.451,0,0,1,1.6-1.837,4.012,4.012,0,0,1,2.222-.663,3.759,3.759,0,0,1,3.043,1.29A5.583,5.583,0,0,1,47.8-5.242v.714H41a3.568,3.568,0,0,0,.867,2.4,2.727,2.727,0,0,0,2.111.914,2.989,2.989,0,0,0,1.54-.371,3.869,3.869,0,0,0,1.1-.983l1.048.816A4.215,4.215,0,0,1,43.882.186Zm-.213-9a2.289,2.289,0,0,0-1.744.756,3.675,3.675,0,0,0-.872,2.12h5.028v-.13a3.269,3.269,0,0,0-.705-2.027A2.155,2.155,0,0,0,43.668-8.813ZM51.647,0H49.931V-14.25h1.716ZM60.59,0a3.605,3.605,0,0,1-.241-1.058A3.829,3.829,0,0,1,57.492.186a3.543,3.543,0,0,1-2.435-.84,2.716,2.716,0,0,1-.951-2.129A2.838,2.838,0,0,1,55.3-5.219a5.621,5.621,0,0,1,3.354-.867h1.67v-.789a1.928,1.928,0,0,0-.538-1.433A2.163,2.163,0,0,0,58.2-8.841a2.5,2.5,0,0,0-1.54.464,1.367,1.367,0,0,0-.622,1.123H54.31a2.369,2.369,0,0,1,.533-1.452A3.641,3.641,0,0,1,56.29-9.815a4.869,4.869,0,0,1,2.009-.408,3.968,3.968,0,0,1,2.718.867,3.129,3.129,0,0,1,1.021,2.389v4.62a5.649,5.649,0,0,0,.353,2.2V0ZM57.742-1.308a3.016,3.016,0,0,0,1.531-.417,2.525,2.525,0,0,0,1.048-1.085v-2.06H58.976q-3.154,0-3.154,1.846a1.562,1.562,0,0,0,.538,1.262A2.068,2.068,0,0,0,57.742-1.308ZM80.082,0H78.292l-6.8-10.409V0H69.7V-13.508h1.791L78.31-3.052V-13.508h1.772Zm2.8-11.281a2.368,2.368,0,0,1,.691-1.688,2.23,2.23,0,0,1,1.675-.724,2.187,2.187,0,0,1,1.647.719,2.38,2.38,0,0,1,.682,1.693A2.312,2.312,0,0,1,86.9-9.6a2.221,2.221,0,0,1-1.647.7,2.277,2.277,0,0,1-1.67-.7A2.288,2.288,0,0,1,82.884-11.281Zm2.366,1.188a1.175,1.175,0,0,0,.844-.328,1.129,1.129,0,0,0,.343-.855,1.2,1.2,0,0,0-.343-.883,1.142,1.142,0,0,0-.844-.347,1.138,1.138,0,0,0-.858.365,1.21,1.21,0,0,0-.348.864,1.133,1.133,0,0,0,.348.841A1.177,1.177,0,0,0,85.25-10.094Z" transform="translate(453.5 3442.315)" fill="#636363"/>
    <path id="Trazado_298410" data-name="Trazado 298410" d="M9.018-5.965H3.349V0H1.568V-13.508H9.936v1.457H3.349v4.629H9.018ZM15.966.186a4.386,4.386,0,0,1-3.321-1.341,4.976,4.976,0,0,1-1.28-3.586v-.315a6.024,6.024,0,0,1,.571-2.667,4.451,4.451,0,0,1,1.6-1.837,4.012,4.012,0,0,1,2.222-.663A3.759,3.759,0,0,1,18.8-8.934a5.583,5.583,0,0,1,1.085,3.692v.714h-6.8a3.568,3.568,0,0,0,.867,2.4,2.727,2.727,0,0,0,2.111.914,2.989,2.989,0,0,0,1.54-.371,3.87,3.87,0,0,0,1.1-.983l1.048.816A4.215,4.215,0,0,1,15.966.186Zm-.213-9a2.289,2.289,0,0,0-1.744.756,3.675,3.675,0,0,0-.872,2.12h5.028v-.13a3.269,3.269,0,0,0-.705-2.027A2.155,2.155,0,0,0,15.753-8.813Zm10.14,7.6a2.472,2.472,0,0,0,1.6-.557,1.958,1.958,0,0,0,.761-1.392h1.624a3.112,3.112,0,0,1-.594,1.642A3.911,3.911,0,0,1,27.827-.278a4.216,4.216,0,0,1-1.934.464,4.135,4.135,0,0,1-3.261-1.368,5.45,5.45,0,0,1-1.211-3.743v-.288a6.043,6.043,0,0,1,.538-2.607A4.1,4.1,0,0,1,23.5-9.593a4.388,4.388,0,0,1,2.38-.631A4.026,4.026,0,0,1,28.69-9.212a3.614,3.614,0,0,1,1.192,2.625H28.259a2.365,2.365,0,0,0-.738-1.6,2.294,2.294,0,0,0-1.637-.626,2.4,2.4,0,0,0-2.027.942,4.422,4.422,0,0,0-.719,2.723v.325a4.334,4.334,0,0,0,.714,2.672A2.414,2.414,0,0,0,25.893-1.215Zm7.635-7.607a3.649,3.649,0,0,1,2.969-1.4q3.182,0,3.21,3.59V0H37.991V-6.643a2.311,2.311,0,0,0-.5-1.6,1.989,1.989,0,0,0-1.517-.52,2.477,2.477,0,0,0-1.466.445,3.024,3.024,0,0,0-.983,1.169V0H31.812V-14.25h1.716ZM48.474,0a3.605,3.605,0,0,1-.241-1.058A3.829,3.829,0,0,1,45.375.186a3.543,3.543,0,0,1-2.435-.84,2.716,2.716,0,0,1-.951-2.129,2.838,2.838,0,0,1,1.192-2.435,5.621,5.621,0,0,1,3.354-.867h1.67v-.789a1.928,1.928,0,0,0-.538-1.433,2.163,2.163,0,0,0-1.586-.533,2.5,2.5,0,0,0-1.54.464,1.367,1.367,0,0,0-.622,1.123H42.193a2.369,2.369,0,0,1,.533-1.452,3.641,3.641,0,0,1,1.447-1.109,4.869,4.869,0,0,1,2.009-.408,3.968,3.968,0,0,1,2.718.867,3.129,3.129,0,0,1,1.021,2.389v4.62a5.649,5.649,0,0,0,.353,2.2V0ZM45.626-1.308a3.016,3.016,0,0,0,1.531-.417,2.525,2.525,0,0,0,1.048-1.085v-2.06H46.86q-3.154,0-3.154,1.846a1.562,1.562,0,0,0,.538,1.262A2.068,2.068,0,0,0,45.626-1.308Z" transform="translate(829.5 3442.315)" fill="#636363"/>
    <path id="Trazado_298411" data-name="Trazado 298411" d="M9.027-3.535H3.368L2.1,0H.26L5.418-13.508H6.977L12.144,0H10.316ZM3.906-4.991H8.5L6.2-11.309ZM15.558,0H13.842V-14.25h1.716Zm5.075-12.469v2.431h1.874v1.327H20.633v6.233a1.393,1.393,0,0,0,.25.906,1.054,1.054,0,0,0,.854.3,4.155,4.155,0,0,0,.816-.111V0a5.005,5.005,0,0,1-1.317.184A2.137,2.137,0,0,1,19.5-.51a2.989,2.989,0,0,1-.584-1.976V-8.711H17.089v-1.327h1.828v-2.431ZM26.375,0H24.659V-10.038h1.716ZM24.52-12.7a1.024,1.024,0,0,1,.255-.705.958.958,0,0,1,.756-.288.973.973,0,0,1,.761.288,1.014,1.014,0,0,1,.26.705.98.98,0,0,1-.26.7.99.99,0,0,1-.761.278A.975.975,0,0,1,24.775-12,.991.991,0,0,1,24.52-12.7Zm6.93.232v2.431h1.874v1.327H31.45v6.233a1.393,1.393,0,0,0,.25.906,1.054,1.054,0,0,0,.854.3,4.155,4.155,0,0,0,.816-.111V0a5,5,0,0,1-1.317.184,2.137,2.137,0,0,1-1.735-.7,2.989,2.989,0,0,1-.584-1.976V-8.711H27.906v-1.327h1.828v-2.431ZM41.525-.993A3.646,3.646,0,0,1,38.584.186,3.12,3.12,0,0,1,36.14-.747a4.036,4.036,0,0,1-.849-2.76v-6.531h1.716v6.485q0,2.282,1.855,2.282a2.569,2.569,0,0,0,2.616-1.466v-7.3H43.2V0H41.563ZM45.385-5.1a5.88,5.88,0,0,1,1.095-3.716,3.462,3.462,0,0,1,2.867-1.406,3.481,3.481,0,0,1,2.792,1.206V-14.25h1.716V0H52.278l-.083-1.076A3.5,3.5,0,0,1,49.328.186a3.429,3.429,0,0,1-2.844-1.429,5.947,5.947,0,0,1-1.1-3.729Zm1.716.195a4.452,4.452,0,0,0,.705,2.672,2.279,2.279,0,0,0,1.948.965,2.5,2.5,0,0,0,2.384-1.466V-7.348a2.523,2.523,0,0,0-2.366-1.419,2.29,2.29,0,0,0-1.967.974A4.9,4.9,0,0,0,47.1-4.908Zm14.055-.575a14.343,14.343,0,0,1,.561-4.026,11.7,11.7,0,0,1,1.675-3.507,7.124,7.124,0,0,1,2.31-2.227l.353,1.132a7.389,7.389,0,0,0-2.222,3.173,13.755,13.755,0,0,0-.951,4.778l-.009.789A13.826,13.826,0,0,0,64.181.844a7.424,7.424,0,0,0,1.874,2.468L65.7,4.36a7.353,7.353,0,0,1-2.356-2.3A12.9,12.9,0,0,1,61.156-5.483Zm8.173-4.555.046,1.113a3.707,3.707,0,0,1,2.978-1.3,2.87,2.87,0,0,1,2.867,1.614,3.8,3.8,0,0,1,1.3-1.169,3.85,3.85,0,0,1,1.9-.445q3.3,0,3.358,3.5V0H80.063V-6.624a2.3,2.3,0,0,0-.492-1.61,2.165,2.165,0,0,0-1.651-.533,2.276,2.276,0,0,0-1.586.571A2.315,2.315,0,0,0,75.6-6.661V0H73.875V-6.578a1.915,1.915,0,0,0-2.143-2.189,2.3,2.3,0,0,0-2.31,1.438V0H67.706V-10.038ZM90.213-2.663a1.263,1.263,0,0,0-.524-1.081,5.045,5.045,0,0,0-1.828-.663,8.641,8.641,0,0,1-2.069-.668A2.943,2.943,0,0,1,84.66-6a2.219,2.219,0,0,1-.366-1.28A2.6,2.6,0,0,1,85.338-9.37,4.076,4.076,0,0,1,88-10.224a4.194,4.194,0,0,1,2.769.881,2.8,2.8,0,0,1,1.062,2.254H90.111a1.549,1.549,0,0,0-.6-1.215A2.242,2.242,0,0,0,88-8.813a2.347,2.347,0,0,0-1.466.408,1.285,1.285,0,0,0-.529,1.067A1.041,1.041,0,0,0,86.5-6.4a6.05,6.05,0,0,0,1.777.6,9.257,9.257,0,0,1,2.083.687,3.038,3.038,0,0,1,1.183.96,2.361,2.361,0,0,1,.385,1.368A2.569,2.569,0,0,1,90.853-.626a4.514,4.514,0,0,1-2.792.812,5.055,5.055,0,0,1-2.134-.427,3.47,3.47,0,0,1-1.452-1.192,2.873,2.873,0,0,1-.524-1.656h1.716a1.777,1.777,0,0,0,.691,1.368,2.681,2.681,0,0,0,1.7.506,2.768,2.768,0,0,0,1.563-.394A1.212,1.212,0,0,0,90.213-2.663Zm5.576-7.375.056,1.262a3.658,3.658,0,0,1,3.006-1.447q3.182,0,3.21,3.59V0h-1.716V-6.643a2.311,2.311,0,0,0-.5-1.6,1.989,1.989,0,0,0-1.517-.52,2.477,2.477,0,0,0-1.466.445,3.024,3.024,0,0,0-.983,1.169V0H94.165V-10.038Zm10.474,0,.046,1.113a3.707,3.707,0,0,1,2.978-1.3,2.87,2.87,0,0,1,2.867,1.614,3.8,3.8,0,0,1,1.3-1.169,3.85,3.85,0,0,1,1.9-.445q3.3,0,3.358,3.5V0H117V-6.624a2.3,2.3,0,0,0-.492-1.61,2.165,2.165,0,0,0-1.651-.533,2.276,2.276,0,0,0-1.586.571,2.315,2.315,0,0,0-.733,1.535V0h-1.726V-6.578a1.915,1.915,0,0,0-2.143-2.189,2.3,2.3,0,0,0-2.31,1.438V0h-1.716V-10.038Zm19,4.648a14.35,14.35,0,0,1-.543,3.966,11.728,11.728,0,0,1-1.661,3.5,7.276,7.276,0,0,1-2.343,2.282l-.362-1.048a7.458,7.458,0,0,0,2.3-3.4,14.71,14.71,0,0,0,.886-5.116v-.3a15.273,15.273,0,0,0-.408-3.623,12.227,12.227,0,0,0-1.136-3,6.932,6.932,0,0,0-1.637-2.069l.362-1.048a7.248,7.248,0,0,1,2.333,2.264,11.753,11.753,0,0,1,1.661,3.5A14.681,14.681,0,0,1,125.263-5.39Z" transform="translate(453.5 3467.315)" fill="#636363"/>
    <path id="Trazado_298412" data-name="Trazado 298412" d="M3.349-5.288V0H1.568V-13.508H6.55a5.005,5.005,0,0,1,3.474,1.132,3.837,3.837,0,0,1,1.257,3A3.786,3.786,0,0,1,10.052-6.35,5.229,5.229,0,0,1,6.531-5.288Zm0-1.457h3.2a3.2,3.2,0,0,0,2.189-.674A2.464,2.464,0,0,0,9.5-9.365,2.545,2.545,0,0,0,8.739-11.3a3,3,0,0,0-2.087-.753h-3.3Zm14.1,6.93a4.386,4.386,0,0,1-3.321-1.341,4.976,4.976,0,0,1-1.28-3.586v-.315a6.024,6.024,0,0,1,.571-2.667,4.451,4.451,0,0,1,1.6-1.837,4.012,4.012,0,0,1,2.222-.663,3.759,3.759,0,0,1,3.043,1.29,5.583,5.583,0,0,1,1.085,3.692v.714h-6.8a3.568,3.568,0,0,0,.867,2.4,2.727,2.727,0,0,0,2.111.914,2.989,2.989,0,0,0,1.54-.371,3.87,3.87,0,0,0,1.1-.983l1.048.816A4.215,4.215,0,0,1,17.451.186Zm-.213-9a2.289,2.289,0,0,0-1.744.756,3.675,3.675,0,0,0-.872,2.12h5.028v-.13a3.269,3.269,0,0,0-.705-2.027A2.155,2.155,0,0,0,17.237-8.813Zm7.737-1.225.056,1.262a3.658,3.658,0,0,1,3.006-1.447q3.182,0,3.21,3.59V0H29.53V-6.643a2.311,2.311,0,0,0-.5-1.6,1.989,1.989,0,0,0-1.517-.52,2.477,2.477,0,0,0-1.466.445,3.024,3.024,0,0,0-.983,1.169V0H23.351V-10.038ZM33.417-5.1a5.88,5.88,0,0,1,1.095-3.716,3.462,3.462,0,0,1,2.867-1.406,3.481,3.481,0,0,1,2.792,1.206V-14.25h1.716V0H40.31l-.083-1.076A3.5,3.5,0,0,1,37.36.186a3.429,3.429,0,0,1-2.844-1.429,5.947,5.947,0,0,1-1.1-3.729Zm1.716.195a4.452,4.452,0,0,0,.705,2.672,2.279,2.279,0,0,0,1.948.965,2.5,2.5,0,0,0,2.384-1.466V-7.348a2.523,2.523,0,0,0-2.366-1.419,2.29,2.29,0,0,0-1.967.974A4.9,4.9,0,0,0,35.133-4.908ZM46.415,0H44.7V-10.038h1.716ZM44.559-12.7a1.024,1.024,0,0,1,.255-.705.958.958,0,0,1,.756-.288.973.973,0,0,1,.761.288,1.014,1.014,0,0,1,.26.705.98.98,0,0,1-.26.7.99.99,0,0,1-.761.278A.975.975,0,0,1,44.814-12,.991.991,0,0,1,44.559-12.7ZM53.326.186A4.386,4.386,0,0,1,50-1.155a4.976,4.976,0,0,1-1.28-3.586v-.315A6.024,6.024,0,0,1,49.3-7.723a4.451,4.451,0,0,1,1.6-1.837,4.012,4.012,0,0,1,2.222-.663,3.759,3.759,0,0,1,3.043,1.29,5.583,5.583,0,0,1,1.085,3.692v.714h-6.8a3.568,3.568,0,0,0,.867,2.4,2.727,2.727,0,0,0,2.111.914,2.989,2.989,0,0,0,1.54-.371,3.869,3.869,0,0,0,1.1-.983l1.048.816A4.215,4.215,0,0,1,53.326.186Zm-.213-9a2.289,2.289,0,0,0-1.744.756,3.675,3.675,0,0,0-.872,2.12h5.028v-.13a3.269,3.269,0,0,0-.705-2.027A2.155,2.155,0,0,0,53.113-8.813Zm7.737-1.225.056,1.262a3.658,3.658,0,0,1,3.006-1.447q3.182,0,3.21,3.59V0H65.405V-6.643a2.311,2.311,0,0,0-.5-1.6,1.989,1.989,0,0,0-1.517-.52,2.477,2.477,0,0,0-1.466.445,3.024,3.024,0,0,0-.983,1.169V0H59.227V-10.038Zm11.188-2.431v2.431h1.874v1.327H72.039v6.233a1.393,1.393,0,0,0,.25.906,1.054,1.054,0,0,0,.854.3,4.155,4.155,0,0,0,.816-.111V0a5.005,5.005,0,0,1-1.317.184,2.137,2.137,0,0,1-1.735-.7,2.989,2.989,0,0,1-.584-1.976V-8.711H68.495v-1.327h1.828v-2.431ZM80.082.186a4.386,4.386,0,0,1-3.321-1.341,4.976,4.976,0,0,1-1.28-3.586v-.315a6.024,6.024,0,0,1,.571-2.667,4.451,4.451,0,0,1,1.6-1.837,4.012,4.012,0,0,1,2.222-.663,3.759,3.759,0,0,1,3.043,1.29A5.583,5.583,0,0,1,84-5.242v.714H77.2a3.568,3.568,0,0,0,.867,2.4,2.727,2.727,0,0,0,2.111.914,2.989,2.989,0,0,0,1.54-.371,3.87,3.87,0,0,0,1.1-.983l1.048.816A4.215,4.215,0,0,1,80.082.186Zm-.213-9a2.289,2.289,0,0,0-1.744.756,3.675,3.675,0,0,0-.872,2.12h5.028v-.13a3.269,3.269,0,0,0-.705-2.027A2.155,2.155,0,0,0,79.869-8.813Zm6.049,3.331a14.344,14.344,0,0,1,.561-4.026,11.7,11.7,0,0,1,1.675-3.507,7.124,7.124,0,0,1,2.31-2.227l.353,1.132a7.389,7.389,0,0,0-2.222,3.173,13.755,13.755,0,0,0-.951,4.778l-.009.789A13.826,13.826,0,0,0,88.942.844a7.424,7.424,0,0,0,1.874,2.468L90.463,4.36a7.353,7.353,0,0,1-2.356-2.3A12.9,12.9,0,0,1,85.917-5.483Zm6.234-5.427a2.741,2.741,0,0,1,.775-2,2.669,2.669,0,0,1,1.99-.789,2.653,2.653,0,0,1,2,.793,2.836,2.836,0,0,1,.765,2.055v.659a2.706,2.706,0,0,1-.775,2,2.671,2.671,0,0,1-1.971.775A2.729,2.729,0,0,1,92.94-8.2a2.763,2.763,0,0,1-.789-2.064Zm1.28.711A1.755,1.755,0,0,0,93.84-9a1.377,1.377,0,0,0,1.095.47A1.351,1.351,0,0,0,96-8.991a1.813,1.813,0,0,0,.4-1.246v-.679a1.8,1.8,0,0,0-.4-1.2,1.344,1.344,0,0,0-1.085-.474,1.344,1.344,0,0,0-1.085.474,1.856,1.856,0,0,0-.4,1.237Zm5.3,6.888a2.725,2.725,0,0,1,.775-2,2.677,2.677,0,0,1,1.99-.784,2.7,2.7,0,0,1,1.995.779,2.8,2.8,0,0,1,.779,2.069v.659a2.725,2.725,0,0,1-.775,2,2.665,2.665,0,0,1-1.981.784A2.729,2.729,0,0,1,99.518-.58a2.763,2.763,0,0,1-.789-2.064Zm1.28.72a1.769,1.769,0,0,0,.408,1.2,1.377,1.377,0,0,0,1.095.47,1.341,1.341,0,0,0,1.067-.46,1.845,1.845,0,0,0,.4-1.251v-.688a1.764,1.764,0,0,0-.4-1.2,1.359,1.359,0,0,0-1.081-.465,1.372,1.372,0,0,0-1.072.46,1.79,1.79,0,0,0-.413,1.241ZM95.325-1.021l-.974-.612,6.6-10.558.974.612Zm15.029-4.37a14.35,14.35,0,0,1-.543,3.966,11.728,11.728,0,0,1-1.661,3.5,7.276,7.276,0,0,1-2.343,2.282l-.362-1.048a7.458,7.458,0,0,0,2.3-3.4,14.71,14.71,0,0,0,.886-5.116v-.3a15.273,15.273,0,0,0-.408-3.623,12.227,12.227,0,0,0-1.136-3,6.932,6.932,0,0,0-1.637-2.069l.362-1.048a7.248,7.248,0,0,1,2.333,2.264,11.753,11.753,0,0,1,1.661,3.5A14.681,14.681,0,0,1,110.354-5.39Z" transform="translate(829.5 3467.315)" fill="#636363"/>
    <path id="Trazado_298413" data-name="Trazado 298413" d="M1.568,0V-13.508H5.984a5.126,5.126,0,0,1,3.307.909A3.277,3.277,0,0,1,10.4-9.908a2.744,2.744,0,0,1-.538,1.675A3.488,3.488,0,0,1,8.4-7.106a3.133,3.133,0,0,1,1.73,1.164A3.342,3.342,0,0,1,10.762-3.9,3.613,3.613,0,0,1,9.583-1.039,4.872,4.872,0,0,1,6.253,0ZM3.349-6.318v4.861H6.29A2.832,2.832,0,0,0,8.252-2.1a2.265,2.265,0,0,0,.719-1.777q0-2.44-2.653-2.44Zm0-1.429H6.04a2.82,2.82,0,0,0,1.869-.586,1.964,1.964,0,0,0,.7-1.59,1.931,1.931,0,0,0-.649-1.622,3.189,3.189,0,0,0-1.976-.507H3.349ZM17.979-8.5a5.143,5.143,0,0,0-.844-.065,2.262,2.262,0,0,0-2.292,1.438V0H13.127V-10.038H14.8l.028,1.16a2.672,2.672,0,0,1,2.394-1.345,1.753,1.753,0,0,1,.761.13ZM23.722.186A4.386,4.386,0,0,1,20.4-1.155a4.976,4.976,0,0,1-1.28-3.586v-.315a6.024,6.024,0,0,1,.571-2.667,4.451,4.451,0,0,1,1.6-1.837,4.012,4.012,0,0,1,2.222-.663,3.759,3.759,0,0,1,3.043,1.29,5.583,5.583,0,0,1,1.085,3.692v.714h-6.8a3.568,3.568,0,0,0,.867,2.4,2.727,2.727,0,0,0,2.111.914,2.989,2.989,0,0,0,1.54-.371,3.87,3.87,0,0,0,1.1-.983l1.048.816A4.215,4.215,0,0,1,23.722.186Zm-.213-9a2.289,2.289,0,0,0-1.744.756,3.675,3.675,0,0,0-.872,2.12h5.028v-.13a3.269,3.269,0,0,0-.705-2.027A2.155,2.155,0,0,0,23.509-8.813Zm9.305,6.485L35.3-10.038h1.753L33.454,0H32.146L28.509-10.038h1.753ZM42.871.186a4.386,4.386,0,0,1-3.321-1.341,4.976,4.976,0,0,1-1.28-3.586v-.315a6.024,6.024,0,0,1,.571-2.667,4.451,4.451,0,0,1,1.6-1.837,4.012,4.012,0,0,1,2.222-.663A3.759,3.759,0,0,1,45.7-8.934a5.583,5.583,0,0,1,1.085,3.692v.714h-6.8a3.568,3.568,0,0,0,.867,2.4,2.727,2.727,0,0,0,2.111.914,2.989,2.989,0,0,0,1.54-.371,3.869,3.869,0,0,0,1.1-.983l1.048.816A4.215,4.215,0,0,1,42.871.186Zm-.213-9a2.289,2.289,0,0,0-1.744.756,3.675,3.675,0,0,0-.872,2.12h5.028v-.13a3.269,3.269,0,0,0-.705-2.027A2.155,2.155,0,0,0,42.657-8.813ZM53.057-5.1a5.88,5.88,0,0,1,1.095-3.716,3.462,3.462,0,0,1,2.867-1.406,3.481,3.481,0,0,1,2.792,1.206V-14.25h1.716V0H59.95l-.083-1.076A3.5,3.5,0,0,1,57,.186a3.429,3.429,0,0,1-2.844-1.429,5.947,5.947,0,0,1-1.1-3.729Zm1.716.195a4.452,4.452,0,0,0,.705,2.672,2.279,2.279,0,0,0,1.948.965,2.5,2.5,0,0,0,2.384-1.466V-7.348a2.523,2.523,0,0,0-2.366-1.419,2.29,2.29,0,0,0-1.967.974A4.9,4.9,0,0,0,54.773-4.908ZM68.355.186a4.386,4.386,0,0,1-3.321-1.341,4.976,4.976,0,0,1-1.28-3.586v-.315a6.024,6.024,0,0,1,.571-2.667,4.451,4.451,0,0,1,1.6-1.837,4.012,4.012,0,0,1,2.222-.663,3.759,3.759,0,0,1,3.043,1.29,5.583,5.583,0,0,1,1.085,3.692v.714h-6.8a3.568,3.568,0,0,0,.867,2.4,2.727,2.727,0,0,0,2.111.914,2.989,2.989,0,0,0,1.54-.371,3.87,3.87,0,0,0,1.1-.983l1.048.816A4.215,4.215,0,0,1,68.355.186Zm-.213-9a2.289,2.289,0,0,0-1.744.756,3.675,3.675,0,0,0-.872,2.12h5.028v-.13a3.269,3.269,0,0,0-.705-2.027A2.155,2.155,0,0,0,68.142-8.813ZM80.1-2.663a1.263,1.263,0,0,0-.524-1.081,5.045,5.045,0,0,0-1.828-.663,8.641,8.641,0,0,1-2.069-.668A2.943,2.943,0,0,1,74.548-6a2.219,2.219,0,0,1-.366-1.28A2.6,2.6,0,0,1,75.225-9.37a4.076,4.076,0,0,1,2.667-.854,4.194,4.194,0,0,1,2.769.881,2.8,2.8,0,0,1,1.062,2.254H80A1.549,1.549,0,0,0,79.4-8.3a2.242,2.242,0,0,0-1.508-.51,2.347,2.347,0,0,0-1.466.408A1.285,1.285,0,0,0,75.9-7.338a1.041,1.041,0,0,0,.492.937,6.05,6.05,0,0,0,1.777.6,9.257,9.257,0,0,1,2.083.687,3.038,3.038,0,0,1,1.183.96,2.361,2.361,0,0,1,.385,1.368A2.569,2.569,0,0,1,80.741-.626a4.514,4.514,0,0,1-2.792.812,5.055,5.055,0,0,1-2.134-.427,3.47,3.47,0,0,1-1.452-1.192,2.873,2.873,0,0,1-.524-1.656h1.716a1.777,1.777,0,0,0,.691,1.368,2.681,2.681,0,0,0,1.7.506,2.768,2.768,0,0,0,1.563-.394A1.212,1.212,0,0,0,80.1-2.663Zm7.979,1.447a2.472,2.472,0,0,0,1.6-.557,1.958,1.958,0,0,0,.761-1.392h1.624a3.112,3.112,0,0,1-.594,1.642A3.911,3.911,0,0,1,90.013-.278a4.216,4.216,0,0,1-1.934.464,4.135,4.135,0,0,1-3.261-1.368,5.45,5.45,0,0,1-1.211-3.743v-.288a6.043,6.043,0,0,1,.538-2.607A4.1,4.1,0,0,1,85.69-9.593a4.388,4.388,0,0,1,2.38-.631,4.026,4.026,0,0,1,2.806,1.011,3.614,3.614,0,0,1,1.192,2.625H90.445a2.365,2.365,0,0,0-.738-1.6,2.294,2.294,0,0,0-1.637-.626,2.4,2.4,0,0,0-2.027.942,4.422,4.422,0,0,0-.719,2.723v.325a4.334,4.334,0,0,0,.714,2.672A2.414,2.414,0,0,0,88.079-1.215ZM98.85-8.5a5.143,5.143,0,0,0-.844-.065,2.262,2.262,0,0,0-2.292,1.438V0H94V-10.038h1.67l.028,1.16a2.673,2.673,0,0,1,2.394-1.345,1.753,1.753,0,0,1,.761.13ZM102.292,0h-1.716V-10.038h1.716Zm-1.855-12.7a1.025,1.025,0,0,1,.255-.705.958.958,0,0,1,.756-.288.973.973,0,0,1,.761.288,1.014,1.014,0,0,1,.26.705.98.98,0,0,1-.26.7.99.99,0,0,1-.761.278.975.975,0,0,1-.756-.278A.991.991,0,0,1,100.437-12.7Zm13.081,7.793a6.011,6.011,0,0,1-1.048,3.692,3.36,3.36,0,0,1-2.839,1.4,3.681,3.681,0,0,1-2.876-1.16V3.859h-1.716v-13.9h1.568l.083,1.113a3.536,3.536,0,0,1,2.913-1.3,3.423,3.423,0,0,1,2.862,1.364,6.076,6.076,0,0,1,1.053,3.794ZM111.8-5.1a4.435,4.435,0,0,0-.724-2.681,2.331,2.331,0,0,0-1.985-.983,2.523,2.523,0,0,0-2.338,1.382v4.8a2.528,2.528,0,0,0,2.356,1.373,2.32,2.32,0,0,0,1.962-.979A4.841,4.841,0,0,0,111.8-5.1Zm7.923,3.887a2.472,2.472,0,0,0,1.6-.557,1.958,1.958,0,0,0,.761-1.392h1.624a3.112,3.112,0,0,1-.594,1.642,3.911,3.911,0,0,1-1.461,1.243,4.216,4.216,0,0,1-1.934.464,4.135,4.135,0,0,1-3.261-1.368,5.45,5.45,0,0,1-1.211-3.743v-.288a6.043,6.043,0,0,1,.538-2.607,4.1,4.1,0,0,1,1.545-1.772,4.388,4.388,0,0,1,2.38-.631,4.026,4.026,0,0,1,2.806,1.011,3.614,3.614,0,0,1,1.192,2.625H122.09a2.365,2.365,0,0,0-.738-1.6,2.294,2.294,0,0,0-1.637-.626,2.4,2.4,0,0,0-2.027.942,4.422,4.422,0,0,0-.719,2.723v.325a4.334,4.334,0,0,0,.714,2.672A2.414,2.414,0,0,0,119.724-1.215ZM127.508,0h-1.716V-10.038h1.716Zm-1.855-12.7a1.025,1.025,0,0,1,.255-.705.958.958,0,0,1,.756-.288.973.973,0,0,1,.761.288,1.014,1.014,0,0,1,.26.705.98.98,0,0,1-.26.7.99.99,0,0,1-.761.278.975.975,0,0,1-.756-.278A.991.991,0,0,1,125.652-12.7ZM129.8-5.112a5.929,5.929,0,0,1,.58-2.653,4.325,4.325,0,0,1,1.614-1.818,4.394,4.394,0,0,1,2.361-.64A4.233,4.233,0,0,1,137.671-8.8a5.461,5.461,0,0,1,1.266,3.776v.121a5.981,5.981,0,0,1-.561,2.63,4.262,4.262,0,0,1-1.6,1.814,4.445,4.445,0,0,1-2.4.649,4.223,4.223,0,0,1-3.307-1.419A5.433,5.433,0,0,1,129.8-4.991Zm1.726.2a4.294,4.294,0,0,0,.775,2.681,2.479,2.479,0,0,0,2.073,1.011,2.464,2.464,0,0,0,2.078-1.025,4.7,4.7,0,0,0,.77-2.871,4.287,4.287,0,0,0-.784-2.677,2.492,2.492,0,0,0-2.083-1.025A2.465,2.465,0,0,0,132.3-7.8,4.661,4.661,0,0,0,131.525-4.908Zm3.609-9.342h2.078l-2.486,2.728-1.382,0Zm7.58,4.212.056,1.262a3.658,3.658,0,0,1,3.006-1.447q3.182,0,3.21,3.59V0h-1.716V-6.643a2.311,2.311,0,0,0-.5-1.6,1.989,1.989,0,0,0-1.517-.52,2.477,2.477,0,0,0-1.466.445,3.024,3.024,0,0,0-.983,1.169V0H141.09V-10.038ZM155.859-5.1a5.88,5.88,0,0,1,1.095-3.716,3.462,3.462,0,0,1,2.867-1.406,3.481,3.481,0,0,1,2.792,1.206V-14.25h1.716V0h-1.577l-.083-1.076A3.5,3.5,0,0,1,159.8.186a3.429,3.429,0,0,1-2.844-1.429,5.947,5.947,0,0,1-1.1-3.729Zm1.716.195a4.452,4.452,0,0,0,.705,2.672,2.279,2.279,0,0,0,1.948.965,2.5,2.5,0,0,0,2.384-1.466V-7.348a2.523,2.523,0,0,0-2.366-1.419,2.29,2.29,0,0,0-1.967.974A4.9,4.9,0,0,0,157.576-4.908ZM171.158.186a4.386,4.386,0,0,1-3.321-1.341,4.976,4.976,0,0,1-1.28-3.586v-.315a6.024,6.024,0,0,1,.571-2.667,4.451,4.451,0,0,1,1.6-1.837,4.012,4.012,0,0,1,2.222-.663,3.759,3.759,0,0,1,3.043,1.29,5.583,5.583,0,0,1,1.085,3.692v.714h-6.8a3.568,3.568,0,0,0,.867,2.4,2.727,2.727,0,0,0,2.111.914,2.989,2.989,0,0,0,1.54-.371,3.869,3.869,0,0,0,1.1-.983l1.048.816A4.215,4.215,0,0,1,171.158.186Zm-.213-9a2.289,2.289,0,0,0-1.744.756,3.675,3.675,0,0,0-.872,2.12h5.028v-.13a3.269,3.269,0,0,0-.705-2.027A2.155,2.155,0,0,0,170.944-8.813ZM178.923,0h-1.716V-14.25h1.716Zm13.294-2.663a1.264,1.264,0,0,0-.524-1.081,5.045,5.045,0,0,0-1.828-.663,8.641,8.641,0,0,1-2.069-.668A2.943,2.943,0,0,1,186.665-6a2.219,2.219,0,0,1-.366-1.28,2.6,2.6,0,0,1,1.044-2.087,4.076,4.076,0,0,1,2.667-.854,4.194,4.194,0,0,1,2.769.881,2.8,2.8,0,0,1,1.062,2.254h-1.726a1.549,1.549,0,0,0-.6-1.215,2.242,2.242,0,0,0-1.508-.51,2.346,2.346,0,0,0-1.466.408,1.285,1.285,0,0,0-.529,1.067,1.041,1.041,0,0,0,.492.937,6.05,6.05,0,0,0,1.777.6,9.257,9.257,0,0,1,2.083.687,3.038,3.038,0,0,1,1.183.96,2.361,2.361,0,0,1,.385,1.368,2.569,2.569,0,0,1-1.076,2.157,4.514,4.514,0,0,1-2.792.812,5.055,5.055,0,0,1-2.134-.427,3.47,3.47,0,0,1-1.452-1.192,2.873,2.873,0,0,1-.524-1.656h1.716a1.777,1.777,0,0,0,.691,1.368,2.681,2.681,0,0,0,1.7.506,2.768,2.768,0,0,0,1.563-.394A1.212,1.212,0,0,0,192.217-2.663ZM198.034,0h-1.716V-10.038h1.716Zm-1.855-12.7a1.024,1.024,0,0,1,.255-.705.958.958,0,0,1,.756-.288.973.973,0,0,1,.761.288,1.014,1.014,0,0,1,.26.705.98.98,0,0,1-.26.7.99.99,0,0,1-.761.278.975.975,0,0,1-.756-.278A.991.991,0,0,1,196.179-12.7Zm6.93.232v2.431h1.874v1.327h-1.874v6.233a1.393,1.393,0,0,0,.25.906,1.054,1.054,0,0,0,.854.3,4.155,4.155,0,0,0,.816-.111V0a5,5,0,0,1-1.317.184,2.137,2.137,0,0,1-1.735-.7,2.989,2.989,0,0,1-.584-1.976V-8.711h-1.828v-1.327h1.828v-2.431ZM208.852,0h-1.716V-10.038h1.716ZM207-12.7a1.024,1.024,0,0,1,.255-.705.958.958,0,0,1,.756-.288.973.973,0,0,1,.761.288,1.014,1.014,0,0,1,.26.705.98.98,0,0,1-.26.7.99.99,0,0,1-.761.278.975.975,0,0,1-.756-.278A.991.991,0,0,1,207-12.7Zm4.147,7.589a5.929,5.929,0,0,1,.58-2.653,4.325,4.325,0,0,1,1.614-1.818,4.394,4.394,0,0,1,2.361-.64A4.233,4.233,0,0,1,219.015-8.8a5.461,5.461,0,0,1,1.266,3.776v.121a5.981,5.981,0,0,1-.561,2.63,4.262,4.262,0,0,1-1.6,1.814,4.445,4.445,0,0,1-2.4.649,4.223,4.223,0,0,1-3.307-1.419,5.433,5.433,0,0,1-1.266-3.757Zm1.726.2a4.294,4.294,0,0,0,.775,2.681,2.479,2.479,0,0,0,2.073,1.011,2.464,2.464,0,0,0,2.078-1.025,4.7,4.7,0,0,0,.77-2.871,4.287,4.287,0,0,0-.784-2.677A2.492,2.492,0,0,0,215.7-8.813a2.465,2.465,0,0,0-2.05,1.011A4.661,4.661,0,0,0,212.869-4.908Z" transform="translate(453.5 3515.315)" fill="#636363"/>
    <path id="Trazado_298414" data-name="Trazado 298414" d="M11.949,0H10.159l-6.8-10.409V0H1.568V-13.508H3.358L10.177-3.052V-13.508h1.772Zm9.092-.993A3.646,3.646,0,0,1,18.1.186a3.12,3.12,0,0,1-2.445-.932,4.036,4.036,0,0,1-.849-2.76v-6.531h1.716v6.485q0,2.282,1.855,2.282a2.569,2.569,0,0,0,2.616-1.466v-7.3h1.716V0H21.078ZM19.649-14.25h2.078l-2.486,2.728-1.382,0Zm7.283,4.212.046,1.113a3.707,3.707,0,0,1,2.978-1.3,2.87,2.87,0,0,1,2.867,1.614,3.8,3.8,0,0,1,1.3-1.169,3.85,3.85,0,0,1,1.9-.445q3.3,0,3.358,3.5V0H37.666V-6.624a2.3,2.3,0,0,0-.492-1.61,2.165,2.165,0,0,0-1.651-.533,2.276,2.276,0,0,0-1.586.571A2.315,2.315,0,0,0,33.2-6.661V0H31.478V-6.578a1.915,1.915,0,0,0-2.143-2.189,2.3,2.3,0,0,0-2.31,1.438V0H25.309V-10.038ZM46.136.186a4.386,4.386,0,0,1-3.321-1.341,4.976,4.976,0,0,1-1.28-3.586v-.315a6.024,6.024,0,0,1,.571-2.667A4.451,4.451,0,0,1,43.7-9.56a4.012,4.012,0,0,1,2.222-.663,3.759,3.759,0,0,1,3.043,1.29,5.583,5.583,0,0,1,1.085,3.692v.714h-6.8a3.568,3.568,0,0,0,.867,2.4,2.727,2.727,0,0,0,2.111.914,2.989,2.989,0,0,0,1.54-.371,3.869,3.869,0,0,0,1.1-.983l1.048.816A4.215,4.215,0,0,1,46.136.186Zm-.213-9a2.289,2.289,0,0,0-1.744.756,3.675,3.675,0,0,0-.872,2.12h5.028v-.13a3.269,3.269,0,0,0-.705-2.027A2.155,2.155,0,0,0,45.923-8.813ZM56.889-8.5a5.143,5.143,0,0,0-.844-.065,2.262,2.262,0,0,0-2.292,1.438V0H52.037V-10.038h1.67l.028,1.16a2.672,2.672,0,0,1,2.394-1.345,1.753,1.753,0,0,1,.761.13Zm.937,3.386a5.929,5.929,0,0,1,.58-2.653A4.325,4.325,0,0,1,60.02-9.583a4.394,4.394,0,0,1,2.361-.64A4.233,4.233,0,0,1,65.7-8.8a5.461,5.461,0,0,1,1.266,3.776v.121a5.981,5.981,0,0,1-.561,2.63A4.262,4.262,0,0,1,64.8-.464a4.445,4.445,0,0,1-2.4.649,4.223,4.223,0,0,1-3.307-1.419,5.433,5.433,0,0,1-1.266-3.757Zm1.726.2a4.294,4.294,0,0,0,.775,2.681A2.479,2.479,0,0,0,62.4-1.215,2.464,2.464,0,0,0,64.478-2.24a4.7,4.7,0,0,0,.77-2.871,4.287,4.287,0,0,0-.784-2.677,2.492,2.492,0,0,0-2.083-1.025A2.465,2.465,0,0,0,60.331-7.8,4.661,4.661,0,0,0,59.551-4.908Z" transform="translate(453.5 3590.315)" fill="#636363"/>
    <path id="Trazado_298415" data-name="Trazado 298415" d="M11.949,0H10.159l-6.8-10.409V0H1.568V-13.508H3.358L10.177-3.052V-13.508h1.772Zm2.44-5.112a5.929,5.929,0,0,1,.58-2.653,4.325,4.325,0,0,1,1.614-1.818,4.394,4.394,0,0,1,2.361-.64A4.233,4.233,0,0,1,22.261-8.8a5.461,5.461,0,0,1,1.266,3.776v.121a5.981,5.981,0,0,1-.561,2.63,4.262,4.262,0,0,1-1.6,1.814,4.445,4.445,0,0,1-2.4.649,4.223,4.223,0,0,1-3.307-1.419,5.433,5.433,0,0,1-1.266-3.757Zm1.726.2a4.294,4.294,0,0,0,.775,2.681,2.479,2.479,0,0,0,2.073,1.011A2.464,2.464,0,0,0,21.041-2.24a4.7,4.7,0,0,0,.77-2.871,4.287,4.287,0,0,0-.784-2.677,2.492,2.492,0,0,0-2.083-1.025A2.465,2.465,0,0,0,16.894-7.8,4.661,4.661,0,0,0,16.115-4.908Zm11.179-5.13.046,1.113a3.707,3.707,0,0,1,2.978-1.3,2.87,2.87,0,0,1,2.867,1.614,3.8,3.8,0,0,1,1.3-1.169,3.85,3.85,0,0,1,1.9-.445q3.3,0,3.358,3.5V0H38.028V-6.624a2.3,2.3,0,0,0-.492-1.61,2.165,2.165,0,0,0-1.651-.533A2.276,2.276,0,0,0,34.3-8.2a2.315,2.315,0,0,0-.733,1.535V0H31.84V-6.578A1.915,1.915,0,0,0,29.7-8.767a2.3,2.3,0,0,0-2.31,1.438V0H25.67V-10.038Zm23.537,5.13a5.969,5.969,0,0,1-1.058,3.7,3.379,3.379,0,0,1-2.839,1.4A3.5,3.5,0,0,1,43.993-1.16L43.91,0H42.333V-14.25h1.716v5.316a3.479,3.479,0,0,1,2.867-1.29,3.4,3.4,0,0,1,2.871,1.382,6.148,6.148,0,0,1,1.044,3.785ZM49.114-5.1a4.638,4.638,0,0,0-.677-2.709,2.242,2.242,0,0,0-1.948-.956,2.52,2.52,0,0,0-2.44,1.577v4.342a2.59,2.59,0,0,0,2.458,1.577,2.23,2.23,0,0,0,1.92-.956A4.932,4.932,0,0,0,49.114-5.1Zm8.73-3.4A5.143,5.143,0,0,0,57-8.563a2.262,2.262,0,0,0-2.292,1.438V0H52.992V-10.038h1.67l.028,1.16a2.672,2.672,0,0,1,2.394-1.345,1.753,1.753,0,0,1,.761.13ZM63.587.186a4.386,4.386,0,0,1-3.321-1.341,4.976,4.976,0,0,1-1.28-3.586v-.315a6.024,6.024,0,0,1,.571-2.667,4.451,4.451,0,0,1,1.6-1.837,4.012,4.012,0,0,1,2.222-.663,3.759,3.759,0,0,1,3.043,1.29A5.583,5.583,0,0,1,67.5-5.242v.714H60.7a3.568,3.568,0,0,0,.867,2.4,2.727,2.727,0,0,0,2.111.914,2.989,2.989,0,0,0,1.54-.371,3.87,3.87,0,0,0,1.1-.983l1.048.816A4.215,4.215,0,0,1,63.587.186Zm-.213-9a2.289,2.289,0,0,0-1.744.756,3.675,3.675,0,0,0-.872,2.12h5.028v-.13a3.269,3.269,0,0,0-.705-2.027A2.155,2.155,0,0,0,63.374-8.813ZM77.5-2.329l2.486-7.709h1.753L78.143,0H76.835L73.2-10.038h1.753ZM89.591-.993A3.646,3.646,0,0,1,86.65.186a3.12,3.12,0,0,1-2.445-.932,4.036,4.036,0,0,1-.849-2.76v-6.531h1.716v6.485q0,2.282,1.855,2.282a2.569,2.569,0,0,0,2.616-1.466v-7.3h1.716V0H89.628ZM95.733,0H94.017V-14.25h1.716Zm2.338-5.1a5.9,5.9,0,0,1,1.085-3.734,3.471,3.471,0,0,1,2.876-1.387,3.453,3.453,0,0,1,2.867,1.3l.083-1.113h1.568v9.8A4.084,4.084,0,0,1,105.4,2.83a4.262,4.262,0,0,1-3.1,1.123,5.163,5.163,0,0,1-2.125-.464,3.657,3.657,0,0,1-1.586-1.271l.891-1.03a3.356,3.356,0,0,0,2.7,1.364,2.63,2.63,0,0,0,1.953-.705,2.7,2.7,0,0,0,.7-1.985V-1A3.528,3.528,0,0,1,102.014.186a3.429,3.429,0,0,1-2.853-1.419A6.2,6.2,0,0,1,98.071-5.1Zm1.726.195a4.5,4.5,0,0,0,.7,2.667,2.261,2.261,0,0,0,1.948.969,2.514,2.514,0,0,0,2.384-1.475V-7.329a2.543,2.543,0,0,0-2.366-1.438,2.281,2.281,0,0,0-1.958.974A4.9,4.9,0,0,0,99.8-4.908ZM115.336,0a3.605,3.605,0,0,1-.241-1.058A3.829,3.829,0,0,1,112.237.186a3.543,3.543,0,0,1-2.435-.84,2.716,2.716,0,0,1-.951-2.129,2.838,2.838,0,0,1,1.192-2.435,5.621,5.621,0,0,1,3.354-.867h1.67v-.789a1.928,1.928,0,0,0-.538-1.433,2.163,2.163,0,0,0-1.586-.533,2.5,2.5,0,0,0-1.54.464,1.367,1.367,0,0,0-.622,1.123h-1.726a2.369,2.369,0,0,1,.533-1.452,3.641,3.641,0,0,1,1.447-1.109,4.869,4.869,0,0,1,2.009-.408,3.968,3.968,0,0,1,2.718.867,3.129,3.129,0,0,1,1.021,2.389v4.62a5.649,5.649,0,0,0,.353,2.2V0Zm-2.848-1.308a3.016,3.016,0,0,0,1.531-.417,2.525,2.525,0,0,0,1.048-1.085v-2.06h-1.345q-3.154,0-3.154,1.846a1.562,1.562,0,0,0,.538,1.262A2.068,2.068,0,0,0,112.488-1.308ZM124.326-8.5a5.143,5.143,0,0,0-.844-.065,2.262,2.262,0,0,0-2.292,1.438V0h-1.716V-10.038h1.67l.028,1.16a2.673,2.673,0,0,1,2.394-1.345,1.753,1.753,0,0,1,.761.13Z" transform="translate(533.5 3590.315)" fill="#636363"/>
    <path id="Trazado_298416" data-name="Trazado 298416" d="M11.949,0H10.159l-6.8-10.409V0H1.568V-13.508H3.358L10.177-3.052V-13.508h1.772Zm2.44-5.112a5.929,5.929,0,0,1,.58-2.653,4.325,4.325,0,0,1,1.614-1.818,4.394,4.394,0,0,1,2.361-.64A4.233,4.233,0,0,1,22.261-8.8a5.461,5.461,0,0,1,1.266,3.776v.121a5.981,5.981,0,0,1-.561,2.63,4.262,4.262,0,0,1-1.6,1.814,4.445,4.445,0,0,1-2.4.649,4.223,4.223,0,0,1-3.307-1.419,5.433,5.433,0,0,1-1.266-3.757Zm1.726.2a4.294,4.294,0,0,0,.775,2.681,2.479,2.479,0,0,0,2.073,1.011A2.464,2.464,0,0,0,21.041-2.24a4.7,4.7,0,0,0,.77-2.871,4.287,4.287,0,0,0-.784-2.677,2.492,2.492,0,0,0-2.083-1.025A2.465,2.465,0,0,0,16.894-7.8,4.661,4.661,0,0,0,16.115-4.908Zm11.179-5.13.046,1.113a3.707,3.707,0,0,1,2.978-1.3,2.87,2.87,0,0,1,2.867,1.614,3.8,3.8,0,0,1,1.3-1.169,3.85,3.85,0,0,1,1.9-.445q3.3,0,3.358,3.5V0H38.028V-6.624a2.3,2.3,0,0,0-.492-1.61,2.165,2.165,0,0,0-1.651-.533A2.276,2.276,0,0,0,34.3-8.2a2.315,2.315,0,0,0-.733,1.535V0H31.84V-6.578A1.915,1.915,0,0,0,29.7-8.767a2.3,2.3,0,0,0-2.31,1.438V0H25.67V-10.038Zm23.537,5.13a5.969,5.969,0,0,1-1.058,3.7,3.379,3.379,0,0,1-2.839,1.4A3.5,3.5,0,0,1,43.993-1.16L43.91,0H42.333V-14.25h1.716v5.316a3.479,3.479,0,0,1,2.867-1.29,3.4,3.4,0,0,1,2.871,1.382,6.148,6.148,0,0,1,1.044,3.785ZM49.114-5.1a4.638,4.638,0,0,0-.677-2.709,2.242,2.242,0,0,0-1.948-.956,2.52,2.52,0,0,0-2.44,1.577v4.342a2.59,2.59,0,0,0,2.458,1.577,2.23,2.23,0,0,0,1.92-.956A4.932,4.932,0,0,0,49.114-5.1Zm8.73-3.4A5.143,5.143,0,0,0,57-8.563a2.262,2.262,0,0,0-2.292,1.438V0H52.992V-10.038h1.67l.028,1.16a2.672,2.672,0,0,1,2.394-1.345,1.753,1.753,0,0,1,.761.13ZM63.587.186a4.386,4.386,0,0,1-3.321-1.341,4.976,4.976,0,0,1-1.28-3.586v-.315a6.024,6.024,0,0,1,.571-2.667,4.451,4.451,0,0,1,1.6-1.837,4.012,4.012,0,0,1,2.222-.663,3.759,3.759,0,0,1,3.043,1.29A5.583,5.583,0,0,1,67.5-5.242v.714H60.7a3.568,3.568,0,0,0,.867,2.4,2.727,2.727,0,0,0,2.111.914,2.989,2.989,0,0,0,1.54-.371,3.87,3.87,0,0,0,1.1-.983l1.048.816A4.215,4.215,0,0,1,63.587.186Zm-.213-9a2.289,2.289,0,0,0-1.744.756,3.675,3.675,0,0,0-.872,2.12h5.028v-.13a3.269,3.269,0,0,0-.705-2.027A2.155,2.155,0,0,0,63.374-8.813Zm14.844,7.6a2.472,2.472,0,0,0,1.6-.557,1.958,1.958,0,0,0,.761-1.392h1.624a3.112,3.112,0,0,1-.594,1.642A3.911,3.911,0,0,1,80.152-.278a4.216,4.216,0,0,1-1.934.464,4.135,4.135,0,0,1-3.261-1.368,5.45,5.45,0,0,1-1.211-3.743v-.288a6.043,6.043,0,0,1,.538-2.607,4.1,4.1,0,0,1,1.545-1.772,4.388,4.388,0,0,1,2.38-.631,4.026,4.026,0,0,1,2.806,1.011,3.614,3.614,0,0,1,1.192,2.625H80.583a2.365,2.365,0,0,0-.738-1.6,2.294,2.294,0,0,0-1.637-.626,2.4,2.4,0,0,0-2.027.942,4.422,4.422,0,0,0-.719,2.723v.325a4.334,4.334,0,0,0,.714,2.672A2.414,2.414,0,0,0,78.217-1.215ZM86,0H84.285V-10.038H86ZM84.146-12.7a1.025,1.025,0,0,1,.255-.705.958.958,0,0,1,.756-.288.973.973,0,0,1,.761.288,1.014,1.014,0,0,1,.26.705.98.98,0,0,1-.26.7.99.99,0,0,1-.761.278A.975.975,0,0,1,84.4-12,.991.991,0,0,1,84.146-12.7ZM92.913.186a4.386,4.386,0,0,1-3.321-1.341,4.976,4.976,0,0,1-1.28-3.586v-.315a6.024,6.024,0,0,1,.571-2.667,4.451,4.451,0,0,1,1.6-1.837,4.012,4.012,0,0,1,2.222-.663,3.759,3.759,0,0,1,3.043,1.29,5.583,5.583,0,0,1,1.085,3.692v.714h-6.8a3.568,3.568,0,0,0,.867,2.4,2.727,2.727,0,0,0,2.111.914,2.989,2.989,0,0,0,1.54-.371,3.87,3.87,0,0,0,1.1-.983l1.048.816A4.215,4.215,0,0,1,92.913.186Zm-.213-9a2.289,2.289,0,0,0-1.744.756,3.675,3.675,0,0,0-.872,2.12h5.028v-.13a3.269,3.269,0,0,0-.705-2.027A2.155,2.155,0,0,0,92.7-8.813Zm7.737-1.225.056,1.262a3.658,3.658,0,0,1,3.006-1.447q3.182,0,3.21,3.59V0h-1.716V-6.643a2.311,2.311,0,0,0-.5-1.6,1.989,1.989,0,0,0-1.517-.52,2.477,2.477,0,0,0-1.466.445,3.024,3.024,0,0,0-.983,1.169V0H98.813V-10.038Zm11.188-2.431v2.431H113.5v1.327h-1.874v6.233a1.393,1.393,0,0,0,.25.906,1.054,1.054,0,0,0,.854.3,4.155,4.155,0,0,0,.816-.111V0a5.005,5.005,0,0,1-1.317.184,2.137,2.137,0,0,1-1.735-.7,2.989,2.989,0,0,1-.584-1.976V-8.711h-1.828v-1.327h1.828v-2.431ZM117.368,0h-1.726V-10.038h1.726Zm.019-14.241h2.078l-2.486,2.728-1.382,0ZM120.772,0V-8.711h-1.586v-1.327h1.586v-.854a3.487,3.487,0,0,1,.96-2.616,3.724,3.724,0,0,1,2.714-.937,8.171,8.171,0,0,1,2.625.566l-.288,1.447a5.947,5.947,0,0,0-2.208-.464,2.16,2.16,0,0,0-1.591.5,2.046,2.046,0,0,0-.487,1.489v.872h2.05v1.327H122.5V0Zm7.153,0H126.2V-10.038h1.726Zm6.819-1.215a2.472,2.472,0,0,0,1.6-.557,1.958,1.958,0,0,0,.761-1.392h1.624a3.112,3.112,0,0,1-.594,1.642,3.911,3.911,0,0,1-1.461,1.243,4.216,4.216,0,0,1-1.934.464,4.135,4.135,0,0,1-3.261-1.368,5.45,5.45,0,0,1-1.211-3.743v-.288a6.043,6.043,0,0,1,.538-2.607,4.1,4.1,0,0,1,1.545-1.772,4.388,4.388,0,0,1,2.38-.631,4.026,4.026,0,0,1,2.806,1.011,3.614,3.614,0,0,1,1.192,2.625H137.11a2.365,2.365,0,0,0-.738-1.6,2.294,2.294,0,0,0-1.637-.626,2.4,2.4,0,0,0-2.027.942,4.422,4.422,0,0,0-.719,2.723v.325a4.334,4.334,0,0,0,.714,2.672A2.414,2.414,0,0,0,134.744-1.215Zm5.464-3.9a5.929,5.929,0,0,1,.58-2.653A4.325,4.325,0,0,1,142.4-9.583a4.394,4.394,0,0,1,2.361-.64A4.233,4.233,0,0,1,148.08-8.8a5.461,5.461,0,0,1,1.266,3.776v.121a5.981,5.981,0,0,1-.561,2.63,4.262,4.262,0,0,1-1.6,1.814,4.445,4.445,0,0,1-2.4.649,4.223,4.223,0,0,1-3.307-1.419,5.433,5.433,0,0,1-1.266-3.757Zm1.726.2a4.294,4.294,0,0,0,.775,2.681,2.479,2.479,0,0,0,2.073,1.011A2.464,2.464,0,0,0,146.86-2.24a4.7,4.7,0,0,0,.77-2.871,4.287,4.287,0,0,0-.784-2.677,2.492,2.492,0,0,0-2.083-1.025,2.465,2.465,0,0,0-2.05,1.011A4.661,4.661,0,0,0,141.934-4.908Z" transform="translate(671.5 3590.315)" fill="#636363"/>
    <path id="Trazado_298417" data-name="Trazado 298417" d="M11.958-6.318a8.356,8.356,0,0,1-.668,3.465A5.06,5.06,0,0,1,9.4-.594,5.207,5.207,0,0,1,6.541.186,5.163,5.163,0,0,1,3.711-.6,5.18,5.18,0,0,1,1.8-2.834a8.018,8.018,0,0,1-.7-3.363v-.974a8.257,8.257,0,0,1,.677-3.442A5.162,5.162,0,0,1,3.688-12.9a5.14,5.14,0,0,1,2.834-.793,5.236,5.236,0,0,1,2.862.784,5.05,5.05,0,0,1,1.906,2.273,8.4,8.4,0,0,1,.668,3.465ZM10.187-7.19a6.056,6.056,0,0,0-.965-3.688,3.182,3.182,0,0,0-2.7-1.285,3.148,3.148,0,0,0-2.658,1.285,5.932,5.932,0,0,0-1,3.567v.993a6.065,6.065,0,0,0,.979,3.66,3.161,3.161,0,0,0,2.7,1.331A3.149,3.149,0,0,0,9.212-2.584a6.031,6.031,0,0,0,.974-3.6ZM22.859-4.908a5.969,5.969,0,0,1-1.058,3.7,3.379,3.379,0,0,1-2.839,1.4A3.5,3.5,0,0,1,16.022-1.16L15.938,0H14.361V-14.25h1.716v5.316a3.479,3.479,0,0,1,2.867-1.29,3.4,3.4,0,0,1,2.871,1.382,6.148,6.148,0,0,1,1.044,3.785ZM21.143-5.1a4.638,4.638,0,0,0-.677-2.709,2.242,2.242,0,0,0-1.948-.956,2.52,2.52,0,0,0-2.44,1.577v4.342a2.59,2.59,0,0,0,2.458,1.577,2.23,2.23,0,0,0,1.92-.956A4.932,4.932,0,0,0,21.143-5.1Zm9.723,2.44a1.263,1.263,0,0,0-.524-1.081,5.045,5.045,0,0,0-1.828-.663,8.641,8.641,0,0,1-2.069-.668A2.943,2.943,0,0,1,25.313-6a2.219,2.219,0,0,1-.366-1.28A2.6,2.6,0,0,1,25.99-9.37a4.076,4.076,0,0,1,2.667-.854,4.194,4.194,0,0,1,2.769.881,2.8,2.8,0,0,1,1.062,2.254H30.764a1.549,1.549,0,0,0-.6-1.215,2.242,2.242,0,0,0-1.508-.51,2.346,2.346,0,0,0-1.466.408,1.285,1.285,0,0,0-.529,1.067,1.041,1.041,0,0,0,.492.937,6.05,6.05,0,0,0,1.777.6,9.257,9.257,0,0,1,2.083.687,3.038,3.038,0,0,1,1.183.96,2.361,2.361,0,0,1,.385,1.368A2.569,2.569,0,0,1,31.506-.626a4.514,4.514,0,0,1-2.792.812A5.055,5.055,0,0,1,26.58-.241a3.47,3.47,0,0,1-1.452-1.192A2.873,2.873,0,0,1,24.6-3.089H26.32a1.777,1.777,0,0,0,.691,1.368,2.681,2.681,0,0,0,1.7.506,2.768,2.768,0,0,0,1.563-.394A1.212,1.212,0,0,0,30.866-2.663ZM38.983.186a4.386,4.386,0,0,1-3.321-1.341,4.976,4.976,0,0,1-1.28-3.586v-.315a6.024,6.024,0,0,1,.571-2.667,4.451,4.451,0,0,1,1.6-1.837,4.012,4.012,0,0,1,2.222-.663,3.759,3.759,0,0,1,3.043,1.29A5.583,5.583,0,0,1,42.9-5.242v.714H36.1a3.568,3.568,0,0,0,.867,2.4,2.727,2.727,0,0,0,2.111.914,2.989,2.989,0,0,0,1.54-.371,3.869,3.869,0,0,0,1.1-.983l1.048.816A4.215,4.215,0,0,1,38.983.186Zm-.213-9a2.289,2.289,0,0,0-1.744.756,3.675,3.675,0,0,0-.872,2.12h5.028v-.13a3.269,3.269,0,0,0-.705-2.027A2.155,2.155,0,0,0,38.77-8.813ZM49.736-8.5a5.143,5.143,0,0,0-.844-.065A2.262,2.262,0,0,0,46.6-7.125V0H44.884V-10.038h1.67l.028,1.16a2.672,2.672,0,0,1,2.394-1.345,1.753,1.753,0,0,1,.761.13Zm5.056,6.169,2.486-7.709h1.753L55.432,0H54.124L50.487-10.038h1.753ZM66.741,0A3.605,3.605,0,0,1,66.5-1.058,3.829,3.829,0,0,1,63.643.186a3.543,3.543,0,0,1-2.435-.84,2.716,2.716,0,0,1-.951-2.129,2.838,2.838,0,0,1,1.192-2.435A5.621,5.621,0,0,1,64.8-6.086h1.67v-.789a1.928,1.928,0,0,0-.538-1.433,2.163,2.163,0,0,0-1.586-.533,2.5,2.5,0,0,0-1.54.464,1.367,1.367,0,0,0-.622,1.123H60.46a2.369,2.369,0,0,1,.533-1.452,3.641,3.641,0,0,1,1.447-1.109,4.869,4.869,0,0,1,2.009-.408,3.968,3.968,0,0,1,2.718.867,3.129,3.129,0,0,1,1.021,2.389v4.62a5.649,5.649,0,0,0,.353,2.2V0ZM63.893-1.308a3.016,3.016,0,0,0,1.531-.417,2.525,2.525,0,0,0,1.048-1.085v-2.06H65.127q-3.154,0-3.154,1.846a1.562,1.562,0,0,0,.538,1.262A2.068,2.068,0,0,0,63.893-1.308Zm11.012.093a2.472,2.472,0,0,0,1.6-.557,1.958,1.958,0,0,0,.761-1.392h1.624A3.112,3.112,0,0,1,78.3-1.521,3.911,3.911,0,0,1,76.84-.278a4.216,4.216,0,0,1-1.934.464,4.135,4.135,0,0,1-3.261-1.368,5.45,5.45,0,0,1-1.211-3.743v-.288a6.043,6.043,0,0,1,.538-2.607,4.1,4.1,0,0,1,1.545-1.772,4.388,4.388,0,0,1,2.38-.631A4.026,4.026,0,0,1,77.7-9.212a3.614,3.614,0,0,1,1.192,2.625H77.271a2.365,2.365,0,0,0-.738-1.6A2.294,2.294,0,0,0,74.9-8.813a2.4,2.4,0,0,0-2.027.942,4.422,4.422,0,0,0-.719,2.723v.325a4.334,4.334,0,0,0,.714,2.672A2.414,2.414,0,0,0,74.905-1.215ZM82.689,0H80.973V-10.038h1.716ZM80.833-12.7a1.025,1.025,0,0,1,.255-.705.958.958,0,0,1,.756-.288.973.973,0,0,1,.761.288,1.014,1.014,0,0,1,.26.705.98.98,0,0,1-.26.7.99.99,0,0,1-.761.278A.975.975,0,0,1,81.089-12,.991.991,0,0,1,80.833-12.7ZM84.98-5.112a5.929,5.929,0,0,1,.58-2.653,4.326,4.326,0,0,1,1.614-1.818,4.394,4.394,0,0,1,2.361-.64A4.233,4.233,0,0,1,92.852-8.8a5.461,5.461,0,0,1,1.266,3.776v.121a5.981,5.981,0,0,1-.561,2.63,4.262,4.262,0,0,1-1.6,1.814,4.445,4.445,0,0,1-2.4.649,4.223,4.223,0,0,1-3.307-1.419A5.433,5.433,0,0,1,84.98-4.991Zm1.726.2a4.294,4.294,0,0,0,.775,2.681,2.479,2.479,0,0,0,2.073,1.011A2.464,2.464,0,0,0,91.632-2.24a4.7,4.7,0,0,0,.77-2.871,4.287,4.287,0,0,0-.784-2.677,2.492,2.492,0,0,0-2.083-1.025A2.465,2.465,0,0,0,87.485-7.8,4.661,4.661,0,0,0,86.706-4.908Zm11.188-5.13.056,1.262a3.658,3.658,0,0,1,3.006-1.447q3.182,0,3.21,3.59V0H102.45V-6.643a2.311,2.311,0,0,0-.5-1.6,1.989,1.989,0,0,0-1.517-.52,2.477,2.477,0,0,0-1.466.445,3.024,3.024,0,0,0-.983,1.169V0H96.271V-10.038ZM110.92.186A4.386,4.386,0,0,1,107.6-1.155a4.976,4.976,0,0,1-1.28-3.586v-.315a6.024,6.024,0,0,1,.571-2.667,4.451,4.451,0,0,1,1.6-1.837,4.012,4.012,0,0,1,2.222-.663,3.759,3.759,0,0,1,3.043,1.29,5.583,5.583,0,0,1,1.085,3.692v.714h-6.8a3.568,3.568,0,0,0,.867,2.4,2.727,2.727,0,0,0,2.111.914,2.989,2.989,0,0,0,1.54-.371,3.87,3.87,0,0,0,1.1-.983l1.048.816A4.215,4.215,0,0,1,110.92.186Zm-.213-9a2.289,2.289,0,0,0-1.744.756,3.675,3.675,0,0,0-.872,2.12h5.028v-.13a3.269,3.269,0,0,0-.705-2.027A2.155,2.155,0,0,0,110.707-8.813Zm11.958,6.151a1.263,1.263,0,0,0-.524-1.081,5.045,5.045,0,0,0-1.828-.663,8.641,8.641,0,0,1-2.069-.668A2.943,2.943,0,0,1,117.113-6a2.219,2.219,0,0,1-.366-1.28A2.6,2.6,0,0,1,117.79-9.37a4.076,4.076,0,0,1,2.667-.854,4.194,4.194,0,0,1,2.769.881,2.8,2.8,0,0,1,1.062,2.254h-1.726a1.549,1.549,0,0,0-.6-1.215,2.242,2.242,0,0,0-1.508-.51,2.347,2.347,0,0,0-1.466.408,1.285,1.285,0,0,0-.529,1.067,1.041,1.041,0,0,0,.492.937,6.05,6.05,0,0,0,1.777.6,9.257,9.257,0,0,1,2.083.687,3.038,3.038,0,0,1,1.183.96,2.361,2.361,0,0,1,.385,1.368,2.569,2.569,0,0,1-1.076,2.157,4.514,4.514,0,0,1-2.792.812,5.055,5.055,0,0,1-2.134-.427,3.47,3.47,0,0,1-1.452-1.192,2.873,2.873,0,0,1-.524-1.656h1.716a1.777,1.777,0,0,0,.691,1.368,2.681,2.681,0,0,0,1.7.506,2.768,2.768,0,0,0,1.563-.394A1.212,1.212,0,0,0,122.665-2.663Z" transform="translate(936.5 3590.315)" fill="#636363"/>
    <path id="Trazado_298418" data-name="Trazado 298418" d="M11.32,0h-1.7L3.182-9.861V0h-1.7V-12.8h1.7l6.46,9.905V-12.8H11.32Zm8.613-.94A3.454,3.454,0,0,1,17.147.176a2.956,2.956,0,0,1-2.316-.883,3.823,3.823,0,0,1-.8-2.615V-9.51h1.626v6.144q0,2.162,1.758,2.162A2.434,2.434,0,0,0,19.89-2.593V-9.51h1.626V0H19.969ZM18.615-13.5h1.969l-2.355,2.584-1.31,0Zm6.9,3.99.044,1.055a3.512,3.512,0,0,1,2.821-1.23A2.719,2.719,0,0,1,31.1-8.156a3.6,3.6,0,0,1,1.235-1.107,3.647,3.647,0,0,1,1.8-.422q3.129,0,3.182,3.313V0H35.684V-6.275A2.184,2.184,0,0,0,35.218-7.8a2.051,2.051,0,0,0-1.564-.505,2.156,2.156,0,0,0-1.5.541,2.193,2.193,0,0,0-.694,1.455V0H29.821V-6.231a1.814,1.814,0,0,0-2.03-2.074A2.175,2.175,0,0,0,25.6-6.943V0H23.977V-9.51ZM43.708.176a4.155,4.155,0,0,1-3.146-1.27,4.714,4.714,0,0,1-1.213-3.4v-.3a5.707,5.707,0,0,1,.541-2.527A4.217,4.217,0,0,1,41.4-9.057a3.8,3.8,0,0,1,2.1-.628,3.562,3.562,0,0,1,2.883,1.222,5.289,5.289,0,0,1,1.028,3.5v.677H40.975A3.38,3.38,0,0,0,41.8-2.017a2.583,2.583,0,0,0,2,.866A2.832,2.832,0,0,0,45.255-1.5,3.666,3.666,0,0,0,46.3-2.435l.993.773A3.993,3.993,0,0,1,43.708.176Zm-.2-8.525a2.169,2.169,0,0,0-1.652.716,3.482,3.482,0,0,0-.826,2.008h4.764v-.123a3.1,3.1,0,0,0-.668-1.92A2.042,2.042,0,0,0,43.506-8.35Zm10.389.3a4.873,4.873,0,0,0-.8-.062A2.143,2.143,0,0,0,50.924-6.75V0H49.3V-9.51H50.88l.026,1.1a2.532,2.532,0,0,1,2.268-1.274,1.661,1.661,0,0,1,.721.123Zm.888,3.208a5.617,5.617,0,0,1,.549-2.514,4.1,4.1,0,0,1,1.529-1.723A4.163,4.163,0,0,1,59.1-9.686,4.01,4.01,0,0,1,62.24-8.341a5.174,5.174,0,0,1,1.2,3.577v.114a5.666,5.666,0,0,1-.532,2.492A4.038,4.038,0,0,1,61.387-.439a4.211,4.211,0,0,1-2.272.615,4,4,0,0,1-3.133-1.345,5.147,5.147,0,0,1-1.2-3.56Zm1.635.193a4.068,4.068,0,0,0,.734,2.54,2.349,2.349,0,0,0,1.964.958,2.335,2.335,0,0,0,1.969-.971,4.449,4.449,0,0,0,.729-2.72,4.061,4.061,0,0,0-.743-2.536A2.361,2.361,0,0,0,59.1-8.35a2.335,2.335,0,0,0-1.942.958A4.416,4.416,0,0,0,56.417-4.649Zm13.122-.185a5.571,5.571,0,0,1,1.037-3.52,3.28,3.28,0,0,1,2.716-1.332,3.3,3.3,0,0,1,2.646,1.143V-13.5h1.626V0H76.069L75.99-1.02a3.311,3.311,0,0,1-2.716,1.2,3.248,3.248,0,0,1-2.694-1.354,5.634,5.634,0,0,1-1.042-3.533Zm1.626.185a4.218,4.218,0,0,0,.668,2.531,2.159,2.159,0,0,0,1.846.914,2.372,2.372,0,0,0,2.259-1.389V-6.961A2.39,2.39,0,0,0,73.7-8.306a2.17,2.17,0,0,0-1.863.923A4.644,4.644,0,0,0,71.165-4.649ZM84.032.176a4.155,4.155,0,0,1-3.146-1.27,4.714,4.714,0,0,1-1.213-3.4v-.3a5.707,5.707,0,0,1,.541-2.527,4.217,4.217,0,0,1,1.512-1.74,3.8,3.8,0,0,1,2.1-.628,3.562,3.562,0,0,1,2.883,1.222,5.289,5.289,0,0,1,1.028,3.5v.677H81.3a3.38,3.38,0,0,0,.822,2.272,2.583,2.583,0,0,0,2,.866A2.832,2.832,0,0,0,85.579-1.5a3.666,3.666,0,0,0,1.046-.932l.993.773A3.993,3.993,0,0,1,84.032.176Zm-.2-8.525a2.169,2.169,0,0,0-1.652.716,3.482,3.482,0,0,0-.826,2.008h4.764v-.123a3.1,3.1,0,0,0-.668-1.92A2.042,2.042,0,0,0,83.83-8.35ZM3,27H1.371V17.49H3ZM1.239,14.968a.971.971,0,0,1,.242-.668.907.907,0,0,1,.716-.272.922.922,0,0,1,.721.272.96.96,0,0,1,.246.668.929.929,0,0,1-.246.659.938.938,0,0,1-.721.264.924.924,0,0,1-.716-.264A.938.938,0,0,1,1.239,14.968Zm5.9,2.522.053,1.2a3.465,3.465,0,0,1,2.848-1.371q3.015,0,3.041,3.4V27H11.452V20.707a2.189,2.189,0,0,0-.47-1.521,1.884,1.884,0,0,0-1.437-.492,2.347,2.347,0,0,0-1.389.422,2.865,2.865,0,0,0-.932,1.107V27H5.6V17.49Zm8,4.676a5.571,5.571,0,0,1,1.037-3.52,3.28,3.28,0,0,1,2.716-1.332,3.3,3.3,0,0,1,2.646,1.143V13.5h1.626V27H21.665l-.079-1.02a3.311,3.311,0,0,1-2.716,1.2,3.248,3.248,0,0,1-2.694-1.354,5.634,5.634,0,0,1-1.042-3.533Zm1.626.185a4.218,4.218,0,0,0,.668,2.531,2.159,2.159,0,0,0,1.846.914,2.372,2.372,0,0,0,2.259-1.389V20.039a2.39,2.39,0,0,0-2.241-1.345,2.17,2.17,0,0,0-1.863.923A4.644,4.644,0,0,0,16.761,22.351ZM27.448,27H25.822V17.49h1.626ZM25.69,14.968a.971.971,0,0,1,.242-.668.907.907,0,0,1,.716-.272.922.922,0,0,1,.721.272.96.96,0,0,1,.246.668.929.929,0,0,1-.246.659.938.938,0,0,1-.721.264.924.924,0,0,1-.716-.264A.938.938,0,0,1,25.69,14.968Zm7.5,9.826,2.355-7.3H37.2L33.794,27H32.555l-3.445-9.51h1.661ZM40.535,27H38.909V17.49h1.626ZM38.777,14.968a.971.971,0,0,1,.242-.668.907.907,0,0,1,.716-.272.922.922,0,0,1,.721.272.96.96,0,0,1,.246.668.929.929,0,0,1-.246.659.938.938,0,0,1-.721.264.924.924,0,0,1-.716-.264A.938.938,0,0,1,38.777,14.968Zm3.964,7.2a5.571,5.571,0,0,1,1.037-3.52,3.529,3.529,0,0,1,5.361-.189V13.5h1.626V27H49.271l-.079-1.02a3.311,3.311,0,0,1-2.716,1.2,3.248,3.248,0,0,1-2.694-1.354,5.634,5.634,0,0,1-1.042-3.533Zm1.626.185a4.218,4.218,0,0,0,.668,2.531,2.159,2.159,0,0,0,1.846.914,2.372,2.372,0,0,0,2.259-1.389V20.039A2.39,2.39,0,0,0,46.9,18.694a2.17,2.17,0,0,0-1.863.923A4.644,4.644,0,0,0,44.367,22.351ZM59.159,26.06a3.454,3.454,0,0,1-2.786,1.116,2.956,2.956,0,0,1-2.316-.883,3.823,3.823,0,0,1-.8-2.615V17.49h1.626v6.144q0,2.162,1.758,2.162a2.434,2.434,0,0,0,2.479-1.389V17.49h1.626V27H59.194Zm3.621-3.9a5.617,5.617,0,0,1,.549-2.514,4.1,4.1,0,0,1,1.529-1.723,4.163,4.163,0,0,1,2.237-.606,4.01,4.01,0,0,1,3.142,1.345,5.174,5.174,0,0,1,1.2,3.577v.114a5.666,5.666,0,0,1-.532,2.492,4.038,4.038,0,0,1-1.521,1.718,4.211,4.211,0,0,1-2.272.615,4,4,0,0,1-3.133-1.345,5.147,5.147,0,0,1-1.2-3.56Zm1.635.193a4.068,4.068,0,0,0,.734,2.54,2.487,2.487,0,0,0,3.933-.013,4.449,4.449,0,0,0,.729-2.72,4.061,4.061,0,0,0-.743-2.536A2.361,2.361,0,0,0,67.1,18.65a2.335,2.335,0,0,0-1.942.958A4.416,4.416,0,0,0,64.415,22.351Zm14.6,2.127a1.2,1.2,0,0,0-.5-1.024,4.78,4.78,0,0,0-1.731-.628,8.186,8.186,0,0,1-1.96-.633,2.788,2.788,0,0,1-1.072-.879,2.1,2.1,0,0,1-.347-1.213,2.467,2.467,0,0,1,.989-1.978,3.861,3.861,0,0,1,2.527-.809,3.974,3.974,0,0,1,2.624.835,2.652,2.652,0,0,1,1.006,2.136H78.917a1.468,1.468,0,0,0-.567-1.151,2.124,2.124,0,0,0-1.428-.483,2.223,2.223,0,0,0-1.389.387,1.217,1.217,0,0,0-.5,1.011.986.986,0,0,0,.466.888,5.731,5.731,0,0,0,1.683.571,8.77,8.77,0,0,1,1.973.65,2.878,2.878,0,0,1,1.121.91,2.237,2.237,0,0,1,.365,1.3,2.434,2.434,0,0,1-1.02,2.043,4.277,4.277,0,0,1-2.646.769,4.789,4.789,0,0,1-2.021-.4,3.288,3.288,0,0,1-1.375-1.129,2.722,2.722,0,0,1-.5-1.569h1.626a1.683,1.683,0,0,0,.655,1.3,2.54,2.54,0,0,0,1.613.479,2.622,2.622,0,0,0,1.481-.374A1.148,1.148,0,0,0,79.014,24.478Z" transform="translate(835.5 3561.315)" fill="#636363"/>
    <path id="Trazado_298419" data-name="Trazado 298419" d="M0,0H141.866" transform="translate(612.806 3418.178)" fill="none" stroke="#707070" stroke-width="1" stroke-dasharray="2"/>
    <path id="Trazado_298420" data-name="Trazado 298420" d="M0,0H172.863" transform="translate(581.81 3467.057)" fill="none" stroke="#707070" stroke-width="1" stroke-dasharray="2"/>
    <path id="Trazado_298421" data-name="Trazado 298421" d="M0,0H351" transform="translate(680.5 3513.315)" fill="none" stroke="#707070" stroke-width="1" stroke-dasharray="2"/>
    <path id="Trazado_298422" data-name="Trazado 298422" d="M0,0H89.412" transform="translate(941.841 3467.057)" fill="none" stroke="#707070" stroke-width="1" stroke-dasharray="2"/>
    <path id="Trazado_298423" data-name="Trazado 298423" d="M0,0H149.019" transform="translate(882.233 3442.021)" fill="none" stroke="#707070" stroke-width="1" stroke-dasharray="2"/>
    <path id="Trazado_298424" data-name="Trazado 298424" d="M0,0H149.019" transform="translate(882.233 3418.178)" fill="none" stroke="#707070" stroke-width="1" stroke-dasharray="2"/>
    <path id="Trazado_298425" data-name="Trazado 298425" d="M0,0H215.78" transform="translate(538.892 3442.021)" fill="none" stroke="#707070" stroke-width="1" stroke-dasharray="2"/>
  </g>
</svg>
