<svg xmlns="http://www.w3.org/2000/svg" width="85" height="85" viewBox="0 0 85 85">
  <g id="Grupo_882879" data-name="Grupo 882879" transform="translate(-192.5 -1948.749)">
    <circle id="Elipse_6004" data-name="Elipse 6004" cx="42.5" cy="42.5" r="42.5" transform="translate(192.5 1948.749)" fill="#e26c1e"/>
    <g id="Icon_ionic-ios-body" data-name="Icon ionic-ios-body" transform="translate(202.46 1957.246)">
      <path id="Trazado_297758" data-name="Trazado 297758" d="M28.522,9.2A6.949,6.949,0,1,1,21.574,2.25,6.949,6.949,0,0,1,28.522,9.2Z" transform="translate(10.721)" fill="#fff"/>
      <path id="Trazado_297759" data-name="Trazado 297759" d="M56.616,10.125H7.974a3.474,3.474,0,0,0,0,6.949H22.234a3.065,3.065,0,0,1,2.49,2.056c.68,1.752.347,4.864-.072,7.484l-.55,3.1a.053.053,0,0,1-.014.043h0l-4.4,24.929a3.476,3.476,0,0,0,2.823,4.024,3.44,3.44,0,0,0,4-2.823l3.04-17.357v.029s.9-4.7,2.678-4.7h.159c1.81,0,2.678,4.7,2.678,4.7v-.014L38.1,55.9a3.463,3.463,0,1,0,6.818-1.216l-4.4-24.929h0a.053.053,0,0,0-.014-.043l-.55-3.1c-.42-2.62-.753-5.733-.072-7.484a3.065,3.065,0,0,1,2.49-2.056H56.616a3.474,3.474,0,0,0,0-6.949Z" transform="translate(0 8.339)" fill="#fff"/>
    </g>
  </g>
</svg>
