<svg xmlns="http://www.w3.org/2000/svg" width="221" height="216.363" viewBox="0 0 221 216.363">
  <g id="Grupo_882879" data-name="Grupo 882879" transform="translate(-317.5 -1056)">
    <g id="Grupo_882323" data-name="Grupo 882323">
      <path id="Trazado_296657" data-name="Trazado 296657" d="M95.5,0A95.5,95.5,0,1,1,0,95.5,95.5,95.5,0,0,1,95.5,0Z" transform="translate(328.498 1056)" fill="#d0eaec"/>
      <g id="Grupo_882322" data-name="Grupo 882322">
        <g id="Grupo_881127" data-name="Grupo 881127" transform="translate(-4486.117 6068.1) rotate(8)">
          <g id="Grupo_878187" data-name="Grupo 878187" transform="translate(4118.714 -5616.37)">
            <rect id="Rectángulo_294190" data-name="Rectángulo 294190" width="1.856" height="108.41" transform="translate(97.686 1.031)" fill="#ededed"/>
            <rect id="Rectángulo_294191" data-name="Rectángulo 294191" width="1.856" height="106.747" transform="translate(99.541 2.06)" fill="#d3d3d3"/>
            <rect id="Rectángulo_294192" data-name="Rectángulo 294192" width="90.808" height="109.874" transform="translate(6.874 0)" fill="#fff"/>
            <path id="Trazado_271688" data-name="Trazado 271688" d="M219.965,180.181a2.2,2.2,0,1,1-2.2-2.2A2.2,2.2,0,0,1,219.965,180.181Z" transform="translate(-205.781 -172.142)" fill="#4a4647"/>
            <circle id="Elipse_5880" data-name="Elipse 5880" cx="2.198" cy="2.198" r="2.198" transform="translate(9.787 21.173)" fill="#4a4647"/>
            <path id="Trazado_271689" data-name="Trazado 271689" d="M219.965,314.337a2.2,2.2,0,1,1-2.2-2.2A2.2,2.2,0,0,1,219.965,314.337Z" transform="translate(-205.781 -275.633)" fill="#4a4647"/>
            <circle id="Elipse_5881" data-name="Elipse 5881" cx="2.198" cy="2.198" r="2.198" transform="translate(9.787 51.838)" fill="#4a4647"/>
            <circle id="Elipse_5882" data-name="Elipse 5882" cx="2.199" cy="2.199" r="2.199" transform="matrix(0.023, -1, 1, 0.023, 9.738, 71.517)" fill="#4a4647"/>
            <circle id="Elipse_5883" data-name="Elipse 5883" cx="2.198" cy="2.198" r="2.198" transform="matrix(1, -0.025, 0.025, 1, 9.733, 82.56)" fill="#4a4647"/>
            <circle id="Elipse_5884" data-name="Elipse 5884" cx="2.199" cy="2.199" r="2.199" transform="matrix(0.023, -1, 1, 0.023, 9.738, 102.182)" fill="#4a4647"/>
            <rect id="Rectángulo_296943" data-name="Rectángulo 296943" width="6.342" height="6.341" transform="translate(23.159 15.078)" fill="none" stroke="#4a4647" stroke-miterlimit="10" stroke-width="1"/>
            <rect id="Rectángulo_296944" data-name="Rectángulo 296944" width="6.342" height="6.341" transform="translate(22.58 29.194)" fill="none" stroke="#4a4647" stroke-miterlimit="10" stroke-width="1"/>
            <rect id="Rectángulo_296945" data-name="Rectángulo 296945" width="6.342" height="6.341" transform="translate(21.984 46.508)" fill="none" stroke="#4a4647" stroke-miterlimit="10" stroke-width="1"/>
            <rect id="Rectángulo_296946" data-name="Rectángulo 296946" width="6.342" height="6.341" transform="translate(21.325 63.375)" fill="none" stroke="#4a4647" stroke-miterlimit="10" stroke-width="1"/>
            <rect id="Rectángulo_296947" data-name="Rectángulo 296947" width="6.342" height="6.341" transform="translate(20.892 77.902)" fill="none" stroke="#4a4647" stroke-miterlimit="10" stroke-width="1"/>
            <rect id="Rectángulo_296948" data-name="Rectángulo 296948" width="6.342" height="6.341" transform="translate(20.995 91.536)" fill="none" stroke="#4a4647" stroke-miterlimit="10" stroke-width="1"/>
            <g id="Grupo_878179" data-name="Grupo 878179" transform="translate(32.638 20.622)">
              <line id="Línea_192" data-name="Línea 192" x1="48.873" transform="translate(0.127 0.127)" fill="#4a4647"/>
              <path id="Trazado_271690" data-name="Trazado 271690" d="M303.039,182.537H254.167a.127.127,0,0,1,0-.254h48.872a.127.127,0,1,1,0,.254Z" transform="translate(-254.04 -182.283)" fill="#4a4647"/>
            </g>
            <g id="Grupo_882316" data-name="Grupo 882316" transform="translate(32.453 35.829)">
              <line id="Línea_192-2" data-name="Línea 192" x1="48.873" transform="translate(0.127 0.127)" fill="#4a4647"/>
              <path id="Trazado_271690-2" data-name="Trazado 271690" d="M303.039,182.537H254.167a.127.127,0,0,1,0-.254h48.872a.127.127,0,1,1,0,.254Z" transform="translate(-254.04 -182.283)" fill="#4a4647"/>
            </g>
            <g id="Grupo_882317" data-name="Grupo 882317" transform="translate(34.911 53.322)">
              <line id="Línea_192-3" data-name="Línea 192" x1="48.873" transform="translate(0.127 0.127)" fill="#4a4647"/>
              <path id="Trazado_271690-3" data-name="Trazado 271690" d="M303.039,182.537H254.167a.127.127,0,0,1,0-.254h48.872a.127.127,0,1,1,0,.254Z" transform="translate(-254.04 -182.283)" fill="#4a4647"/>
            </g>
            <g id="Grupo_882318" data-name="Grupo 882318" transform="translate(35.159 68.468)">
              <line id="Línea_192-4" data-name="Línea 192" x1="48.873" transform="translate(0.127 0.127)" fill="#4a4647"/>
              <path id="Trazado_271690-4" data-name="Trazado 271690" d="M303.039,182.537H254.167a.127.127,0,0,1,0-.254h48.872a.127.127,0,1,1,0,.254Z" transform="translate(-254.04 -182.283)" fill="#4a4647"/>
            </g>
            <g id="Grupo_882319" data-name="Grupo 882319" transform="translate(33.071 84.198)">
              <line id="Línea_192-5" data-name="Línea 192" x1="48.873" transform="translate(0.127 0.127)" fill="#4a4647"/>
              <path id="Trazado_271690-5" data-name="Trazado 271690" d="M303.039,182.537H254.167a.127.127,0,0,1,0-.254h48.872a.127.127,0,1,1,0,.254Z" transform="translate(-254.04 -182.283)" fill="#4a4647"/>
            </g>
            <g id="Grupo_882320" data-name="Grupo 882320" transform="translate(31.861 97.149)">
              <line id="Línea_192-6" data-name="Línea 192" x1="48.873" transform="translate(0.127 0.127)" fill="#4a4647"/>
              <path id="Trazado_271690-6" data-name="Trazado 271690" d="M303.039,182.537H254.167a.127.127,0,0,1,0-.254h48.872a.127.127,0,1,1,0,.254Z" transform="translate(-254.04 -182.283)" fill="#4a4647"/>
            </g>
            <g id="Grupo_878180" data-name="Grupo 878180" transform="translate(0 6.644)">
              <path id="Trazado_271691" data-name="Trazado 271691" d="M184.293,184.288H174.146a1.4,1.4,0,0,1,0-2.79h10.147a1.4,1.4,0,1,1,0,2.79Z" transform="translate(-172.751 -181.498)" fill="#13547a"/>
            </g>
            <g id="Grupo_878181" data-name="Grupo 878181" transform="translate(0 21.948)">
              <path id="Trazado_271692" data-name="Trazado 271692" d="M184.293,251.242H174.146a1.4,1.4,0,0,1,0-2.79h10.147a1.4,1.4,0,1,1,0,2.79Z" transform="translate(-172.751 -248.452)" fill="#13547a"/>
            </g>
            <g id="Grupo_878182" data-name="Grupo 878182" transform="translate(0 37.295)">
              <path id="Trazado_271693" data-name="Trazado 271693" d="M184.293,318.381H174.146a1.4,1.4,0,0,1,0-2.79h10.147a1.4,1.4,0,1,1,0,2.79Z" transform="translate(-172.751 -315.591)" fill="#13547a"/>
            </g>
            <g id="Grupo_878183" data-name="Grupo 878183" transform="translate(0 52.642)">
              <path id="Trazado_271694" data-name="Trazado 271694" d="M184.293,385.521H174.146a1.4,1.4,0,0,1,0-2.79h10.147a1.4,1.4,0,1,1,0,2.79Z" transform="translate(-172.751 -382.73)" fill="#13547a"/>
            </g>
            <g id="Grupo_878184" data-name="Grupo 878184" transform="translate(0 67.988)">
              <path id="Trazado_271695" data-name="Trazado 271695" d="M184.293,452.659H174.146a1.4,1.4,0,0,1,0-2.79h10.147a1.4,1.4,0,1,1,0,2.79Z" transform="translate(-172.751 -449.869)" fill="#13547a"/>
            </g>
            <g id="Grupo_878185" data-name="Grupo 878185" transform="translate(0 83.462)">
              <path id="Trazado_271696" data-name="Trazado 271696" d="M184.293,520.354H174.146a1.4,1.4,0,0,1,0-2.79h10.147a1.4,1.4,0,1,1,0,2.79Z" transform="translate(-172.751 -517.564)" fill="#13547a"/>
            </g>
            <g id="Grupo_878186" data-name="Grupo 878186" transform="translate(0 98.618)">
              <path id="Trazado_271697" data-name="Trazado 271697" d="M184.293,586.66H174.146a1.4,1.4,0,0,1,0-2.79h10.147a1.4,1.4,0,1,1,0,2.79Z" transform="translate(-172.751 -583.87)" fill="#13547a"/>
            </g>
          </g>
          <path id="Trazado_271709" data-name="Trazado 271709" d="M216.017,124.68l-.017-.014C216.008,124.7,216.013,124.7,216.017,124.68Z" transform="translate(3912.6 -5747.382)" fill="#fff6de"/>
        </g>
        <g id="Icon_feather-check-circle" data-name="Icon feather-check-circle" transform="translate(479.172 1142.149) rotate(14)">
          <path id="Trazado_296655" data-name="Trazado 296655" d="M33,16.62V18A15,15,0,1,1,24.105,4.29" fill="none" stroke="#27c21c" stroke-linecap="round" stroke-linejoin="round" stroke-width="3"/>
          <path id="Trazado_296656" data-name="Trazado 296656" d="M33,6,18,21.015l-4.5-4.5" fill="none" stroke="#27c21c" stroke-linecap="round" stroke-linejoin="round" stroke-width="3"/>
        </g>
        <g id="Grupo_882321" data-name="Grupo 882321">
          <path id="Icon_awesome-search" data-name="Icon awesome-search" d="M62.873,55.116,50.46,42.7a2.986,2.986,0,0,0-2.117-.872H46.314a25.884,25.884,0,1,0-4.482,4.482v2.029A2.986,2.986,0,0,0,42.7,50.46L55.116,62.873a2.976,2.976,0,0,0,4.221,0l3.523-3.523a3,3,0,0,0,.012-4.233ZM25.9,41.832A15.936,15.936,0,1,1,41.832,25.9,15.927,15.927,0,0,1,25.9,41.832Z" transform="translate(430.439 1143.507) rotate(14)" fill="#6b6969" opacity="0.81"/>
          <path id="Icon_awesome-search-2" data-name="Icon awesome-search" d="M62.873,55.116,50.46,42.7a2.986,2.986,0,0,0-2.117-.872H46.314a25.884,25.884,0,1,0-4.482,4.482v2.029A2.986,2.986,0,0,0,42.7,50.46L55.116,62.873a2.976,2.976,0,0,0,4.221,0l3.523-3.523a3,3,0,0,0,.012-4.233ZM25.9,41.832A15.936,15.936,0,1,1,41.832,25.9,15.927,15.927,0,0,1,25.9,41.832Z" transform="translate(426.389 1143.507) rotate(14)" fill="#9a9a9a"/>
        </g>
      </g>
      <path id="Icon_awesome-check" data-name="Icon awesome-check" d="M3.639,12.41.157,8.928a.536.536,0,0,1,0-.758l.758-.758a.536.536,0,0,1,.758,0L4.018,9.758,9.042,4.734a.536.536,0,0,1,.758,0l.758.758a.536.536,0,0,1,0,.758L4.4,12.41A.536.536,0,0,1,3.639,12.41Z" transform="translate(397.232 1090.315) rotate(14)" fill="#2cbf1b"/>
      <path id="Icon_awesome-check-2" data-name="Icon awesome-check" d="M3.639,12.41.157,8.928a.536.536,0,0,1,0-.758l.758-.758a.536.536,0,0,1,.758,0L4.018,9.758,9.042,4.734a.536.536,0,0,1,.758,0l.758.758a.536.536,0,0,1,0,.758L4.4,12.41A.536.536,0,0,1,3.639,12.41Z" transform="translate(394.232 1104.315) rotate(14)" fill="#2cbf1b"/>
      <path id="Icon_awesome-check-3" data-name="Icon awesome-check" d="M3.639,12.41.157,8.928a.536.536,0,0,1,0-.758l.758-.758a.536.536,0,0,1,.758,0L4.018,9.758,9.042,4.734a.536.536,0,0,1,.758,0l.758.758a.536.536,0,0,1,0,.758L4.4,12.41A.536.536,0,0,1,3.639,12.41Z" transform="translate(391.068 1121.315) rotate(14)" fill="#2cbf1b"/>
    </g>
    <g id="Grupo_876994" data-name="Grupo 876994" transform="translate(3426.711 -420.577)">
      <g id="Grupo_876995" data-name="Grupo 876995" transform="translate(-3109.211 1513.71)">
        <g id="Grupo_78300" data-name="Grupo 78300" transform="translate(100.357 71.726)">
          <path id="Trazado_113504" data-name="Trazado 113504" d="M1290.417,429.784a110.027,110.027,0,0,1-99.3,86.985,7.339,7.339,0,0,0-6.767,6.953v.006a7.349,7.349,0,0,0,7.834,7.737,124.784,124.784,0,0,0,112.653-98.695,7.341,7.341,0,0,0-6.84-8.781h0A7.335,7.335,0,0,0,1290.417,429.784Z" transform="translate(-1184.337 -423.978)" fill="#fda829"/>
        </g>
        <path id="Rectángulo_33710" data-name="Rectángulo 33710" d="M1112.558,472.737h0a5.843,5.843,0,0,1-.175,8.261l-51.622,49.476a5.843,5.843,0,0,1-8.261-.176h0a5.842,5.842,0,0,1,.175-8.261l51.622-49.476A5.843,5.843,0,0,1,1112.558,472.737Z" transform="translate(-1034.968 -369.497)" fill="#fff"/>
        <path id="Rectángulo_33712" data-name="Rectángulo 33712" d="M1062,485.652h0a5.843,5.843,0,0,1-.175,8.261l-26.2,25.112a5.843,5.843,0,0,1-8.261-.175h0a5.842,5.842,0,0,1,.175-8.261l26.2-25.112A5.843,5.843,0,0,1,1062,485.652Z" transform="translate(-1025.735 -374.24)" fill="#e26c1e"/>
        <path id="Rectángulo_33713" data-name="Rectángulo 33713" d="M1138.064,523h0a5.843,5.843,0,0,1-.175,8.261l-12.473,11.955a5.843,5.843,0,0,1-8.261-.176h0a5.842,5.842,0,0,1,.175-8.261l12.473-11.955A5.843,5.843,0,0,1,1138.064,523Z" transform="translate(-1058.711 -387.955)" fill="#fda829"/>
        <path id="Rectángulo_33716" data-name="Rectángulo 33716" d="M1313.068,312.423h0a5.843,5.843,0,0,1-.175,8.261l-35.112,33.653a5.843,5.843,0,0,1-8.261-.175h0a5.844,5.844,0,0,1,.175-8.261l35.112-33.653A5.843,5.843,0,0,1,1313.068,312.423Z" transform="translate(-1114.666 -310.623)" fill="none" stroke="#e26c1e" stroke-width="1"/>
        <g id="Grupo_78303" data-name="Grupo 78303" transform="translate(57.852 166.243)">
          <path id="Trazado_113163" data-name="Trazado 113163" d="M1119.993,574.764v6.6a1.414,1.414,0,0,1-1.414,1.414h0a1.414,1.414,0,0,1-1.415-1.414h0v-6.6a1.415,1.415,0,0,1,1.415-1.414h0A1.415,1.415,0,0,1,1119.993,574.764Z" transform="translate(-1117.164 -573.35)" fill="#133d60"/>
          <path id="Trazado_113164" data-name="Trazado 113164" d="M1129.873,574.764v6.6a1.414,1.414,0,0,1-1.414,1.414h0a1.414,1.414,0,0,1-1.415-1.414h0v-6.6a1.415,1.415,0,0,1,1.415-1.414h0A1.414,1.414,0,0,1,1129.873,574.764Z" transform="translate(-1120.792 -573.35)" fill="#133d60"/>
          <path id="Trazado_113165" data-name="Trazado 113165" d="M1139.754,574.764v6.6a1.413,1.413,0,0,1-1.413,1.414h0a1.414,1.414,0,0,1-1.415-1.414h0v-6.6a1.415,1.415,0,0,1,1.415-1.414h0a1.414,1.414,0,0,1,1.414,1.413Z" transform="translate(-1124.421 -573.35)" fill="#133d60"/>
          <path id="Trazado_113166" data-name="Trazado 113166" d="M1149.634,574.764v6.6a1.414,1.414,0,0,1-1.415,1.414h0a1.414,1.414,0,0,1-1.414-1.414h0v-6.6a1.414,1.414,0,0,1,1.414-1.414h0A1.415,1.415,0,0,1,1149.634,574.764Z" transform="translate(-1128.049 -573.35)" fill="#133d60"/>
          <path id="Trazado_113167" data-name="Trazado 113167" d="M1159.515,574.764v6.6a1.413,1.413,0,0,1-1.413,1.414h0a1.414,1.414,0,0,1-1.414-1.414h0v-6.6a1.414,1.414,0,0,1,1.414-1.414h0a1.414,1.414,0,0,1,1.415,1.413Z" transform="translate(-1131.678 -573.35)" fill="#133d60"/>
        </g>
      </g>
    </g>
  </g>
</svg>
